<svg width="264" height="236" xmlns="http://www.w3.org/2000/svg" xmlns:xlink="http://www.w3.org/1999/xlink" overflow="hidden"><defs><clipPath id="clip0"><rect x="932" y="425" width="264" height="236"/></clipPath><linearGradient x1="953" y1="503" x2="953" y2="519" gradientUnits="userSpaceOnUse" spreadMethod="reflect" id="fill1"><stop offset="0" stop-color="#6E2DDE"/><stop offset="0.82" stop-color="#3E1586"/><stop offset="1" stop-color="#3E1586"/></linearGradient></defs><g clip-path="url(#clip0)" transform="translate(-932 -425)"><path d="M1007.99 453.553C1015.85 429.645 1051.44 424.346 1080.87 425.061 1110.29 425.777 1169.39 433.163 1184.53 457.846 1199.66 482.529 1200.82 555.596 1171.67 573.159 1142.52 590.723 1036.93 583.159 1009.65 563.225 982.368 543.29 1000.08 478.236 1007.99 453.553Z" fill="#F3EFFB" fill-rule="evenodd"/><rect x="939" y="447" width="29" height="200" fill="#F2F2F2"/><path d="M947.5 466.5C947.5 463.186 950.186 460.5 953.5 460.5L953.5 460.5C956.814 460.5 959.5 463.186 959.5 466.5L959.5 626.5C959.5 629.814 956.814 632.5 953.5 632.5L953.5 632.5C950.186 632.5 947.5 629.814 947.5 626.5Z" stroke="#E2D8F4" stroke-width="1.33333" stroke-miterlimit="8" fill="#E2D8F4" fill-rule="evenodd"/><path d="M947.5 518.5C947.5 515.186 950.186 512.5 953.5 512.5L953.5 512.5C956.814 512.5 959.5 515.186 959.5 518.5L959.5 626.5C959.5 629.814 956.814 632.5 953.5 632.5L953.5 632.5C950.186 632.5 947.5 629.814 947.5 626.5Z" stroke="#531CB3" stroke-width="1.33333" stroke-miterlimit="8" fill="#531CB3" fill-rule="evenodd"/><path d="M933 506.2C933 504.433 934.433 503 936.2 503L969.8 503C971.567 503 973 504.433 973 506.2L973 515.8C973 517.567 971.567 519 969.8 519L936.2 519C934.433 519 933 517.567 933 515.8Z" fill="url(#fill1)" fill-rule="evenodd"/><path d="M973.5 460.5 1030.19 460.5" stroke="#2A2D34" stroke-width="0.666667" stroke-miterlimit="8" fill="none" fill-rule="evenodd"/><path d="M973.5 632.5 1030.19 632.5" stroke="#2A2D34" stroke-width="0.666667" stroke-miterlimit="8" fill="none" fill-rule="evenodd"/><text fill="#531CB3" font-family="Outfit Medium,Outfit Medium_MSFontService,sans-serif" font-weight="500" font-size="16" transform="translate(1042.64 457)">Mécénat<tspan font-size="16" x="0" y="19">de compétences</tspan><tspan fill="#000000" font-family="Outfit Light,Outfit Light_MSFontService,sans-serif" font-weight="300" font-size="16" x="0" y="170">Temps partiel </tspan><tspan fill="#000000" font-family="Outfit Light,Outfit Light_MSFontService,sans-serif" font-weight="300" font-size="16" x="0" y="189">bénévole</tspan></text><path d="M973.5 548.5 1030.19 548.5" stroke="#2A2D34" stroke-width="0.666667" stroke-miterlimit="8" fill="none" fill-rule="evenodd"/><text fill="#531CB3" font-family="Outfit Medium,Outfit Medium_MSFontService,sans-serif" font-weight="500" font-size="16" transform="translate(1042.64 544)">Temps partagé <tspan font-size="16" x="0" y="19">solidaire</tspan></text></g></svg>