<svg xmlns="http://www.w3.org/2000/svg" viewBox="0 0 1200 800" width="1200" height="800"><g transform="translate(160.0 62.0) rotate(0.0 257.0 259.5) scale(0.6544385960891564 0.6539200554383092)"><svg width="785.406" height="793.675" viewBox="0 0 785.406 793.675"><path d="M69.484 342.101C53.425 262.774-24.144 150.59 35.928 68.02 110.504-34.488 494.777-47.052 708.546 215.028c61.897 75.886 102.706 173.269 57.907 259.906-23.703 45.84-68.444 76.508-101.535 116.109-77.898 93.223-109.341 289.588-478.136 159.342-56.56-19.975-166.634-58.81-184.888-156.011-17.538-93.385 93.205-125.738 67.59-252.272z" fill="#EFEFEF"/></svg></g><g transform="translate(154.0 3.0) rotate(0.0 60.0 59.0) scale(0.7061855973447422 0.7061174907696083)"><svg width="169.927" height="167.111" viewBox="0 0 169.927 167.111"><path d="m167.756 121.406-8.813-85.05a24.88 24.88 0 0 0-8.041-15.902l.002-.002-.022-.017a25.22 25.22 0 0 0-3.002-2.338L131.853 5.615l-7.466 9.205-84.561 8.762c-13.725 1.422-23.698 13.7-22.276 27.425l8.778 84.719-7.894 9.733 17.26 13.67c.49.418.992.819 1.513 1.198l.03.023.001-.002a24.888 24.888 0 0 0 17.238 4.627l85.05-8.812c17.393-1.802 30.032-17.363 28.23-34.757z" fill="#531CB3"/><path d="M51.89 167.109a26.926 26.926 0 0 1-15.746-5.083 26.052 26.052 0 0 1-1.748-1.375l-17.204-13.624a2.003 2.003 0 0 1-.311-2.828l7.373-9.091-8.693-83.896c-.743-7.169 1.351-14.198 5.895-19.793C26 25.823 32.451 22.333 39.62 21.591l83.736-8.677 6.944-8.561a2 2 0 0 1 2.782-.318l15.969 12.437a27.306 27.306 0 0 1 3.204 2.507 26.935 26.935 0 0 1 8.678 17.17l8.812 85.05c1.913 18.463-11.551 35.04-30.014 36.953l-85.05 8.812c-.931.097-1.863.145-2.791.145zm-13.519-8.408.041.029a22.957 22.957 0 0 0 15.858 4.256l85.05-8.812c16.269-1.687 28.133-16.294 26.448-32.562l-8.812-85.05a22.948 22.948 0 0 0-7.397-14.629l-.024-.022a23.193 23.193 0 0 0-2.758-2.146 2.572 2.572 0 0 1-.124-.089L132.171 8.398l-6.231 7.682a1.997 1.997 0 0 1-1.347.729l-84.561 8.762c-6.106.633-11.601 3.605-15.471 8.371s-5.654 10.753-5.021 16.859l8.778 84.719a1.997 1.997 0 0 1-.436 1.466l-6.62 8.162 15.674 12.414c.532.452.984.811 1.435 1.139z" fill="#531CB3"/><path d="m126.434 143.55-83.825 8.686c-15.897 1.647-30.12-9.905-31.767-25.802L2.156 42.609c-1.647-15.897 9.905-30.12 25.802-31.767l83.825-8.686c15.897-1.647 30.12 9.905 31.767 25.802l8.686 83.825c1.647 15.898-9.905 30.12-25.802 31.767z" fill="#E2D8F4"/><g fill="#531CB3"><path d="M39.568 154.393c-7.074.001-13.88-2.405-19.447-6.927-6.415-5.21-10.417-12.606-11.268-20.826L.167 42.815C-1.591 25.846 10.784 10.611 27.752 8.852L111.577.167c8.22-.848 16.28 1.548 22.694 6.759 6.415 5.21 10.417 12.606 11.268 20.826l8.686 83.824c1.758 16.969-10.616 32.204-27.585 33.963l-83.825 8.686c-1.086.113-2.17.168-3.247.168zM114.817 4c-.938 0-1.881.049-2.827.146l-83.825 8.685C13.389 14.362 2.615 27.628 4.146 42.403l8.686 83.825c.742 7.157 4.226 13.597 9.812 18.134 5.585 4.536 12.602 6.624 19.76 5.885l83.825-8.686c14.775-1.531 25.55-14.797 24.019-29.572l-8.686-83.824c-.742-7.157-4.226-13.598-9.812-18.134C126.903 6.094 120.976 4 114.817 4zm11.617 139.55h.01z"/><path d="M125.509 58.388c-1.772-17.105-16.898-24.038-26.59-23.034-10.635 1.102-21.457 7.222-24.228 21.319-5.603-13.229-17.449-17-28.084-15.898-9.693 1.004-23.075 10.891-21.303 27.996 1.77 17.079 22.043 43.588 56.35 55.8l.007.071.068-.043.075.028-.007-.071c31.074-18.986 45.482-49.089 43.712-66.168z"/><path d="M81.661 126.641a1.99 1.99 0 0 1-1.128-.349c-20.033-7.225-33.191-18.347-40.72-26.434-9.51-10.216-15.524-21.472-16.499-30.882-1.084-10.463 3.136-17.516 6.867-21.592 4.382-4.786 10.446-8.001 16.22-8.599 11.883-1.224 21.918 3.394 27.735 12.528 3.821-10.132 12.695-16.718 24.577-17.949 10.871-1.126 26.927 6.872 28.786 24.817 1.948 18.798-14.113 49.283-44.365 67.899a2.143 2.143 0 0 1-.931.485c-.178.051-.36.076-.542.076zm-31.672-84.04c-1.217 0-2.295.071-3.177.163-4.756.492-9.999 3.298-13.682 7.321-3.177 3.47-6.769 9.493-5.838 18.479 1.531 14.772 19.356 41.107 54.207 53.823 31.503-19.591 43.55-49.021 42.02-63.794-1.591-15.351-15.189-22.201-24.395-21.251-5.707.592-19.323 3.697-22.471 19.716a2 2 0 0 1-3.804.395c-5.384-12.711-16.198-14.852-22.86-14.852z"/></g><path d="M122.65 53.096c-1.772-17.105-16.898-24.038-26.59-23.034-10.635 1.102-21.457 7.222-24.228 21.319-5.603-13.229-17.449-17-28.084-15.898-9.693 1.004-23.075 10.891-21.303 27.996 1.77 17.079 22.043 43.588 56.35 55.8l.007.071.068-.043.075.028-.007-.071c31.074-18.986 45.481-49.088 43.712-66.168z" fill="#FFC83D"/><path d="M78.802 121.349a1.99 1.99 0 0 1-1.124-.347c-20.033-7.226-33.194-18.349-40.723-26.436-9.51-10.216-15.524-21.472-16.499-30.882-1.084-10.464 3.135-17.518 6.866-21.593 4.382-4.786 10.446-8.001 16.22-8.599 11.883-1.228 21.918 3.394 27.735 12.528 3.821-10.132 12.695-16.718 24.577-17.949 10.873-1.136 26.927 6.871 28.786 24.817 1.948 18.799-14.112 49.285-44.367 67.901a2.124 2.124 0 0 1-.93.483 1.887 1.887 0 0 1-.541.077zM47.13 37.309c-1.217 0-2.295.071-3.177.163-4.756.492-9.999 3.298-13.682 7.321-3.177 3.47-6.769 9.493-5.838 18.479 1.531 14.771 19.356 41.107 54.207 53.824 31.503-19.592 43.55-49.022 42.02-63.795-1.591-15.351-15.188-22.2-24.395-21.251-5.708.592-19.323 3.697-22.471 19.716a2 2 0 0 1-3.804.395C64.606 39.45 53.792 37.309 47.13 37.309z" fill="#531CB3"/></svg></g><g transform="translate(214.0 112.0) rotate(115.1275983035766 231.0 280.0) scale(0.5547077518607324 0.5554200066253673)"><svg width="832.871" height="1008.246" viewBox="0 0 832.871 1008.246"><path d="M336.456 694.093c-14.71 26.62-56.2 72-102.82 117.47-48.87 47.66-103.38 95.41-138.62 121.75-6.84 10.05 3.25 16.17 9.44 25.4 5.23 7.8-8.21 12.44-15.26 4.06-6.84-8.14-9.04-16.74-19.37-7.89-6.48 5.55-18.48 22.21-24.48 31.14-5.35 7.96-15.84 8.64-14.94.54-6.18 9.72-16.98 7.32-14.04-1.8-8.82 4.5-12.78.48-7.74-9.6-5.04 3.6-9.12-2.64-4.8-10.8 7.01-13.24 19.56-29.17 55.56-45.84 36.66-48.16 79.11-102.55 116.99-154.8 5.3-7.31 10.51-14.59 15.61-21.79 22.68-32.09 43.02-62.88 58.51-90.36 37.18 2.74 65.61 14.74 85.96 42.52z" fill="#E2D8F4"/><path d="M196.366 753.533c-6.66 8.61-44.22 59.48-54.4 69.66-10.17 10.17-28.95 37.96-37.17 50.48s-23.87 27-45.41 44.85c36.66-48.16 79.11-102.55 116.99-154.8 5.3-7.31 10.51-14.59 15.61-21.79 4.14 4.67 6.42 8.96 4.38 11.6z" fill="#fff"/><path d="M336.454 694.09c-14.71 26.62-56.2 72-102.82 117.47h-.01c0-35.3-28.62-54.6-57.25-47.84 28.91-39.88 55.15-78.5 74.12-112.15 37.18 2.74 65.61 14.74 85.96 42.52z" fill="#fff"/><path d="M21.036 994.816c-1.204 0-2.331-.244-3.315-.706-1.915-.899-3.73-2.955-3.848-6.143-4.451 1.406-6.763.112-7.824-.941-1.377-1.366-2.457-3.968-.853-8.855a5.128 5.128 0 0 1-2.858-1.265c-2.442-2.136-3.573-7.265-.284-13.478 6.689-12.634 19.104-29.324 56.036-46.51 9.324-12.247 18.85-24.673 28.929-37.82 58.293-76.039 124.364-162.224 161.735-228.513a1.993 1.993 0 0 1 1.889-1.012c40.158 2.959 67.938 16.729 87.423 43.335a2 2 0 0 1 .137 2.149c-18.498 33.472-74.696 90.314-106.548 121.217-47.319 45.909-100.327 92.352-135.164 118.428-3.853 5.91-.908 9.922 4.578 16.433 1.708 2.027 3.474 4.123 5.041 6.458 2.381 3.549 1.917 7.349-1.184 9.681-4.309 3.242-12.273 2.722-17.261-3.217-1.37-1.63-2.57-3.292-3.629-4.759-2.37-3.283-4.242-5.875-6.383-6.131-1.599-.187-3.8.898-6.531 3.236-6.468 5.541-18.606 22.528-24.121 30.736-3.645 5.425-10.031 8.38-14.539 6.73-1.435-.526-2.531-1.466-3.229-2.713-2.641 2.523-5.598 3.66-8.197 3.66zm-4.675-12.052a2 2 0 0 1 1.903 2.614c-.813 2.522-.392 4.385 1.156 5.112 1.955.918 6.131-.025 9.292-4.999a2 2 0 0 1 3.676 1.294c-.299 2.688 1.017 3.17 1.449 3.329 2.133.785 6.744-.591 9.843-5.205 5.62-8.365 18.043-25.723 24.839-31.544 3.718-3.184 6.775-4.505 9.606-4.17 3.884.462 6.326 3.845 9.153 7.761 1.069 1.48 2.174 3.011 3.449 4.528 3.656 4.354 9.333 4.443 11.794 2.593 1.377-1.036 1.467-2.467.267-4.255-1.445-2.154-3.14-4.165-4.779-6.109-5.248-6.228-10.675-12.668-4.646-21.531a2.01 2.01 0 0 1 .457-.477c69.501-51.953 209.566-183.626 240.254-237.465-18.499-24.639-44.767-37.564-82.463-40.581-37.617 66.383-103.369 152.152-161.417 227.874-10.185 13.285-19.805 25.834-29.221 38.203a2 2 0 0 1-.751.604c-36.197 16.757-48.21 32.83-54.633 44.961-2.28 4.307-1.734 7.619-.618 8.596.737.644 1.76.161 2.488-.359a2 2 0 0 1 2.952 2.522c-2.549 5.098-2.171 7.508-1.545 8.128.714.709 3.029.612 6.587-1.204.288-.146.599-.218.909-.218z" fill="#531CB3"/><path d="M8.619 977.165a2 2 0 0 1-1.767-2.934c5.507-10.435 13.643-21.351 22.321-29.947a2.002 2.002 0 0 1 2.829.013 2.002 2.002 0 0 1-.013 2.829c-8.401 8.322-16.274 18.882-21.599 28.973a2.002 2.002 0 0 1-1.771 1.067zm7.74 9.6a2 2 0 0 1-1.689-3.069c7.231-11.434 15.694-24.46 24.626-34.352a2.001 2.001 0 0 1 2.969 2.681c-8.721 9.657-17.072 22.515-24.214 33.809a1.999 1.999 0 0 1-1.692.932zm14.041 1.799a2 2 0 0 1-1.774-2.921c4.991-9.638 11.952-19.523 22.57-32.053a2 2 0 1 1 3.052 2.586c-10.416 12.291-17.223 21.947-22.07 31.307a1.999 1.999 0 0 1-1.777 1.081zm203.227-175a2 2 0 0 1-2-2c0-15.844-6.013-29.329-16.931-37.969-10.434-8.258-24.235-11.147-37.862-7.932a2 2 0 1 1-.919-3.893c14.824-3.5 29.865-.333 41.264 8.688 11.897 9.416 18.449 24.014 18.449 41.106a2 2 0 0 1-2 2z" fill="#531CB3"/><ellipse cx="244.104" cy="766.35" fill="#531CB3" rx="6.522" ry="13.565"/><ellipse cx="274.365" cy="682.219" fill="#531CB3" rx="6.522" ry="13.565"/><ellipse cx="306.852" cy="707.944" fill="#531CB3" rx="5.282" ry="10.986"/><ellipse cx="274.438" cy="737.132" fill="#531CB3" rx="5.282" ry="10.986"/><ellipse cx="212.417" cy="736.38" fill="#531CB3" rx="5.282" ry="10.986"/><ellipse cx="247.561" cy="706.119" fill="#531CB3" rx="5.282" ry="10.986"/><path d="M475.514 45.43c-.97.46-2.01.85-3.11 1.18-16.82 5.09-33.65 21.13-37.56 33.65-11.74 10.57-22.7 25.439-36 27.39-10.88-3.11-24.23-10.91-31.99-23.79a44.365 44.365 0 0 1-4.79-11.03c12.71-20.91 39.09-46.3 72.26-60.41 12.77-5.45 26.55-9.22 40.95-10.42 3.06 1.91 5.6 4.41 7.59 7.26 8.22 11.83 6.8 29.71-7.35 36.17z" fill="#531CB3"/><path d="M398.843 109.65c-.186 0-.371-.026-.55-.077-13.83-3.953-26.224-13.18-33.153-24.681a46.387 46.387 0 0 1-5.002-11.521 2 2 0 0 1 .216-1.58c11.375-18.715 37.369-45.976 73.186-61.212C447.276 4.718 461.261 1.16 475.108.007c.426-.037.859.068 1.225.297 3.195 1.994 5.944 4.623 8.171 7.812 4.991 7.183 6.659 16.25 4.463 24.257-1.841 6.714-6.319 11.995-12.609 14.871a24.193 24.193 0 0 1-3.38 1.282c-17.003 5.146-32.74 21.169-36.226 32.331-.107.343-.304.65-.571.89-2.89 2.602-5.801 5.538-8.617 8.377-8.748 8.822-17.792 17.945-28.432 19.505a2.01 2.01 0 0 1-.29.021zm-34.611-36.529a42.455 42.455 0 0 0 4.332 9.701c9.258 15.367 25.111 21.206 30.41 22.782 9.156-1.56 17.591-10.067 25.751-18.297 2.727-2.75 5.542-5.589 8.381-8.172 4.616-13.764 22.187-29.438 38.719-34.44a20.05 20.05 0 0 0 2.832-1.073l.026-.012c6.665-3.043 9.349-8.366 10.426-12.296 1.858-6.775.368-14.788-3.888-20.913-1.784-2.555-3.954-4.69-6.456-6.35-13.199 1.176-26.537 4.609-39.657 10.208-34.47 14.663-59.578 40.682-70.876 58.862z" fill="#531CB3"/><path d="M482.864 9.26c-60.75 8.92-95.55 44.33-116.01 74.6a44.365 44.365 0 0 1-4.79-11.03c17.61-28.96 61.43-66.52 113.21-70.83 3.06 1.91 5.6 4.41 7.59 7.26z" fill="#fff"/><path d="M366.854 85.86h-.049a2.002 2.002 0 0 1-1.661-.963 46.431 46.431 0 0 1-5.005-11.526 2 2 0 0 1 .216-1.58c9.752-16.037 25.922-32.536 44.364-45.266C426.984 11.157 451.324 1.987 475.108.007c.43-.037.859.068 1.225.297 3.195 1.994 5.944 4.623 8.171 7.812a2.002 2.002 0 0 1-1.349 3.124c-47.736 7.009-86.308 31.819-114.643 73.741-.373.551-.994.88-1.657.88zm-2.622-12.738a42.504 42.504 0 0 0 2.798 6.948c28.125-40.288 65.82-64.578 112.123-72.254a23.674 23.674 0 0 0-4.388-3.764c-52.629 4.681-94.64 43.511-110.533 69.07z" fill="#531CB3"/><path d="M475.514 45.43c-28.88-1.46-37.9-18.66-41.19-33.01 12.77-5.45 26.55-9.22 40.95-10.42 3.06 1.91 5.6 4.41 7.59 7.26 8.22 11.83 6.8 29.71-7.35 36.17z" fill="#fff"/><path d="M475.513 47.43c-.034 0-.067 0-.101-.002-23.574-1.192-38.054-12.82-43.038-34.561a2.001 2.001 0 0 1 1.164-2.287c13.738-5.862 27.723-9.42 41.57-10.573.426-.037.859.068 1.225.297 3.195 1.994 5.944 4.623 8.171 7.812 4.991 7.183 6.659 16.25 4.463 24.257-1.842 6.719-6.325 12.002-12.623 14.877a2.002 2.002 0 0 1-.831.181zM436.67 13.603c4.877 18.843 17.473 28.601 38.448 29.802 6.347-3.073 8.937-8.249 9.991-12.092 1.858-6.775.368-14.788-3.888-20.913-1.784-2.555-3.954-4.69-6.456-6.35-12.676 1.129-25.479 4.34-38.095 9.552zm35.665 76.582c-2.139 0-4.451-.639-6.76-1.909-9.504-5.228-19.208-7.142-30.535-6.025a2 2 0 0 1-1.411-3.579c13.854-10.592 27.331-12.767 40.059-6.462 4.46 2.209 7.125 5.651 7.313 9.441.145 2.938-1.256 5.622-3.748 7.179-1.448.905-3.122 1.355-4.917 1.355zm-30.499-12.24c9.199.107 17.494 2.331 25.667 6.826 2.939 1.617 5.721 1.86 7.629.667a3.953 3.953 0 0 0 1.873-3.59c-.114-2.3-1.97-4.507-5.093-6.054-9.51-4.711-19.602-3.983-30.076 2.151zM829.924 95.51c-4.49 13.21-23.88 18.08-33.52 14.1-2.83-1.17-5.65-2.25-8.47-3.22-15.09-5.25-29.74-7.51-41.61-4.21-14.87 5.47-36 6.26-46.18 2.34-12.06-14.084-10.11-40.55-8.21-44.17 15.25-15.26 77.74-23.37 115.28-1.18 3.86 2.28 7.46 4.88 10.72 7.83 12.2 11.05 14.6 20.85 11.99 28.51z" fill="#531CB3"/><path d="M804.152 112.951c-3.144 0-6.084-.49-8.512-1.492a145.56 145.56 0 0 0-8.357-3.177c-16.303-5.672-29.875-7.082-40.348-4.196-14.868 5.445-36.603 6.5-47.511 2.301a1.996 1.996 0 0 1-.8-.566c-12.465-14.557-10.84-41.869-8.462-46.4.094-.178.214-.342.356-.484 8.054-8.059 27.912-14.032 50.592-15.217 25.631-1.342 50.094 3.665 67.121 13.729 4.065 2.401 7.781 5.116 11.044 8.069 14.513 13.145 14.831 23.916 12.542 30.637-1.965 5.781-6.745 10.642-13.461 13.688-4.518 2.049-9.581 3.109-14.204 3.109zm-45.629-14.315c8.778 0 18.837 1.959 30.068 5.866 2.758.948 5.566 2.016 8.577 3.26 4.959 2.048 12.994 1.406 19.536-1.562 5.698-2.585 9.721-6.609 11.326-11.333 2.729-8.011-1.227-17.134-11.439-26.384-3.063-2.772-6.561-5.326-10.395-7.59-37.589-22.219-98.154-13.224-112.597.626-1.403 3.684-3.165 28.063 7.736 41.311 10.163 3.636 30.651 2.493 44.297-2.526a2.15 2.15 0 0 1 .155-.05c3.881-1.079 8.132-1.618 12.735-1.618z" fill="#531CB3"/><path d="M829.924 95.51c-33.15-48.37-101.389-44.192-139.399-24.012.122-3.321.309-7.066 1.409-11.148 16.82-16.83 91.1-24.96 126 6.65 12.2 11.05 14.6 20.85 11.99 28.51z" fill="#fff"/><path d="M829.923 97.51a2.001 2.001 0 0 1-1.649-.869C795.362 48.618 727.18 54.302 691.463 73.265a2 2 0 0 1-2.937-1.84c.131-3.582.353-7.427 1.476-11.595.091-.338.269-.646.517-.894 9.034-9.039 32.189-15.238 57.62-15.426 29.555-.224 55.454 7.803 71.138 22.007 14.513 13.146 14.83 23.917 12.54 30.638a2 2 0 0 1-1.894 1.355zM750.37 55.251c3.997 0 7.962.183 11.867.556 19.981 1.909 47.325 9.568 66.612 34.808.355-6.919-3.811-14.482-12.258-22.133-14.747-13.356-39.22-20.977-67.274-20.977-.383 0-.764.001-1.149.004-23.706.175-45.933 5.864-54.44 13.885-.588 2.339-.871 4.56-1.03 6.751 17-8.316 37.691-12.895 57.672-12.895z" fill="#531CB3"/><path d="M829.924 95.51c-4.49 13.21-23.88 18.08-33.52 14.1-2.83-1.17-5.65-2.25-8.47-3.22-3.61-13.68-5.11-33.84 19.28-47.22 3.86 2.28 7.46 4.88 10.72 7.83 12.2 11.05 14.6 20.85 11.99 28.51z" fill="#fff"/><path d="M804.152 112.951c-3.144 0-6.084-.49-8.512-1.492a145.56 145.56 0 0 0-8.357-3.177 1.999 1.999 0 0 1-1.283-1.381c-5.871-22.243.943-38.892 20.251-49.484a1.999 1.999 0 0 1 1.979.031c4.065 2.401 7.782 5.116 11.045 8.069 14.513 13.145 14.831 23.916 12.542 30.637-1.965 5.781-6.745 10.642-13.461 13.688-4.518 2.049-9.581 3.109-14.204 3.109zm-14.547-8.096c2.437.86 4.921 1.815 7.563 2.907 4.959 2.048 12.994 1.406 19.536-1.562 5.698-2.585 9.721-6.609 11.326-11.333 2.729-8.011-1.227-17.134-11.439-26.384-2.8-2.534-5.962-4.885-9.413-7-16.672 9.564-22.428 23.77-17.573 43.372zm-23.636 39.698a7.994 7.994 0 0 1-3.71-.923c-3.318-1.732-5.3-5.505-5.436-10.35-.238-8.442-1.378-18.398-11.964-29.74a2 2 0 0 1 2.245-3.205c18.372 7.818 26.65 17.33 27.681 31.805.353 4.965-1.264 9.006-4.438 11.087a7.964 7.964 0 0 1-4.378 1.326zm-12.607-36.757c6.063 9.075 7.238 17.507 7.459 25.372.095 3.354 1.293 5.875 3.289 6.917a3.953 3.953 0 0 0 4.044-.203c1.926-1.263 2.889-3.981 2.641-7.458-.765-10.746-5.944-18.245-17.433-24.628z" fill="#531CB3"/><path d="M778.509 133.475a8.486 8.486 0 0 1-1.699-.171c-3.562-.727-6.224-3.633-7.306-7.975-2.123-8.524-9.296-14.901-23.984-21.322a2 2 0 0 1 .802-3.833c20.461 0 33.895 5.892 39.927 17.513 2.258 4.35 2.126 8.735-.362 12.032-1.797 2.381-4.566 3.755-7.377 3.755zm-22.559-28.788c10.123 5.692 15.483 11.838 17.436 19.675.704 2.827 2.204 4.61 4.223 5.022 1.825.371 3.867-.461 5.085-2.074 1.522-2.017 1.524-4.852.004-7.779-4.327-8.336-13.306-13.31-26.748-14.844z" fill="#531CB3"/><path d="M733.416 352.753c-33.89 106.56-105.04 205.58-208.74 312.53 0 0-.8-5.71-3.33-15.23-8.91-33.68-39.41-115.07-132.46-160.22 140.19-164.07 82.07-287.61 30.09-358.48-6.78-9.25-13.63-17.2-20.13-23.7 0-14.87 14.09-28.69 36-27.39 9.72 5.69 18.78 12.12 27.24 19.18 103.26 86.22 115.1 266.33 94.85 331.43 25.37-25.59 47.88-53.75 67.09-83.46a513.94 513.94 0 0 0 19.31-32.36c31.91-58.19 51.47-120.61 55.88-180.27.76-10.18 1.07-20.28.93-30.26 9-9 28.76-11.34 46.18-2.34 2.11 11.13 3.86 22.19 5.25 33.18 9.95 78.23 3.49 149.35-18.16 217.39z" fill="#E2D8F4"/><path d="M733.416 352.753c-33.89 106.56-105.04 205.58-208.74 312.53 0 0-.8-5.71-3.33-15.23 30.01-26.18 49.21-52.82 61.61-75.56 7.27-13.34 15.28-50.32 19.97-74 4.7-23.68 21.76-38.55 26.45-8.84 4.7 29.71 23.64-5.24 31.99-23.5 4.36-9.55 13.66-29.94 14.43-35.48 2.26-16.18 12.96-30.52 13.74-9.39.69 18.67 30.91-42.09 43.88-70.53zm18.158-217.393c-14.39-9.97-39.69-9.71-52.35-.57l-.01-.01c.76-10.18 1.07-20.28.93-30.26 9-9 28.76-11.34 46.18-2.34 2.11 11.13 3.86 22.19 5.25 33.18zm-289.49-35.92c-24.68 1.96-36.37 18.39-42.63 31.69l-.48.22c-6.78-9.25-13.63-17.2-20.13-23.7 0-14.87 14.09-28.69 36-27.39 9.72 5.689 18.78 12.12 27.24 19.18z" fill="#fff"/><path d="M524.669 667.279a2 2 0 0 1-1.98-1.723c-.041-.292-4.313-29.584-23.004-65.506-17.222-33.099-50.576-78.778-111.671-108.423a1.997 1.997 0 0 1-.647-3.098c161.986-189.583 61-328.524 10.063-379.46a2 2 0 0 1-.586-1.414c0-7.415 3.171-14.486 8.928-19.911 7.219-6.802 17.59-10.167 29.19-9.477.314.019.62.112.892.271 30.272 17.72 56.176 43.709 76.994 77.245 17.98 28.966 31.885 62.969 41.329 101.066 16.709 67.407 15.328 131.647 6.733 167.086 86.335-89.823 138.769-211.515 137.239-319.381a2.004 2.004 0 0 1 .586-1.443c9.002-9.003 29.608-12.479 48.506-2.71.546.282.932.8 1.046 1.404 10.186 53.669 12.725 103.725 7.763 153.029-4.84 48.101-16.695 94.146-36.242 140.766-35.93 85.696-97.48 171.832-193.702 271.074a1.999 1.999 0 0 1-1.436.608zM392.075 489.166c60.67 30.177 93.953 75.921 111.233 109.183 14.96 28.797 20.817 53.453 22.644 62.728 192.176-199.111 255.587-360.964 218.587-557.561-16.605-8.186-34.236-5.57-42.38 1.852.626 54.344-12.215 113.164-37.157 170.174-25.186 57.568-62.065 111.767-106.651 156.737a2 2 0 0 1-3.33-2.002c10.193-32.762 13.061-100.708-4.727-172.468-14.212-57.332-45.875-134.274-116.044-175.576-10.3-.511-19.424 2.474-25.735 8.421-4.734 4.461-7.433 10.182-7.656 16.188 23.813 23.962 64.647 73.923 75.542 143.164 12.286 78.083-16.086 158.539-84.326 239.16z" fill="#531CB3"/><path d="M556.93 430.871c-16.239 16.239-42.652 36.783-50.87 43.435-12.13-8.609-20.5-13.523-31.457-17.045 9.109-14.912 29.543-14.513 46.326-19.738 20.739-6.457 32.277-18.303 28.957-42.652-3.522-25.826 4.304-39.522 14.631-55.943.646 19.555 1.412 60.639-7.588 91.943z" fill="#531CB3"/><path d="M506.061 476.306a1.99 1.99 0 0 1-1.157-.369c-11.42-8.104-19.729-13.177-30.912-16.772a2.002 2.002 0 0 1-1.095-2.947c7.142-11.691 20.677-14.537 33.767-17.289 4.576-.962 9.307-1.957 13.671-3.315 21.952-6.834 30.455-19.316 27.57-40.472-3.498-25.655 3.636-39.335 14.92-57.278a2 2 0 0 1 3.692.999c.483 14.619 1.954 59.105-7.665 92.562a2.011 2.011 0 0 1-.508.862c-13.997 13.997-35.127 30.868-46.479 39.932-1.831 1.462-3.374 2.694-4.546 3.643a2 2 0 0 1-1.258.446zm-28.313-20.093c10.01 3.553 18.184 8.516 28.233 15.588.971-.78 2.109-1.688 3.388-2.709 11.191-8.936 31.939-25.502 45.78-39.27 8.13-28.706 8.039-65.721 7.57-84.157-8.736 14.616-13.793 27.358-10.852 48.936 3.158 23.158-6.484 37.404-30.343 44.832-4.545 1.415-9.371 2.429-14.038 3.411-11.899 2.502-23.187 4.875-29.739 13.369z" fill="#531CB3"/><path d="M525.628 408.617a2 2 0 0 1-1.973-2.343c10.076-58.024 7.62-117.773-7.103-172.788-11.535-43.107-30.937-82.921-51.899-106.505a1.999 1.999 0 1 1 2.989-2.657c21.676 24.385 40.911 63.796 52.774 108.128 14.871 55.572 17.354 115.915 7.18 174.506a2 2 0 0 1-1.968 1.658zM576.32 561.48a2 2 0 0 1-1.568-3.24c2.126-2.692 4.316-5.454 6.562-8.286 56.918-71.79 152.181-191.944 155.182-356.25.02-1.104.9-2 2.036-1.963a2 2 0 0 1 1.963 2.036c-3.025 165.657-98.814 286.475-156.046 358.662a5689.625 5689.625 0 0 0-6.558 8.281c-.395.5-.98.76-1.571.76zM419.45 133.133a2 2 0 0 1-1.808-2.852c9.511-20.21 24.409-31.258 44.28-32.835a2 2 0 0 1 .317 3.987c-18.594 1.476-31.998 11.47-40.978 30.551a2 2 0 0 1-1.811 1.149zm332.133 4.234c-.393 0-.79-.115-1.137-.356-13.342-9.245-37.667-9.534-50.054-.596a2 2 0 0 1-2.34-3.243c13.813-9.968 39.872-9.704 54.673.551a2 2 0 0 1-1.141 3.644z" fill="#531CB3"/><path d="M674.986 351.613c-3.27 6.63-9.93 10.47-16.86 10.47-2.79 0-5.63-.62-8.3-1.94l-25.8-12.73a513.94 513.94 0 0 0 19.31-32.36l23.11 11.4c9.3 4.59 13.13 15.85 8.54 25.16z" fill="#531CB3"/><path d="M658.126 364.083c-3.213 0-6.304-.722-9.186-2.147l-25.798-12.729a1.997 1.997 0 0 1-.793-2.88 514.586 514.586 0 0 0 19.235-32.234 2 2 0 0 1 2.639-.833l23.11 11.4c10.277 5.072 14.516 17.56 9.449 27.838-3.524 7.146-10.672 11.586-18.654 11.586zm-31.204-17.471 23.789 11.738a16.6 16.6 0 0 0 7.415 1.733c6.447 0 12.221-3.584 15.067-9.355 4.092-8.3.668-18.385-7.632-22.482l-21.395-10.554a518.276 518.276 0 0 1-17.245 28.919z" fill="#531CB3"/><path d="M527.024 662.61c-.72.96-1.5 1.85-2.35 2.67-2.35 2.27-4.7 4.53-7.06 6.79-42.81 40.93-77.076 66.46-131.466 106.019 0 0-62.404-69.625-123.974-137.965 76.7-108.52 79.63-160.734 137.02-160.734 88.56 0 156.59 145.11 127.83 183.22z" fill="#fff"/><g fill="#531CB3"><path d="M386.149 780.089a1.996 1.996 0 0 1-1.49-.665c-.624-.696-63.107-70.405-123.971-137.961a2 2 0 0 1-.147-2.493c24.853-35.163 41.942-64.399 55.674-87.89 28.68-49.063 43.075-73.69 82.979-73.69 23.299 0 47.248 10.075 69.259 29.137 18.845 16.32 36.132 39.177 48.677 64.361 19.409 38.963 24.027 76.304 11.494 92.922a24.373 24.373 0 0 1-2.562 2.909 2516.896 2516.896 0 0 1-7.065 6.795c-43.36 41.456-78.283 67.36-131.673 106.192a1.996 1.996 0 0 1-1.175.383zm-121.42-140.117A83218.483 83218.483 0 0 1 386.432 775.41c52.436-38.148 87.021-63.885 129.8-104.785 2.357-2.257 4.705-4.515 7.053-6.783a20.31 20.31 0 0 0 2.14-2.432l.004-.005c11.646-15.433 6.873-51.092-11.878-88.734-20.976-42.109-63.512-91.281-114.355-91.281-37.609 0-50.745 22.472-79.526 71.709-13.6 23.266-30.486 52.153-54.938 86.874z"/><ellipse cx="486.191" cy="665.915" rx="6.522" ry="13.565"/><ellipse cx="464.276" cy="608.784" rx="6.522" ry="13.565"/><ellipse cx="425.795" cy="643.741" rx="6.522" ry="13.565"/><ellipse cx="325.887" cy="607.568" rx="6.522" ry="13.565"/><ellipse cx="409.104" cy="523.917" rx="6.522" ry="13.565"/><ellipse cx="370.756" cy="499.219" rx="6.522" ry="13.565"/><ellipse cx="451.887" cy="689.161" rx="5.282" ry="10.986"/><ellipse cx="502.495" cy="626.002" rx="5.282" ry="10.986"/><path d="M527.024 662.61c-.72.96-1.5 1.85-2.35 2.67-2.35 2.27-4.7 4.53-7.06 6.79-.58-1.76-.91-3.88-.91-6.16 0-6.06 2.37-10.98 5.29-10.98 2.36 0 4.36 3.23 5.03 7.68z"/><ellipse cx="491.472" cy="572.784" rx="5.282" ry="10.986"/><ellipse cx="429.452" cy="572.032" rx="5.282" ry="10.986"/><ellipse cx="387.777" cy="604.989" rx="5.282" ry="10.986"/><ellipse cx="368.203" cy="557.654" rx="5.282" ry="10.986"/><ellipse cx="457.168" cy="541.771" rx="5.282" ry="10.986"/><ellipse cx="445.168" cy="502.641" rx="5.282" ry="10.986"/><path d="M429.976 721.483c9-16.435 17.031-26.487 32.474-29.769 21.522-4.575 27.967-14.648 37.564-21.913 9-6.813 19.189-6.302 24.66-4.521-17.155 16.305-95.479 86.098-138.526 112.809 9.35-30.039 34.829-35.476 43.829-56.606z"/><path d="M386.148 780.089a2 2 0 0 1-1.91-2.594c5.425-17.428 16.284-26.981 25.864-35.41 7.34-6.457 14.272-12.556 18.034-21.386.025-.061.054-.12.085-.177 9.255-16.9 17.754-27.352 33.812-30.765 16.08-3.418 23.329-9.877 30.34-16.123 2.147-1.912 4.174-3.719 6.434-5.429 9.171-6.943 20-6.94 26.486-4.828a2.002 2.002 0 0 1 .759 3.351c-17.266 16.409-95.87 86.39-138.849 113.059a2 2 0 0 1-1.055.301zm45.629-57.731c-4.124 9.615-11.366 15.986-19.032 22.73-8.504 7.482-17.265 15.19-22.704 28.145 41.491-27.151 109.846-87.585 130.537-106.849-5.524-.803-12.896.12-19.356 5.01-2.132 1.614-4.102 3.369-6.187 5.227-7.056 6.286-15.052 13.41-32.169 17.048-14.605 3.105-22.204 12.48-31.089 28.689z"/></g><path d="m316.887 704.654-39.13-28.565c-7.696 15.13-61.174 26.609-84.13-29.739-25.688-63.053 53.609-108 87.652-66.326 7.502 9.183 6.848 27-4.304 35.804 12.522 8.707 33.803 17.301 46.467 21.13 41.837 11.217 22.633 67.043-6.554 67.696z" fill="#E2D8F4"/><path d="M316.886 706.654c-.423 0-.836-.134-1.179-.385l-37.397-27.3c-5.336 7.208-18.598 12.037-32.273 11.462-11.199-.468-38.905-5.628-54.264-43.327-14.002-34.368 2.474-63.259 25.014-76.645 10.825-6.429 23.093-9.413 34.532-8.402 12.597 1.113 23.492 6.888 31.508 16.701 4.098 5.016 6.054 12.496 5.234 20.008-.729 6.677-3.479 12.56-7.822 16.843 13.144 8.503 33.063 16.194 43.782 19.435 18.009 4.827 27.5 18.489 25.329 36.526-1.995 16.569-14.956 34.693-32.417 35.083h-.045zm-39.13-32.565c.42 0 .833.132 1.179.385l38.57 28.156c14.986-.789 26.103-16.841 27.872-31.537 1.912-15.882-6.482-27.92-22.455-32.202-11.619-3.513-33.682-12.097-47.091-21.42a2 2 0 0 1-.097-3.212c4.665-3.683 7.631-9.339 8.35-15.927.707-6.469-.922-12.84-4.355-17.043-16.551-20.26-42.512-18.311-60.899-7.39-21.065 12.511-36.456 39.532-23.352 71.697 13.963 34.272 37.775 40.298 50.727 40.84 14.724.612 26.709-5.238 29.769-11.253a2 2 0 0 1 1.782-1.093z" fill="#531CB3"/><path d="M277.756 676.089c8.217-9.652 9.261-25.266 7.435-32.589s5.598 2.313 5.478 10.676c-.261 18.261 6.261 19.826-.606 30.897-5.134-4.289-12.307-8.984-12.307-8.984z" fill="#531CB3"/><path d="M290.064 687.073c-.465 0-.92-.163-1.282-.465-4.982-4.162-12.05-8.8-12.121-8.846a1.997 1.997 0 0 1-.427-2.969c7.418-8.714 8.842-23.491 7.018-30.809-.441-1.767-.674-3.544.591-4.57.721-.585 1.685-.675 2.575-.242 2.478 1.202 6.345 8.57 6.252 15.033-.102 7.106.851 11.578 1.616 15.171 1.168 5.481 2.012 9.441-2.522 16.752a2.003 2.003 0 0 1-1.699.945zm-9.403-11.447c2.079 1.411 5.611 3.871 8.838 6.416 2.411-4.623 1.859-7.213.875-11.833-.807-3.789-1.812-8.505-1.704-16.062.024-1.674-.284-3.363-.745-4.911.281 7.879-1.578 18.542-7.264 26.39zm204.615-344.403c0 49.39-65.93 90.62-101.6 122.52-8.51 7.61-15.29 14.69-19.05 21.22-1.2 2.08-2.27 4.11-3.22 6.1-16.88 35.12 1.74 57.39-8.39 91.46-9.54 32.11-54.49 54.98-76.04 43.3.65-3.13 2.22-19.04-2.94-23.96-5.15-4.93-13.52-1.68-13.7 9.62-.38 23.34-32.67 27.84-46.1 20.61-1.04 18-14.74 43.82-45.46 43.82-33.65 0-39.32-29.54-31.69-46.76 8.07-18.23 32.23-28.45 32.87-43.04 1.13-26.2-47.94-36.59-46.37-81.98 1.96-56.91 70.34-57.58 115.13-98.5 4.55-4.15 8.85-8.72 12.82-13.81 10.12-12.96 12.78-26.27 14.23-39.92 1.68-15.8 1.73-32.06 9.77-48.77 15.83-32.89 52.83-59.22 107.09-59.22 55.96 0 102.65 42 102.65 97.31z" fill="#531CB3"/><path d="M168.776 667.913c-17.903 0-26.868-8.002-31.235-14.715-7.285-11.196-6.396-25.573-2.283-34.855 3.933-8.884 11.542-15.961 18.256-22.206 7.587-7.056 14.139-13.151 14.444-20.112.45-10.419-8.068-18.428-17.931-27.701-13.082-12.299-29.361-27.605-28.439-54.261 1.279-37.131 30.583-51.42 61.607-66.548 18.62-9.08 37.874-18.468 54.173-33.359 4.63-4.223 8.866-8.786 12.592-13.563 9.305-11.916 12.254-24.169 13.818-38.901.29-2.726.536-5.528.774-8.237 1.17-13.3 2.38-27.052 9.182-41.189 18.189-37.791 58.896-60.353 108.892-60.353 27.842 0 54.006 10.104 73.675 28.451 19.975 18.634 30.976 43.798 30.976 70.859 0 40.573-43.451 75.772-78.364 104.056-8.682 7.033-16.883 13.677-23.903 19.955-9.444 8.445-15.37 15.031-18.65 20.727a86.745 86.745 0 0 0-3.148 5.963c-9.069 18.868-7.641 33.726-6.128 49.456 1.231 12.81 2.505 26.056-2.15 41.712-5.245 17.654-21.816 34.521-42.216 42.97-14.228 5.892-27.602 6.446-36.694 1.518a2 2 0 0 1-1.005-2.165c.829-3.995 1.695-18.238-2.362-22.106-1.681-1.609-3.814-2.095-5.709-1.304-2.811 1.174-4.535 4.729-4.611 9.508-.142 8.736-4.414 15.813-12.354 20.469-10.717 6.283-25.131 6.433-34.016 3.079-2.25 17.674-16.251 42.851-47.19 42.851zm213.85-432c-48.422 0-87.782 21.715-105.288 58.087-6.486 13.479-7.663 26.863-8.802 39.805-.24 2.727-.488 5.547-.782 8.309-1.637 15.415-4.754 28.276-14.643 40.939-3.863 4.953-8.253 9.683-13.048 14.057-16.724 15.279-36.242 24.796-55.116 34-31.211 15.219-58.167 28.363-59.362 63.091-.86 24.845 14.038 38.851 27.181 51.208 10.139 9.533 19.716 18.537 19.188 30.789-.377 8.6-7.828 15.53-15.716 22.867-6.746 6.274-13.722 12.762-17.323 20.896-3.675 8.295-4.489 21.114 1.979 31.054 5.489 8.437 15.131 12.896 27.882 12.896 29.898 0 42.526-25.722 43.463-41.936a1.999 1.999 0 0 1 2.945-1.645c7.478 4.026 22.432 4.264 32.774-1.8 4.652-2.728 10.228-7.905 10.378-17.082.102-6.418 2.744-11.328 7.068-13.134 3.356-1.403 7.194-.597 10.014 2.102 5.607 5.346 4.344 19.537 3.739 24.259 8.007 3.665 19.574 2.849 32.028-2.31 19.331-8.006 34.997-23.87 39.913-40.415 4.433-14.91 3.197-27.761 2.002-40.19-1.498-15.584-3.047-31.698 6.502-51.567a91.312 91.312 0 0 1 3.29-6.233c3.498-6.075 9.679-12.974 19.45-21.711 7.092-6.343 15.33-13.016 24.051-20.081 34.253-27.749 76.882-62.282 76.882-100.948 0-53.445-44.211-95.31-100.65-95.31z" fill="#531CB3"/><ellipse cx="245.173" cy="640.124" fill="#fff" rx="12.146" ry="6.804" transform="matrix(.79760498 -.60318015 .60318015 .79760498 -336.488 277.44)"/><path d="M239.804 651.244c-2.568 0-4.633-.893-5.915-2.587-2.978-3.937-.354-10.77 5.972-15.554 6.326-4.785 13.615-5.448 16.593-1.51 1.552 2.052 1.659 4.891.302 7.992-1.19 2.717-3.418 5.403-6.274 7.563s-6.047 3.572-8.985 3.977c-.585.081-1.15.12-1.693.12zm10.734-18.235c-2.213 0-5.311 1.051-8.264 3.283-4.632 3.503-6.563 8.143-5.195 9.951.631.834 2.041 1.168 3.872.917 2.238-.308 4.833-1.476 7.118-3.205 2.286-1.728 4.116-3.907 5.022-5.977.741-1.691.803-3.14.172-3.975-.496-.656-1.468-.995-2.726-.995z" fill="#531CB3"/><ellipse cx="238.202" cy="645.396" fill="#531CB3" rx="3.406" ry="3.272" transform="matrix(.79760498 -.60318015 .60318015 .79760498 -341.078 274.303)"/><path d="M238.079 650.715c-1.6 0-3.167-.708-4.189-2.058-1.753-2.319-1.246-5.668 1.132-7.466s5.739-1.374 7.493.944c1.753 2.319 1.246 5.668-1.132 7.466a5.473 5.473 0 0 1-3.304 1.114zm.252-6.641a1.49 1.49 0 0 0-.896.307c-.619.468-.777 1.303-.354 1.863s1.271.635 1.889.167c.619-.468.777-1.303.354-1.863a1.225 1.225 0 0 0-.993-.474z" fill="#531CB3"/><ellipse cx="211.716" cy="668.103" fill="#fff" rx="12.146" ry="6.804" transform="matrix(.79760498 -.60318015 .60318015 .79760498 -360.135 262.923)"/><path d="M206.383 679.201c-2.515 0-4.645-.842-5.949-2.566-2.978-3.937-.354-10.77 5.972-15.554 6.327-4.784 13.615-5.448 16.593-1.51 2.978 3.938.354 10.77-5.972 15.554-3.557 2.689-7.417 4.077-10.645 4.077zm10.7-18.214c-2.213 0-5.311 1.051-8.264 3.283-4.632 3.503-6.563 8.143-5.195 9.951 1.367 1.808 6.358 1.214 10.99-2.288 4.631-3.502 6.562-8.143 5.194-9.951-.496-.656-1.468-.995-2.726-.995z" fill="#531CB3"/><ellipse cx="206.129" cy="672.603" fill="#531CB3" rx="3.406" ry="3.272" transform="matrix(.79760498 -.60318015 .60318015 .79760498 -363.981 260.464)"/><path d="M206.006 677.923c-1.601 0-3.167-.708-4.189-2.058-1.753-2.319-1.246-5.668 1.132-7.466 2.377-1.797 5.738-1.375 7.493.944 1.753 2.319 1.246 5.668-1.132 7.466a5.467 5.467 0 0 1-3.304 1.114zm.252-6.641a1.49 1.49 0 0 0-.896.307c-.619.468-.777 1.303-.354 1.863s1.271.634 1.889.167c.619-.468.777-1.303.354-1.863a1.225 1.225 0 0 0-.993-.474zm59.369-3.954a2 2 0 0 1-1.226-3.582c5.073-3.927 5.715-11.769 3.656-14.938a2 2 0 0 1 3.354-2.18c2.953 4.543 2.644 14.702-4.562 20.281a1.99 1.99 0 0 1-1.223.418zm-39.693-30.42a2 2 0 0 1-1.69-3.068c4.707-7.464 12.295-13.052 20.819-15.33a1.999 1.999 0 1 1 1.033 3.864c-7.562 2.021-14.293 6.978-18.469 13.599-.38.603-1.03.933-1.694.933zm-33.026 30.372a2 2 0 0 1-1.939-2.498c2.224-8.666 9.984-15.442 18.872-16.476a2 2 0 0 1 .463 3.973c-7.165.834-13.667 6.511-15.46 13.498a2 2 0 0 1-1.936 1.503zm43.118 11.474c-.364 0-.731-.03-1.099-.09-2.33-.381-4.289-1.971-5.112-4.149-.941-2.49-.291-5.373 1.785-7.91a1.999 1.999 0 1 1 3.095 2.533c-1.164 1.422-1.568 2.829-1.14 3.963.32.846 1.093 1.465 2.017 1.616 1.094.18 2.186-.318 3.071-1.4a1.999 1.999 0 1 1 3.095 2.532c-1.539 1.882-3.577 2.905-5.713 2.905z" fill="#531CB3"/><path d="M313.896 366.513c-23.23.76-21.52 8.92-13.84 10.2 14.09 2.35 14.68 17.8-2.15 19.37-18.43 1.72-41.65 2.03-59.19-.45 4.55-4.15 8.85-8.72 12.82-13.81 10.12-12.96 12.78-26.27 14.23-39.92 19.91 1.23 42.04-.22 55.42-.54 21.91-.52 22.31 24.2-7.29 25.15z" fill="#E2D8F4"/><path d="M268.38 399.424c-10.234 0-20.724-.507-29.943-1.811a1.999 1.999 0 0 1-1.068-3.458c4.629-4.222 8.865-8.785 12.59-13.563 9.305-11.916 12.254-24.169 13.818-38.901a1.981 1.981 0 0 1 2.112-1.785c15.128.934 31.401.318 44.475-.179 3.916-.148 7.614-.289 10.774-.365 11.967-.281 17.628 6.261 17.802 12.464.213 7.642-7.514 16.123-24.979 16.685-13.942.456-16.989 3.528-17.042 4.325-.025.373.97 1.487 3.465 1.903 8.623 1.438 12.364 7.208 12.193 11.959-.168 4.64-4.062 10.403-14.486 11.375-8.427.786-18.927 1.349-29.712 1.349zm-25.216-5.246c17.892 2 39.545 1.314 54.556-.087 7.841-.731 10.75-4.517 10.86-7.537.11-3.06-2.613-6.828-8.853-7.869-4.262-.71-6.994-3.167-6.799-6.113.183-2.76 3.142-7.478 20.902-8.059h.001c14.076-.452 21.274-6.668 21.109-12.575-.119-4.285-4.456-8.799-13.708-8.576-3.131.075-6.816.215-10.717.363-12.62.479-28.198 1.071-42.972.283-1.695 14.581-4.951 26.904-14.432 39.045a112.83 112.83 0 0 1-9.948 11.124z" fill="#531CB3"/><path d="M383.676 453.743c-8.51 7.61-15.29 14.69-19.05 21.22-1.2 2.08-2.27 4.11-3.22 6.1h-33.99c-7.55 0-13.66-6.12-13.66-13.66 0-3.78 1.53-7.19 4-9.66s5.89-4 9.66-4z" fill="#E2D8F4"/><path d="M361.406 483.063h-33.99c-8.635 0-15.66-7.025-15.66-15.66 0-4.185 1.628-8.117 4.586-11.074a15.559 15.559 0 0 1 11.074-4.586h56.26a2 2 0 0 1 1.333 3.491c-9.444 8.445-15.37 15.031-18.65 20.727a86.745 86.745 0 0 0-3.148 5.963 2 2 0 0 1-1.805 1.139zm-33.99-27.32c-3.116 0-6.044 1.212-8.246 3.414s-3.414 5.13-3.414 8.246c0 6.429 5.23 11.66 11.66 11.66h32.74a92.373 92.373 0 0 1 2.738-5.099c3.019-5.242 8.035-11.099 15.633-18.221h-51.11z" fill="#531CB3"/><path d="M153.468 644.837c-.654 0-1.295-.32-1.678-.909-3.623-5.567-3.24-13.62-.991-18.697 2.523-5.699 8.505-11.263 14.29-16.644a2 2 0 1 1 2.724 2.929c-5.49 5.106-11.166 10.386-13.357 15.334-1.793 4.048-2.027 10.726.686 14.896a2 2 0 0 1-1.674 3.091zm289.871-368.579c-.489 0-.978-.178-1.364-.538-15.767-14.707-36.844-22.807-59.35-22.807-20.984 0-40.439 4.652-56.263 13.452a2 2 0 0 1-1.944-3.496c16.417-9.131 36.544-13.957 58.208-13.957 23.522 0 45.568 8.481 62.078 23.882a2 2 0 0 1-1.365 3.463zM174.833 454.989a1.999 1.999 0 0 1-.94-3.767 409.598 409.598 0 0 1 9.946-5.083 2 2 0 1 1 1.779 3.583 401.743 401.743 0 0 0-9.849 5.033c-.299.159-.62.234-.936.234zm-11.793 81.493c-.491 0-.983-.18-1.37-.543-12.744-11.981-23.75-22.329-23.094-41.288.498-14.432 6.392-24.62 19.709-34.065a2 2 0 0 1 2.315 3.262c-12.348 8.758-17.57 17.722-18.025 30.941-.593 17.148 9.801 26.92 21.836 38.236a2 2 0 0 1-1.371 3.457zm266.936 185.001c-20.37 37.8-59 82.83-100.74 122.57-39.49 37.59-81.76 70.45-113.97 87.95 4.7 22.44-9.8 27.84-11.72 32.09-3.42 7.55-8.61 19.37-11.42 30.26-3 11.6-13.65 9.97-9.98-.52 5.89-16.83 7.96-34.18 1.7-28.96s-15.08 24.49-23.61 35.74c-6.78 8.94-12.59 5.54-14.35 1.44-4.3 2.93-11.12.29-8.61-5.87 4.31-10.57 20.87-36 16.18-32.35-4.7 3.65-10.96 8.83-21.91 19.79-10.96 10.95-17.74 3.52-12.53-2.22 5.22-5.74 12.79-13.14 26.35-24.88-27.65 9.66-36.57-8.35-20.29-8.34 20.81 0 24.73-15.79 48.98-22.18.01-.01.02-.02.03-.02 9.43-10.59 49.29-61.04 70.02-91.8 6.64-9.86 12.63-19.45 18.07-28.76 48.92-83.8 53.34-144.93 89.02-172.64z" fill="#E2D8F4"/><path d="M351.196 632.783c-9.99 14.94-24.79 57.63-34.18 69.05s-20.33 58.28-25.62 65.27c-5.28 6.99-19.77 44.35-27.6 52.41s-22.96 35.77-30.78 46.2c-7.83 10.44-36.49 43.27-58.93 60.27 9.43-10.59 49.29-61.04 70.02-91.8 6.64-9.86 12.63-19.45 18.07-28.76 48.92-83.8 53.34-144.93 89.02-172.64z" fill="#fff"/><path d="M429.976 721.483c-20.37 37.8-59 82.83-100.74 122.57 1.74-31.42-29.96-49.46-54.44-43.28-4.42 1.1-8.6 3-12.3 5.75l-.32-1.1c48.92-83.8 53.34-144.93 89.02-172.64z" fill="#fff"/><path d="M351.196 632.783c-9.99 14.94-24.79 57.63-34.18 69.05s-20.33 58.28-25.62 65.27c-3.26 4.32-10.04 20.24-16.6 33.67-4.42 1.1-8.6 3-12.3 5.75l-.32-1.1c48.92-83.8 53.34-144.93 89.02-172.64z" fill="#E2D8F4"/><path d="M151.738 1008.246c-.333 0-.649-.021-.946-.058-2.241-.275-4.295-1.566-5.695-3.502-2.754 1.022-5.886.657-8.04-1.083-2.339-1.891-2.949-4.949-1.631-8.183 1.969-4.834 6.352-12.545 10.219-19.35a642.187 642.187 0 0 0 3.458-6.137c-3.998 3.395-9.104 8.049-16.15 15.095-7.493 7.493-13.31 7.14-16.013 4.562-2.149-2.049-2.634-5.984.598-9.539 4.927-5.419 11.388-11.667 20.043-19.364-10.698 1.967-17.721-.528-20.774-3.822-1.785-1.925-2.32-4.289-1.433-6.322 1.212-2.776 4.746-4.369 9.695-4.369 10.541 0 16.558-4.351 23.526-9.389 6.161-4.454 13.13-9.493 24.366-12.561 10.323-11.729 49.07-60.869 69.483-91.167 33.063-49.075 49.858-91.551 63.354-125.681 13.352-33.768 23.898-60.439 44.166-76.173a1.999 1.999 0 0 1 2.806.354c.678.872.52 2.129-.353 2.806-19.403 15.063-29.258 39.987-42.899 74.484-13.566 34.31-30.45 77.01-63.756 126.445-20.769 30.827-60.468 81.109-70.209 92.039a2.014 2.014 0 0 1-.984.604c-10.862 2.861-17.353 7.554-23.63 12.093-7.217 5.218-14.036 10.147-25.869 10.147-3.571 0-5.602.989-6.03 1.969-.334.765.379 1.655.701 2.002 2.229 2.405 10.316 5.601 24.965.488a1.999 1.999 0 0 1 1.968 3.4c-11.884 10.284-20.201 18.135-26.176 24.707-1.507 1.658-1.542 3.244-.797 3.954 1.171 1.119 5.041.887 10.424-4.495 10.958-10.958 17.321-16.235 22.099-19.952 1.648-1.282 2.776-.709 3.302-.255 1.764 1.527 1.009 3.011-6.403 16.054-3.807 6.698-8.121 14.29-9.992 18.882-.652 1.601-.503 2.799.441 3.563 1.134.917 3.385 1.129 5.188-.1a2 2 0 0 1 2.966.864c.552 1.289 1.776 2.743 3.554 2.961 2.183.274 4.802-1.443 7.362-4.817 3.662-4.827 7.389-11.181 10.993-17.327 4.904-8.361 9.139-15.582 12.928-18.74 2.477-2.064 4.235-1.41 5.063-.836 6.05 4.196-3.493 31.713-3.59 31.99-1.027 2.935-.687 4.757-.026 5.483.362.397.875.518 1.518.357 1.469-.364 3.571-2.28 4.657-6.483 2.721-10.527 7.592-21.873 11.533-30.581.612-1.353 1.859-2.516 3.438-3.988 4.59-4.28 11.526-10.748 8.153-26.865a2 2 0 0 1 1.003-2.167c64.605-35.101 174.425-136.473 213.901-209.712a2 2 0 1 1 3.521 1.897c-18.588 34.485-53.302 77.045-97.749 119.839-40.521 39.015-83.932 72.839-116.478 90.786 3.09 17.29-5.145 24.97-9.625 29.147-1.152 1.074-2.24 2.088-2.522 2.711-3.875 8.563-8.661 19.702-11.304 29.933-1.295 5.011-4.124 8.512-7.568 9.365-2.059.51-4.091-.069-5.438-1.548-1.889-2.075-2.177-5.536-.792-9.497 4.945-14.13 5.943-24.404 5.187-27.009a4.89 4.89 0 0 0-.324.25c-3.253 2.711-7.521 9.987-12.039 17.69-3.663 6.247-7.451 12.705-11.257 17.721-3.922 5.169-7.52 6.427-10.09 6.427z" fill="#531CB3"/><path d="M145.884 1004.045a2 2 0 0 1-1.674-3.092c3.989-6.125 10.375-18.371 15.037-27.313 2.179-4.18 4.062-7.79 5.294-10.01a2.001 2.001 0 0 1 3.497 1.943c-1.208 2.173-3.079 5.762-5.245 9.917-4.962 9.517-11.137 21.36-15.232 27.647a1.999 1.999 0 0 1-1.678.908zm-.519-45.522a1.999 1.999 0 0 1-1.361-3.465l11.564-10.748a1.999 1.999 0 1 1 2.722 2.93l-11.564 10.748a1.993 1.993 0 0 1-1.361.535zm183.873-112.478c-.038 0-.075 0-.112-.003a2 2 0 0 1-1.887-2.107c.855-15.495-7.102-29.303-21.284-36.937-14.123-7.603-31.111-7.148-42.269 1.131a2 2 0 1 1-2.384-3.212c12.573-9.329 30.844-9.894 46.548-1.441 15.583 8.388 24.324 23.595 23.382 40.68a2 2 0 0 1-1.995 1.89z" fill="#531CB3"/><ellipse cx="362.921" cy="662.002" fill="#531CB3" rx="6.522" ry="13.565"/><ellipse cx="337.583" cy="715.395" fill="#531CB3" rx="6.522" ry="13.565"/><ellipse cx="398.862" cy="687.738" fill="#531CB3" rx="5.282" ry="10.986"/><ellipse cx="359.56" cy="767.104" fill="#531CB3" rx="5.282" ry="10.986"/><ellipse cx="324.646" cy="784.35" fill="#531CB3" rx="5.282" ry="10.986"/><ellipse cx="296.682" cy="749.132" fill="#531CB3" rx="5.282" ry="10.986"/><ellipse cx="390.928" cy="742.551" fill="#531CB3" rx="5.282" ry="10.986"/></svg></g><g transform="translate(630.0 314.0) rotate(17.88667756107303 123.5 77.0) scale(0.3907733198329325 0.3876281186444091)"><svg width="632.08" height="397.288" viewBox="0 0 632.08 397.288"><rect fill="#EFEFEF" height="394.288" rx="15" width="629.08" x="1.5" y="1.5"/><path d="M615.58 397.288H16.5a16.519 16.519 0 0 1-16.5-16.5V16.5A16.519 16.519 0 0 1 16.5 0h599.08a16.519 16.519 0 0 1 16.5 16.5v364.288a16.519 16.519 0 0 1-16.5 16.5zM16.5 3A13.515 13.515 0 0 0 3 16.5v364.288a13.515 13.515 0 0 0 13.5 13.5h599.08a13.515 13.515 0 0 0 13.5-13.5V16.5A13.515 13.515 0 0 0 615.58 3z" fill="#531CB3"/><path d="M600.265 101.383H477.654a5 5 0 0 1 0-10h122.611a5 5 0 0 1 0 10zm0 48.905h-101a1.5 1.5 0 1 1 0-3h101a1.5 1.5 0 0 1 0 3zm0 30h-101a1.5 1.5 0 1 1 0-3h101a1.5 1.5 0 0 1 0 3zm0 30h-101a1.5 1.5 0 1 1 0-3h101a1.5 1.5 0 0 1 0 3zm0 30h-101a1.5 1.5 0 1 1 0-3h101a1.5 1.5 0 0 1 0 3z" fill="#531CB3"/><path d="M190.117 190.765a141.556 141.556 0 0 0 241.712 100.1l-41.351-41.351-.028-.027a83.072 83.072 0 0 1-141.788-58.717zm224.688 0a82.816 82.816 0 0 1-24.355 58.717l.028.027 41.351 41.351a141.408 141.408 0 0 0 0-200.19l-41.379 41.379a82.812 82.812 0 0 1 24.355 58.716z" fill="#E2D8F4"/><path d="M331.734 49.148v58.546a82.812 82.812 0 0 1 58.716 24.355l41.379-41.379a141.181 141.181 0 0 0-100.095-41.522z" fill="#E2D8F4"/><g fill="#531CB3"><path d="M331.734 333.882a143.266 143.266 0 0 1-143.117-143.117 1.5 1.5 0 0 1 1.5-1.5h58.545a1.5 1.5 0 0 1 1.5 1.5 81.538 81.538 0 0 0 139.228 57.656 1.5 1.5 0 0 1 2.116 0l41.383 41.379a1.5 1.5 0 0 1 0 2.121 142.145 142.145 0 0 1-101.155 41.961zM191.625 192.265A140.054 140.054 0 0 0 429.7 290.854l-39.261-39.26a84.574 84.574 0 0 1-143.266-59.329z"/><path d="M431.829 292.36a1.5 1.5 0 0 1-1.061-.44l-41.351-41.351a1.545 1.545 0 0 1-.453-1.074 1.515 1.515 0 0 1 .426-1.074 81.458 81.458 0 0 0 0-115.312 1.5 1.5 0 0 1 0-2.121l41.378-41.378a1.5 1.5 0 0 1 2.121 0 142.9 142.9 0 0 1 0 202.31 1.5 1.5 0 0 1-1.06.44zm-39.266-42.888 39.26 39.261a139.9 139.9 0 0 0 0-195.936l-39.26 39.261a84.454 84.454 0 0 1 0 117.414zm-225.885-76.7h60.8a86.359 86.359 0 0 1 86.266-86.266v-60.8c-81.097.003-147.066 65.972-147.066 147.066z"/><path d="M227.474 174.272h-60.8a1.5 1.5 0 0 1-1.5-1.5c0-81.918 66.645-148.563 148.563-148.563a1.5 1.5 0 0 1 1.5 1.5v60.8a1.5 1.5 0 0 1-1.5 1.5 84.862 84.862 0 0 0-84.767 84.766 1.5 1.5 0 0 1-1.496 1.497zm-59.289-3h57.8a87.877 87.877 0 0 1 86.254-86.253v-57.8c-79.077.799-143.253 64.975-144.054 144.053zm222.265-37.723a1.5 1.5 0 0 1-1.06-.44 81.021 81.021 0 0 0-57.656-23.915 1.5 1.5 0 0 1-1.5-1.5V49.148a1.5 1.5 0 0 1 1.5-1.5A142.145 142.145 0 0 1 432.889 89.61a1.5 1.5 0 0 1 0 2.121l-41.378 41.378a1.5 1.5 0 0 1-1.061.44zm-57.216-27.342a83.954 83.954 0 0 1 57.207 23.729l39.259-39.26a139.114 139.114 0 0 0-96.468-40.02zM197.05 236.069a1.5 1.5 0 0 1-1.061-2.56l43.8-43.8a1.5 1.5 0 1 1 2.122 2.121l-43.8 43.8a1.491 1.491 0 0 1-1.061.439zm-5.48-23.52a1.5 1.5 0 0 1-1.061-2.56l20.28-20.28a1.5 1.5 0 1 1 2.122 2.121l-20.28 20.28a1.5 1.5 0 0 1-1.061.439zm14.38 44.74a1.5 1.5 0 0 1-1.06-2.56l45.119-45.12a1.5 1.5 0 0 1 2.122 2.121l-45.12 45.12a1.5 1.5 0 0 1-1.061.439zm11.55 18.58a1.5 1.5 0 0 1-1.061-2.56l42.221-42.22a1.5 1.5 0 1 1 2.121 2.121l-42.221 42.22a1.491 1.491 0 0 1-1.06.439zm13.89 16.231a1.5 1.5 0 0 1-1.061-2.56l41.38-41.38a1.5 1.5 0 1 1 2.121 2.121l-41.379 41.38a1.5 1.5 0 0 1-1.061.439z"/><path d="M190.589 332.9H89.115a1.5 1.5 0 0 1 0-3h100.853l81.741-81.741a1.5 1.5 0 1 1 2.121 2.121l-82.18 82.181a1.5 1.5 0 0 1-1.061.439z"/><path d="M190.589 302.9H89.115a1.5 1.5 0 0 1 0-3h101.474a1.5 1.5 0 0 1 0 3zm0-30H89.115a1.5 1.5 0 0 1 0-3h101.474a1.5 1.5 0 0 1 0 3zm56.951 33.169a1.5 1.5 0 0 1-1.061-2.56l42.171-42.17a1.5 1.5 0 1 1 2.121 2.121L248.6 305.63a1.491 1.491 0 0 1-1.06.439zm18.49 11.631a1.5 1.5 0 0 1-1.061-2.56l44.98-44.98a1.5 1.5 0 0 1 2.121 2.121l-44.98 44.98a1.491 1.491 0 0 1-1.06.439zm21.13 9a1.5 1.5 0 0 1-1.061-2.56l51.65-51.66a1.5 1.5 0 0 1 2.122 2.121l-51.65 51.66a1.5 1.5 0 0 1-1.061.439zm24.37 5.739a1.5 1.5 0 0 1-1.061-2.56l80.191-80.19a1.5 1.5 0 0 1 2.121 2.121L312.59 332a1.491 1.491 0 0 1-1.06.439zm28.96 1.17a1.5 1.5 0 0 1-1.061-2.56l66.3-66.29a1.5 1.5 0 1 1 2.121 2.121l-66.3 66.29a1.493 1.493 0 0 1-1.06.439zm35.96-6.96a1.5 1.5 0 0 1-1.06-2.561l44.839-44.829a1.5 1.5 0 1 1 2.121 2.121l-44.839 44.83a1.5 1.5 0 0 1-1.061.439z"/></g></svg></g><g transform="translate(527.0 503.0) rotate(163.6386349955359 299.0 164.5) scale(0.7334804382729602 0.7335383078675884)"><svg width="815.291" height="448.511" viewBox="0 0 815.291 448.511"><ellipse cx="88.311" cy="192.046" fill="#531CB3" rx="192.945" ry="79.575" transform="matrix(.18988375 -.98180658 .98180658 .18988375 -117.01 242.285)"/><path d="M58.121 384.096c-2.298 0-4.575-.216-6.825-.651-21.716-4.2-38.086-28.255-46.094-67.734-7.888-38.884-6.815-88.303 3.019-139.154S35.486 79.451 57.303 46.312C79.452 12.665 103.611-3.552 125.327.648s38.086 28.255 46.094 67.734c7.887 38.884 6.815 88.303-3.019 139.154s-27.265 97.106-49.082 130.245c-19.855 30.16-41.323 46.315-61.199 46.315zM118.476 3.995c-18.462 0-38.754 15.535-57.833 44.517-21.536 32.712-38.758 78.456-48.496 128.805-9.737 50.349-10.812 99.216-3.026 137.599 7.665 37.787 22.912 60.73 42.933 64.602s42.723-11.732 63.924-43.936c21.535-32.712 38.758-78.456 48.495-128.805l1.964.38-1.964-.38c9.737-50.349 10.812-99.216 3.026-137.599-7.665-37.787-22.912-60.73-42.933-64.602a32 32 0 0 0-6.092-.58z" fill="#531CB3"/><path d="M584.275 133.935c17.401 4.358 116.07 31.917 131.281 40.323 15.212 8.406 82.935 44.102 90.869 55.642 8.807 12.81-8.42 39.315-28.021 33.235-27.81-8.627-78.711-46.025-86.317-47.626s-81.811-28.041-95.421-40.05-32.207-46.487-12.391-41.524z" fill="#E2D8F4"/><path d="M784.276 266.045c-2.084 0-4.244-.311-6.464-.999-17.644-5.473-44.152-22.175-63.508-34.37-10.352-6.522-20.13-12.683-22.628-13.209-7.26-1.528-81.986-27.848-96.333-40.507-9.79-8.638-25.662-32.92-20.814-42.138 1.142-2.172 3.844-4.426 10.232-2.826 16.156 4.046 116.169 31.895 131.763 40.513 1.927 1.065 4.697 2.568 8.081 4.404 37.714 20.464 77.124 42.627 83.469 51.856 4.554 6.623 3.29 16.945-3.144 25.683-4.453 6.048-11.855 11.593-20.654 11.594zM580.824 135.443c-1.397 0-2.32.414-2.755 1.24-2.976 5.659 8.566 27.259 19.92 37.277 13.52 11.929 87.426 38.101 94.51 39.593 3.057.644 10.31 5.154 23.937 13.739 19.168 12.077 45.419 28.617 62.561 33.934 9.591 2.975 18.021-2.774 22.712-9.146 5.34-7.253 6.602-15.907 3.069-21.046-6.656-9.681-59.51-38.36-82.08-50.606-3.396-1.843-6.175-3.351-8.108-4.419-14.603-8.07-112.488-35.548-130.8-40.134-1.152-.288-2.142-.433-2.966-.433z" fill="#531CB3"/><path d="M675.441 177.461c-27.706-16.813-103.194-50.438-155.644-68.452-52.451-18.014-164.382-37.142-242.041-32.739-49.089 2.783-193.203 35.049-255.631 52.925-4.688 15.114-8.721 31.097-11.94 47.741-4.087 21.134-5.933 41.813-7.556 61.386-2.417 29.152 3.126 68.553 3.126 68.553a236.96 236.96 0 0 0 2.097 11.392c27.546-2.817 154.888-35.77 197.913-47.229 30.823 49.504 92.676 90.161 143.114 100.969s99.43 38.726 144.075 67.373c46.409 29.779 74.144-41.582 28.261-69.85-39.16-24.126-106.695-46.613-99.738-97.208 6.686-48.628 70.182-48.016 110.484-37.9 37.813 9.492 90.007 45.346 111.142 64.63 20.539 18.74 51.239 63.08 81.929 74.021 43.603 15.545 70.454-21.383 46.569-49.104 32.958 11.742 53.24-29.208 34.56-47.445-17.221-16.812-103.012-82.253-130.718-99.066z" fill="#E2D8F4"/><path d="M514.461 448.492c-7.202 0-14.904-2.496-22.589-7.427-42.08-27.001-92.025-56.089-143.414-67.101-53.659-11.498-113.792-53.69-143.604-100.613-46.909 12.473-169.545 44.12-196.801 46.907a2 2 0 0 1-2.161-1.579 240.517 240.517 0 0 1-2.114-11.488c-.061-.433-5.552-39.994-3.144-69.033 1.711-20.642 3.579-40.886 7.585-61.601 3.166-16.369 7.201-32.503 11.994-47.954a2 2 0 0 1 1.36-1.33c64.639-18.509 208.066-50.277 256.068-52.999 35.527-2.014 82.007.82 130.877 7.981 43.175 6.326 85.017 15.621 111.927 24.863 50.84 17.461 126.669 50.815 156.032 68.634 28.835 17.498 114.011 82.684 131.077 99.345 9.423 9.2 10.385 24.632 2.339 37.528-5.978 9.58-17.588 17.871-33.204 14.826 7.486 11.656 7.812 25.261.49 35.94-7.728 11.27-26.199 21.063-52.823 11.571-22-7.844-44.117-32.6-61.889-52.493-7.537-8.436-14.656-16.405-20.717-21.935-19.235-17.55-71.329-54.39-110.281-64.168-28.439-7.139-66.938-9.29-89.697 6.084-10.368 7.004-16.531 17.147-18.319 30.148-5.389 39.19 36.197 61.294 72.886 80.795 9.313 4.95 18.109 9.625 25.92 14.437 15.903 9.798 25.03 26.214 24.416 43.914-.515 14.85-7.715 27.68-18.789 33.485-4.161 2.181-8.687 3.263-13.429 3.263zM205.763 269.039c.679 0 1.326.347 1.698.943 29.009 46.59 88.659 88.676 141.835 100.071 52.015 11.146 102.354 40.45 144.736 67.646 14.719 9.445 25.526 7.381 32 3.988 9.804-5.139 16.183-16.666 16.648-30.081.572-16.487-7.635-31.202-22.517-40.37-7.702-4.745-16.444-9.392-25.699-14.311-37.846-20.116-80.741-42.915-74.972-84.872 1.949-14.175 8.692-25.25 20.043-32.918 23.85-16.111 63.632-13.999 92.91-6.649 39.642 9.951 92.509 47.305 112.003 65.092 6.212 5.668 13.397 13.711 21.004 22.225 17.469 19.553 39.208 43.889 60.249 51.39 24.483 8.729 41.256.033 48.18-10.065 7.405-10.8 5.949-24.536-3.798-35.85a2 2 0 0 1 2.186-3.189c16.289 5.803 28.364-2.178 34.231-11.582 5.761-9.234 7.674-23.358-1.74-32.548-16.509-16.117-102.451-81.853-130.358-98.787-28.643-17.382-105.546-51.198-155.256-68.27C464.401 92.1 351.849 74.074 277.868 78.269c-47.505 2.694-189.192 34.051-254.153 52.554-4.61 14.997-8.501 30.634-11.568 46.496-3.968 20.518-5.824 40.643-7.526 61.172-2.37 28.589 3.058 67.717 3.113 68.109.51 3.196 1.084 6.381 1.706 9.473 30.554-3.913 154.045-35.841 195.808-46.964a1.98 1.98 0 0 1 .515-.068z" fill="#531CB3"/><path d="M672.724 212.287c-6.23-6.022-18.442-14.198-33.624-23.069 0 0 48.569 4.521 40.807-8.954a195.51 195.51 0 0 0-4.465-2.804c-27.706-16.813-103.194-50.438-155.644-68.452-52.451-18.014-179.06-37.942-242.041-32.738-49.033 4.051-154.055 25.44-245.752 50.776 8.353 8.625 23.643 9.147 48.865 5.487 41.7-6.05 139.306-27.621 168.128-28.822s12.153 22.215 69.858 29.738c79.661 10.385 137.304-18.036 171.33 12.387 22.045 19.711 68.986 46.771 109.95 55.909 27.3 6.09 34.96 5.738 69.786 35.761 15.442 13.312 84.738 120.836 110.035 106.666-.263-6.828-2.877-13.839-8.358-20.2-7.606-14.557-74.857-88.467-98.875-111.685z" fill="#EFEFEF"/><g fill="#531CB3"><path d="M771.601 325.973a2 2 0 0 1-1.774-1.074c-7.236-13.85-72.869-86.404-98.493-111.173-23.438-22.657-112.1-71.237-141.73-74.9a2.001 2.001 0 0 1 .49-3.97c30.165 3.729 120.25 53.016 144.02 75.994 23.191 22.419 91.447 97.248 99.258 112.197a2 2 0 0 1-1.771 2.927zM205.765 273.04a1.997 1.997 0 0 1-1.695-.936c-11.146-17.732-11.451-40.758-10.641-52.906a2 2 0 1 1 3.992.266c-.626 9.39-.901 33.11 10.037 50.512a2 2 0 0 1-1.691 3.065zm302.064 165.553c-11.887.001-33.816-14.89-39.766-22.412-3.775-4.772-.228-15.397 4.962-23.811 5.351-8.675 14.002-17.338 22.24-15.635 19.69 4.071 29.364 18.813 31.852 31.251 1.499 7.496-.918 16.614-6.157 23.228-3.645 4.601-8.146 7.219-12.673 7.371-.15.005-.304.008-.458.008zm-14.686-58.072c-4.972 0-11.366 5.28-16.713 13.949-5.531 8.968-7.021 16.964-5.229 19.229 5.963 7.538 27.276 21.211 36.952 20.888 3.334-.112 6.769-2.192 9.672-5.857 4.471-5.644 6.629-13.666 5.37-19.96-1.085-5.427-6.365-23.493-28.739-28.119a6.462 6.462 0 0 0-1.313-.131z"/><path d="M765.254 361.759c-.888 0-1.794-.058-2.715-.175-11.384-1.449-23.173-14.891-29.309-26.767-2.145-4.151-1.966-8.906.531-14.132 4.724-9.889 16.906-18.91 21.45-19.844a2 2 0 0 1 .805 3.919c-3.378.694-14.417 8.797-18.646 17.65-1.928 4.036-2.125 7.593-.586 10.572 5.852 11.326 16.751 23.425 26.26 24.635 4.374.557 8.131-.466 10.863-2.958 2.719-2.48 4.196-6.277 4.052-10.415a1.999 1.999 0 1 1 3.997-.139c.185 5.313-1.766 10.237-5.353 13.51-2.975 2.714-6.936 4.146-11.349 4.146zm27.919-60.703c-9.934 0-20.387-5.823-29.709-16.624-3.144-3.643-4.189-8.343-3.021-13.591 2.12-9.531 11.01-18.765 15.143-20.616a2.001 2.001 0 0 1 1.635 3.651c-3.021 1.353-11.018 9.494-12.874 17.834-.895 4.022-.173 7.423 2.145 10.109 9.1 10.545 19.597 16.061 28.791 15.132 4.732-.478 8.578-2.629 10.829-6.058 1.881-2.866 2.425-6.393 1.455-9.435a2.001 2.001 0 0 1 3.811-1.215c1.332 4.179.614 8.981-1.922 12.844-2.925 4.457-7.816 7.242-13.771 7.843-.833.084-1.671.126-2.512.126zm3.401-53.033c-8.905 0-19.648-4.764-24.743-10.111-2.776-2.913-3.959-6.462-3.517-10.548.856-7.915 7.792-15.645 11.315-18.025a2 2 0 1 1 2.239 3.315c-3.074 2.076-8.904 8.911-9.577 15.14-.314 2.902.483 5.309 2.436 7.359 5.131 5.385 17.338 10.279 25.384 8.519 3.504-.767 5.724-2.646 6.788-5.747a2 2 0 0 1 3.784 1.298c-1.512 4.407-4.872 7.297-9.717 8.357-1.384.303-2.861.444-4.392.444zm-149.069-6.514a2 2 0 0 1-1.919-2.565c2.087-7.095 12.24-20.285 15.93-23.052a2 2 0 0 1 2.4 3.2c-2.748 2.061-12.617 14.605-14.493 20.981a2 2 0 0 1-1.918 1.436zm15.211 3.602a2 2 0 0 1-1.898-2.633c1.298-3.893 5.965-10.592 7.836-12.124a2 2 0 1 1 2.534 3.094c-1.145.937-5.444 6.899-6.575 10.294a2.002 2.002 0 0 1-1.897 1.368zM379.3 374.81a2 2 0 0 1-2-2c0-3.242 1.411-17.076 5.642-22.365a2 2 0 0 1 3.123 2.499c-3.096 3.87-4.766 15.83-4.766 19.867a2 2 0 0 1-2 2zm9.608 4.003a2 2 0 0 1-2-2c0-4.009 1.201-12.026 2.551-15.32a2 2 0 1 1 3.701 1.517c-1.052 2.568-2.252 9.921-2.252 13.803a2 2 0 0 1-2 2zM205.763 271.04c-7.629-9.831-9.965-24.914-10.44-37.817-5.432-1.395-11.02-2.243-16.53-1.397-11.773 1.807-20.908 10.815-29.612 18.946s-19.092 16.289-30.989 15.705c-14.958-.735-25.336-14.572-37.941-22.659-14.481-9.292-33.454-10.627-49.439-4.261-15.728 6.264-25.67 14.374-27.329 17.55l2.269 49.77a236.69 236.69 0 0 0 2.071 11.273c39.87-6.76 158.218-36.531 197.939-47.11z"/><path d="M7.822 320.149a2 2 0 0 1-1.955-1.59 240.272 240.272 0 0 1-2.088-11.368 1.868 1.868 0 0 1-.023-.224l-2.269-49.77a2.006 2.006 0 0 1 .225-1.017c1.912-3.659 12.248-12.064 28.361-18.482 16.877-6.722 36.518-5.022 51.259 4.436 4.011 2.573 7.809 5.72 11.482 8.763 8.137 6.741 15.822 13.108 25.477 13.582 11.123.545 21.168-7.362 29.525-15.169l1.22-1.142c8.662-8.114 17.618-16.503 29.454-18.32 5.012-.769 10.52-.313 17.331 1.437a2 2 0 0 1 1.501 1.864c.609 16.544 3.98 28.88 10.021 36.665a2 2 0 0 1-1.065 3.158C167.695 283.248 48.34 313.308 8.159 320.121a2.022 2.022 0 0 1-.336.028zm-.076-13.478a240.28 240.28 0 0 0 1.648 9.176c40.824-7.208 152.536-35.283 193.072-46.002-5.312-8.187-8.36-19.948-9.078-35.04-5.605-1.317-10.177-1.635-14.291-1.003-10.612 1.628-19.109 9.588-27.326 17.285l-1.224 1.145c-8.969 8.378-19.839 16.86-32.452 16.241-10.985-.539-19.55-7.635-27.832-14.497-3.581-2.967-7.284-6.034-11.09-8.477-13.673-8.773-31.92-10.339-47.619-4.086-14.781 5.887-24.01 13.25-26.043 16.205l2.237 49.053zm801.664 2.786c-5.119-5.099-8.783 2.35-21.265.638-16.575-2.273-33.893-9.904-48.871-26.353 6.105 7.806 21.516 20.916 32.325 40.23 17.471 6.225 31.379-2.358 37.811-14.516z"/><path d="M783.191 328.1c-3.797 0-7.892-.686-12.264-2.243a1.998 1.998 0 0 1-1.074-.907c-7.534-13.464-17.433-23.962-24.661-31.627-3.035-3.218-5.656-5.998-7.494-8.348a2 2 0 0 1 3.054-2.578c13.242 14.544 29.279 23.197 47.663 25.718 5.539.76 9.194-.431 12.129-1.388 3.47-1.131 6.748-2.2 10.275 1.314a2 2 0 0 1 .356 2.352c-4.777 9.029-14.485 17.708-27.986 17.708zm-10.223-5.77c16.319 5.463 28.183-2.905 33.86-12.366-1.197-.63-2.438-.284-5.043.565-3.149 1.027-7.462 2.433-13.913 1.548-10.56-1.448-20.378-4.814-29.378-10.055 4.934 5.797 10.058 12.549 14.473 20.308zm-424.091 49.679c23.319 4.242 41.99 9.969 60.056 20.319-3.781-12.25-13.586-17.384-27.873-21.07-21.594-5.57-24.066-16.81-33.621-19.551-9.295-2.667-18.568 4.256-28.214 4.94-11.633.825-28.516-20.176-41.341-15.344 22.699 12.115 51.25 27.116 70.993 30.707z"/><path d="M408.933 394.328a1.99 1.99 0 0 1-.994-.265c-16.633-9.529-34.404-15.536-59.42-20.087-20.724-3.77-51.327-20.102-71.577-30.91a2 2 0 0 1 .237-3.636c8.077-3.043 16.871 2.529 25.376 7.917 5.915 3.748 12.033 7.623 16.529 7.304 3.594-.255 7.304-1.494 10.893-2.692 5.815-1.942 11.828-3.95 18.014-2.175 4.208 1.207 7.07 3.783 10.384 6.766 4.711 4.24 10.573 9.517 23.186 12.771 12.621 3.256 24.904 8.224 29.284 22.416a2 2 0 0 1-1.911 2.59zm-59.698-24.287c22.962 4.177 39.969 9.579 55.581 17.75-4.585-7.982-13.12-11.724-24.256-14.596-13.562-3.498-19.828-9.139-24.863-13.671-3.067-2.761-5.49-4.942-8.81-5.894-4.993-1.432-10.167.295-15.644 2.124-3.824 1.277-7.779 2.597-11.877 2.888a12.99 12.99 0 0 1-3.085-.168c11.817 5.372 23.507 9.849 32.954 11.568zm-63.846-27.009c4.943 2.621 10.299 5.425 15.833 8.205l-.808-.512c-5.086-3.222-10.287-6.517-15.025-7.694zm228.812-210.273c-.357 0-.719-.096-1.046-.297-7.18-4.419-33.42-10.452-36.944-8.495a2 2 0 1 1-1.942-3.497c5.99-3.328 34.002 4.289 40.982 8.585a2 2 0 0 1-1.05 3.704z"/><path d="M514.461 448.492c-7.202 0-14.904-2.496-22.589-7.427-42.08-27.001-92.025-56.089-143.414-67.101-53.659-11.498-113.792-53.69-143.604-100.613-46.909 12.473-169.545 44.12-196.801 46.907a2 2 0 0 1-2.161-1.579 240.517 240.517 0 0 1-2.114-11.488c-.061-.433-5.552-39.994-3.144-69.033 1.711-20.642 3.579-40.886 7.585-61.601 3.166-16.369 7.201-32.503 11.994-47.954a2 2 0 0 1 1.36-1.33c64.639-18.509 208.066-50.277 256.068-52.999 35.527-2.014 82.007.82 130.877 7.981 43.175 6.326 85.017 15.621 111.927 24.863 50.84 17.461 126.669 50.815 156.032 68.634 28.835 17.498 114.011 82.684 131.077 99.345 9.423 9.2 10.385 24.632 2.339 37.528-5.978 9.58-17.588 17.871-33.204 14.826 7.486 11.656 7.812 25.261.49 35.94-7.728 11.27-26.199 21.063-52.823 11.571-22-7.844-44.117-32.6-61.889-52.493-7.537-8.436-14.656-16.405-20.717-21.935-19.235-17.55-71.329-54.39-110.281-64.168-28.439-7.139-66.938-9.29-89.697 6.084-10.368 7.004-16.531 17.147-18.319 30.148-5.389 39.19 36.197 61.294 72.886 80.795 9.313 4.95 18.109 9.625 25.92 14.437 15.903 9.798 25.03 26.214 24.416 43.914-.515 14.85-7.715 27.68-18.789 33.485-4.161 2.181-8.687 3.263-13.429 3.263zM205.763 269.039c.679 0 1.326.347 1.698.943 29.009 46.59 88.659 88.676 141.835 100.071 52.015 11.146 102.354 40.45 144.736 67.646 14.719 9.445 25.526 7.381 32 3.988 9.804-5.139 16.183-16.666 16.648-30.081.572-16.487-7.635-31.202-22.517-40.37-7.702-4.745-16.444-9.392-25.699-14.311-37.846-20.116-80.741-42.915-74.972-84.872 1.949-14.175 8.692-25.25 20.043-32.918 23.85-16.111 63.632-13.999 92.91-6.649 39.642 9.951 92.509 47.305 112.003 65.092 6.212 5.668 13.397 13.711 21.004 22.225 17.469 19.553 39.208 43.889 60.249 51.39 24.483 8.729 41.256.033 48.18-10.065 7.405-10.8 5.949-24.536-3.798-35.85a2 2 0 0 1 2.186-3.189c16.289 5.803 28.364-2.178 34.231-11.582 5.761-9.234 7.674-23.358-1.74-32.548-16.509-16.117-102.451-81.853-130.358-98.787-28.643-17.382-105.546-51.198-155.256-68.27C464.401 92.1 351.849 74.074 277.868 78.269c-47.505 2.694-189.192 34.051-254.153 52.554-4.61 14.997-8.501 30.634-11.568 46.496-3.968 20.518-5.824 40.643-7.526 61.172-2.37 28.589 3.058 67.717 3.113 68.109.51 3.196 1.084 6.381 1.706 9.473 30.554-3.913 154.045-35.841 195.808-46.964a1.98 1.98 0 0 1 .515-.068z"/><path d="M51.677 383.482c-.126 0-.254-.012-.382-.037-21.716-4.2-38.086-28.255-46.094-67.734-7.887-38.884-6.815-88.303 3.019-139.154S35.485 79.451 57.302 46.312C79.452 12.665 103.611-3.552 125.327.648a2 2 0 0 1-.759 3.927C104.548.703 81.845 16.307 60.644 48.511c-21.537 32.713-38.759 78.457-48.497 128.806-9.737 50.349-10.812 99.216-3.026 137.599 7.665 37.787 22.912 60.73 42.933 64.602a2 2 0 0 1-.377 3.964z"/></g></svg></g><g transform="translate(134.0 527.0) rotate(-12.082997454869965 128.5 81.0) scale(0.43202716559920656 0.4329536525787468)"><svg width="594.87" height="374.174" viewBox="0 0 594.87 374.174"><g stroke="#531CB3" stroke-linecap="round" stroke-linejoin="round" stroke-miterlimit="10" stroke-width="4"><path d="M38.783 103.739h105.652v268.435H38.783zm132.26 50.87h105.652v217.565H171.043zM303.304 18.435h105.652v353.739H303.304zm132.261 43.043h105.652v310.696H435.565z" fill="#E2D8F4"/><g fill="none"><path d="M75.174 103.739 2 150.696m106.043-46.957 99.392 52.335m32.869 0 99.392-137.639m32.869 0 99.392 43.043m32.869 0L592.87 9.826"/></g><circle cx="91.609" cy="103.739" fill="#EFEFEF" r="16.435"/><circle cx="223.87" cy="156.074" fill="#EFEFEF" r="16.435"/><circle cx="488.391" cy="61.478" fill="#EFEFEF" r="16.435"/><circle cx="356.13" cy="18.435" fill="#531CB3" r="16.435"/><path d="M144.435 372.174H38.783c62.609-41.739 105.652-116.033 105.652-268.435zm132.261 0H171.043C230.261 361.093 276.696 296 276.696 154.609zm132.261 0H303.305c63.13-29.217 105.652-77.739 105.652-353.739zm132.26 0H435.565c60.783-16.696 105.652-78.261 105.652-310.696z" fill="#531CB3"/></g></svg></g><g transform="translate(247.0 653.0) rotate(0.0 97.5 43.0) scale(1.0 1.0)"><svg width="195" height="86" viewBox="0 0 195 86"><clipPath id="a"><path d="M0 0h195v86H0z"/></clipPath><g clip-path="url(#a)"><path d="M172.5 81.5h-86c-35 0-85-6-85-6l30-36s45 10 69 8c30.893-2.574 93-2 93-2z" fill="#E2D8F4"/><path d="M172.5 83.001h-86c-34.689 0-84.678-5.95-85.179-6.01a1.5 1.5 0 0 1-.974-2.45l30-36a1.491 1.491 0 0 1 1.478-.5c.447.1 45.056 9.936 68.55 7.97 30.607-2.552 92.516-2.014 93.138-2.006a1.497 1.497 0 0 1 1.292.759 1.5 1.5 0 0 1-.009 1.498l-21 36a1.497 1.497 0 0 1-1.296.74zM4.428 74.33c10.95 1.238 52.234 5.672 82.072 5.672h85.138l19.262-33.02c-12.073-.069-63.374-.228-90.274 2.014-22.37 1.856-61.926-6.395-68.557-7.835z" fill="#531CB3"/><path d="M166.5 75.5s-50.982-1-79-1c-35 0-85-6-85-6l30-36s45 10 69 8c30.893-2.574 90-2 90-2z" fill="#E2D8F4"/><path d="M166.5 77.001h-.03c-.509-.01-51.288-1-78.97-1-34.689 0-84.678-5.95-85.179-6.01a1.5 1.5 0 0 1-.974-2.45l30-36a1.492 1.492 0 0 1 1.478-.5c.448.1 45.053 9.927 68.55 7.97 30.608-2.55 89.548-2.013 90.139-2.006a1.5 1.5 0 0 1 1.229 2.34l-25 37a1.5 1.5 0 0 1-1.243.656zM5.428 67.33c10.95 1.238 52.234 5.672 82.072 5.672 25.778 0 71.543.857 78.214.984l22.975-34c-12.088-.07-60.413-.206-87.064 2.015-22.368 1.852-61.925-6.399-68.556-7.839z" fill="#531CB3"/><path d="M164.5 68.5s-48.982-1-77-1c-35 0-85-6-85-6l30-36s45 10 69 8c30.893-2.574 86 0 86 0z" fill="#E2D8F4"/><path d="M164.5 70.001h-.031c-.49-.01-49.288-1-76.969-1-34.689 0-84.678-5.95-85.179-6.01a1.5 1.5 0 0 1-.974-2.45l30-36a1.489 1.489 0 0 1 1.478-.5c.448.1 45.053 9.93 68.55 7.97 30.635-2.552 85.643-.029 86.2 0a1.502 1.502 0 0 1 1.428 1.58c-.014.264-.098.52-.244.741l-23 35a1.5 1.5 0 0 1-1.259.67zM5.428 60.33c10.95 1.238 52.234 5.672 82.072 5.672 25.719 0 69.629.854 76.2.983l21.094-32.1c-11.34-.466-56.567-2.109-83.17.11-22.367 1.858-61.924-6.393-68.555-7.833z" fill="#531CB3"/><path d="M163.5 58.5s-47.982 3-76 3c-35 0-85-6-85-6l30-36s45 10 69 8c30.893-2.574 85-3 85-3z" fill="#E2D8F4"/><path d="M87.5 63.001c-34.689 0-84.678-5.95-85.179-6.011a1.5 1.5 0 0 1-.974-2.449l30-36a1.493 1.493 0 0 1 1.478-.5c.448.1 45.053 9.934 68.55 7.969 30.6-2.549 84.571-3 85.113-3h.012a1.497 1.497 0 0 1 1.325.797 1.493 1.493 0 0 1-.083 1.544l-23 34a1.495 1.495 0 0 1-1.149.656c-.48.021-48.35 2.994-76.093 2.994zM5.428 54.329c10.95 1.238 52.234 5.672 82.072 5.672 25.766 0 69.011-2.576 75.171-2.952l20.983-31.019c-11.578.132-55.6.763-82.029 2.966-22.368 1.858-61.925-6.395-68.556-7.835z" fill="#531CB3"/><path d="M161.5 48.5s-44.982 7-73 7c-35 0-85-8-85-8l30-36s45 12 69 10c30.893-2.574 85-6 85-6z" fill="#E2D8F4"/><path d="M88.5 57c-34.718 0-84.736-7.938-85.238-8.02a1.5 1.5 0 0 1-.915-2.44l30-36a1.5 1.5 0 0 1 1.54-.49c.447.12 45.041 11.92 68.488 9.955 30.554-2.546 84.489-5.968 85.03-6a1.502 1.502 0 0 1 1.589 1.635 1.49 1.49 0 0 1-.316.79l-26 33a1.497 1.497 0 0 1-.948.554C161.279 50.053 116.311 57 88.5 57zM6.351 46.422C17.085 48.042 58.563 54 88.501 54c25.866 0 66.831-6.081 72.187-6.894l23.554-29.894C171.947 18 128.733 20.819 102.625 23c-22.367 1.854-61.852-8.055-68.583-9.8z" fill="#531CB3"/><path d="M160.5 38.5s-44.982 11-73 11c-35 0-83-11-83-11l30-36s43 15 67 13c30.893-2.574 82-14 82-14z" fill="#E2D8F4"/><path d="M87.5 51C52.732 51 4.646 40.072 4.165 39.962a1.5 1.5 0 0 1-.818-2.422l30-36a1.5 1.5 0 0 1 1.647-.456c.427.149 42.978 14.868 66.381 12.92C131.81 11.47 182.663.15 183.173.037a1.5 1.5 0 0 1 1.6 2.256l-23 37a1.5 1.5 0 0 1-.917.665C160.4 40.067 115.376 51 87.5 51zM7.23 37.566C17.361 39.756 57.5 48 87.5 48c25.785 0 66.65-9.527 72.05-10.814l20.8-33.463c-12.056 2.6-52.734 11.106-78.725 13.277C79.3 18.842 41.709 6.532 34.991 4.254z" fill="#531CB3"/><path d="M87.5 43.501c-24.636 0-56.34-5.672-72.012-8.813l21-25.2c10.528 3.421 39.557 12.2 60.307 12.2 1.828 0 3.579-.069 5.206-.2 21.3-1.776 51.509-7.575 68.962-11.17l-14.252 22.914c-9.549 2.216-45.844 10.27-69.21 10.27z" fill="#EFEFEF"/><path d="M87.5 45c-24.532 0-55.832-5.54-72.307-8.842a1.5 1.5 0 0 1-.857-2.43l21-25.2a1.5 1.5 0 0 1 1.616-.466c11.216 3.644 39.5 12.12 59.843 12.12 1.79 0 3.5-.067 5.081-.2 21.479-1.79 52.315-7.75 68.784-11.143a1.5 1.5 0 0 1 1.576 2.26l-14.252 22.924a1.5 1.5 0 0 1-.935.669C146.633 37.11 110.833 45 87.5 45zM18.257 33.708C35.137 37.017 64.4 42 87.5 42c22.585 0 57.211-7.541 68.265-10.091l12.081-19.432c-17.123 3.472-45.5 8.812-65.723 10.5a64.933 64.933 0 0 1-5.33.209c-20.2 0-47.863-8.118-59.8-11.955z" fill="#531CB3"/><path d="M91.668 40.554c12.398-1.005 22.141-5.613 21.762-10.292-.38-4.68-10.738-7.657-23.136-6.652-12.397 1.005-22.14 5.613-21.76 10.292.378 4.679 10.736 7.657 23.134 6.652z" fill="#E2D8F4"/><path d="M87.047 42.242c-10.063 0-19.556-2.621-20.01-8.218-.525-6.474 11.528-10.967 23.136-11.908a48.325 48.325 0 0 1 16.61 1.248c5.013 1.442 7.9 3.849 8.141 6.779.525 6.474-11.528 10.967-23.135 11.908a58.633 58.633 0 0 1-4.742.19zm8.032-17.327c-1.519 0-3.08.064-4.664.192-11.992.97-20.655 5.38-20.388 8.675s9.525 6.252 21.52 5.279c11.995-.973 20.654-5.382 20.387-8.676-.126-1.55-2.361-3.1-5.979-4.137a40.237 40.237 0 0 0-10.876-1.333z" fill="#531CB3"/><path d="M97.5 83.5s-10 1-16 1-15-2-15-2-2.3-31.088-1-35c2-6 23-33 23-33a72.97 72.97 0 0 1 15-2 142.25 142.25 0 0 1 15 1s-18 27-22 36c-2.957 6.653 1 34 1 34zm39.538-52.137c4.001-1.075 6.835-3.465 6.332-5.338s-4.154-2.522-8.155-1.447c-4 1.074-6.835 3.464-6.331 5.338.503 1.874 4.154 2.522 8.154 1.447z" fill="#E2D8F4"/><path d="M133.285 33.4c-3.059 0-5.318-1.108-5.851-3.09-.753-2.807 2.356-5.826 7.391-7.179a14.315 14.315 0 0 1 6.04-.41c2.895.514 3.72 2.05 3.953 2.918s.289 2.61-1.959 4.5a14.364 14.364 0 0 1-5.432 2.671 16.096 16.096 0 0 1-4.142.59zm5.655-7.838a13.159 13.159 0 0 0-3.337.465c-3.6.97-5.431 2.91-5.271 3.5s2.712 1.357 6.317.388a11.517 11.517 0 0 0 4.276-2.068c.82-.692 1.045-1.245 1-1.433-.05-.187-.523-.554-1.579-.74a8.065 8.065 0 0 0-1.406-.115z" fill="#531CB3"/><path d="M55.404 27.7c.353-2.18-2.675-4.485-6.764-5.148-4.089-.662-7.69.569-8.043 2.75s2.675 4.485 6.763 5.147 7.69-.568 8.044-2.749z" fill="#E2D8F4"/><path d="M49.544 32.127a15.153 15.153 0 0 1-2.424-.2 13.023 13.023 0 0 1-5.72-2.29c-1.739-1.324-2.552-2.95-2.288-4.577s1.548-2.914 3.616-3.621A14.07 14.07 0 0 1 54.6 23.36c1.74 1.325 2.552 2.95 2.288 4.577s-1.547 2.914-3.616 3.62a11.597 11.597 0 0 1-3.728.569zm-3.084-8.254a8.702 8.702 0 0 0-2.758.405c-.928.318-1.55.8-1.625 1.262s.363 1.115 1.143 1.709a11.119 11.119 0 0 0 9.08 1.47c.927-.317 1.55-.8 1.625-1.261s-.364-1.115-1.144-1.71a10.144 10.144 0 0 0-4.38-1.717 12.193 12.193 0 0 0-1.94-.158z" fill="#531CB3"/><path d="M89 14S66.5 44 65.5 48s1 35 1 35l7.5 1s-4-28-2-35 25-36 25-36zm22.5-.5s-21 31-22 35 1 35 1 35h7s-4-25-2-32 22.47-37.559 22.47-37.559z" fill="#EFEFEF"/><path d="M119.748 14.332a1.495 1.495 0 0 0 .116-1.456 1.507 1.507 0 0 0-1.178-.864c-5.04-.608-10.11-.946-15.186-1.012a73.7 73.7 0 0 0-15.365 2.045c-.325.081-.614.27-.819.534-.864 1.11-21.182 27.274-23.239 33.446-1.331 4 .538 30.344.927 35.586a1.5 1.5 0 0 0 1.17 1.353C66.549 84.048 75.405 86 81.5 86c6.006 0 15.738-.967 16.149-1.008a1.5 1.5 0 0 0 1.335-1.707C97.9 75.8 95.589 55.242 97.871 50.109c3.902-8.781 21.697-35.509 21.877-35.777zM66.923 47.975c1.545-4.637 16.412-24.369 22.437-32.137.738-.17 2.252-.5 4.165-.838-6.09 8.261-21.57 29.495-22.48 33.136-.928 3.71.433 27.025.857 33.866a121.732 121.732 0 0 1-3.988-.738c-.865-11.99-1.845-30.73-.991-33.289zm8.014 34.491c-.784-12.387-1.656-30.9-.982-33.6s14.926-22.578 23.75-34.47l.007-.013c1.92-.24 3.853-.367 5.788-.383 1.887 0 3.851.077 5.716.186-4.5 6.611-19.767 29.333-21.171 34.95-1.845 7.374.324 28.686.855 33.564-2.556.168-5.25.3-7.4.3a51.21 51.21 0 0 1-6.563-.534zm20.863-.312c-.977.089-2.347.208-3.9.329-.489-4.483-2.66-25.759-.945-32.619 1.2-4.8 16.036-27.128 21.727-35.435 1.214.1 2.32.2 3.209.293-4.3 6.52-17.359 26.511-20.762 34.169-2.729 6.138-.185 26.96.671 33.263z" fill="#531CB3"/></g></svg></g></svg>