<svg width="491" height="317" xmlns="http://www.w3.org/2000/svg" xmlns:xlink="http://www.w3.org/1999/xlink" xml:space="preserve" overflow="hidden"><g transform="translate(-693 -417)"><path d="M708 468.283C814 453.393 933.75 427.242 984 447.262 1034.25 467.282 1049.5 558.125 1009.5 588.406 969.5 618.687 739.138 551.793 744 628.947 755.922 818.115 941 645.464 1131 676.996" stroke="#E2D8F4" stroke-width="30" stroke-linecap="round" stroke-linejoin="round" stroke-miterlimit="10" stroke-opacity="0.4" fill="none" fill-rule="evenodd"/><path d="M750 462C750 438.804 768.804 420 792 420L918 420C941.196 420 960 438.804 960 462L960 462C960 485.196 941.196 504 918 504L792 504C768.804 504 750 485.196 750 462Z" stroke="#FFC83D" stroke-width="6" stroke-miterlimit="8" fill="#FFF4D8" fill-rule="evenodd"/><text fill="#FFC83D" font-family="Outfit Medium,Outfit Medium_MSFontService,Arial" font-weight="700" font-size="24" transform="translate(785.452 456)">2 jours / mois </text><text fill="#FFC83D" font-family="Outfit,Outfit_MSFontService,Arial" font-weight="700" font-size="24" transform="translate(814.822 485)">sur 1 an</text><path d="M932 565C932 541.804 950.804 523 974 523L1100 523C1123.2 523 1142 541.804 1142 565L1142 565C1142 588.196 1123.2 607 1100 607L974 607C950.804 607 932 588.196 932 565Z" stroke="#81D2C7" stroke-width="6" stroke-miterlimit="8" fill="#E6F6F4" fill-rule="evenodd"/><text fill="#81D2C7" font-family="Outfit Medium,Outfit Medium_MSFontService,Arial" font-weight="700" font-size="24" transform="translate(996.572 559)">10 jours</text><text fill="#81D2C7" font-family="Outfit Medium,Outfit Medium_MSFontService,Arial" font-weight="700" font-size="24" transform="translate(966.452 588)">à temps plein</text><path d="M837 688C837 664.804 855.804 646 879 646L1005 646C1028.2 646 1047 664.804 1047 688L1047 688C1047 711.196 1028.2 730 1005 730L879 730C855.804 730 837 711.196 837 688Z" stroke="#FB4D3D" stroke-width="6" stroke-miterlimit="8" fill="#FEDBD8" fill-rule="evenodd"/><text fill="#FB4D3D" font-family="Outfit Medium,Outfit Medium_MSFontService,Arial" font-weight="700" font-size="24" transform="translate(876.999 682)">1  jour / sem.</text><text fill="#FB4D3D" font-family="Outfit Medium,Outfit Medium_MSFontService,Arial" font-weight="700" font-size="24" transform="translate(889.119 711)">sur 3 </text><text fill="#FB4D3D" font-family="Outfit Medium,Outfit Medium_MSFontService,Arial" font-weight="700" font-size="24" transform="translate(944.619 711)">mois</text><path d="M1090 669C1090 645.804 1108.8 627 1132 627 1155.2 627 1174 645.804 1174 669 1174 692.196 1155.2 711 1132 711 1108.8 711 1090 692.196 1090 669Z" stroke="#F3EFFB" stroke-width="20" stroke-linecap="round" stroke-linejoin="round" stroke-miterlimit="10" fill="#FFFFFF" fill-rule="evenodd"/><path d="M1109 669C1109 665.686 1111.91 663 1115.5 663 1119.09 663 1122 665.686 1122 669 1122 672.314 1119.09 675 1115.5 675 1111.91 675 1109 672.314 1109 669Z" fill="#531CB3" fill-rule="evenodd"/><path d="M1126 669C1126 665.686 1128.69 663 1132 663 1135.31 663 1138 665.686 1138 669 1138 672.314 1135.31 675 1132 675 1128.69 675 1126 672.314 1126 669Z" fill="#531CB3" fill-rule="evenodd"/><path d="M1142 669C1142 665.686 1144.69 663 1148 663 1151.31 663 1154 665.686 1154 669 1154 672.314 1151.31 675 1148 675 1144.69 675 1142 672.314 1142 669Z" fill="#531CB3" fill-rule="evenodd"/></g></svg>