<svg width="329" height="211" xmlns="http://www.w3.org/2000/svg" xmlns:xlink="http://www.w3.org/1999/xlink" overflow="hidden"><defs><clipPath id="clip0"><rect x="470" y="447" width="329" height="211"/></clipPath></defs><g clip-path="url(#clip0)" transform="translate(-470 -447)"><path d="M481 479.856C551.667 469.929 631.5 452.494 665 465.841 698.5 479.188 708.667 539.75 682 559.937 655.333 580.125 501.758 535.528 505 586.965 512.948 713.077 636.333 597.976 763 618.997" stroke="#F3EFFB" stroke-width="20" stroke-linecap="round" stroke-linejoin="round" stroke-miterlimit="10" fill="none" fill-rule="evenodd"/><path d="M509 475C509 459.536 521.536 447 537 447L621 447C636.464 447 649 459.536 649 475L649 475C649 490.464 636.464 503 621 503L537 503C521.536 503 509 490.464 509 475Z" fill="#531CB3" fill-rule="evenodd"/><text fill="#FFFFFF" font-family="Outfit Light,Outfit Light_MSFontService,sans-serif" font-weight="300" font-size="16" transform="translate(556.583 471)">6 mois<tspan font-size="16" x="-18.3334" y="19">à </tspan><tspan font-family="Outfit Medium,Outfit Medium_MSFontService,sans-serif" font-weight="500" font-size="16" x="-5.5" y="19">mi</tspan><tspan font-family="Outfit Medium,Outfit Medium_MSFontService,sans-serif" font-weight="500" font-size="16" x="12" y="19">-</tspan><tspan font-family="Outfit Medium,Outfit Medium_MSFontService,sans-serif" font-weight="500" font-size="16" x="19.3333" y="19">temps</tspan></text><path d="M631 544C631 528.536 643.536 516 659 516L743 516C758.464 516 771 528.536 771 544L771 544C771 559.464 758.464 572 743 572L659 572C643.536 572 631 559.464 631 544Z" fill="#531CB3" fill-rule="evenodd"/><text fill="#FFFFFF" font-family="Outfit Medium,Outfit Medium_MSFontService,sans-serif" font-weight="500" font-size="16" transform="translate(673.583 540)">10 jours<tspan font-family="Outfit Light,Outfit Light_MSFontService,sans-serif" font-weight="300" font-size="16" x="-19.8334" y="19">à temps plein</tspan></text><path d="M570 613C570 597.536 582.536 585 598 585L682 585C697.464 585 710 597.536 710 613L710 613C710 628.464 697.464 641 682 641L598 641C582.536 641 570 628.464 570 613Z" fill="#531CB3" fill-rule="evenodd"/><text fill="#FFFFFF" font-family="Outfit Medium,Outfit Medium_MSFontService,sans-serif" font-weight="500" font-size="16" transform="translate(596.75 609)">1 jour / sem.<tspan font-family="Outfit Light,Outfit Light_MSFontService,sans-serif" font-weight="300" font-size="16" x="5.42004" y="19">sur 12 mois</tspan></text><path d="M736.5 613.5C736.5 598.036 749.036 585.5 764.5 585.5 779.964 585.5 792.5 598.036 792.5 613.5 792.5 628.964 779.964 641.5 764.5 641.5 749.036 641.5 736.5 628.964 736.5 613.5Z" stroke="#F3EFFB" stroke-width="13.3333" stroke-linecap="round" stroke-linejoin="round" stroke-miterlimit="10" fill="#FFFFFF" fill-rule="evenodd"/><path d="M749 613.5C749 611.015 750.791 609 753 609 755.209 609 757 611.015 757 613.5 757 615.985 755.209 618 753 618 750.791 618 749 615.985 749 613.5Z" fill="#531CB3" fill-rule="evenodd"/><path d="M760 613.5C760 611.015 761.791 609 764 609 766.209 609 768 611.015 768 613.5 768 615.985 766.209 618 764 618 761.791 618 760 615.985 760 613.5Z" fill="#531CB3" fill-rule="evenodd"/><path d="M771 613.5C771 611.015 772.791 609 775 609 777.209 609 779 611.015 779 613.5 779 615.985 777.209 618 775 618 772.791 618 771 615.985 771 613.5Z" fill="#531CB3" fill-rule="evenodd"/></g></svg>