<svg width="1282" height="330" xmlns="http://www.w3.org/2000/svg" xmlns:xlink="http://www.w3.org/1999/xlink" overflow="hidden"><defs><clipPath id="clip0"><rect x="-1" y="391" width="1282" height="330"/></clipPath><clipPath id="clip1"><rect x="0" y="392" width="1280" height="328"/></clipPath><clipPath id="clip2"><rect x="-1" y="392" width="1281" height="328"/></clipPath></defs><g clip-path="url(#clip0)" transform="translate(1 -391)"><g clip-path="url(#clip1)"><g clip-path="url(#clip2)"><text fill="#ffffff" font-family="Outfit Black,Outfit Black_MSFontService,sans-serif" font-weight="900" font-size="117" transform="matrix(1.57617 0 0 1.57452 96.0518 624)">Demai</text><text fill="#ffffff" font-family="Outfit Black,Outfit Black_MSFontService,sans-serif" font-weight="900" font-size="117" transform="matrix(1.57617 0 0 1.57452 671.617 624)">n</text><text fill="#ffffff" font-family="Outfit Thin,Outfit Thin_MSFontService,sans-serif" font-size="117" transform="matrix(1.57617 0 0 1.57452 774.856 624)">W</text><text fill="#ffffff" font-family="Outfit Thin,Outfit Thin_MSFontService,sans-serif" font-size="117" transform="matrix(1.57617 0 0 1.57452 949.023 624)">orks</text><path d="M968.33 248.774C968.33 235.731 978.905 225.156 991.948 225.156 1004.99 225.156 1015.57 235.731 1015.57 248.774 1015.57 261.818 1004.99 272.392 991.948 272.392 978.905 272.392 968.33 261.818 968.33 248.774Z" fill="#FFC83D" fill-rule="evenodd" transform="matrix(1.00105 0 0 1 -348.163 252.209)"/><path d="M511.291 140.132C584.579 140.132 646.591 188.53 667.269 255.189L667.597 256.463 663.785 254.387C654.673 250.524 644.656 248.387 634.14 248.387 628.883 248.387 623.75 248.921 618.791 249.938L609.933 252.696 603.791 241.35C583.744 211.6 549.796 192.04 511.291 192.04 449.683 192.04 399.739 242.113 399.739 303.883 399.739 365.653 449.683 415.725 511.291 415.725 534.394 415.725 555.856 408.684 573.659 396.625L587.786 384.94 591.56 388.063C603.714 396.296 618.368 401.103 634.14 401.103L642.776 400.231 626.777 419.671C597.222 449.304 556.392 467.633 511.291 467.633 421.091 467.633 347.969 394.32 347.969 303.883 347.969 213.445 421.091 140.132 511.291 140.132Z" fill="#E2D8F4" fill-rule="evenodd" transform="matrix(1.00105 0 0 1 -348.163 252.209)"/><path d="M406.951 343.246 407.971 346.541C425.009 386.976 464.896 415.348 511.384 415.348 540.44 415.348 566.917 404.266 586.848 386.082L588.435 384.41 592.144 387.483C604.374 395.776 619.117 400.618 634.987 400.618L643.979 399.708 635.636 410.634C605.506 445.547 561.014 467.633 511.384 467.633 454.665 467.633 404.657 438.786 375.126 394.912L370.012 386.461 375.126 378.011C382.509 367.041 391.171 357.013 400.898 348.138Z" fill="#FFC83D" fill-rule="evenodd" transform="matrix(1.00105 0 0 1 -348.163 252.209)"/></g></g></g></svg>
