<svg width="500" height="507" xmlns="http://www.w3.org/2000/svg" xmlns:xlink="http://www.w3.org/1999/xlink" overflow="hidden"><defs><clipPath id="clip0"><rect x="781" y="214" width="500" height="507"/></clipPath><clipPath id="clip1"><rect x="781" y="214" width="499" height="506"/></clipPath><clipPath id="clip2"><rect x="781" y="214" width="499" height="506"/></clipPath></defs><g clip-path="url(#clip0)" transform="translate(-781 -214)"><g clip-path="url(#clip1)"><g clip-path="url(#clip2)"><path d="M553.565-286.081C558.616-284.398 563.171-281.987 567.226-278.849 571.283-275.711 574.765-272.076 577.673-267.943 580.581-263.81 582.839-259.294 584.446-254.396 586.054-249.498 586.857-244.447 586.857-239.243L586.857-98.9579C586.857-89.3145 585.441-79.8622 582.609-70.602 579.778-61.3414 575.683-52.6549 570.326-44.5423L570.326 98.9579 384.35 98.9579 402.488-45.0016C394.376-53.7264 386.34-62.4512 378.38-71.1759 370.421-79.9007 362.232-88.5488 353.813-97.1209 344.17-106.764 339.349-118.397 339.349-132.02 339.349-138.908 340.65-145.337 343.252-151.306 345.854-157.276 349.375-162.518 353.813-167.034 358.252-171.549 363.457-175.108 369.426-177.71 375.396-180.312 381.824-181.613 388.712-181.613L388.712-264.04C388.712-268.631 389.401-273.147 390.779-277.586 386.187-277.892 381.824-278.925 377.692-280.686 373.559-282.446 369.809-284.742 366.441-287.574 363.074-290.406 360.242-293.773 357.946-297.676 355.65-301.579 354.119-305.751 353.354-310.19 349.375-305.903 344.744-302.574 339.463-300.202 334.183-297.829 328.634-296.643 322.817-296.643 317.001-296.643 311.452-297.829 306.172-300.202 300.891-302.574 296.26-305.827 292.28-309.96 291.362-305.521 289.755-301.388 287.459-297.562 285.163-293.735 282.37-290.367 279.079-287.459 275.787-284.551 272.076-282.255 267.943-280.571 263.81-278.887 259.448-277.892 254.856-277.586 255.621-275.443 256.119-273.224 256.349-270.928 256.578-268.631 256.693-266.336 256.693-264.04L256.693-181.613C263.581-181.613 270.048-180.312 276.094-177.71 282.14-175.108 287.382-171.587 291.821-167.148 296.26-162.71 299.781-157.467 302.383-151.421 304.985-145.375 306.286-138.908 306.286-132.02 306.286-118.397 301.465-106.764 291.821-97.1209 283.403-88.5488 275.214-79.9007 267.254-71.1759 259.294-62.4512 251.258-53.7264 243.146-45.0016L261.284 98.9579 75.3088 98.9579 75.3088-44.5423C69.9514-52.6549 65.8569-61.3414 63.0251-70.602 60.1934-79.8622 58.7776-89.3145 58.7776-98.9579L58.7776-239.243C58.7776-244.447 59.5812-249.498 61.1884-254.396 62.7956-259.294 65.0533-263.81 67.9616-267.943 70.8698-272.076 74.352-275.711 78.4085-278.849 82.4649-281.987 87.0182-284.398 92.0692-286.081 92.682-292.204 94.4422-297.983 97.3505-303.416 100.259-308.85 103.894-313.519 108.257-317.422 112.619-321.325 117.632-324.425 123.295-326.721 128.959-329.016 134.928-330.165 141.204-330.165 146.561-330.165 152.072-329.17 157.735-327.179L158.653-327.639C158.348-329.016 158.118-330.433 157.964-331.886 157.811-333.341 157.735-334.756 157.735-336.134 157.735-341.491 158.768-346.734 160.835-351.862 162.901-356.99 165.771-361.39 169.445-365.064L205.033-400.651C212.992-408.611 222.712-412.591 234.192-412.591 238.937-412.591 243.49-411.787 247.853-410.18 252.215-408.573 256.233-406.315 259.907-403.407 262.968-411.213 267.981-417.451 274.946-422.119 281.91-426.788 289.602-429.122 298.02-429.122L347.614-429.122C356.339-429.122 364.069-426.788 370.804-422.119 377.538-417.451 382.513-411.213 385.728-403.407 389.401-406.315 393.419-408.573 397.781-410.18 402.144-411.787 406.698-412.591 411.443-412.591 422.923-412.591 432.643-408.611 440.602-400.651L475.731-365.523C483.844-357.411 487.9-347.844 487.9-336.823 487.9-334.068 487.517-331.006 486.752-327.639L487.9-327.179C493.563-329.17 499.073-330.165 504.431-330.165 510.706-330.165 516.676-329.016 522.34-326.721 528.003-324.425 533.016-321.325 537.378-317.422 541.741-313.519 545.338-308.85 548.17-303.416 551.001-297.983 552.8-292.204 553.565-286.081Z" transform="matrix(0.994989 0.10219 -0.102213 0.994763 718.671 613.81)"/><path d="M347.614-396.06C349.91-396.06 351.862-395.295 353.469-393.763 355.076-392.233 355.88-390.32 355.88-388.024 355.88-386.493 355.574-385.192 354.962-384.121L330.165-334.297C328.481-331.236 326.032-329.705 322.817-329.705 319.45-329.705 317.001-331.236 315.47-334.297L290.673-384.121C290.061-385.192 289.755-386.493 289.755-388.024 289.755-390.32 290.559-392.233 292.166-393.763 293.773-395.295 295.725-396.06 298.02-396.06ZM411.673-379.758C413.815-379.758 415.729-378.916 417.412-377.233L452.311-342.103C453.996-340.42 454.837-338.507 454.837-336.364 454.837-334.68 454.34-333.111 453.345-331.657 452.35-330.203 451.01-329.17 449.327-328.557 447.949-328.098 445.768-327.333 442.783-326.262 439.799-325.19 436.393-324.004 432.566-322.703 428.739-321.401 424.684-320.024 420.397-318.57 416.111-317.116 412.132-315.777 408.458-314.552 404.785-313.327 401.57-312.332 398.815-311.567 396.06-310.802 394.299-310.419 393.534-310.419 391.391-310.419 389.516-311.184 387.909-312.715 386.302-314.246 385.498-316.159 385.498-318.455 385.498-319.374 385.881-321.172 386.646-323.85 387.411-326.529 388.406-329.705 389.631-333.379 390.855-337.052 392.194-340.994 393.649-345.204 395.103-349.413 396.48-353.431 397.781-357.257 399.082-361.084 400.269-364.528 401.34-367.589 402.412-370.65 403.177-372.794 403.636-374.018 404.249-375.702 405.321-377.079 406.851-378.151 408.382-379.223 409.989-379.758 411.673-379.758ZM233.962-379.758C235.646-379.758 237.253-379.223 238.784-378.151 240.315-377.079 241.386-375.702 241.998-374.018 242.457-372.64 243.223-370.459 244.294-367.474 245.366-364.49 246.552-361.084 247.853-357.257 249.154-353.431 250.532-349.413 251.986-345.204 253.44-340.994 254.78-337.052 256.004-333.379 257.229-329.705 258.223-326.529 258.989-323.85 259.754-321.172 260.137-319.374 260.137-318.455 260.137-316.159 259.333-314.246 257.725-312.715 256.119-311.184 254.243-310.419 252.101-310.419 251.182-310.419 249.384-310.802 246.705-311.567 244.026-312.332 240.85-313.327 237.177-314.552 233.503-315.777 229.523-317.116 225.237-318.57 220.952-320.024 216.895-321.401 213.069-322.703 209.242-324.004 205.798-325.19 202.736-326.262 199.675-327.333 197.533-328.098 196.308-328.557 194.624-329.17 193.285-330.203 192.29-331.657 191.295-333.111 190.797-334.68 190.797-336.364 190.797-338.507 191.639-340.42 193.323-342.103L228.222-377.233C229.906-378.916 231.819-379.758 233.962-379.758Z" fill="#F7630C" transform="matrix(0.994989 0.10219 -0.102213 0.994763 718.671 613.81)"/><path d="M223.86 65.8951 108.371 65.8951 108.371-98.9579 207.329-66.1247ZM438.306-66.1247 537.264-98.9579 537.264 65.8951 421.775 65.8951Z" fill="#FFB900" transform="matrix(0.994989 0.10219 -0.102213 0.994763 718.671 613.81)"/><path d="M537.264-255.774C541.855-255.774 545.759-254.167 548.973-250.953 552.188-247.738 553.795-243.835 553.795-239.243L553.795-98.9579C553.795-89.9265 552.073-81.3928 548.629-73.3571 545.185-65.3211 540.478-58.3184 534.508-52.3488 528.539-46.3792 521.536-41.6723 513.5-38.2284 505.464-34.7844 496.931-33.0624 487.9-33.0624 479.175-33.0624 470.757-34.7078 462.644-37.9988 454.531-41.2897 447.337-46.0731 441.061-52.3488 433.867-59.5429 426.979-66.8518 420.397-74.2756 413.815-81.6992 407.081-89.0848 400.193-96.432L377.233-120.311C374.018-123.831 372.411-127.734 372.411-132.02 372.411-136.459 374.018-140.324 377.233-143.615 380.447-146.906 384.274-148.551 388.712-148.551 393.304-148.551 397.208-146.944 400.422-143.729L421.775-122.376 430.729-125.821 421.775-132.02 421.775-264.04C421.775-268.631 423.382-272.535 426.597-275.749 429.811-278.964 433.714-280.571 438.306-280.571 442.898-280.571 446.801-278.964 450.016-275.749 453.23-272.535 454.837-268.631 454.837-264.04L471.369-297.103C475.96-297.103 479.864-295.495 483.078-292.28 486.293-289.066 487.9-285.163 487.9-280.571L504.431-297.103C508.869-297.103 512.696-295.457 515.911-292.166 519.125-288.875 520.732-285.01 520.732-280.571L520.732-239.243ZM256.693-148.551C261.284-148.551 265.188-146.906 268.402-143.615 271.617-140.324 273.224-136.459 273.224-132.02 273.224-127.734 271.617-123.831 268.402-120.311L245.443-96.432C238.555-89.0848 231.781-81.6992 225.123-74.2756 218.464-66.8518 211.538-59.5429 204.344-52.3488 197.915-46.0731 190.759-41.2897 182.877-37.9988 174.993-34.7078 166.613-33.0624 157.735-33.0624 148.704-33.0624 140.17-34.7844 132.135-38.2284 124.099-41.6723 117.096-46.3792 111.126-52.3488 105.157-58.3184 100.45-65.3211 97.0057-73.3571 93.5621-81.3928 91.8395-89.9265 91.8403-98.9579L91.8403-239.243C91.8395-243.835 93.4469-247.738 96.6617-250.953 99.8756-254.167 103.779-255.774 108.371-255.774 112.81-255.774 116.637-254.129 119.851-250.838 123.065-247.547 124.673-243.682 124.673-239.243L141.204-297.103C145.796-297.103 149.699-295.495 152.913-292.28 156.128-289.066 157.735-285.163 157.735-280.571L174.266-297.103C178.093-297.103 181.078-296.375 183.221-294.921 185.363-293.467 187.009-291.592 188.157-289.296 189.305-287 190.032-284.398 190.338-281.49 190.645-278.581 190.797-275.673 190.797-272.765L190.797-264.04 207.329-280.571C211.921-280.571 215.824-278.964 219.038-275.749 222.253-272.535 223.86-268.631 223.86-264.04L223.86-132.02 219.957-126.739 223.86-122.376 245.213-143.729C248.427-146.944 252.254-148.551 256.693-148.551Z" fill="#FFC83D" transform="matrix(0.994989 0.10219 -0.102213 0.994763 718.671 613.81)"/><path d="M174.266-165.083 157.735-165.083 157.735-280.571C157.735-285.163 159.342-289.066 162.557-292.28 165.771-295.495 169.674-297.103 174.266-297.103ZM471.369-165.083 454.837-165.083 454.837-280.571C454.837-285.163 456.445-289.066 459.659-292.28 462.873-295.495 466.776-297.103 471.369-297.103ZM504.431-165.083 487.9-165.083 487.9-280.571C487.9-285.163 489.507-289.066 492.721-292.28 495.935-295.495 499.839-297.103 504.431-297.103ZM141.204-165.083 124.673-165.083 124.673-280.571C124.673-285.01 126.318-288.875 129.609-292.166 132.9-295.457 136.765-297.103 141.204-297.103ZM207.329-165.083 190.797-165.083 190.797-264.04C190.797-268.631 192.405-272.535 195.619-275.749 198.833-278.964 202.736-280.571 207.329-280.571ZM216.971-115.489 207.329-115.489C200.441-115.489 194.012-114.188 188.042-111.586 182.072-108.983 176.83-105.463 172.315-101.024 167.799-96.5848 164.24-91.3811 161.638-85.4108 159.036-79.4414 157.735-73.0128 157.735-66.1247L141.204-66.1247C141.204-75.3087 142.926-83.8803 146.37-91.8403 149.814-99.7996 154.521-106.764 160.49-112.734 166.46-118.703 173.463-123.41 181.499-126.854 189.535-130.298 198.145-132.02 207.329-132.02L223.86-132.02 223.86-122.376ZM438.306-132.02C447.337-132.02 455.87-130.298 463.906-126.854 471.942-123.41 478.945-118.703 484.915-112.734 490.884-106.764 495.63-99.7996 499.15-91.8403 502.67-83.8803 504.431-75.3087 504.431-66.1247L487.9-66.1247C487.9-73.0128 486.598-79.4414 483.996-85.4108 481.394-91.3811 477.836-96.5848 473.32-101.024 468.804-105.463 463.562-108.983 457.593-111.586 451.623-114.188 445.194-115.489 438.306-115.489L428.663-115.489 421.775-122.376 421.775-132.02ZM537.264-165.083 520.732-165.083 520.732-239.243C520.732-243.682 522.378-247.547 525.669-250.838 528.96-254.129 532.825-255.774 537.264-255.774Z" fill="#D48C00" transform="matrix(0.994989 0.10219 -0.102213 0.994763 718.671 613.81)"/></g></g></g></svg>