<svg xmlns="http://www.w3.org/2000/svg" viewBox="0 0 600 500" width="600" height="500"><g transform="translate(2.0 2.0) rotate(0.0 297.5 248.0) scale(0.6103002266829414 0.6101026104027416)"><svg width="974.93" height="812.978" viewBox="0 0 974.93 812.978"><clipPath id="a"><path d="M739.21 8.044c-17.635-15.456-45.954 1.565-49.284 19.303-3.438 18.313 16.828 4.464 34.01.916-7.248 21.503 53.329 30.767 52.176 73.25-1.433 52.813-52.927 103.389-27.522 177.895 8.394 24.617 25.089 13.627 24.309-.161-.894-15.815 4.12-40.657 18.725-54.598-1.184 9.503 2.8 24.801 8.267 32.595 4.417 6.296 11.044 8.609 10.075-1.181-3.753-37.925 8.471-59.139 32.062-112.364C872.974 73.88 835.64-9.822 739.21 8.044z"/></clipPath><path d="M876.705 754.774c-60.774 22.012-145.548 40.307-240.189 49.73-99.071 9.866-189.465 8.072-254.107-2.777-59.704-10.028-97.45-27.783-99.784-51.211-2.248-22.639 28.928-46.585 82.03-67.658 61.39-24.368 152.076-44.889 254.27-55.068 69.484-6.916 134.688-8.105 189.735-4.452 95.959 6.365 161.066 27.426 164.157 58.44 2.441 24.563-34.506 50.692-96.112 72.996z" fill="#531CB3"/><path d="M510.493 813.03c-47.705 0-91.41-3.12-128.416-9.331-36.526-6.135-98.274-21.176-101.443-52.984-1.17-11.783 5.893-23.952 20.991-36.17 14.204-11.493 35.162-22.779 62.291-33.546 63.735-25.298 156.61-45.417 254.809-55.199 67.323-6.699 133.047-8.238 190.065-4.457 48.142 3.193 88.748 10.138 117.427 20.083 30.644 10.626 46.991 24.136 48.588 40.154 2.463 24.776-32.135 51.438-97.42 75.075-63.539 23.013-149.011 40.713-240.672 49.839-43.813 4.364-86.409 6.536-126.22 6.536zm234.165-189.712c-39.928 0-82.395 2.169-125.536 6.462-97.845 9.746-190.326 29.771-253.73 54.938-54.156 21.49-82.844 44.788-80.777 65.602 2.153 21.612 37.001 39.169 98.125 49.435 66.57 11.174 158.996 12.179 253.578 2.76 91.341-9.095 176.471-26.716 239.707-49.62 62.479-22.62 97.033-48.469 94.801-70.917-1.408-14.128-17.286-26.844-45.918-36.771-28.347-9.83-68.591-16.701-116.381-19.87-20.286-1.349-41.69-2.019-63.869-2.019z" fill="#531CB3"/><path d="M876.705 754.774c-60.774 22.012-145.548 40.307-240.189 49.73-99.071 9.866-189.465 8.072-254.107-2.777-11.822-37.746-17.463-78.042-17.755-118.868-.27-38.6 4.247-77.686 12.838-115.529-35.034 17.668-75.687 29.177-122.153 29.177-205.815 0-217.928-170.306-208.549-257.933h.011c1.751-16.436 4.268-29.966 6.408-38.913-30.862-14.372-50.043-43.268-51.178-63.994-.702-12.87 10.763-8.537 12.697-.703 2.961 11.984 14.383 21.569 18.608 23.687 4.225 2.107 10.514 5.835 3.804-2.961-13.529-17.766-21.98-47.364-21.558-62.59.421-15.215 11.411-16.49 12.686-8.45 1.264 8.029 3.804 19.03 9.726 32.559-1.697-10.568 2.377-29.133 8.31-39.605 4.225-7.478 9.726-16.642 17.906-11.141 4.225-4.928 15.928-10.147 13.108 8.04-7.575 48.823 14.794 72.726 31.284 72.726s34.256-18.608 48.206-19.03c13.962-.421 18.608 11.844 7.186 13.529-11.411 1.697-27.34 14.243-29.177 26.216-3.544 23.179-20.715 27.491-24.098 50.746a105.5 105.5 0 0 0-.994 10.622c-.173 3.717-.173 7.564.011 11.487 2.021 42.771 25.881 95.019 88.092 95.019 54.161 0 95.03-47.461 155.912-92.955.584-20.305 1.999-38.816 3.652-55.382 2.269-22.671 5.014-41.701 6.754-56.689 2.302-19.819 2.874-32.581-1.686-37.411-14.383-15.215-55.49-32.548-62.136-60.536-3.836-16.134 9.131-16.696 12.233-8.807 3.101 7.899 10.439 16.35 18.889 20.294-6.484-13.81-7.489-30.452-7.888-37.487-.562-9.866 12.297-14.837 16.35-1.135 5.068 17.203 18.036 40.88 26.216 47.363 8.17 6.484 10.99 2.259 6.203-4.506-4.798-6.765-11.563-32.138-11.282-44.824s13.248-18.608 15.507-5.922c2.939 16.523 16.912 46.542 23.957 54.279 7.056 7.737 10.158 6.614 9.023-2.691-1.124-9.304-2.82-31.187-1.405-38.567 1.405-7.381 13.81-11.617 15.215 1.643 1.416 13.248 7.618 40.588 16.361 43.689 8.731 3.102 33.542-4.225 45.667 5.079 12.114 9.293 9.866 21.418-1.697 17.474-11.552-3.944-22.552-2.54-31.003 5.079-5.641 5.068-13.54 8.169-14.945 17.193-.616 3.923-1.48 15.161-1.621 30.506-.076 8.537.065 18.349.616 28.885.508 10.017 1.383 20.694 2.755 31.565 34.547-15.021 74.973-26.194 123.72-29.89a473.643 473.643 0 0 1 35.498-1.307c79.436 0 190.621 48.92 252.162 125.784 27.837 34.753 45.516 75.233 45.516 119.473 0 64.675-32.948 112.719-78.258 144.252 2.993 13.475 6.97 25.708 11.627 36.806 12.602 30.009 30.216 51.762 46.965 67.701z" fill="#fff"/><path d="M689.571 188.463c-33.081-1.574-65.928-42.791-49.161-88.795 21.263-58.34 84.29-84.582 116.141-76.421 25.295 6.482 52.575 34.402 39.195 88.81-10.156 41.301-52.159 171.257-52.159 171.257L638.156 250.05z" fill="#E2D8F4"/><path d="M743.587 285.314c-.199 0-.402-.03-.602-.093l-105.431-33.265a2.002 2.002 0 0 1-.934-3.189l48.978-58.667c-15.181-2.096-30.258-12.128-40.085-26.904-12.475-18.757-15.02-42.162-6.983-64.213C660.179 39.58 724.2 12.897 757.046 21.31c14.696 3.766 27.578 13.745 35.342 27.38 9.595 16.848 11.427 38.925 5.298 63.845-10.057 40.897-51.778 170.095-52.198 171.395a1.997 1.997 0 0 1-1.901 1.384zM641.604 249.04l100.689 31.769c5.211-16.177 42.154-131.179 51.51-169.23 14.011-56.973-17.136-81.113-37.75-86.395-16.083-4.123-39.287.886-60.55 13.07-24.927 14.283-43.826 36.337-53.215 62.098-7.596 20.843-5.207 42.941 6.556 60.628 9.973 14.996 25.615 24.762 40.822 25.485a2 2 0 0 1 1.44 3.279z" fill="#531CB3"/><path d="M730.053 123.111c0 11.631-14.41 23.713-33.356 23.713-18.955 0-27.817-9.643-27.817-18.284 0-1.767.28-3.229.782-4.435 3.169-7.562 15.14-5.251 22.048-7.647 8.309-2.88 9.635-10.195 21.606-10.195 6.72 0 11.98 3.415 14.69 8.496 1.325 2.464 2.047 5.31 2.047 8.352z" fill="#531CB3"/><path d="M696.698 148.824c-9.12 0-16.806-2.182-22.228-6.311-4.823-3.672-7.589-8.765-7.589-13.973 0-1.958.314-3.708.935-5.202 2.597-6.196 9.607-6.9 15.792-7.521 2.785-.279 5.415-.543 7.448-1.249 2.884-1 4.849-2.613 6.929-4.322 3.416-2.805 7.287-5.984 15.332-5.984 7.112 0 13.263 3.572 16.455 9.555 1.492 2.774 2.283 5.99 2.283 9.293-.001 12.163-14.521 25.714-35.357 25.714zm16.618-40.561c-6.613 0-9.477 2.352-12.793 5.075-2.261 1.856-4.598 3.776-8.158 5.01-2.478.859-5.468 1.159-8.359 1.449-5.567.559-10.825 1.086-12.499 5.081-.415.999-.626 2.233-.626 3.662 0 8.092 8.868 16.284 25.817 16.284 14.801 0 31.356-9.286 31.356-21.713 0-2.644-.625-5.204-1.809-7.404-2.525-4.733-7.236-7.444-12.929-7.444z" fill="#531CB3"/><path d="M728.006 114.759c-13.619 12.506-42.456 14.579-58.343 9.346 3.169-7.562 15.14-5.251 22.048-7.647 8.309-2.88 9.635-10.195 21.606-10.195 6.719 0 11.979 3.416 14.689 8.496z" fill="#fff"/><path d="M688.649 128.776c-7.182 0-14.033-.933-19.612-2.771a2.004 2.004 0 0 1-1.219-2.673c2.595-6.19 9.604-6.894 15.789-7.515 2.785-.279 5.415-.543 7.448-1.249 2.884-1 4.849-2.613 6.929-4.322 3.416-2.805 7.287-5.984 15.332-5.984 7.112 0 13.263 3.572 16.455 9.555a2 2 0 0 1-.412 2.415c-9.202 8.451-25.675 12.544-40.71 12.544zm-15.831-5.814c18.566 5.011 41.965-.098 52.602-8.619-2.652-3.884-6.98-6.08-12.104-6.08-6.613 0-9.477 2.352-12.793 5.075-2.26 1.856-4.598 3.776-8.157 5.01-2.478.859-5.468 1.159-8.359 1.449-4.516.454-8.828.886-11.189 3.165z" fill="#531CB3"/><ellipse cx="728.469" cy="77.515" fill="#fff" rx="9.967" ry="18.139" transform="matrix(.3016 -.9534 .9534 .3016 434.8697 748.6891)"/><path d="M734.474 90.483c-3.059 0-6.353-.527-9.614-1.559-4.936-1.561-9.266-4.11-12.193-7.177-3.225-3.38-4.433-7.04-3.399-10.306 2.023-6.398 12.042-8.744 22.81-5.337 10.767 3.406 17.616 11.085 15.592 17.483-1.033 3.266-4.125 5.566-8.708 6.476-1.41.281-2.918.42-4.488.42zM722.386 68.59c-4.552 0-8.421 1.267-9.304 4.058-.564 1.785.339 4.095 2.48 6.338 2.47 2.589 6.201 4.764 10.505 6.125s8.607 1.728 12.116 1.03c3.041-.604 5.109-1.974 5.674-3.759 1.416-4.477-5.707-10.162-12.984-12.464-2.741-.867-5.739-1.328-8.487-1.328z" fill="#531CB3"/><ellipse cx="672.432" cy="60.513" fill="#fff" rx="9.967" ry="18.139" transform="matrix(.3016 -.9534 .9534 .3016 411.9429 683.3864)"/><path d="M678.415 73.483c-2.981 0-6.25-.503-9.592-1.56-4.935-1.561-9.265-4.11-12.192-7.178-3.225-3.38-4.433-7.04-3.399-10.306 2.023-6.398 12.043-8.742 22.81-5.336 4.935 1.561 9.265 4.11 12.192 7.178 3.225 3.38 4.433 7.04 3.399 10.306-1.396 4.412-6.595 6.896-13.218 6.896zm-12.067-21.895c-4.552 0-8.421 1.266-9.304 4.057-.564 1.785.339 4.095 2.48 6.338 2.47 2.589 6.201 4.764 10.504 6.125 7.28 2.303 16.374 1.748 17.791-2.729.564-1.785-.339-4.095-2.48-6.338-2.47-2.589-6.201-4.764-10.504-6.125-2.74-.867-5.739-1.328-8.487-1.328zm23.378 14.395h.01z" fill="#531CB3"/><circle cx="661.449" cy="55.125" fill="#531CB3" r="5.386"/><path d="M483.673 178.729c-11.552-3.944-22.552-2.54-31.003 5.079-5.641 5.068-13.54 8.169-14.945 17.193-.616 3.923-1.48 15.161-1.621 30.506-15.572 15.161-56.171 16.285-71.958-.713 2.302-19.819 2.874-32.581-1.686-37.411-14.383-15.215-55.49-32.548-62.136-60.536-3.836-16.134 9.131-16.696 12.233-8.807 3.101 7.899 10.439 16.35 18.889 20.294-6.484-13.81-7.489-30.452-7.888-37.487-.562-9.866 12.297-14.837 16.35-1.135 5.068 17.203 18.036 40.88 26.216 47.363 8.17 6.484 10.99 2.259 6.203-4.506-4.798-6.765-11.563-32.138-11.282-44.824s13.248-18.608 15.507-5.922c2.939 16.523 16.912 46.542 23.957 54.279 7.056 7.737 10.158 6.614 9.023-2.691-1.124-9.304-2.82-31.187-1.405-38.567 1.405-7.381 13.81-11.617 15.215 1.643 1.416 13.248 7.618 40.588 16.361 43.689 8.731 3.102 33.542-4.225 45.667 5.079 12.114 9.294 9.866 21.418-1.697 17.474z" fill="#E2D8F4"/><path d="M399.979 245.21a78.55 78.55 0 0 1-1.94-.024c-15.132-.38-28.019-5.13-35.358-13.032a1.999 1.999 0 0 1-.521-1.592c1.81-15.583 3.212-31.184-1.153-35.807-4.484-4.743-11.939-9.9-19.833-15.359-16.979-11.744-38.111-26.36-42.795-46.088-2.327-9.787 1.124-14.617 5.13-15.874 4.295-1.345 9.085 1.233 10.91 5.873 2.429 6.188 7.309 12.229 12.914 16.272-4.654-12.965-5.447-26.914-5.771-32.62-.325-5.692 3.256-10.651 8.328-11.533 4.167-.726 9.49 1.447 11.936 9.718 4.973 16.88 17.862 40.277 25.54 46.363 2.999 2.38 4.739 2.829 5.29 2.795.047-.49-.168-2.044-1.962-4.579-5.28-7.445-11.921-33.683-11.648-46.023.193-8.709 5.763-14.521 10.812-14.91 3.395-.254 7.453 1.881 8.663 8.682 2.82 15.854 16.603 45.746 23.467 53.283 3.398 3.726 4.978 4.348 5.424 4.451.179-.369.604-1.706.135-5.553-.918-7.604-2.951-31.013-1.383-39.187.921-4.839 5.759-8.749 10.56-8.565 1.769.073 7.619 1.037 8.608 10.374 1.701 15.918 8.246 39.605 15.041 42.016 2.894 1.028 8.433.725 14.296.405 10.58-.578 23.75-1.297 31.919 4.971 8.617 6.611 10.175 14.042 7.977 18.15-1.91 3.568-6.224 4.617-11.536 2.804h-.001c-11.309-3.861-21.344-2.247-29.017 4.671-1.504 1.351-3.145 2.558-4.731 3.725-4.451 3.274-8.655 6.366-9.577 12.29-.564 3.593-1.454 14.603-1.597 30.216a2 2 0 0 1-.605 1.415c-7.849 7.642-22.096 12.272-37.522 12.272zm-33.738-15.124c6.718 6.725 18.273 10.759 31.898 11.102 14.745.376 28.406-3.658 35.975-10.553.158-14.412.952-25.588 1.636-29.944 1.175-7.551 6.479-11.452 11.159-14.894 1.579-1.161 3.07-2.258 4.426-3.476 8.687-7.833 20.403-9.782 32.986-5.483h-.001c3.299 1.125 5.812.787 6.719-.906 1.23-2.297-.093-7.877-6.885-13.088-6.995-5.367-19.343-4.693-29.267-4.151-6.547.358-12.202.667-15.853-.63-11.075-3.929-16.763-36.78-17.68-45.362-.453-4.277-2.156-6.691-4.796-6.8-2.826-.124-5.914 2.417-6.465 5.319-1.353 7.052.289 28.545 1.425 37.954.427 3.502.643 8.322-2.404 9.722-2.492 1.144-5.603-.533-10.082-5.444-7.337-8.058-21.475-38.557-24.449-55.277-.303-1.701-1.328-5.633-4.417-5.395-2.888.223-6.97 4.173-7.121 11.011-.275 12.43 6.469 37.356 10.914 43.622 2.986 4.22 3.542 7.899 1.488 9.843-1.239 1.172-4.257 2.393-10.565-2.613-8.324-6.598-21.645-30.554-26.891-48.365-1.444-4.882-4.214-7.47-7.414-6.909-2.611.454-5.258 3.19-5.021 7.365.36 6.33 1.314 23.144 7.702 36.75a2.001 2.001 0 0 1-2.657 2.663c-8.431-3.935-16.43-12.525-19.905-21.375-1.167-2.968-4.018-4.139-5.989-3.52-2.287.718-4.127 4.019-2.436 11.133 4.33 18.236 23.907 31.776 41.179 43.723 8.07 5.582 15.692 10.854 20.464 15.902 4.978 5.27 4.688 17.471 2.327 38.076z" fill="#531CB3"/><path d="M439.476 291.956c34.547-15.021 74.973-26.194 123.72-29.89.194 1.697-.119 3.307-1.308 4.582-1.027 1.102-2.507 1.632-3.933 2.118-16.62 5.598-33.964 8.677-50.94 13.065-15.626 4.031-30.927 9.174-46.218 14.318-10.536 3.544-16.084 4.431-19.421 6.302zm-85.153 59.029c-14.351 7.435-13.67 16.582-26.562 26.318-11.941 9.034-26.864 13.94-37.573 24.411-7.445 7.273-12.514 16.933-20.942 23.039-13.519 9.801-32.419 8.267-47.029 16.35-6.614 3.653-12.254 9.229-19.473 11.455-10.482 3.231-21.645-1.308-31.554-6.019-16.155-7.683-32.311-16.328-44.446-29.468-14.426-15.615-21.753-36.222-25.189-56.884-1.199-7.175-5.684-22.499.151-27.664 2.161-1.924 4.971-2.896 8.018-3.209-.173 3.717-.173 7.564.011 11.487 2.021 42.771 25.881 95.019 88.092 95.019 54.161 0 95.03-47.461 155.912-92.955zm463.791 299.283c-9.104 6.036-16.686 10.702-29.706 17.557.846-9.302 15.463-15.958 22.185-21.047 9.952-7.543 20.996-14.232 28.053-24.53 12.244-17.884 9.564-42.101 18.046-62.049 5.609-13.162 16.231-25.243 15.269-39.518-.562-8.18-4.993-15.766-5.306-23.968-.335-8.321 3.609-16.35 3.447-24.681-.27-13.562-11.022-24.368-16.198-36.903-5.544-13.432-4.549-28.528-3.469-43.009l.421-5.576c27.837 34.753 45.516 75.233 45.516 119.473.001 64.674-32.948 112.718-78.258 144.251z" fill="#E2D8F4"/><circle cx="718.092" cy="72.127" fill="#531CB3" r="5.386"/><path d="M647.681 94.901c-6.812-7.102-10.006-16.103-6.255-20.468 4.246-4.941 11.806-1.66 20.023 7.124" fill="#E2D8F4"/><path d="M647.682 96.901a1.994 1.994 0 0 1-1.444-.616c-9.082-9.468-10.059-18.815-6.329-23.155 1.643-1.911 3.812-2.949 6.272-3.001 5.887-.12 12.37 5.402 16.729 10.062a2 2 0 0 1-2.921 2.733c-5.297-5.663-10.305-8.876-13.724-8.796-1.329.028-2.416.554-3.323 1.609-2.833 3.296-.06 11.272 6.182 17.779a2 2 0 0 1-1.442 3.385zm41.889 91.562c18.496-.15 29.966-4.332 35.88-8.046 13.907-8.736 11.934 5.641 1.785 12.971-14.832 10.712-37.665-4.924-66.643 29.786l28.978-34.711z" fill="#531CB3"/><path d="M660.593 225.173a1.99 1.99 0 0 1-1.281-.465 1.994 1.994 0 0 1-.718-1.536c0-.452.152-.907.465-1.281l28.978-34.71a2 2 0 0 1 1.519-.718c19.841-.161 30.34-4.918 34.832-7.74 7.832-4.919 10.945-2.768 12.106-1.047 2.678 3.973-1.251 12.396-8.085 17.333-5.664 4.09-12.398 4.645-19.528 5.231-12.695 1.045-28.494 2.345-46.751 24.214a2 2 0 0 1-1.537.719zm29.923-34.721-11.577 13.867c11.095-6.542 21.024-7.359 29.613-8.065 6.843-.563 12.753-1.05 17.514-4.488 6.109-4.412 7.989-10.55 7.11-11.854-.294-.438-2.381-.491-6.661 2.198-4.779 3.002-15.764 8.031-35.999 8.342z" fill="#531CB3"/><path d="M163.994 241.729c-11.411 1.697-27.34 14.243-29.177 26.216-3.544 23.179-20.715 27.491-24.098 50.746-.994 6.808-1.351 14.297-.983 22.109-13.962 10.169-48.509 11.865-62.935-2.226 1.751-16.436 4.268-29.966 6.408-38.913-30.862-14.372-50.043-43.268-51.178-63.994-.702-12.87 10.763-8.537 12.697-.703 2.961 11.984 14.383 21.569 18.608 23.687 4.225 2.107 10.514 5.835 3.804-2.961-13.529-17.766-21.98-47.364-21.558-62.59.421-15.215 11.411-16.49 12.686-8.45 1.264 8.029 3.804 19.03 9.726 32.559-1.697-10.568 2.377-29.133 8.31-39.605 4.225-7.478 9.726-16.642 17.906-11.141 4.225-4.928 15.928-10.147 13.108 8.04-7.575 48.823 14.794 72.726 31.284 72.726s34.256-18.608 48.206-19.03c13.961-.421 18.608 11.844 7.186 13.53z" fill="#E2D8F4"/><path d="m78.844 350.785-.412-.001c-14.055-.076-26.093-4.005-33.028-10.78a2 2 0 0 1-.591-1.643c1.883-17.677 4.486-30.656 6.082-37.588-31.576-15.336-49.751-44.751-50.86-64.998-.458-8.39 3.79-9.938 5.638-10.213 4.518-.672 9.658 3.494 10.998 8.922 2.726 11.035 13.521 20.353 17.563 22.379.373.186.766.387 1.166.591.271.138.579.295.905.459a55.896 55.896 0 0 0-.753-1.01c-13.497-17.723-22.41-47.878-21.967-63.858.281-10.137 4.966-14.97 9.484-15.264 3.636-.236 6.518 2.399 7.176 6.556 1.166 7.402 3.026 14.706 5.64 22.109.931-10.079 4.232-21.976 8.681-29.827 3.635-6.434 7.347-12.317 12.744-13.594 2.159-.512 4.359-.202 6.56.918 3.006-2.796 7.913-5.325 11.691-3.585 3.701 1.703 4.958 6.565 3.735 14.452-3.953 25.477.19 47.57 11.368 60.616 5.338 6.23 11.876 9.803 17.939 9.803 8.169 0 16.943-5.019 25.428-9.874 8.038-4.598 15.63-8.941 22.718-9.155 9.24-.29 15.216 4.652 15.653 9.582.271 3.063-1.691 6.976-8.113 7.924-12.849 1.911-26.078 15.315-27.494 24.541-1.841 12.04-7.222 19.218-12.426 26.16-5.166 6.892-10.045 13.402-11.67 24.571-.997 6.827-1.321 14.137-.965 21.728a1.997 1.997 0 0 1-.82 1.71c-7.106 5.176-19.364 8.369-32.07 8.369zm-29.948-12.988c13.993 12.563 45.83 10.485 58.794 1.986-.288-7.45.065-14.637 1.05-21.381 1.771-12.176 7.188-19.403 12.427-26.393 5.134-6.849 9.983-13.318 11.672-24.367 1.971-12.844 18.616-26.071 30.86-27.892h.002c3.112-.459 4.874-1.811 4.714-3.615-.233-2.628-4.37-6.146-11.548-5.937-6.09.184-13.261 4.286-20.853 8.629-8.938 5.114-18.181 10.401-27.414 10.401-7.232 0-14.878-4.083-20.977-11.2-7.016-8.188-17.941-27.37-12.284-63.832.864-5.573.321-9.388-1.454-10.205-1.99-.915-6.019 1.277-8.16 3.774a2 2 0 0 1-2.634.358c-1.745-1.173-3.335-1.568-4.865-1.206-4.143.979-7.778 7.414-10.183 11.671-5.802 10.241-9.651 28.497-8.077 38.304a2 2 0 0 1-3.807 1.119c-4.903-11.202-8.131-22.012-9.869-33.05-.327-2.063-1.483-3.277-2.966-3.188-2.187.142-5.521 3.291-5.746 11.382-.423 15.312 8.158 44.263 21.151 61.323 2.964 3.886 4.208 6.173 2.777 7.887-1.58 1.893-4.243.533-7.929-1.349-.388-.198-.77-.393-1.136-.575-4.111-2.061-16.399-11.81-19.657-24.998-.886-3.584-4.334-6.263-6.524-5.925-1.593.238-2.428 2.496-2.235 6.039 1.062 19.398 18.956 47.821 50.025 62.29a2 2 0 0 1 1.101 2.278c-1.483 6.216-4.249 19.291-6.255 37.672z" fill="#531CB3"/><path d="M66.463 238.236a1.997 1.997 0 0 1-1.572-.761c-15.218-19.294-10.617-39.417-8.885-46.992.127-.559.238-1.043.321-1.445.811-3.937 2.537-7.518 4.061-10.677 2.443-5.065 3.854-8.296 2.167-10.767a2 2 0 0 1 3.303-2.256c3.078 4.507.676 9.487-1.867 14.76-1.492 3.095-3.035 6.294-3.746 9.746-.088.426-.205.938-.34 1.53-1.616 7.065-5.906 25.832 8.126 43.623a2 2 0 0 1-1.568 3.239zm-11.561 6.484c-.329 0-.662-.081-.969-.252-3.084-1.713-12.104-13.839-17.767-26.44a2 2 0 0 1 3.648-1.64c5.643 12.554 14.135 23.513 16.061 24.584a2 2 0 0 1-.973 3.748zm27.631 66.81c-.116 0-.232-.01-.35-.031-.598-.106-14.829-2.671-29.851-10.041a2 2 0 0 1 1.761-3.591c14.519 7.122 28.644 9.667 28.785 9.692a2 2 0 0 1-.345 3.971zm266.519-142.729c-1.803 0-6.139-4.95-7.777-6.818-3.139-3.583-7.697-9.389-11.592-16.707a2 2 0 1 1 3.531-1.879c5.902 11.09 13.952 19.335 16.29 21.297.375.11.72.332.983.661.783.978.564 1.848.365 2.279a2.03 2.03 0 0 1-1.773 1.166l-.027.001z" fill="#531CB3"/><path d="M510.493 813.03c-47.705 0-91.41-3.12-128.416-9.331a2 2 0 0 1-1.578-1.375c-11.538-36.841-17.542-77.03-17.846-119.451-.257-36.781 3.771-74.402 11.975-111.894-37.59 18.269-77.7 27.527-119.291 27.527-33.762 0-64.059-4.633-90.051-13.77a1.737 1.737 0 0 1-.109-.035C37.552 539.793 38.479 397.468 44.802 338.361a1.97 1.97 0 0 1 .033-.204c1.881-17.572 4.47-30.478 6.06-37.383-31.576-15.336-49.751-44.751-50.86-64.998-.458-8.39 3.791-9.938 5.638-10.213 4.511-.672 9.658 3.494 10.998 8.922 2.727 11.035 13.521 20.353 17.563 22.379.373.186.766.387 1.166.591.271.138.579.295.905.459a55.896 55.896 0 0 0-.753-1.01c-13.497-17.723-22.41-47.878-21.967-63.858.281-10.137 4.966-14.97 9.484-15.264 3.638-.239 6.518 2.399 7.177 6.555 1.165 7.403 3.025 14.706 5.639 22.109.931-10.079 4.232-21.976 8.681-29.827 3.636-6.434 7.347-12.317 12.744-13.594 2.159-.512 4.36-.202 6.56.918 3.006-2.796 7.913-5.324 11.691-3.585 3.701 1.704 4.958 6.566 3.735 14.452-3.953 25.477.19 47.57 11.368 60.616 5.338 6.23 11.876 9.803 17.939 9.803 8.169 0 16.943-5.02 25.428-9.874 8.038-4.598 15.63-8.941 22.718-9.155 9.216-.28 15.217 4.652 15.653 9.582.271 3.063-1.691 6.977-8.115 7.925-10.701 1.591-25.792 13.465-27.492 24.541-1.841 12.04-7.222 19.218-12.426 26.16-5.166 6.892-10.045 13.402-11.67 24.57-.997 6.827-1.321 14.137-.964 21.728 2.029 42.953 25.795 93.113 86.094 93.113 40.479 0 72.88-26.552 113.901-60.167 12.654-10.369 25.731-21.086 40.04-31.811 1.163-38.312 5.297-70.805 8.322-94.584.759-5.964 1.476-11.597 2.068-16.694 1.81-15.583 3.211-31.184-1.153-35.807-4.484-4.743-11.939-9.9-19.833-15.359-16.979-11.744-38.111-26.36-42.795-46.088-2.327-9.787 1.124-14.617 5.13-15.874 4.295-1.345 9.085 1.233 10.91 5.873 2.43 6.188 7.309 12.229 12.914 16.272-4.654-12.965-5.447-26.914-5.771-32.62-.324-5.692 3.256-10.651 8.328-11.533 4.167-.726 9.49 1.447 11.936 9.718 4.973 16.88 17.862 40.277 25.54 46.363 2.999 2.38 4.739 2.829 5.29 2.795.047-.49-.168-2.044-1.962-4.579-5.281-7.445-11.922-33.683-11.649-46.023.193-8.709 5.763-14.521 10.812-14.91 3.395-.254 7.453 1.881 8.663 8.682 2.82 15.854 16.603 45.746 23.467 53.283 3.398 3.727 4.978 4.348 5.424 4.451.179-.369.604-1.706.135-5.553-.918-7.604-2.951-31.013-1.383-39.187.921-4.839 5.759-8.769 10.56-8.564 1.769.073 7.619 1.037 8.608 10.374 1.701 15.918 8.246 39.604 15.04 42.015 2.895 1.028 8.433.725 14.297.405 10.58-.578 23.75-1.297 31.919 4.971 8.617 6.611 10.175 14.042 7.977 18.15-1.91 3.568-6.224 4.615-11.536 2.804-11.31-3.863-21.345-2.247-29.018 4.671-1.504 1.351-3.145 2.558-4.731 3.725-4.451 3.274-8.655 6.366-9.577 12.29-.564 3.593-1.454 14.603-1.597 30.216-.125 13.801.312 34.779 3.031 57.541 47.858-20.39 99.43-30.306 157.559-30.306 59.963 0 134.021 26.719 193.272 69.73 68.617 49.809 106.406 112.856 106.406 177.527 0 74.311-42.154 119.844-78.013 145.121 9.133 40.041 28.549 74.414 57.725 102.189a2 2 0 0 1-.697 3.329c-63.539 23.013-149.011 40.713-240.672 49.839-43.816 4.364-86.412 6.536-126.223 6.536zm-126.541-13.074c66.477 10.983 158.355 11.918 252.366 2.558 89.897-8.95 173.772-26.159 236.686-48.535-28.779-28.235-47.898-62.967-56.842-103.277a2 2 0 0 1 .81-2.075c35.31-24.572 77.401-69.261 77.401-142.61 0-63.356-37.203-125.253-104.755-174.29-28.945-21.011-62.285-38.558-96.417-50.742-33.398-11.923-66.078-18.225-94.505-18.225-58.565 0-110.385 10.15-158.421 31.032a2.003 2.003 0 0 1-2.782-1.583c-3.038-23.995-3.519-46.264-3.387-60.719.135-14.823.947-26.355 1.645-30.798 1.175-7.551 6.479-11.452 11.159-14.894 1.579-1.161 3.07-2.258 4.426-3.476 8.686-7.833 20.402-9.781 32.986-5.483 3.3 1.125 5.811.786 6.718-.907 1.23-2.297-.093-7.877-6.885-13.088-6.995-5.367-19.342-4.693-29.267-4.151-6.549.357-12.203.666-15.853-.63-11.075-3.929-16.763-36.78-17.68-45.362-.453-4.277-2.156-6.691-4.796-6.8-2.837-.116-5.914 2.418-6.465 5.319-1.353 7.052.289 28.545 1.425 37.954.427 3.502.643 8.322-2.404 9.722-2.492 1.144-5.603-.533-10.082-5.444-7.337-8.058-21.475-38.557-24.449-55.277-.303-1.701-1.328-5.633-4.417-5.395-2.888.223-6.97 4.173-7.121 11.011-.275 12.43 6.469 37.356 10.914 43.622 2.986 4.22 3.542 7.899 1.488 9.843-1.239 1.172-4.257 2.393-10.565-2.613-8.324-6.598-21.645-30.554-26.891-48.365-1.444-4.882-4.218-7.468-7.414-6.909-2.611.454-5.258 3.19-5.021 7.365.36 6.33 1.314 23.144 7.702 36.75a2.001 2.001 0 0 1-2.657 2.663c-8.431-3.935-16.43-12.525-19.905-21.375-1.166-2.967-4.015-4.14-5.989-3.52-2.287.718-4.127 4.019-2.436 11.133 4.33 18.236 23.907 31.776 41.179 43.723 8.07 5.582 15.692 10.854 20.465 15.902 5.053 5.352 4.678 17.841 2.219 39.016-.595 5.119-1.313 10.762-2.073 16.737-3.209 25.228-7.204 56.625-8.321 95.161a2 2 0 0 1-.802 1.544c-14.54 10.865-27.825 21.751-40.672 32.279-39.991 32.771-74.528 61.074-116.437 61.074-28.58 0-52.166-11.155-68.209-32.26-7.497-9.861-20.308-31.375-21.88-64.665-.369-7.846-.032-15.414 1.002-22.493 1.771-12.176 7.188-19.403 12.427-26.393 5.134-6.849 9.983-13.318 11.672-24.367 1.971-12.844 18.616-26.071 30.86-27.892 3.114-.46 4.876-1.811 4.716-3.616-.233-2.628-4.37-6.146-11.548-5.937-6.09.184-13.261 4.286-20.853 8.629-8.938 5.114-18.181 10.401-27.414 10.401-7.232 0-14.878-4.083-20.977-11.2-7.016-8.188-17.941-27.37-12.284-63.832.864-5.573.321-9.388-1.454-10.205-1.99-.915-6.019 1.277-8.16 3.774a1.999 1.999 0 0 1-2.634.358c-1.745-1.173-3.335-1.568-4.865-1.206-4.143.98-7.778 7.414-10.183 11.671-5.802 10.241-9.651 28.497-8.077 38.304a2 2 0 0 1-3.807 1.119c-4.903-11.202-8.131-22.012-9.869-33.05-.327-2.062-1.461-3.27-2.966-3.188-2.187.142-5.521 3.291-5.746 11.382-.423 15.312 8.158 44.263 21.151 61.323 2.964 3.886 4.208 6.173 2.777 7.887-1.58 1.893-4.243.533-7.929-1.349-.387-.198-.77-.393-1.136-.575-4.111-2.061-16.399-11.81-19.657-24.998-.885-3.583-4.317-6.25-6.524-5.925-1.593.238-2.428 2.496-2.235 6.039 1.062 19.398 18.956 47.822 50.025 62.29a2 2 0 0 1 1.101 2.278c-1.513 6.326-4.352 19.759-6.365 38.66-.007.07-.019.138-.033.206-3.626 34.065-4.538 84.635 11.604 132.492 18.298 54.249 53.975 91.059 106.046 109.411.037.011.074.022.11.035 25.586 9.01 55.47 13.578 88.822 13.578 42.35 0 83.145-9.744 121.253-28.963a1.999 1.999 0 0 1 2.85 2.229c-8.75 38.545-13.053 77.261-12.788 115.072.298 41.576 6.117 80.968 17.299 117.111z" fill="#531CB3"/><path d="M616.73 475.316c-50.416 0-95.75-20.581-127.651-57.953-9.329-10.941-17.635-23.416-24.689-37.079a232.48 232.48 0 0 1-7.794-16.789c-8.758-20.979-15.172-44.848-19.065-70.942a2 2 0 1 1 3.956-.59c3.844 25.768 10.169 49.316 18.8 69.992a228.911 228.911 0 0 0 7.659 16.498c6.912 13.388 15.046 25.607 24.176 36.314 31.127 36.466 75.381 56.549 124.608 56.549 24.986 0 46.961-5.88 65.314-17.478 25.291-15.966 34.81-37.486 34.903-37.701a2 2 0 0 1 3.673 1.583c-.398.925-10.047 22.838-36.44 39.501-19.001 12.007-41.695 18.095-67.45 18.095zm55.533 222.132c-31.756 0-61.867-3.404-89.494-10.117a284.063 284.063 0 0 1-12.165-3.222c-24.964-7.104-48.382-17.205-69.595-30.022a266.826 266.826 0 0 1-30.278-21.253 273.419 273.419 0 0 1-19.472-17.361l.003-.002a1.376 1.376 0 0 1-.091-.096c-11.256-11.045-21.785-23.291-31.295-36.399-5.03-6.927-9.939-14.324-14.592-21.986-31.416-51.955-44.418-105.998-49.794-142.186a392.083 392.083 0 0 1-3.161-28.482c-.592-7.956-.892-15.772-.892-23.228 0-6.629.096-13.265.293-20.285.031-1.104.957-1.998 2.055-1.943a2 2 0 0 1 1.943 2.055 712.65 712.65 0 0 0-.291 20.173c0 7.357.296 15.073.881 22.934a388.13 388.13 0 0 0 3.128 28.19c5.322 35.824 18.188 89.316 49.258 140.699 4.594 7.565 9.442 14.871 14.408 21.71 9.402 12.959 19.811 25.061 30.937 35.97.042.041.082.084.12.129a269.359 269.359 0 0 0 19.08 17.001 262.893 262.893 0 0 0 29.828 20.937c20.909 12.635 44 22.594 68.631 29.603a280.888 280.888 0 0 0 12.005 3.18c27.319 6.638 57.111 10.004 88.55 10.004 34.038 0 70.652-7.732 103.096-21.772 14.846-6.417 28.764-14.107 41.366-22.856a2 2 0 1 1 2.282 3.285c-12.82 8.901-26.97 16.721-42.059 23.243-32.935 14.249-70.113 22.097-104.685 22.097z" fill="#531CB3"/><path d="M465.161 379.379a2.001 2.001 0 0 1-1.566-3.243 349.505 349.505 0 0 1 17.575-20.498c12.53-13.508 25.776-25.482 39.369-35.591a2 2 0 1 1 2.386 3.21c-13.397 9.963-26.459 21.773-38.824 35.103a345.735 345.735 0 0 0-17.373 20.263 1.995 1.995 0 0 1-1.567.756zm-87.743 190.199a2 2 0 0 1-1.952-2.443 533.226 533.226 0 0 1 12.181-44.656 2 2 0 1 1 3.809 1.221 528.587 528.587 0 0 0-12.089 44.32 2.001 2.001 0 0 1-1.949 1.558z" fill="#531CB3"/><path d="M774.241 349.034c-30.927 9.401-77.524 5.371-132.894-12.081-30.657-9.661-52.486-24.217-69.495-41.734a164.53 164.53 0 0 1-8.364-9.282c-18.133-21.645-7.056-45.635 34.223-51.34 10.741-19.808 47.428-26.292 69.948-19.884 0 0-10.147 12.146-19.257 23.06a155.75 155.75 0 0 0 3.89 3.145c22.661 17.668 50.141 27.772 96.564 25.967 0 0 4.56-14.275 7.327-22.974 10.882 5.857 26.14 20.478 26.864 38.2 30.55 25.514 20.111 58.138-8.806 66.923z" fill="#fff"/><path d="M670.556 298.094c-.691.886-1.977.983-3.101.94-12.135-.465-22.996-7.651-31.932-15.885-8.926-8.223-16.706-17.787-26.616-24.822-2.129-1.524-4.722-2.983-7.251-2.28-3.026.843-4.441 4.387-4.484 7.521-.032 3.145.865 6.268.519 9.38s-2.583 6.44-5.717 6.365c-1.556-.043-2.972-.908-4.15-1.913-1.913-1.61-3.447-3.642-5.446-5.133s-4.733-2.388-6.992-1.318c-2.323 1.091-3.35 3.815-3.89 6.322-1.286 5.879-1.146 12.103.357 17.949a164.53 164.53 0 0 1-8.364-9.282c-18.133-21.645-7.056-45.635 34.223-51.34 10.741-19.808 47.428-26.292 69.948-19.884 0 0-10.147 12.146-19.257 23.06a155.75 155.75 0 0 0 3.89 3.145c-1.329.843-2.464 1.913-3.231 3.318-1.135 2.107-1.2 4.614-1.081 7.002.151 3.231.594 6.473 1.697 9.52 4.711 13.086 20.77 21.169 21.364 35.066.043.788 0 1.642-.486 2.269z" fill="#E2D8F4"/><g fill="#531CB3"><path d="M736.448 355.921c-27.136 0-59.847-5.76-95.707-17.061-32.958-10.387-57.995-26.794-78.792-51.635-8.324-9.942-10.904-20.609-7.267-30.037 2.81-7.284 11.975-20.068 41.777-24.435 5.408-9.162 16.483-16.197 31.331-19.869 13.651-3.376 28.761-3.413 40.417-.099a1.999 1.999 0 0 1 .988 3.205l-17.968 21.523c18.125 14.79 44.002 29.176 96.158 27.426a29156.97 29156.97 0 0 0 6.889-21.637 2.006 2.006 0 0 1 1.156-1.249 2.004 2.004 0 0 1 1.698.093c6.417 3.455 12.926 8.982 17.858 15.166 6.019 7.547 9.471 15.768 10.017 23.833 14.226 12.17 20.724 27.214 17.844 41.389-2.698 13.281-13.174 23.903-28.024 28.414-10.952 3.327-23.867 4.973-38.375 4.973zm-87.48-141.611c-20.006 0-41.981 7.384-49.495 21.237-.303.559-.854.94-1.484 1.027-20.855 2.883-35.279 10.92-39.574 22.053-3.09 8.009-.745 17.253 6.603 26.03 20.285 24.229 44.729 40.24 76.927 50.387 54.271 17.104 101.048 21.391 131.716 12.076 13.42-4.077 22.866-13.566 25.267-25.383 2.623-12.909-3.63-26.792-17.156-38.087a2 2 0 0 1-.716-1.453c-.653-15.828-13.839-29.212-23.722-35.314-2.765 8.694-6.564 20.61-6.564 20.61a2 2 0 0 1-1.828 1.391c-44.517 1.726-74.964-7.116-101.82-29.577a2 2 0 0 1-.252-2.816l17.218-20.625c-4.703-1.042-9.844-1.556-15.12-1.556z"/><path d="M613.701 280.098c-.484 0-.969-.174-1.353-.528-20.457-18.81-21-37.792-16.374-45.962a2 2 0 1 1 3.481 1.971c-3.844 6.789-3.008 23.937 15.6 41.047a2 2 0 0 1-1.354 3.472zm129.926 35.923c-4.767 0-10.103-.481-16.069-1.602a2.001 2.001 0 0 1 .738-3.932c23.118 4.341 35.921-1.342 42.59-6.874 6.46-5.36 10.166-13.196 10.166-21.499a2 2 0 0 1 4 0c0 9.497-4.232 18.455-11.611 24.577-5.554 4.609-14.889 9.33-29.814 9.33zm-95.225-76.246c-.443 0-.889-.146-1.259-.447-3.524-2.858-7.861-7.733-10.792-12.131a2 2 0 1 1 3.328-2.218c2.688 4.031 6.793 8.654 9.984 11.243a2 2 0 0 1-1.261 3.553zM45.436 404.059l31.897 21.55 14.447-39.411-46.53 15.04c.058.938.12 1.878.186 2.821zm134.038 67.982-34.781-23.498-14.448 39.411zm59.137-19.115 49.229-15.913-30.077-20.32a186.793 186.793 0 0 1-7.451 4.315zm152.734-49.364-33.878 10.947a389.193 389.193 0 0 1-3.145-28.334l2.237-6.116zM501.073 288.64l6.831-18.636a371.91 371.91 0 0 0-25.061 6.319zm-1.363 79.889-33.542 10.839c-.335-.659-.67-1.318-1.005-1.988A346.265 346.265 0 0 1 482.637 357zm-107.003-44.861 14.448-39.411-49.229 15.912zm175.726-12.094-14.447 39.411 49.229-15.912zM145.627 552.785l-23.652 7.645a167.908 167.908 0 0 0 16.99 10.529zm197.423-29.073 14.447-39.411-49.229 15.913zm-40.664 68.721a265.653 265.653 0 0 0 17.357-3.656l-12.837-8.673zm-53.254-73.104-49.229 15.913 34.782 23.498zm196.061 50.822-23.698 7.651a318.614 318.614 0 0 1-14.502-21.85l3.415-9.304zm124.174-154.334-49.229 15.913 34.782 23.498zm-50.592 95.802-14.447 39.411 49.229-15.912zm-72.22-21.363 14.447-39.411-49.229 15.912zm175.725-12.093-14.447 39.411 49.229-15.913zm158.957-130.83-49.228 15.913 34.781 23.498zm-50.591 95.802-14.448 39.411 49.229-15.912zm-72.221-21.363 14.447-39.411-49.229 15.912zm161.278 27.318 49.229-15.913-34.782-23.499zm-408.358 201.8-46.493 15.028c-.026.893-.059 1.786-.08 2.679l32.126 21.704zM370.831 753.5a388.246 388.246 0 0 0 4.726 23.148l19.978-6.458zm78.979-.854 49.229-15.912-34.781-23.499zm173.405-170.24-49.229 15.912 34.782 23.499zm-39.973 102.982 24.162 16.317-49.233 15.917 12.989-35.433zm-111.25-54.107 42.857-13.843-12.805 34.937zm204.136 13.47-14.447 39.411 49.228-15.912zm144.51-91.418 14.447-39.412-49.229 15.913zm-36.145 56.391-14.447 39.411 49.229-15.913zm-57.773-60.775-49.229 15.913 34.781 23.498zm-49.658 200.045-49.229 15.913 34.782 23.498zm-108.365 35.028-49.229 15.912 15.943 10.771c7.82-.167 15.749-.416 23.777-.744zm211.87-68.484-49.229 15.912 34.782 23.499z"/><path d="M739.21 8.044c-17.635-15.456-45.954 1.565-49.284 19.303-3.438 18.313 16.828 4.464 34.01.916-7.248 21.503 53.329 30.767 52.176 73.25-1.433 52.813-52.927 103.389-27.522 177.895 8.394 24.617 25.089 13.627 24.309-.161-.894-15.815 4.12-40.657 18.725-54.598-1.184 9.503 2.8 24.801 8.267 32.595 4.417 6.296 11.044 8.609 10.075-1.181-3.753-37.925 8.471-59.139 32.062-112.364C872.974 73.88 835.64-9.822 739.21 8.044z"/></g><g clip-path="url(#a)" fill="#E2D8F4"><path d="M752.578 74.353a2 2 0 0 1-.801-3.833c12.525-5.467 16.212-15.32 19.465-24.013.903-2.414 1.756-4.693 2.759-6.789 3.408-7.12 7.868-11.595 13.257-13.302 5.201-1.647 11.095-.657 17.52 2.944 1.397.783 2.877 1.753 4.443 2.781 6.777 4.443 15.211 9.973 26.826 7.334 6.232-1.417 11.785-5.358 14.854-10.544a2 2 0 0 1 3.443 2.037c-3.618 6.113-10.127 10.751-17.41 12.407-13.275 3.017-22.887-3.288-29.906-7.89-1.506-.988-2.929-1.921-4.206-2.636-5.42-3.038-10.251-3.92-14.356-2.62-4.292 1.359-7.945 5.133-10.856 11.215-.927 1.936-1.75 4.136-2.622 6.464-3.356 8.969-7.534 20.132-21.611 26.277-.26.114-.532.168-.799.168zm118.53 56.416a2.01 2.01 0 0 1-.412-.043c-8.751-1.832-19.613-5.037-25.979-13.639-1.31-1.77-2.667-4.17-4.239-6.951-4.314-7.631-10.223-18.082-18.581-20.208-4.054-1.031-8.353-.081-13.14 2.905-4.501 2.809-8.346 6.818-12.416 11.062-8.311 8.667-17.721 18.489-34.275 17.31a2.001 2.001 0 0 1-1.853-2.138 2.004 2.004 0 0 1 2.138-1.853c14.666 1.058 22.654-7.276 31.103-16.088 4.061-4.235 8.261-8.615 13.186-11.688 5.682-3.545 11.147-4.685 16.244-3.388 10.012 2.548 16.407 13.858 21.076 22.116 1.507 2.666 2.808 4.967 3.972 6.54 5.563 7.517 15.525 10.417 23.583 12.104a2 2 0 0 1-.407 3.959zm-24.069 65.392c-12.704 0-23.324-9.703-29.195-26.711-3.002-8.698-6.918-13.755-11.64-15.03-8.694-2.349-20.423 7.758-30.775 16.674-11.526 9.926-22.415 19.301-30.357 13.345a2.001 2.001 0 0 1-.4-2.8 2.001 2.001 0 0 1 2.8-.4c5.369 4.027 15.073-4.328 25.347-13.175 11.646-10.031 23.688-20.409 34.428-17.505 6.166 1.665 10.869 7.417 14.379 17.587 7.59 21.991 20.604 24.117 25.841 24.012 1.089-.067 2.018.854 2.04 1.959s-.854 2.018-1.959 2.04c-.17.002-.34.004-.509.004zm-111.902 45.098c-2.825 0-5.838-.358-9.059-1.154a1.999 1.999 0 0 1-1.461-2.421 1.996 1.996 0 0 1 2.421-1.461c19.704 4.867 30.681-8.651 38.697-18.522.801-.986 1.563-1.925 2.293-2.793 14.645-17.423 29.646-23.656 43.38-18.017 4.758 1.953 8.705 5.356 12.521 8.648 4.833 4.167 9.396 8.104 15.133 8.804a2 2 0 1 1-.485 3.971c-6.944-.848-12.189-5.372-17.261-9.746-3.575-3.083-7.271-6.271-11.428-7.977-15.118-6.205-29.443 5.761-38.8 16.891-.716.852-1.464 1.773-2.25 2.741-7.007 8.631-17.08 21.036-33.701 21.036z"/></g><path d="M762.036 296.017c-3.997 0-10.686-2.314-15.34-15.963-16.199-47.508-1.361-86.006 11.729-119.972 7.798-20.232 15.164-39.343 15.687-58.623.618-22.738-17.785-35.878-32.571-46.436-11.128-7.946-20.898-14.923-20.191-24.093-3.739.989-7.565 2.352-11.291 3.679-9.099 3.241-16.287 5.803-20.22 2.441-2.186-1.868-2.801-5.163-1.879-10.073 1.977-10.528 11.918-20.841 24.177-25.078 10.336-3.572 20.111-2.146 27.644 4.007 40.903-7.327 74.796 3.051 95.505 29.277 22.188 28.099 25.553 71.012 8.572 109.326-2.697 6.083-5.245 11.749-7.637 17.069-18.333 40.764-27.535 61.225-24.263 94.287.581 5.869-1.419 7.889-3.2 8.549-3.677 1.366-7.957-2.392-10.503-6.023-4.814-6.863-8.403-18.938-8.798-28.462-11.119 13.531-15.399 34.354-14.56 49.204.457 8.08-4.344 15.415-10.929 16.699a10.06 10.06 0 0 1-1.932.185zm-38.1-269.754a1.998 1.998 0 0 1 1.895 2.638c-2.582 7.662 5.171 13.681 18.036 22.866 15.558 11.109 34.92 24.935 34.245 49.8-.542 19.968-8.027 39.391-15.953 59.953-13.474 34.959-27.406 71.108-11.676 117.242 3.127 9.173 7.881 14.087 12.718 13.144 4.509-.879 8.036-6.625 7.702-12.547-.974-17.226 4.663-42.147 19.341-56.157a2 2 0 0 1 3.365 1.694c-1.103 8.848 2.671 23.718 7.919 31.199 2.496 3.558 5.083 4.846 5.838 4.569.329-.122.912-1.359.61-4.405-3.377-34.123 5.971-54.909 24.596-96.321 2.39-5.314 4.935-10.973 7.628-17.05 16.388-36.974 13.226-78.277-8.054-105.226-19.902-25.204-52.777-35.022-92.572-27.652a1.998 1.998 0 0 1-1.683-.462c-8.771-7.688-19.083-5.723-24.448-3.867-10.792 3.73-19.855 12.998-21.552 22.036-.608 3.238-.414 5.473.546 6.293 2.175 1.857 9.667-.812 16.279-3.168 4.855-1.729 9.875-3.518 14.814-4.537.136-.028.272-.042.406-.042z" fill="#531CB3"/><path d="M723.938 30.263a2 2 0 0 1-1.961-2.405c1.403-6.807 10.422-18.724 16.357-21.614a2 2 0 0 1 1.751 3.597c-4.819 2.346-13.042 13.254-14.19 18.825a2.001 2.001 0 0 1-1.957 1.597zm221.065 658.309a2 2 0 0 1-1.956-1.592c-3.285-15.769-37.731-28.931-92.144-35.21a2 2 0 1 1 .458-3.974c33.525 3.869 90.525 13.997 95.602 38.367a2 2 0 0 1-1.96 2.409zm-632.585 58.354a2 2 0 0 1-1.554-3.256c7.312-9.053 20.478-22.068 41.678-32.669a2 2 0 1 1 1.789 3.579c-20.558 10.279-33.292 22.86-40.355 31.604a2.001 2.001 0 0 1-1.558.742z" fill="#E2D8F4"/><path d="M776.154 673.512c-6.203 7.154-11.617 15.118-17.365 22.671-9.348 12.297-20.564 24.292-35.369 28.712-10.385 3.101-21.494 2.14-32.3 2.972-18.835 1.459-36.763 8.353-55.09 12.935-18.338 4.582-38.373 6.721-55.609-1.005-16.76-7.521-28.258-23.093-42.695-34.439-19.019-14.956-43.56-22.877-59.542-41.031-12.47-14.167-18.143-32.754-25.524-50.281a269.616 269.616 0 0 0 19.332 17.236 263.702 263.702 0 0 0 30.052 21.094c20.316 12.276 43.257 22.455 69.116 29.814a284.868 284.868 0 0 0 12.081 3.199c26.637 6.473 56.214 10.061 89.021 10.061 33.425-.002 70.079-7.307 103.892-21.938z" fill="#531CB3"/><path d="M606.391 746.951c-10.06 0-18.855-1.773-26.788-5.329-11.214-5.033-20.175-13.603-28.841-21.891-4.572-4.372-9.3-8.894-14.272-12.802-7.541-5.93-16.157-10.848-24.49-15.604-12.561-7.169-25.548-14.582-35.317-25.679-10.215-11.605-16.006-26.195-21.606-40.306-1.375-3.465-2.797-7.048-4.26-10.521a2 2 0 0 1 3.243-2.204 268.864 268.864 0 0 0 19.188 17.108 262.933 262.933 0 0 0 29.828 20.937c20.909 12.635 44 22.594 68.631 29.603a280.888 280.888 0 0 0 12.005 3.18c27.319 6.638 57.112 10.004 88.55 10.004 34.038 0 70.652-7.732 103.096-21.772a2.001 2.001 0 0 1 2.306 3.146c-4.197 4.84-8.113 10.172-11.9 15.327a520.402 520.402 0 0 1-5.385 7.244c-8.493 11.174-20.306 24.617-36.388 29.417-7.459 2.229-15.277 2.431-22.837 2.627-3.256.085-6.623.172-9.881.423-13.001 1.007-25.878 4.736-38.331 8.343-5.366 1.554-10.916 3.161-16.428 4.539-11.222 2.805-21.173 4.21-30.123 4.21zM457.998 621.863l.796 2.003c5.474 13.793 11.135 28.055 20.891 39.139 9.328 10.596 21.457 17.519 34.297 24.848 8.459 4.828 17.207 9.82 24.979 15.933 5.125 4.027 9.924 8.617 14.565 13.056 8.808 8.425 17.128 16.381 27.713 21.132 14.128 6.333 31.386 6.615 54.305.889 5.44-1.36 10.953-2.957 16.285-4.501 12.646-3.662 25.724-7.449 39.136-8.488 3.36-.259 6.779-.348 10.085-.433 7.635-.198 14.847-.386 21.797-2.461 14.974-4.47 26.222-17.315 34.349-28.006 1.8-2.365 3.602-4.818 5.344-7.191 2.281-3.104 4.607-6.272 7.024-9.374-31.043 12.312-65.289 19.041-97.302 19.041-31.756 0-61.866-3.404-89.494-10.117a284.063 284.063 0 0 1-12.165-3.222c-24.964-7.104-48.382-17.205-69.595-30.022a266.957 266.957 0 0 1-30.278-21.253 270.86 270.86 0 0 1-12.732-10.973zm-68.446-98.773c-4.776 18.922-9.801 36.46-12.06 44.24-35.034 17.668-75.687 29.177-122.153 29.177-35.207 0-64.751-4.982-89.486-13.691 31.424 6.073 57.348 1.005 67.495-4.074 10.147-5.068 23.114-23.287 38.34-27.707 15.215-4.43 40.588-2.172 56.938-14.578 16.35-12.405 12.125-45.101 37.864-77.898 6.222 22.505 15.075 47.653 23.062 64.531z" fill="#531CB3"/><path d="M255.339 598.507c-33.805 0-64.136-4.645-90.15-13.805a2 2 0 0 1 1.044-3.85c30.93 5.979 56.547.944 66.221-3.898 3.807-1.902 8.287-6.005 13.029-10.348 7.528-6.895 16.061-14.709 25.649-17.492 5.24-1.525 11.562-2.271 18.254-3.062 12.926-1.526 27.577-3.255 38.032-11.188 7.192-5.457 10.196-15.386 13.999-27.955 4.307-14.238 9.667-31.958 23.501-49.584a2.002 2.002 0 0 1 3.501.702c6.452 23.335 15.242 47.938 22.941 64.208.199.42.245.895.131 1.345-4.319 17.108-8.952 33.538-12.078 44.309a2 2 0 0 1-1.021 1.229c-38.671 19.5-80.072 29.389-123.053 29.389zm-65.991-10.977c20.017 4.636 42.115 6.977 65.991 6.977 42.063 0 82.59-9.611 120.476-28.572 3.068-10.593 7.479-26.275 11.623-42.641-7.286-15.546-15.482-38.267-21.781-60.311-11.612 15.993-16.464 32.034-20.412 45.084-3.854 12.739-7.182 23.741-15.409 29.983-11.323 8.592-26.548 10.389-39.981 11.975-6.522.77-12.684 1.497-17.606 2.93-8.692 2.523-16.859 10.003-24.064 16.601-4.955 4.538-9.635 8.824-13.942 10.976-6.573 3.287-22.689 7.78-44.895 6.998zm502.604-104.294c-3.047 1.135-6.019-1.707-9.164-2.572-6.495-1.772-23.957 6.613-11.087 27.329 20.186 32.483-3.901 79.847-58.699 13.897-40.566-48.822-38.945-23.103-42.414-19.257-3.577 3.955-9.942-.065-13.551-3.977-38.816-42.068-58.699-67.128-66.436-82.592 34.85 40.826 81.468 57.251 126.13 57.251 29.112 0 50.735-7.899 66.382-17.787a166.47 166.47 0 0 1 9.78 16.404c1.987 3.816 3.1 9.802-.941 11.304z" fill="#531CB3"/><path d="M660.178 557.048c-10.13.001-26.062-6.618-48.714-33.88-9.345-11.247-26.088-29.915-33.319-28.674-2.114.368-3.124 2.708-4.224 5.731-.557 1.528-1.037 2.849-1.848 3.748-1.345 1.487-3.121 2.276-5.138 2.287-4.141.032-8.569-3.213-11.368-6.247-38.076-41.266-58.664-66.88-66.755-83.053a2 2 0 0 1 3.31-2.193c31.129 36.466 75.382 56.549 124.609 56.549 24.986 0 46.96-5.88 65.314-17.478a2.002 2.002 0 0 1 2.724.569 168.991 168.991 0 0 1 9.897 16.601c1.552 2.978 2.759 7.33 1.494 10.618-.64 1.665-1.854 2.87-3.511 3.485-2.824 1.052-5.36-.211-7.598-1.325-.983-.489-1.911-.951-2.792-1.193-2.536-.692-7.937.817-10.947 4.855-3.575 4.795-2.853 11.535 2.089 19.489 10.531 16.947 9.652 38.312-1.92 46.656-2.252 1.623-5.977 3.454-11.303 3.455zm-81.3-66.617c4.926 0 14.163 4.306 35.662 30.18 33.318 40.1 50.214 32.9 54.601 29.737 9.759-7.035 10.162-26.335.862-41.3-7.825-12.595-4.548-20.438-1.898-23.992 4.008-5.375 11.015-7.468 15.211-6.322 1.258.346 2.407.917 3.518 1.47 2.004.999 3.301 1.573 4.422 1.156h.001c.581-.215.941-.577 1.17-1.172.619-1.607.069-4.691-1.308-7.332a165.427 165.427 0 0 0-8.595-14.61c-18.66 11.327-40.785 17.069-65.793 17.069-43.76 0-83.689-15.503-114.331-44.036 11.04 15.534 29.144 36.797 56.107 66.02 2.28 2.471 5.754 4.959 8.388 4.959h.021c.9-.004 1.596-.312 2.189-.968.287-.318.714-1.492 1.058-2.435 1.089-2.99 2.734-7.51 7.297-8.303a8.434 8.434 0 0 1 1.418-.121z" fill="#531CB3"/></svg></g></svg>