<svg xmlns="http://www.w3.org/2000/svg" viewBox="0 0 600 630" width="600" height="630"><g transform="translate(2.0 37.0) rotate(0.0 298.0 275.5) scale(1.8801261829652998 1.8805460750853242)"><svg width="317" height="293" viewBox="0 0 317 293"><clipPath id="a"><path d="M0 0h316.8v292.1H0z"/></clipPath><g clip-path="url(#a)"><path d="m253 255 23.5 3.7s18.2 5.3 21.6 7.1 8.5 4.6 6 8.8-16.3 8.8-17 8.8-32.7 5.1-32.7 5.1-7.4-14.5-7.4-14.9-4.8-12.3-4.8-12.3 7.9-4.9 8.3-5.1 2.5-1.2 2.5-1.2zm-143.6-1.9 6 18.9 6.3 14.9-15.8-1.7-23-5.2s-20.3-3.9-20.8-12.6c-.5-8.6 47.3-14.3 47.3-14.3z" fill="#531CB3"/><path d="M254.3 289.3c-.4 0-.7-.2-.9-.6 0 0-1.9-4-6.9-14.7-2.6-5.6-5.4-11.9-5.4-12-.2-.5 0-1.1.5-1.3s1.1 0 1.3.5c0 .1 2.8 6.3 5.4 11.9 4.9 10.6 6.8 14.6 6.8 14.6.2.5 0 1.1-.5 1.3 0 .3-.2.3-.3.3z" fill="#531CB3"/><path d="M195.8 292.099c-4.3 0-8.6 0-12.8-.1-32.5-.6-63-3.3-85.9-7.6-16.6-3.1-36.3-8.4-36.1-16.1.2-9.5 30.4-14.2 48.3-16.2.6-.1 1 .3 1.1.9s-.3 1-.9 1.1c-34.2 3.8-46.5 9.9-46.5 14.3-.1 4.8 12.8 10 34.5 14.1 22.8 4.3 53.2 7 85.6 7.6 72 1.4 120.6-7.8 120.8-17.1.1-4.5-13.2-11.6-50.8-16.7-.5-.1-.9-.6-.9-1.1.1-.5.6-.9 1.1-.9 19.7 2.7 52.7 8.7 52.5 18.7-.3 12.3-54.1 19.1-110 19.1z" fill="#531CB3"/><path d="M182.8 106.598s39.7-3.3 75.2 12.5 53.2 35.3 56.4 47.2c3.1 11.9 1.6 29.9-26.3 60l-24.3 26.9s-8.5-2.5-14.4-10.1c-5.8-7.6-6.7-14.1-6.7-14.1l15.7-21.1 15.7-25.2s-8.8 5.8-24.5 6.7-25.4-2.9-29.6-1.3c0 0 9 39.5 13.5 48.3l-14.1 12.1s-4.9 4.9-4 5.8 9.7-2.9 9.7-2.9-10.2 9.4-8.6 11.1 6.1-1.7 6.1-1.7-.9 2.5 0 3.1c.9.7 13.1-4.7 13.1-4.7s-4.5 5.1-4.2 7c0 0-9.2 4.5-23.4 7.3-14.1 2.8-52.8 2.5-52.8 2.5s-34.2-1.2-40.8-3.5c0 0-3.6-12-7.2-27.2-3.8-16.8-5.8-30.1-5.8-30.1s-6.2.4-9.2.4c-10.8 0-32.9-.9-49-5.6-20.6-6.1-38.9-21-41.8-39.7s13.1-35.5 13.1-35.5l17.2-19.4 9.6-9.8 11.6-15.2s5.6 5.7 12 8.1c6.4 2.4 13.3 2.5 13.3 2.5l-11.3 20.6s-14.5 26.6-18 38.2l9.8-6.9s20.5-15.2 34.5-22.2c14-7.1 23.1-9.9 23.1-9.9s14 26.3 39.7 19.4c23.1-6.3 26.7-33.6 26.7-33.6z" fill="#fff"/><path d="M314.4 166.298c-3.1-11.9-20.9-31.4-56.4-47.2-35.5-15.7-75.2-12.5-75.2-12.5s-.4 2.8-1.6 6.7c4.2-.7 28.4-4.1 57.9 6.1 32.4 11.2 63.7 27 75.5 47.9v-.1c-.1-.3-.1-.6-.2-.9z" fill="#D2C3EF"/><path d="M250.6 173.2c.3.8.6 1.7.8 2.7.4 1.9.5 4 .4 6.1s-.4 4.3-.8 6.4c-.1.5-.2.9-.3 1.4.3-.1.7-.1 1-.2.4-.1.8-.1 1.3-.1.4 0 .7 0 1.1.1.6-.2 1.3-.3 2-.3h.8c.6-2.2 1.1-4.4 1.4-6.7.2-1.2.3-2.5.3-3.8s0-2.6-.2-3.9-.4-2.7-.8-4-1-2.7-1.7-4-1.7-2.5-2.8-3.5-2.2-1.9-3.4-2.7c-2.4-1.5-4.8-2.4-7-3.3s-4.2-1.6-5.8-2.5-2.9-1.8-3.8-3c-.3-.3-.5-.6-.7-.9s-.4-.6-.6-1c-.2-.3-.4-.7-.5-1.1l-.2-.5-.2-.5c-.4-1.4-.5-3.1-.4-4.9.2-1.8.6-3.8 1.3-5.7.6-1.9 1.4-3.9 2.4-5.9 1.8-3.9 4.1-7.7 6.5-11.5 1.2-1.9 2.5-3.7 3.8-5.6l.6-.9c-1-.1-1.9-.4-2.7-.9-1.3 0-2.5-.4-3.5-1-1.3 1.3-2.6 2.7-3.8 4.1-1.6 1.8-3.1 3.6-4.5 5.6l-2.1 3c-.7 1-1.3 2-2 3.1-1.3 2.1-2.4 4.3-3.4 6.7s-1.8 4.9-2.2 7.6-.5 5.8.3 8.8c.1.4.2.8.3 1.1.1.4.3.8.4 1.1.3.7.6 1.4.9 2 .7 1.3 1.6 2.6 2.6 3.8s2.2 2.2 3.5 3c1.2.8 2.5 1.5 3.8 2.1 2.5 1.1 5 1.7 7.2 2.3s4.2 1.1 5.8 1.9 2.9 1.7 3.9 3.1c.3.8.7 1.6 1 2.4zm47.4-30.3c-1.3-.5-2.3-1.4-3.1-2.5-1.1.9-2.2 1.7-3.4 2.4-2.5 1.6-5 3-7.6 3.8-1.3.4-2.6.8-3.8.9s-2.4.1-3.5-.1-1.999-.6-2.899-1c-.9-.5-1.7-1.1-2.5-1.7-.7-.6-1.301-1.4-1.901-2.3l-.2-.3c-.1-.1-.1-.2-.2-.4s-.2-.5-.4-.7c-.2-.5-.4-1.1-.6-1.6-.4-1.1-.7-2.4-.8-3.7-.2-1.3-.3-2.7-.3-4.1-.1-2.8.101-5.7.401-8.6-1.3-.2-2.501-.9-3.401-1.8-.9-.1-1.7-.4-2.5-.9-.1-.1-.3-.2-.4-.3-.2.4-.3.9-.5 1.3-1 3.1-1.799 6.4-2.199 9.8 0 .4-.101.9-.101 1.3l-.1 1.3v2.6c0 1.8.201 3.6.701 5.5.2.9.499 1.9.799 2.8l.6 1.4c.1.2.2.5.3.7l.4.7c1 1.8 2.301 3.5 3.901 4.9s3.399 2.4 5.399 3.2c2 .7 4.101 1 6.101 1s3.999-.4 5.799-.9 3.5-1.2 5-2c1.6-.8 3.1-1.7 4.4-2.6 1.4-.9 2.7-2 4-3 1.3-1.1 2.5-2.2 3.6-3.3l.3-.3c-.5-.6-.9-1-1.3-1.5zm5.7 64.599c.3-1.2.9-2.2 1.7-3.1.3-.4.6-.7.9-1l-1-2.3-.7-1.9-.4-.9-.2-.5-.1-.5-.6-1.9-.3-.9-.2-.9-.5-1.9c-.1-.6-.2-1.3-.3-1.9l-.1-.9-.1-.9c0-.6-.1-1.3-.1-1.9-.1-2.5.1-4.9.5-7.3.7-4.7 2.4-9.2 5.1-13.2 1.3-2 2.9-3.9 4.7-5.7l.1-.1c-.4-.5-.7-1.1-.9-1.7-.6-.6-1-1.4-1.3-2.2-.5-.6-1-1.3-1.3-2.1-.3-.3-.7-.5-1-.8-.4-.4-.7-.8-1-1.3-.4.3-.8.7-1.2 1-1.2 1-2.3 2.1-3.3 3.3l-1.5 1.8-.7.9c-.2.3-.5.6-.7 1-.2.3-.5.7-.7 1s-.4.7-.6 1l-1.2 2.1c-.8 1.4-1.4 2.9-2 4.4l-.4 1.1c-.1.4-.3.8-.4 1.2-.2.8-.4 1.6-.6 2.3-.2.8-.3 1.6-.5 2.4l-.3 2.4c-.2 3.2 0 6.4.7 9.5.2.8.4 1.5.6 2.3l.3 1.1.4 1.1.7 2.2.8 2.1c1.8 4.6 4.3 8.8 7 12.7 0-.3.3-.7.7-1.1zm-18.1 22.5c.5-1.1 1.3-2 2.3-2.7-1.5-1.3-3.1-2.4-5-3.4-1.3-.7-2.8-1.4-4.4-1.9l-1.2-.3c-.4-.1-.8-.2-1.2-.2-.2 0-.4-.1-.6-.1l-.6-.1h-1.2c-1.7 0-3.4.4-5 .9s-3.1 1.3-4.4 2.2c-.3.2-.7.5-1 .7s-.6.5-.9.7c-.3.3-.6.5-.9.8s-.6.6-.9.8c-.6.6-1.1 1.2-1.5 1.8-.2.3-.5.6-.7 1-.1.2-.2.3-.3.5s-.2.3-.4.6l5.4 3.6.2-.2.3-.3.6-.6c.4-.4.8-.8 1.3-1.2.4-.4.9-.7 1.4-1.1.2-.2.5-.3.7-.5s.5-.3.7-.4c.9-.6 1.9-1 2.9-1.4s2-.6 3-.7 2.1-.3 3.2-.2c1.1 0 2.3.2 3.4.5 1.4.4 2.8 1 4.2 1.7.2-.1.4-.3.6-.5zm2.5-37.199c-.3-1.1-.7-2.2-1.2-3.3s-1-2.1-1.6-3l-1.8-2.7c-.6-.9-1.2-1.7-1.9-2.5-.6-.8-1.3-1.6-2-2.4-.4-.4-.8-.9-1.2-1.3-.3.8-.7 1.6-1.4 2.2-.5.5-1 .9-1.7 1.2-.3.5-.7 1-1.2 1.4-.1.1-.2.3-.2.4 1.7 2.5 3.5 5 4.9 7.5.4.8.9 1.5 1.2 2.3s.7 1.6.9 2.4c.5 1.6.8 3.3 1 4.9.1 1.6 0 3.1-.4 4.3-.2.6-.5 1.2-1 1.7-.4.5-1 .9-1.6 1.2s-1.4.6-2.2.8-1.7.3-2.6.3c-1.8.1-3.7-.1-5.6-.4-.9-.2-1.9.4-2.2 1.3-.3 1 .3 2.1 1.3 2.4 2 .6 4.1 1.1 6.3 1.3s4.6.1 7-.7c1.2-.4 2.4-1.1 3.5-1.9 1.1-.9 2-1.9 2.7-3.1s1.2-2.4 1.5-3.6.5-2.5.5-3.7c.1-2.5-.3-4.8-1-7zm-66.8-84.801h-.7c-.6 0-1.3-.1-1.9-.3h-.7c-1.2 0-2.2-.3-3.1-.8h-.1c-.4 0-.7 0-1-.1-.5.1-1 .2-1.5.2-1.2 0-2.3-.3-3.2-.8-2.2 1.4-4.3 3-6.1 4.9-2.1 2.1-3.9 4.6-5.3 7.3s-2.3 5.5-2.9 8.4c-.3 1.4-.5 2.8-.7 4.2-.1.7-.1 1.4-.2 2.1 0 .7-.1 1.4-.1 2.1-.1 2.8.1 5.5.4 8.1l.1 1 .1 1 .2 1.8.3 3.6c.1 2.4.1 4.7-.2 6.8s-1 4.1-2.2 5.9c-1.1 1.8-2.6 3.4-4.3 5-1.7 1.5-3.6 2.8-5.5 3.8-1.9.9-4 1.5-5.9 1.6-1.9 0-3.7-.5-5.1-1.6s-2.3-2.6-2.7-4.5c-.2-1-.3-1.9-.2-2.8 0-.5.1-.9.2-1.4.1-.4.3-.9.5-1.3.4-.9.9-1.7 1.6-2.4.3-.4.7-.7 1.1-1.1.2-.2.4-.3.6-.5.1-.1.2-.1.3-.2l.2-.1.2-.1c1.4-1 1.8-2.9.9-4.4-1-1.5-3-2-4.5-1-.2.1-.2.2-.3.2l-.3.2c-.2.1-.3.2-.5.4-.3.2-.6.5-.9.8-.6.5-1.1 1.1-1.6 1.7-1 1.2-1.9 2.5-2.6 4s-1.1 3.1-1.3 4.7 0 3.3.3 4.8c.3 1.6.9 3.1 1.7 4.6.8 1.4 2 2.8 3.3 3.8 1.3 1.1 2.9 1.9 4.4 2.4 1.6.5 3.2.7 4.8.7 3.2 0 6.2-.8 8.9-2s5.1-2.8 7.3-4.6 4.2-3.9 5.9-6.4 2.9-5.4 3.6-8.3.9-5.8 1-8.5v-4.1l-.1-2-.1-1.9c-.1-1.2-.1-2.5-.1-3.7s0-2.4.1-3.6c0-1.2.1-2.3.2-3.5.1-1.1.3-2.3.5-3.4.4-2.2 1.1-4.2 2-6.1s2.1-3.6 3.5-5.2 3.2-2.9 5.1-4.2c1.9-1.2 4-2.3 6.1-3.2.8-.4 1.5-1 1.9-1.7-.7-.1-1-.2-1.4-.3zm-114.9 39.7-.1.2-.1.3c-.1.2-.2.4-.2.6-.2.4-.3.8-.4 1.1-.2.8-.4 1.5-.5 2.3-.1.7-.1 1.4 0 1.9s.3.9.5 1.1c.2.3.5.5 1.1.7.5.2 1.2.3 1.9.4.4 0 .7.1 1.2.1h4.3c2 0 4 .1 6.1.3 1.1.1 2.2.3 3.3.6 1.2.3 2.4.7 3.6 1.5 1.2.7 2.4 1.8 3.3 3.1.8 1.3 1.3 2.7 1.6 4 .1.6.2 1.3.3 1.9.1.7.1 1.3 0 2-.1 1.3-.3 2.6-.6 3.7s-.6 2.1-.8 3-.4 1.6-.5 2.3-.1 1.2 0 1.8.2 1.1.4 1.7c.1.3.2.6.4.9l.1.1v.1l.1.2c.1.1.1.2.2.3.1.2.2.3.3.4s.2.2.4.3c.3.2.6.3 1 .4s.9.1 1.5.1c1.1-.1 2.4-.5 3.6-1.2s2.3-1.6 3.1-2.6 1.4-2.2 1.8-3.4c.3-1.2.3-2.5.1-3.9v-.1c-.4-2.2 1.1-4.4 3.3-4.8 2.1-.4 4.1.9 4.7 3 .7 2.4.8 5.1.3 7.6-.5 2.6-1.6 5-3.1 7s-3.4 3.7-5.5 5c-2.2 1.3-4.6 2.2-7.3 2.5-1.4.1-2.8.1-4.3-.2-.7-.2-1.5-.4-2.2-.7s-1.4-.7-2.1-1.2c-1.3-.9-2.5-2.1-3.3-3.4-.2-.3-.4-.7-.6-1l-.2-.5-.1-.2-.1-.2c-.2-.6-.5-1.2-.6-1.8-.4-1.2-.6-2.6-.6-4s.1-2.8.4-4 .7-2.3 1.1-3.3.8-1.8 1.1-2.5.5-1.4.6-2c0-.3.1-.6.1-.9s0-.7-.1-1c-.1-.6-.3-1.1-.4-1.4-.2-.3-.4-.6-.8-.9s-1-.5-1.7-.7-1.5-.4-2.4-.5c-1.7-.2-3.6-.4-5.5-.5l-2.9-.1-1.5-.1c-.5 0-1.1-.1-1.7-.1-1.2-.1-2.4-.4-3.7-.9s-2.6-1.4-3.6-2.7c-1-1.2-1.6-2.8-1.8-4.1-.2-1.4-.2-2.7 0-3.9s.5-2.3.8-3.4c.2-.5.4-1.1.6-1.6.1-.3.2-.5.3-.8l.2-.4.1-.2.1-.2c.8-1.6 2.8-2.3 4.4-1.4 1.6.8 2.2 2.7 1.5 4.3zm-8.5 31.999c0-.5-.1-1.1-.1-1.6-.1-.5-.1-1-.2-1.5-.2-1-.4-2-.7-3s-.6-2-1-3-.9-1.9-1.4-2.9c-1.1-1.8-2.3-3.5-3.6-4.9-1.2-1.4-2.4-2.7-3.4-4s-1.8-2.5-2.5-3.9l-.9-2.1c-.3-.8-.5-1.3-.6-2-.3-1.3-.3-2.8-.1-4.2.4-3 1.5-6.1 2.9-9.1.7-1.5 1.5-3 2.4-4.4.1-.2.3-.4.4-.7-.3.2-.7.4-1.1.5-.6.6-1.2 1-2 1.2l-.6.3c-.6.5-1.2.8-2 1.1-.5.5-1.2.9-1.8 1.2-.6.5-1.2.9-1.8 1.1-.3.3-.7.5-1.1.7-.2.4-.3.9-.5 1.3-.6 1.8-1.2 3.7-1.5 5.8-.3 2-.4 4.1-.1 6.3.1.5.2 1.1.3 1.6.1.6.3 1 .4 1.5.3 1 .7 1.9 1.1 2.8.8 1.9 1.9 3.6 3 5.2s2.2 3 3.2 4.4c.9 1.4 1.7 2.7 2.2 4s1 2.7 1.2 4.1c.1.4.1.7.2 1.1s.1.7.1 1.1.1.8.1 1.1v1.1c0 .7 0 1.4-.1 2-.1.7-.2 1.3-.3 1.9-.3 1.3-.8 2.4-1.4 3.5-.7 1.1-1.5 2.1-2.6 3.1-1 .9-2.2 1.8-3.5 2.5-.6.4-1.3.7-2 1-.3.2-.7.3-1 .4l-.5.2-.2.1h-.1c-2.2.5-3.6 2.8-3 5 .5 2.2 2.8 3.6 5 3l.5-.1.4-.1c.3-.1.5-.1.8-.2.5-.2 1-.3 1.5-.5 1-.4 1.9-.8 2.8-1.2 1.9-.9 3.6-2 5.3-3.4.8-.7 1.6-1.4 2.4-2.3.7-.8 1.4-1.7 2-2.6 1.2-1.9 2.2-4 2.8-6.2.3-1.1.5-2.2.6-3.3.1-.9.1-2 .1-3zM67.7 191.7l-.2-.3-.2-.2-.3-.4c-.2-.3-.4-.5-.6-.8-.4-.5-.9-1-1.3-1.4-.9-.9-1.9-1.8-3.1-2.6-.6-.4-1.2-.8-1.8-1.1l-2.1-.9c-.7-.2-1.6-.4-2.4-.5h-1.3c-.4 0-.9.1-1.3.1-1.7.3-3.2 1-4.5 1.9s-2.3 1.9-3.2 2.9c-.9 1.1-1.8 2.2-2.4 3.7-.2.3-.3.7-.5 1.1-.1.4-.3.8-.4 1.2-.2.8-.4 1.7-.4 2.5-.1.9 0 1.7.1 2.5.1.4.1.8.2 1.2l.1.6.2.6c.5 1.5 1.1 2.7 1.7 3.9.6 1.1 1.3 2.2 1.9 3.1l.9 1.3c.2.3.4.7.6 1 .2 0 .5.1.7.1 1.9.4 3.8.8 5.7 1.1.1 0 .7.1.9.1.5.1 1 .1 1.6.1h1.3c-.1-.5-.1-1-.3-1.6l-.3-1.2c-.1-.4-.3-.8-.4-1.1-.3-.8-.7-1.4-1-2.1-.4-.6-.7-1.2-1.1-1.7s-.7-1-1.1-1.5c-.7-.9-1.4-1.7-2-2.5s-1.1-1.5-1.5-2.1c-.4-.7-.6-1.2-.7-1.8s0-1.2.3-1.8c.3-.7.7-1.4 1.2-2.1 1.1-1.5 2.3-2.4 3.4-2.7.3-.1.6-.1.9-.1s.6.1 1 .2c.3.1.7.2 1.1.4s.7.4 1.1.6c.7.5 1.5 1.1 2.1 1.8.3.3.7.7 1 1.1.2.2.3.4.5.6l.2.3.2.2.1.1c1 1.5 3.1 1.8 4.5.8 1.6-1.1 1.9-3.2.9-4.6zm-19.4-54.901c-.5-2.4-1.4-4.6-2.4-6.6-1.1-2-2.3-3.9-3.6-5.6-.7-.9-1.4-1.7-2.1-2.5-.4-.4-.7-.8-1.1-1.2l-.6-.6-.3-.3-.3-.3c-1.3-1.2-3.4-1.2-4.6.2-1.2 1.3-1.2 3.4.2 4.6l.1.1.2.2.2.2.5.5c.3.3.6.7 1 1 .6.7 1.2 1.4 1.8 2.2 1.1 1.5 2.2 3 3 4.6 1.6 3.2 2.4 6.6 1.7 9.5-.2.7-.5 1.4-.8 2.1-.4.7-.8 1.4-1.3 2.1-1 1.3-2.1 2.3-3.5 3.1s-3 1.4-4.9 2l-3 .9c-1 .3-2.2.7-3.3 1.2s-2.4 1.1-3.5 2-2.2 1.9-3 3.1c-.7 1.1-1.4 2.2-1.9 3.4s-.9 2.5-1.2 3.8c-.6 2.6-.5 5.2-.1 7.6s.9 4.5 1.5 6.4c.5 1.9 1 3.7 1.3 5.4.1.8.2 1.6.2 2.3s-.1 1.4-.2 2.1c-.3 1.3-.9 2.6-1.8 3.9l-.9 1.2c.8.5 1.4 1.1 1.9 1.9 1 .4 1.8 1 2.5 1.8.2.1.3.3.5.4.7.3 1.3.7 1.8 1.1.3-.4.7-.7 1-1.1.8-1 1.5-2 2.1-3.2s1.1-2.4 1.5-3.7.6-2.7.6-4c.1-1.3 0-2.6-.2-3.8-.3-2.4-.8-4.6-1.3-6.6s-1-3.8-1.2-5.5l-.3-2.4c0-.8 0-1.5.1-2.2s.3-1.4.5-2.1.6-1.4.9-2c.3-.5.6-1 1-1.4s1-.8 1.7-1.2 1.5-.7 2.4-1.1c.9-.3 1.8-.7 2.8-1 2-.7 4.2-1.6 6.3-2.9s4-3.1 5.4-5.1c.7-1 1.3-2.1 1.8-3.1.6-1.1 1-2.4 1.3-3.6.2-2.8.1-5.4-.4-7.8zm107.2 86.199c-.7-1.4-1.6-2.8-2.6-4s-2.2-2.3-3.5-3.2c-2.5-1.8-5.4-2.8-8.1-3.5-1.4-.3-2.7-.5-4.1-.7-1.4-.1-2.9-.2-4.3-.1-2.8.2-5.6.7-8.2 1.6-5.3 1.8-9.9 4.7-14 8-2 1.7-4 3.4-5.8 5.3l-.7.7c.2.5-.3 1.3-.3 1.9.4.8-.3 1.7-.1 2.6.3.6.7 1.3.9 2 .1.3.5 1.7.6 2 .2-.2 1.6-1.8 1.8-2 .8-.9 1.6-1.8 2.4-2.6 1.7-1.7 3.4-3.3 5.2-4.7 3.7-2.9 7.7-5.3 12-6.6 2.1-.7 4.3-1 6.4-1.1 1.1 0 2.1 0 3.2.2 1.1.1 2.2.3 3.2.6 2.1.5 4 1.4 5.5 2.5s2.6 2.6 3.2 4.3.8 3.6.6 5.5-.8 3.9-1.6 5.6c-.2.4-.4.8-.7 1.2l-1 1.4c-.7 1.1-1.5 2.1-2.2 3.3-.7 1.1-1.4 2.3-2 3.5s-1.2 2.5-1.7 3.8c-1 2.6-1.8 5.4-2.2 8.3s-.4 5.9.2 8.8c.5 2.9 1.6 5.8 3 8.3s3.1 4.8 5 6.8c1.5 1.6 3.9 1.7 5.6.3 1.7-1.5 2-4 .5-5.8-2.8-3.4-4.8-7.2-5.4-11.2-.3-2-.3-4 .1-6.1.3-2 .9-4.1 1.8-6.1.4-1 .9-2 1.4-3s1.1-2 1.6-3l1.8-3 .5-.8.3-.4c.1-.2.2-.4.3-.5.4-.7.8-1.4 1.1-2.1.6-1.4 1.1-2.9 1.4-4.4s.5-3 .5-4.5c.3-3-.2-6.2-1.6-9.1zm72.9-3.798c-.2-.6-.4-1.2-.5-1.8-.4-.7-.7-1.5-.9-2.3-1 .5-2 1.1-3 1.7-2.2 1.4-4.2 3-6 5-.9 1-1.8 2.1-2.5 3.2l-.3.4c-.1.2-.2.3-.3.4l-.4.8-.9 1.6c-1.1 2-2.2 4-3.4 5.9-1.2 1.8-2.5 3.6-3.9 5-1.4 1.5-3 2.7-4.7 3.5s-3.5 1.3-5.3 1.3c-.9 0-1.9-.1-2.8-.2-.9-.2-1.8-.4-2.6-.8-.8-.3-1.5-.8-2-1.3-.6-.5-1-1.1-1.3-1.7-.6-1.3-.7-2.9-.3-4.5s1.4-3.2 2.6-4.4c.6-.6 1.3-1.1 2.1-1.6l1.2-.6c.2-.1.4-.2.6-.2l.8-.3c2.3-.8 4.7-1.7 7-2.9 1.2-.6 2.3-1.3 3.4-2.1s2.2-1.7 3.2-2.9c.5-.6 1-1.2 1.4-1.9s.8-1.4 1.1-2.1c.6-1.5 1-3.2 1-4.8 0-.8 0-1.6-.1-2.3-.1-.4-.1-.7-.2-1.1s-.2-.8-.3-1.1c-.4-1.5-1.1-3-2-4.3-1.7-2.6-4.1-4.6-6.8-5.9s-5.5-2-8.4-2.1-5.8.4-8.5 1.3-5.2 2.3-7.3 4c-1.1.8-2.1 1.8-3.1 2.7-.9.9-1.9 2-2.7 3.1-1.6 2.2-3 4.5-4 7-2.1 4.8-3.2 9.9-3.7 15-.4 5.1-.2 10.2.7 15.1.8 5 2.3 9.8 4.3 14.4s4.5 9 7.4 13 6.2 7.7 9.9 11.1c1.6 1.5 4.1 1.4 5.7-.1 1.6-1.6 1.6-4.2 0-5.8-3.2-3.1-6-6.5-8.5-10.1s-4.6-7.5-6.2-11.5-2.8-8.2-3.5-12.5-.8-8.6-.4-12.8 1.4-8.4 3-12.2c.8-1.9 1.7-3.7 2.9-5.3.6-.8 1.1-1.5 1.8-2.2s1.4-1.4 2.1-2c1.5-1.2 3.1-2.2 4.8-2.9s3.5-1 5.3-1.1c1.8 0 3.6.3 5.1 1 1.6.7 2.9 1.7 3.8 3 .5.6.8 1.3 1 2.1.1.4.2.7.3 1.2.1.4.1.8.1 1.2 0 .7-.1 1.4-.4 2.1-.2.7-.6 1.3-1.2 1.9-1.1 1.3-2.7 2.4-4.5 3.4s-3.8 1.8-5.9 2.5l-.9.3c-.3.1-.7.3-1 .4-.7.3-1.3.6-1.9 1-1.3.8-2.4 1.7-3.4 2.7-2.1 2.1-3.6 4.7-4.4 7.6-.4 1.5-.5 3-.4 4.6s.5 3.2 1.2 4.6c.7 1.5 1.7 2.8 2.9 3.8s2.5 1.8 3.9 2.4 2.8.9 4.1 1.2c1.4.2 2.7.3 4.1.3 2.8-.1 5.7-.8 8.2-2.1s4.6-3 6.4-4.9 3.3-4 4.6-6.1 2.5-4.2 3.6-6.3l.8-1.5.4-.7c.1-.1.1-.2.2-.3l.2-.3c.5-.8 1.1-1.6 1.8-2.3 1.4-1.5 3-2.8 4.8-3.9.5-.3.9-.6 1.4-.8-.2-.3-.4-1.1-.4-1.9zm-45.6-112.6s-2.8 26.4-26.7 33.5-39.7-19.4-39.7-19.4l14.8-5.9-.2-25.9s4.7 2.4 10.4.5 10.4-4.9 10.4-4.9l4.7 14.7 4.2 9.6z" fill="#D2C3EF"/><path d="M159 61.3s10.8-1.5 9.3-10.3-11.6-.7-11.6-.7L134 46.1l-17.7 13.6-1.2 3.5s-8.8-.7-9.1 7.1c-.3 7.7 7.9 6.2 10.8 3.5 0 0 3.5 12.3 14.1 15s16.5-1.9 16.5-1.9 8.6-6.6 10.6-14c2.2-7.2 1-11.6 1-11.6zM53 90.398l6.7-12.6c1.6-7.4 3.2-14.7 4.8-22.1 2.7-.1 5.5-.2 8.2-.3.6 2.1 1.3 4.3 2.1 6.6 1.3 3.6 2.6 6.9 4 10 0 0 3.5 5.3 3.3 9.1s-3.5 12-3.8 12.5-4.2 7.6-4.2 7.6l-12.5-4.4z" fill="#D2C3EF"/><path d="M64.7 55.799c.4-.5 5.3-10.3 6.5-9.7s.1 7.1.1 7.1 3.3-1.8 4 .7c0 0 2.6-1.3 3.5.5 0 0 4 1.3 4.2 1.9.3.6 3.2 4.2 3.3 5.1s0 8.3-.8 8.3-3.2-7.1-3.2-7.1l-1.4-1.7s-.7 8.3-1.9 8.3-3-3.2-3-3.2-.8 2-1.2 1.8c-.4-.3-2.2-2.9-2.1-3.3.1-.3-1.1-6.8-1.1-6.8zm178 173.099-15.4 12.7s-13.1 10.6-12 12.6 13.2-5.9 13.2-5.9-13.8 13.1-12.2 14.1 9.6-3.8 9.6-3.8-5.1 4.3-3.5 5.3 15.4-6 15.4-6-7.3 7.5-6.4 8.3 6.7-2 10.7-5.1c4-3 9.1-5.8 9.1-5.8s5.2-3 5.7-5.3c0 0-4.5-3.4-7.7-8.3s-6.5-12.8-6.5-12.8z" fill="#D2C3EF"/><path d="M242.1 261.1s3.7 9.8 6.7 16c3.6 7.3 5.5 11.2 5.5 11.2s-29.1 2.5-29.5 2.4-36.2.2-36.2.2l-50.1-2.2-16.5-1.4-5.8-14s29.3 2.8 29.6 2.8 20.7 1.3 37.7.3c17.1-1 40.3-6.8 40.3-6.8s6.8-3.6 7.5-3.4 2.4.4 5.9-1.6c3.5-1.9 4.9-3.5 4.9-3.5z" fill="#D2C3EF"/><g fill="#531CB3"><path d="M121.7 287.899c-.4 0-.7-.2-.9-.6-14.3-29.2-20.4-71-20.4-71.4-.1-.5.3-1.1.8-1.1.5-.1 1.1.3 1.1.8.1.4 6.1 41.8 20.2 70.8.2.5 0 1.1-.5 1.3 0 .1-.2.2-.3.2zm111.7-50c-.4 0-.7-.2-.9-.6-4.5-10.1-13-47.1-13.3-48.6-.1-.5.2-1.1.8-1.2.5-.1 1.1.2 1.2.8.1.4 8.7 38.4 13.2 48.3.2.5 0 1.1-.5 1.3h-.5z"/><path d="M215.3 256.099h-.4c-.6-.1-.9-.4-1-.7-1.3-2 1.8-5.4 13.9-15.1.6-.5 1.2-1 1.8-1.4 5.2-4.2 12.5-10.4 12.6-10.4.4-.4 1.1-.3 1.4.1.4.4.3 1.1-.1 1.4-.1.1-7.5 6.3-12.6 10.5-.5.4-1.1.9-1.8 1.4-3.5 2.8-12.3 9.8-13.3 12.2 2.1-.3 9.3-4.5 15.3-8.6.5-.3 1.1-.2 1.4.3s.2 1.1-.3 1.4c-3.2 2.1-13.5 8.9-16.9 8.9z"/><path d="M217 264.099c-.2 0-.5 0-.7-.1-.6-.2-1.1-.5-1.4-1.1-1.1-2 3.8-7.5 14.7-16.4.4-.4 1.1-.3 1.4.1s.3 1.1-.1 1.4c-6.6 5.4-13.7 12.1-14.1 13.9 1.1.3 4.4-1.8 6.8-3.3 1-.6 2-1.2 2.9-1.8 3.4-2 8.1-5.2 9.4-6.2.5-.3 1.1-.2 1.4.3s.2 1.1-.3 1.4c-1.4.9-6.1 4.2-9.5 6.3-.9.5-1.9 1.1-2.9 1.7-3 2.1-5.7 3.8-7.6 3.8zm15 3.601h-.4c-.5-.1-.9-.4-1.2-.8-1.1-1.6.8-3.4 3.4-6 1.4-1.3 2.9-2.9 3.9-4.3.3-.5.9-.6 1.4-.3s.6.9.3 1.4c-1.1 1.6-2.7 3.2-4.1 4.6-1.1 1.1-2.7 2.7-3 3.4 1.5-.1 6.6-3.6 9.1-5.3 1.8-1.3 3.4-2.4 4.6-3 .7-.4 1.3-.7 1.9-1.1 3.7-2 6.6-3.5 8.4-6.8.3-.5.9-.7 1.4-.4s.7.9.4 1.4c-2.1 3.8-5.4 5.6-9.2 7.6-.6.3-1.3.7-1.9 1-1.1.6-2.7 1.7-4.4 2.9-5.1 3.4-8.5 5.7-10.6 5.7z"/><path d="M222.9 265.299c-.7 0-1.2-.1-1.5-.5-.4-.4-.5-.8-.5-1.4.1-2 3.2-4.8 4.2-5.6.4-.4 1.1-.3 1.4.1.4.4.3 1.1-.1 1.4-1.7 1.5-3.3 3.3-3.5 4 1.6.3 10.3-4.1 17.5-8.6.5-.3 1.1-.1 1.4.3.3.5.1 1.1-.3 1.4-6.8 4.3-15 8.9-18.6 8.9zm40.7-11.001c-.1 0-.3 0-.4-.1-.3-.1-7.8-3.5-13.1-9.5s-8-14.8-8.1-15.2c-.2-.5.1-1.1.7-1.2.5-.2 1.1.1 1.2.7 0 .1 2.7 8.8 7.7 14.4 4.2 4.7 9.9 7.8 11.8 8.7 3.8-4 27.9-29.4 36.6-41.8 9.6-13.6 21.5-30.6 10.4-50.5-11.9-21.2-45.7-41.3-82.2-49-37.7-7.9-66.6-.4-66.9-.3-.5.1-1.1-.2-1.2-.7s.2-1.1.7-1.2c.3-.1 29.6-7.7 67.8.3 37 7.8 71.4 28.4 83.5 50 11.8 21-1.1 39.2-10.5 52.6-9.5 13.5-37 42.3-37.3 42.6-.2.1-.5.2-.7.2z"/><path d="M210.8 192.6c-.3 0-.6-.2-.8-.5-.3-.5-.2-1.1.3-1.4.3-.2 7.7-5 15.8-3.9 14.9 2.1 35.3 3 47.3-4.6.5-.3 1.1-.2 1.4.3s.2 1.1-.3 1.4c-12.6 7.9-33.4 7-48.7 4.9-7.4-1-14.4 3.5-14.5 3.6-.1.2-.3.2-.5.2z"/><path d="M242.8 230.199c-.2 0-.4-.1-.6-.2-.4-.3-.5-1-.1-1.4.1-.1 11.9-14.7 24.4-35.1 10.2-16.5 14.1-21.9 14.1-22 .3-.4.9-.5 1.4-.2.4.3.5.9.2 1.4 0 .1-3.9 5.4-14 21.8-12.6 20.5-24.5 35.1-24.6 35.3-.2.3-.5.4-.8.4zM48.8 161.7c-.3 0-.6-.1-.8-.4-.4-.4-.3-1.1.1-1.4.2-.1 16.4-13.9 39.4-27.2 17-9.8 39.2-17.2 43.5-18.6h.1c.5-.2 1.1.1 1.3.6s-.1 1.1-.6 1.3h-.1c-4.3 1.4-26.3 8.7-43.1 18.4-22.9 13.2-38.9 26.9-39.1 27-.2.2-.4.3-.7.3zm28-59.502c-2.8 0-7.3-1.1-11.8-2.9-8.8-3.5-12.5-8.3-12.7-8.5-.3-.4-.3-1.1.2-1.4.4-.3 1.1-.3 1.4.2 0 0 3.6 4.6 11.8 7.8 5.9 2.3 10.2 2.9 11.7 2.7-.4-.4-1.1-.9-1.8-1.3-.5-.3-.7-.9-.4-1.4s.9-.7 1.4-.4c.9.5 3.1 1.9 3.1 3.5 0 .5-.2.9-.6 1.1-.5.5-1.3.6-2.3.6z"/><path d="M47.3 166.899h-.1c-.5-.1-.9-.6-.9-1.1 1.2-9.3 12.1-29.6 16.8-38.2l14.7-27.4c.3-.5.9-.7 1.4-.4.5.3.7.9.4 1.4l-14.7 27.4c-4.6 8.6-15.4 28.6-16.6 37.5-.1.4-.5.8-1 .8z"/><path d="M91.4 216.999c-11.5 0-31-.9-47.8-6-22.2-6.8-46.9-24.1-43.3-50.5 2.2-16.3 17.1-31.5 34.2-49.1l1.3-1.3c8.8-9 16.3-20.3 16.4-20.4.3-.5.9-.6 1.4-.3s.6.9.3 1.4c-.1.1-7.7 11.5-16.6 20.7l-1.3 1.3c-16.9 17.3-31.5 32.3-33.7 47.9-3.4 25.2 20.4 41.8 41.9 48.3 25.2 7.7 56.8 5.7 57.1 5.7.6 0 1 .4 1.1.9 0 .6-.4 1-.9 1.1-.2.1-4.1.3-10.1.3z"/><path d="M53.3 90.698c-.2 0-.4-.1-.5-.2-.5-.3-.6-.9-.3-1.4 0-.1 3.6-5.5 6-11.5.2-.5.8-.8 1.3-.6s.8.8.6 1.3c-2.5 6.2-6 11.6-6.2 11.9s-.6.5-.9.5zM74.2 101.7c-.2 0-.4-.1-.6-.2-.4-.3-.5-.9-.2-1.4 2.9-4 5.7-10.3 7.1-13.7 1.4-3.3 1.3-6.9-.2-10-.3-.6-.6-1.1-.9-1.6-2.6-3.5-8.4-9.4-9.9-9.4-.4 1.1 1.8 6.4 4.7 11.5.2.3.2.6 0 .9s-.4.5-.7.6c-1.1.2-4.2 1.2-5 2.9-.2.5-.8.7-1.3.5s-.7-.8-.5-1.3c1-2 3.5-3.1 5.1-3.6-2.4-4.4-5.5-10.9-3.7-12.8.3-.3.7-.6 1.5-.5C73 63.7 80 72.4 81 73.7c.4.6.8 1.2 1.1 1.9 1.7 3.6 1.8 7.8.3 11.6-1.8 4.3-4.5 10.2-7.3 14.1-.3.3-.6.4-.9.4zm-4.8-43.901c-.1 0-.2 0-.3-.1-.5-.2-.8-.8-.6-1.3 1.4-3.9 2.4-7.8 2.2-9.1-1 .9-3.2 4.8-4.9 8.9-.2.5-.8.8-1.3.5-.5-.1-.7-.7-.5-1.2 1.5-3.7 4.4-9.9 6.7-10.3.6-.1 1.1.1 1.5.6 1.4 1.7-.6 7.8-1.8 11.3-.2.4-.6.7-1 .7z"/><path d="M74.9 68.5c-2.9 0-3.7-6.7-3.9-10.7 0-.6.4-1 .9-1s1 .4 1.1.9c.2 4 1 7.9 1.8 8.7.8-1.7.6-10.1-.7-11.8-1-1.4-2.7-.3-2.9-.2-.5.3-1.1.2-1.4-.3s-.2-1.1.3-1.4c1.2-.8 3.9-1.7 5.6.6 1.6 2.2 2.2 11.2.9 13.9-.6 1.1-1.3 1.3-1.7 1.3z"/><path d="M78.6 70.4c-.6 0-1.1-.2-1.6-.6-1.5-1.2-1.9-4.3-1.9-4.6-.1-.5.3-1 .9-1.1s1 .3 1.1.9c0 0 .1 1 .5 2 .1.4.5 1.3 1 1.4.3-.4 1-2.4.8-5.6-.2-4.7-.9-7.2-2.2-8.3-.8-.6-1.5.1-1.6.2-.4.4-1 .4-1.4 0s-.4-1 0-1.4c.7-.7 2.6-1.7 4.3-.3 1.8 1.5 2.7 4.3 2.9 9.8.1 2.8-.2 7.5-2.5 7.7-.1-.1-.2-.1-.3-.1z"/><path d="M85.2 70.499c-1.8 0-2.2-1.6-3.1-5.2l-.4-1.5c-.2-.9-1.4-2.5-2.1-3.3-.4-.4-.3-1 .1-1.4s1-.3 1.4.1c.2.2 2.1 2.5 2.6 4.1l.4 1.5c.4 1.6.8 3.1 1.1 3.6.1-.6.1-2.3 0-3.9v-.9c-.1-2.9-.8-3.8-2.3-5.8-1.6-2.1-3-1.6-3.1-1.6-.5.2-1.1 0-1.3-.5s0-1.1.4-1.3c.1-.1 2.8-1.4 5.5 2 1.7 2.2 2.7 3.5 2.8 7.1v.9c.1 3.4.1 4.8-.7 5.6-.3.2-.7.5-1.3.5zm62.7 71.799c-21.6 0-32.3-20.7-32.5-20.9-.2-.5-.1-1.1.4-1.3.5-.3 1.1-.1 1.3.4.1.2 12.3 23.8 36.9 19.2 23.1-4.3 27.7-33.2 27.7-33.5.1-.5.6-.9 1.1-.8s.9.6.8 1.1c0 .3-4.8 30.7-29.3 35.2-2.1.4-4.3.6-6.4.6zm-16.4-26.299c-.5 0-1-.4-1-1l-.9-25.8c0-.6.4-1 1-1 .5 0 1 .4 1 1l.9 25.8c0 .5-.4 1-1 1z"/><path d="M161 110.499c-.4 0-.8-.2-.9-.6l-9.6-24.9c-.2-.5.1-1.1.6-1.3s1.1.1 1.3.6l9.6 24.8c.2.5-.1 1.1-.6 1.3-.2 0-.3.1-.4.1z"/><path d="M137.2 90.799c-6 0-16.2-2.2-21.1-16.2-6.1-17 7.3-27.6 7.4-27.7.4-.3 1.1-.3 1.4.2.3.4.3 1.1-.2 1.4-.5.4-12.3 9.9-6.7 25.5 5.9 16.5 19.2 15.3 23.1 14.5 4-.8 11.4-3.7 15.4-14.4 2.8-7.5 1.5-12.4 1.5-12.4-.1-.3 0-.6.2-.9.2-.2.5-.4.8-.4 4.8-.1 7.7-3.2 8.5-6.1.6-2.3-.2-4.3-2.1-5.5-3.7-2.2-8.3 2.7-8.4 2.8-.4.4-1 .4-1.4 0s-.4-1 0-1.4c.2-.3 5.8-6.1 10.8-3.1 2.7 1.6 3.9 4.5 3.1 7.7-.8 3.3-4.1 6.9-9.2 7.5.3 2 .5 6.5-1.8 12.5-4.3 11.6-12.5 14.8-16.9 15.7-.9 0-2.4.3-4.4.3z"/><path d="M111.8 77.1c-1.6 0-3.1-.5-4.3-1.6-2.4-2.1-3.1-5.7-1.6-8.7 2.3-4.8 7.5-5.1 10-4.5.5.1.9.7.8 1.2s-.7.9-1.2.8c-.2-.1-5.5-1.2-7.7 3.4-1.1 2.2-.6 4.8 1.1 6.3 1.9 1.6 4.7 1.4 7.7-.6.5-.3 1.1-.2 1.4.3s.2 1.1-.3 1.4c-2.1 1.3-4.1 2-5.9 2zm-6.6-27.2s7.2 10 14.9 10.3 16.5-12.6 16.5-12.6 1.3 5.8 8.7 6.7c7.4.8 10.9-3.4 10.9-3.4S153.7 41.2 140 38c-13.6-3.2-32.6 9.1-34.8 11.9z"/><path d="M120.4 61.2h-.3c-8.1-.3-15.4-10.3-15.7-10.7s-.3-.9 0-1.2c2.2-2.8 21.4-15.6 35.8-12.2 14.1 3.3 16.8 13.1 16.9 13.5.1.3 0 .6-.2.9-.2.2-3.9 4.6-11.8 3.7-5.4-.6-7.8-3.6-8.8-5.6-2.5 3.5-9.4 11.6-15.9 11.6zM106.6 50c1.7 2.2 7.6 9 13.6 9.2h.2c7 0 15.4-12.1 15.5-12.2.2-.3.6-.5 1-.4s.7.4.8.8c0 .2 1.2 5.1 7.8 5.9 5.5.6 8.6-1.7 9.6-2.6-.7-2-4.1-8.9-15.3-11.6-12.3-3-29.6 7.6-33.2 10.9z"/><path d="M135.4 38.498s-6.7-6.1-2.5-20.2 14.8-20.2 24.7-15.9 8.5 18 5.8 23.4-7.4 14.4-16.6 16.2c-9.2 1.7-11.4-3.5-11.4-3.5z"/><path d="M143.2 43.2c-6 0-8.1-3.3-8.6-4.1-1-1-6.7-7.5-2.6-21.1 2.4-8 6.9-13.8 12.6-16.5 4.3-2 9-2 13.5-.1 3.5 1.5 5.9 4.1 7.2 7.8 2.1 5.7 1.1 12.9-.9 16.9-2.4 4.8-7.4 14.8-17.4 16.7-1.4.3-2.7.4-3.8.4zm-6.9-5.1c.1.2 2.1 4.4 10.3 2.8 9-1.8 13.5-10.8 15.9-15.6 1.8-3.6 2.7-10.2.8-15.3-1.2-3.2-3.2-5.4-6.2-6.7-4-1.7-8-1.7-11.8.1-5.2 2.4-9.3 7.8-11.5 15.2-4 13.3 1.9 18.9 2.2 19.2.2 0 .3.2.3.3zm118 251.2c-.4 0-.7-.2-.9-.6 0 0-1.9-4-6.9-14.7-2.6-5.6-5.4-11.9-5.4-12-.2-.5 0-1.1.5-1.3s1.1 0 1.3.5c0 .1 2.8 6.3 5.4 11.9 4.9 10.6 6.8 14.6 6.8 14.6.2.5 0 1.1-.5 1.3 0 .3-.2.3-.3.3zm-89.8-11.501c-29.4 0-48.7-4.1-48.9-4.1-.5-.1-.9-.6-.8-1.2.1-.5.6-.9 1.2-.8.3.1 28.9 6.1 69.8 3.3 32.7-2.2 44.7-9.5 44.8-9.6.5-.3 1.1-.2 1.4.3s.2 1.1-.3 1.4-12.4 7.6-45.7 9.9c-7.6.6-14.8.8-21.5.8zm.7-222.8c-.4 0-.8-.3-.9-.7-.3-.7-.7-1.7-1.5-1.9s-1.7.4-1.7.4c-.4.3-1.1.2-1.4-.2s-.2-1.1.2-1.4c.2-.1 1.7-1.2 3.4-.7 1.2.4 2.2 1.4 2.8 3.2.2.5-.1 1.1-.6 1.3h-.3z"/><path d="M161.1 57.5c-.2 0-.4-.1-.6-.2-.5-.3-.6-.9-.3-1.4l3-4.4c.3-.5.9-.6 1.4-.3s.6.9.3 1.4l-3 4.4c-.2.3-.5.5-.8.5zm-51.4 16c-.4 0-.8-.3-1-.7-1.2-4.2 1.2-6.5 2.6-7.1.5-.2 1.1 0 1.3.5s0 1.1-.5 1.3c-.3.1-2.5 1.3-1.5 4.8.1.5-.2 1.1-.7 1.2h-.2z"/><path d="M112.6 71.5c-.3 0-.5-.1-.7-.3l-2.4-2.4c-.4-.4-.4-1 0-1.4s1-.4 1.4 0l2.4 2.4c.4.4.4 1 0 1.4-.2.2-.5.3-.7.3z"/></g><path d="M148.758 64.14c3.082-1.217 4.972-3.745 4.221-5.645-.75-1.9-3.857-2.455-6.939-1.238s-4.973 3.745-4.222 5.645 3.858 2.455 6.94 1.238z" fill="#fff"/><path d="M145.5 65.799c-2.2 0-4-.9-4.6-2.5-1-2.4 1.1-5.5 4.8-6.9 3.6-1.4 7.2-.7 8.2 1.8.5 1.2.2 2.7-.8 4-.9 1.2-2.3 2.2-4 2.9-1.2.4-2.5.7-3.6.7zm3.7-8.2c-.8 0-1.8.2-2.8.6-2.7 1.1-4.1 3.1-3.6 4.3s2.9 1.7 5.6.7c1.3-.5 2.4-1.3 3.1-2.2.3-.4.9-1.3.5-2.1-.3-.8-1.3-1.3-2.8-1.3z" fill="#531CB3"/><path d="M148.2 56.7c-1.2 1.2-1.7 2.6-1.3 3.7.6 1.4 2.5 2.1 4.7 1.8 1.2-1.2 1.7-2.6 1.3-3.7-.5-1.4-2.4-2.1-4.7-1.8z" fill="#531CB3"/><path d="M127.666 72.255c3.082-1.217 4.972-3.744 4.222-5.645-.751-1.9-3.858-2.455-6.94-1.238-3.082 1.217-4.972 3.745-4.221 5.645.75 1.901 3.857 2.455 6.939 1.238z" fill="#fff"/><path d="M124.5 73.899c-2.2 0-4-.9-4.6-2.5-.5-1.2-.2-2.7.8-4 .9-1.2 2.3-2.2 4-2.9 3.6-1.4 7.2-.7 8.2 1.8.5 1.2.2 2.7-.8 4-.9 1.2-2.3 2.2-4 2.9-1.3.4-2.5.7-3.6.7zm3.7-8.2c-.8 0-1.8.2-2.8.6-1.3.5-2.4 1.3-3.1 2.2-.3.4-.9 1.3-.5 2.1.5 1.2 2.9 1.7 5.6.7 1.3-.5 2.4-1.3 3.1-2.2.3-.4.9-1.3.5-2.1-.3-.8-1.4-1.3-2.8-1.3z" fill="#531CB3"/><path d="M126.9 64.8c-1.2 1.2-1.7 2.6-1.3 3.7.6 1.5 2.7 2.2 5 1.7 1.2-1.2 1.7-2.6 1.3-3.7-.6-1.4-2.7-2.1-5-1.7zm10.3 7.8c-.5 0-.9-.4-1-.9s.3-1 .9-1.1c1.5-.1 2.4-.8 2.4-1.4 0-.5-.6-1.1-1.9-1.3-1.1-.2-1.9-.8-2.4-1.6-1-1.6-.4-3.8-.4-4 .2-.5.7-.8 1.2-.7.5.2.8.7.7 1.2-.1.4-.3 1.7.1 2.4.2.3.5.6 1.1.7 2.7.6 3.6 2.2 3.5 3.4 0 1.5-1.3 3-4.2 3.3 0 0 .1 0 0 0zm6.401 6.599c.681-2.16.165-4.247-1.151-4.662-1.317-.415-2.937.999-3.618 3.158-.68 2.16-.165 4.247 1.152 4.662s2.936-.999 3.617-3.158zM196.6 292.1c-4.5 0-9.1 0-13.7-.1-21.6-.4-42.8-1.8-61.3-3.9-.5-.1-.9-.6-.9-1.1.1-.5.6-.9 1.1-.9 18.4 2.2 39.6 3.5 61.1 3.9 25.8.5 50.4-.4 71.2-2.5.6 0 1 .3 1.1.9.1.5-.3 1-.9 1.1-17.1 1.7-36.8 2.6-57.7 2.6zm78.5-50.502h-.2c-17.9-4.3-24-22.6-24.3-23.3-.2-.5.1-1.1.6-1.3s1.1.1 1.3.6c.1.2 6.1 17.9 22.9 22 .5.1.9.7.7 1.2s-.6.8-1 .8zM71.3 115.099h-.1c-16.9-1.8-25.7-13.8-26.1-14.3-.3-.4-.2-1.1.2-1.4s1.1-.2 1.4.2c.1.1 8.7 11.8 24.7 13.5.5.1.9.6.9 1.1-.1.5-.5.9-1 .9zM46 174.598c.1 4.7 7.9 6.4 9.7 1.4s2.3-11 4.5-16.5c4.5-11.3 17.5-19.6 17.5-19.6l-19 13.1-9.8 6.9c.1-.1-3 9.2-2.9 14.7z" fill="#531CB3"/><path d="M51.3 179.999c-.4 0-.7 0-1.1-.1-3-.5-5.1-2.7-5.2-5.3-.2-5.6 2.9-14.7 3-15.1.1-.2.2-.4.4-.5l9.8-6.9 17.7-12.2c.8-.5 1.2-.9 1.3-.9.5-.3 1.1-.2 1.4.3s.2 1.1-.3 1.4l-1 .7c-3 2.2-12.5 9.4-16.2 18.5-1.2 3-1.9 6.1-2.6 9.2-.6 2.6-1.1 5-1.9 7.3-.7 2.3-2.8 3.6-5.3 3.6zm-4.3-5.5c.1 2 1.9 3.2 3.5 3.4s3.5-.2 4.2-2.3c.8-2.2 1.3-4.5 1.9-7 .7-3.1 1.4-6.4 2.7-9.5 1.4-3.5 3.6-6.7 5.9-9.4l-5.9 4.1-9.5 6.7c-.5 1.6-2.9 9.4-2.8 14zm163.8 17.1s-8.4 4.4-8.6 7.7c-.4 5.4 4.6 5.9 11.9 4 8.3-2.1 12.4 10.5 14.5 19.5 0 0-8.3-33.7-8.1-34.5.2-.7-9.7 3.3-9.7 3.3z" fill="#531CB3"/><path d="M228.6 223.899c-.4 0-.9-.3-1-.8-.3-1.2-.6-2.3-.9-3.5-2.1-7.7-4.8-12.8-7.9-14.7-1.4-.9-2.9-1.1-4.5-.6-5.7 1.5-9.5 1.4-11.5-.3-1.3-1-1.8-2.6-1.7-4.7.3-3.7 7.7-7.7 9.2-8.5h.1c9.7-4 10.2-3.6 10.7-3.1.2.2.4.5.3.9.1 1.5 4.1 18 7.2 30.7.3 1.1.6 2.3.9 3.5.1.5-.2 1.1-.7 1.2-.1-.1-.1-.1-.2-.1zm-12.7-21.8c1.4 0 2.7.4 4 1.1 1.4.8 2.6 2.1 3.8 3.8-2.7-11.4-3.7-15.8-4-17.6-1.6.4-5.2 1.8-8.4 3.1-3.3 1.7-7.9 5-8.1 6.9-.1 1.4.2 2.4.9 3 1 .9 3.6 1.6 9.7-.1.8-.1 1.5-.2 2.1-.2zm5.6-13.6v.2-.2zm59.9-16.4s3.5-4.5 2-7.5-8.7-6.5-13.6-.7-3.4 25.8-23.6 25.5l7.2-.3 12.2-2.1 8.2-4z" fill="#531CB3"/><path d="M246.7 190.4h-.5c-.5 0-1-.4-1-1 0-.5.4-1 1-1l3.5-.2c11-1.3 13.7-10 16-17.1 1-3.2 1.9-6 3.4-7.8 2.2-2.6 5.2-3.8 8.4-3.4 3.4.4 6 2.5 6.9 4.3 1.7 3.5-1.8 8.1-2.1 8.5l-7.6 10.8c-.1.1-.2.2-.4.3l-8.2 4c-.1 0-.2.1-.3.1l-12.2 2.1h-.1l-3.6.2c-1 .1-2.1.2-3.2.2zm29.5-28.6c-1.7 0-3.8.6-5.7 2.8-1.3 1.5-2.1 4.1-3.1 7.1-1.7 5.2-3.7 11.7-9.2 15.5l7-1.2 7.8-3.9 7.4-10.6c.9-1.1 2.9-4.4 1.9-6.4-.6-1.3-2.8-2.9-5.4-3.2 0-.1-.4-.1-.7-.1zM76.5 98.4c.7.4 1.4.8 1.5 1.6.1.199 0 .499-.2.699-.1.1-.3.1-.5.1-3.1.4-1.5-2.7-.8-2.4zm76.4-9.1s-5.7 6.9-21.9 10.4c0 0 .2-9.3.1-9.4s6.5.6 10.9-.7 9.3-4.1 9.3-4.1z" fill="#531CB3"/><path d="M131 100.7c-.2 0-.5-.1-.6-.2-.2-.2-.4-.5-.4-.8.1-3.3.1-8.7.1-9.3 0-.3 0-.5.2-.7.3-.5.6-.4 1.9-.4 1.9.1 6.4.2 9.5-.6 4.3-1.2 9-4 9-4 .3-.1.5-.2.8-.1s.5.3.6.6l1.6 3.8c.1.3.1.7-.2 1-.2.3-6.1 7.2-22.5 10.8.1-.1 0-.1 0-.1zm1.1-9.4c0 1.1 0 3.2-.1 7.2 12.4-3 18.2-7.9 19.7-9.4l-.9-2.1c-1.7.9-5.2 2.7-8.5 3.6-3.5 1-8 .8-10.2.7zm-72.5-13c-.6-.1-1-.5-1-1.1.3-3.7 1-7.4 1.9-11 .8-3.4 1.9-6.7 3.2-9.9.2-.5.8-.8 1.3-.6s.8.8.6 1.3c-1.3 3.1-2.3 6.4-3.1 9.6-.9 3.5-1.5 7.1-1.8 10.7-.2.6-.6 1-1.1 1z" fill="#531CB3"/></g></svg></g></svg>