<svg xmlns="http://www.w3.org/2000/svg" viewBox="0 0 1200 800" width="1200" height="800"><g transform="translate(274.0 340.0) rotate(0.0 207.5 213.5) scale(0.36311646676303105 0.3628468607798233)"><svg width="1142.884" height="1176.805" viewBox="0 0 1142.884 1176.805"><path d="M441.456 3.367C211.129-25.169 0 131.913 0 314.585c0 137.004 151.257 203.746 192.82 304.453 60.386 146.315-263.072 412.101-64.273 529.409 151.918 89.644 278.911-63.166 389.023-49.051 226.629 29.052 398.495 41.781 508.608-21.122 106.558-60.872 116.707-184.705 116.707-274.236-.001-210.189-128.043-729.632-701.429-800.671z" fill="#EEE"/></svg></g><g transform="translate(343.0 168.0) rotate(0.0 239.5 280.0) scale(0.9429133858267716 0.9427609427609428)"><svg width="508" height="594" viewBox="0 0 508 594"><clipPath id="a"><path d="M0 0h507.9v594H0z"/></clipPath><g clip-path="url(#a)"><path d="M228.3 295.8s-20.4-5.5-13.4-12.6c7.1-7.2 24.4 1.4 24.4 1.4s20.2-13.1 36.7-9.6c0 0 11.6-7.4 13.9-6.5 2.2.9 2.5 12.6 2.5 12.6 18.4 12.4 13.2 37.8 13.2 37.8s14.7 10.2 10.2 19c-4.1 5.6-15.1 0-15.1 0z" fill="#E2D8F4"/><path d="M465.1 224.7s4 56.5-7.4 97.4c-11.3 40.9-29.3 86.3-69.9 127.5s-87.9 58.6-127.7 64.6c0 0-1.4-61.5 13.7-88.9s31.6-50.4 31.6-50.4 15-17.5 29.1-23.2c14.2-5.7 41.9-9.8 65.5-30.2 23.8-20.5 25-43.5 25-43.5s11.3-43 11.8-58.5m0 0s13.7-6.6 28.3 5.2zm-239.1 93.7s-1.4-22-13.4-49.1c-5.4-12.1-16.5-25.2-14.8-51s19.4-54.8 40.1-74.9-2-21.3-17.1-20.7c0 0-25.1 23.8-42.6 44s-50.2 56.7-65 108.3 0 101.4 3.1 108.3 53.2 9.1 78.7-13.5 29.3-42.5 29.3-42.5z" fill="#fff"/><g fill="#531CB3" fill-opacity=".92"><path d="M181.3 140.2s15.7 10.5-3.9 40.1l16.8-25c0-.1-4.4-12.1-12.9-15.1zM81.4 291.399h-1c-3.3 22.6-1.7 43.7.9 59.5 8.4-2.2 15.4-13.9 16.3-28.5.9-16.5-6.3-30.4-16.2-31zM445.2 389.2c-.2 0-.4 0-.5-.1-.5-.3-.6-.9-.3-1.4 29.7-48.9 31.3-111 31.3-111.6s.5-1 1-1c.6 0 1 .5 1 1 0 .6-1.6 63.2-31.6 112.6-.3.3-.6.5-.9.5zM69.9 302.3c-.5 0-1-.4-1-1-1.9-48.3 23.8-84 24.1-84.4s1-.5 1.4-.2.5 1 .2 1.4c-.3.3-25.6 35.6-23.7 83.1 0 .6-.4 1.1-1 1.1zm373.2-57.101h-.1c-.5-.1-.9-.6-.8-1.1l3.8-26.2c.1-.5.6-.9 1.1-.8s.9.6.8 1.1l-3.8 26.2c-.1.4-.5.8-1 .8zm13.4 2.901c-.6 0-1-.5-1-1.1l1.5-26.9c0-.6.5-1 1.1-.9.6 0 1 .5.9 1.1l-1.5 26.9c0 .5-.5.9-1 .9zm-82.7 186.7c-12.3 14.3-18.4 30.3-16.5 40.8 10.4-7.4 20.7-16 30.5-26a245.4 245.4 0 0 0 29.5-36c-10.3-4.6-28.8 4.1-43.5 21.2zm17.5-60.5c3.976 0 7.2-4.075 7.2-9.1 0-5.026-3.224-9.1-7.2-9.1-3.977 0-7.2 4.074-7.2 9.1 0 5.025 3.223 9.1 7.2 9.1z"/><path d="m433.8 246.2-3.6 16.8s4.1-17.8 21.1-16.4c0 .1-1.9-2.9-17.5-.4zM281 294.1c-22.1-12-49.1-12.8-75.6 12.3-26.4 25-44.9 50.5-103.4 68-5.3 1.6-10 3.3-14.2 5.1-18.5 7.8-27.7 17.5-34.3 27.5-6.7 10-10.8 20.6-19.4 30-2.4 2.7-5.2 5.2-8.6 7.7-35.9 26.5-44.4 118.3 59.5 144 42.3 10.5 123.5 3.4 158.2-43.9 1.3-1.8 2.6-3.7 3.8-5.7 5.2-8.5 9.1-16.6 12.3-24.2 9.6-22.7 12.6-40.9 25-53.3 16.5-16.5 32.1-35.9 26-67.1s-10.4-41.1-8-61.9c1.6-14.9-3.9-29.1-21.3-38.5z"/><path d="M123.5 593.9c-14 0-27.4-1.4-38.8-4.2-62.7-15.5-79-52.9-83.2-73.8-5.5-27.7 4.3-58 23.3-72 3.1-2.3 5.9-4.8 8.4-7.6 5.5-6 9-12.3 12.8-19 2-3.6 4.1-7.3 6.5-11 6-9 14.8-19.4 34.7-27.8 4.4-1.8 9.2-3.6 14.3-5.1 49.5-14.8 69.9-35 91.5-56.5 3.7-3.7 7.6-7.5 11.5-11.3 30-28.4 58.3-22.4 76.7-12.4 16.2 8.8 23.7 22.5 21.8 39.7-1.8 15.8.3 25.4 4.1 42.8 1.2 5.4 2.5 11.5 3.9 18.8 6.3 32.2-10.2 51.9-26.2 68-8.5 8.5-12.5 19.6-17.5 33.7-2.2 6.1-4.4 12.4-7.3 19.3-3.7 8.8-7.7 16.7-12.4 24.3-1.2 1.9-2.5 3.9-3.8 5.7-19.8 27.1-52.7 38.9-76.8 44-13.9 2.9-29 4.4-43.5 4.4zM250.9 287c-13.6 0-28.9 5.1-44.8 20.1-4 3.7-7.8 7.6-11.5 11.2-21.8 21.6-42.3 42.1-92.3 57-5.1 1.5-9.8 3.2-14.1 5-19.5 8.2-28 18.3-33.8 27.1-2.4 3.6-4.4 7.3-6.5 10.9-3.7 6.5-7.4 13.3-13.1 19.4-2.7 2.9-5.5 5.5-8.7 7.8-18.4 13.6-27.9 43-22.6 70 4.1 20.4 20.1 57 81.7 72.2 44.5 11 123.8 2 157.1-43.5 1.3-1.8 2.6-3.7 3.7-5.6 4.6-7.5 8.6-15.4 12.3-24 2.9-6.8 5.1-13.1 7.3-19.2 4.9-13.7 9.1-25.6 17.9-34.4 15.7-15.7 31.8-35 25.7-66.2-1.4-7.3-2.8-13.4-3.9-18.7-3.8-17.6-5.9-27.3-4.1-43.4 1.9-16.6-5.1-29.3-20.7-37.7-8.1-4.4-18.3-8-29.6-8z"/></g><path d="m35.4 437.1-1.5-1.3c5.2-5.8 8.6-11.9 12.3-18.4 2-3.6 4.1-7.3 6.5-11 5.3-8 13.7-18.3 31.8-26.6l.8 1.8c-17.6 8-25.5 17.6-31 25.9-2.4 3.6-4.4 7.3-6.5 10.9-3.5 6.2-7.1 12.7-12.4 18.7z" fill="#E2D8F4"/><path d="M302.7 330.2c-.1 0-.2 0-.4-.1-.5-.2-.8-.8-.6-1.3.6-1.5 14-36.6-16.3-49.7-25.8-11.2-50.5 9.9-50.8 10.1-.4.4-1 .3-1.4-.1s-.3-1 .1-1.4c.3-.2 26-22.1 52.9-10.4 32 13.9 17.5 51.9 17.3 52.3-.1.4-.4.6-.8.6z" fill="#531CB3" fill-opacity=".92"/><path d="M292.4 282.1c-.1 0-.1 0 0 0-.6 0-1-.5-1-1.1.4-5.2-.3-11.1-1.8-11.6-2-.6-8.8 3.3-13 6.4-.4.3-1.1.2-1.4-.2s-.2-1.1.2-1.4c1.8-1.3 11.1-7.8 14.7-6.6 3.8 1.2 3.4 10.7 3.2 13.6 0 .5-.4.9-.9.9zm18.9 60c-4.2 0-9.3-3-10-3.5-.5-.3-.6-.9-.3-1.4s.9-.6 1.4-.3c2.1 1.3 8.3 4.4 10.9 2.7 1-.6 1.7-2 1.8-3.6.4-4.8-3.4-11.1-10.1-16.8-.4-.4-.5-1-.1-1.4s1-.5 1.4-.1c10.4 8.8 11 15.8 10.8 18.5-.2 2.3-1.2 4.2-2.8 5.2-.9.5-1.9.7-3 .7zm-89.5-47.5c-.1 0-.2 0-.3-.1-.8-.3-7.8-2.8-8.8-7.1-.4-1.7.1-3.3 1.5-4.9 5.1-5.6 19-2.8 24.6.9.5.3.6.9.3 1.4s-.9.6-1.4.3c-5.4-3.6-18-5.6-22-1.2-1 1.1-1.3 2.1-1.1 3.1.7 2.7 5.7 5 7.5 5.7.5.2.8.8.6 1.3-.1.3-.5.6-.9.6zm-27.6-138.4c-.4 0-.8-.3-1-.7-6-18.5-20.4-17.3-21-17.3-.5 0-1-.3-1.1-.9-.1-.5.3-1 .9-1.1.2 0 16.6-1.4 23.1 18.6.2.5-.1 1.1-.6 1.3-.1.1-.2.1-.3.1zm66 358.9c-.5 0-.9-.3-1-.8s.3-1.1.8-1.2c79.8-13.7 136.9-56.5 174.5-130.7 39.5-78.2 29.8-156.8 29.7-157.6-.1-.5.3-1 .9-1.1s1 .3 1.1.9c.1.8 10 80.1-29.8 158.8-19.4 38.4-44.7 69-75.2 91-28.4 20.5-62.3 34.2-100.8 40.8-.1-.1-.2-.1-.2-.1z" fill="#531CB3" fill-opacity=".92"/><path d="M305.5 375.799c-.2 0-.4-.1-.6-.2-.4-.3-.5-1-.2-1.4.1-.2 14.1-18.3 34-24.9 1.6-.5 3.5-1.1 5.5-1.8 23.2-7.4 66.3-21 77.9-60.8 12.6-43.3 13.6-67.1 13.7-67.3 0-.6.5-1 1-1 .6 0 1 .5 1 1 0 .2-1.1 24.2-13.7 67.8-11.8 40.8-57.3 55.2-79.2 62.2-2 .6-3.9 1.2-5.5 1.8-19.3 6.4-32.9 24-33 24.2-.3.3-.6.4-.9.4z" fill="#531CB3" fill-opacity=".92"/><path d="M466.4 255.299c-.2 0-.5-.1-.7-.3-16.3-14.9-31.6-7.9-32.3-7.6-.5.2-1.1 0-1.3-.5s0-1.1.5-1.3c.2-.1 17.2-7.9 34.5 7.9.4.4.4 1 .1 1.4-.3.3-.6.4-.8.4z" fill="#531CB3" fill-opacity=".92"/><path d="m346.3 128.999-4.4 55.6 121.4 9 4.9-56.6c3.4 8.6 10.5 14.6 18.8 14.6 11.5 0 20.9-11.5 20.9-25.7s-9.4-25.9-20.9-25.9c-6.7 0-12.7 3.9-16.5 9.9l4.1-47.2-50-4.8c8.4 4.6 13.6 13.2 12.5 22.2-1.5 12.4-14.2 21-28.3 19.2-14.1-1.7-24.3-13.2-22.8-25.5 1.1-8.6 7.5-15.4 16.1-18.1l-49.8-4.8-4.7 60.3" fill="#E2D8F4"/><path d="M465.1 224.7s4.4-25.5 5.8-35c1.4-9.4 3.1-25 .2-23.6s-12.4 25.8-12.4 25.8l-24.2-.2 3 27.4s11.9-2.7 18.4 0c5.2 2.1 9.2 5.6 9.2 5.6z" fill="#E2D8F4"/><path d="M465.1 225.699c-.2 0-.5-.1-.7-.3-10.8-10.3-27.2-5-27.3-5-.5.2-1.1-.099-1.3-.599s.1-1.1.6-1.3c.7-.2 17.7-5.701 29.3 5.399.4.4.4 1.001 0 1.401 0 .3-.3.399-.6.399z" fill="#531CB3" fill-opacity=".92"/><path d="M465.1 225.699h-.2c-.5-.1-.9-.6-.8-1.2 4.6-25.8 8.7-54.6 7.4-58.1-2.1 1.4-7.8 14.6-12 26.5-.2.5-.8.8-1.3.6s-.8-.8-.6-1.3c2.9-8.2 10-27.3 13.8-27.9.6-.1 1.2.2 1.6.7 2.9 3.9-5.2 50.5-6.9 59.8-.1.5-.5.9-1 .9zm-28.3-5.2c-.5 0-1-.4-1-.9l-2.3-27.8c0-.5.4-1 .9-1.1s1 .4 1.1.9l2.3 27.8c.1.5-.4 1-1 1.1 0 0 .1 0 0 0zM385.3 331.8s-.3 9.4 4.1 9.8c4.4.3 10.4-1.9 11.3 2.5s2.2 27.1 12.6 24.2c7.9-2.2 1.6-20.8-.6-37.5s.3-23.6.3-23.6-6.6 14.9-27.7 24.6zM158.094 183.794c3.371-2.856 4.049-7.596 1.514-10.588-2.534-2.992-7.322-3.102-10.693-.246s-4.049 7.596-1.515 10.588c2.535 2.992 7.323 3.102 10.694.246zM169.7 223.5s-36.4 17.5-40.2 26c-3.1 6.9 2.3 14.8 12.2 12s19.3-10.4 24.1-6.1c3 2.7 6 6.4 16.4 3.5 0 0-6.3-10.9-9-19.7s-3.5-15.7-3.5-15.7zM366.6 96.2c-8.4 0-15.7 6.1-19 15l4.7-60.3-55-5.7c9-2.6 15.9-9.5 17-18.4 1.5-12.4-8.7-23.8-22.8-25.5-14.1-1.7-26.8 6.9-28.3 19.2-1.1 9.2 4.3 18 13 22.5l-50.9-5.3-8.5 136 125.1 10.9 4.4-56.4c2.2 11.2 10.5 19.6 20.3 19.6 11.5 0 20.9-11.5 20.9-25.7 0-14.4-9.4-25.9-20.9-25.9z" fill="#531CB3" fill-opacity=".92"/><path d="m341.9 185.5-125.2-10.9c-.5 0-.9-.5-.9-1.1l8.5-136c0-.3.1-.5.4-.7.2-.2.5-.3.8-.2l46.7 4.9c-7-5.2-10.8-13.1-9.8-21.2.8-6.3 4.3-11.8 9.9-15.6C277.8.9 284.8-.7 291.9.2c7.1.9 13.4 4.1 17.9 9.1 4.5 5 6.6 11.3 5.8 17.5-.9 7.6-6.1 14.3-13.6 17.7l50.7 5.3c.5.1.9.5.9 1.1l-4.3 55c4.1-6.7 10.6-10.8 17.6-10.8 12.1 0 21.9 12 21.9 26.7s-9.8 26.7-21.9 26.7c-8.6 0-16.1-6-19.7-15.1l-4 51c0 .3-.1.5-.4.7-.4.3-.7.4-.9.4zm-124.1-12.8L341 183.4l4.3-55.4c0-.5.4-.9.9-.9s.9.3 1 .8c2.2 11.1 10.2 18.8 19.3 18.8 11 0 19.9-11.1 19.9-24.7s-8.9-24.7-19.9-24.7c-7.7 0-14.8 5.6-18.1 14.3-.2.5-.7.7-1.2.6s-.8-.6-.8-1.1l4.6-59.3-54-5.6c-.5 0-.9-.4-.9-.9s.3-.9.7-1c8.9-2.5 15.3-9.4 16.3-17.6.7-5.7-1.2-11.4-5.3-16C303.9 6 298 3 291.4 2.2s-13 .7-18.2 4.2c-5.1 3.5-8.3 8.5-9 14.2-1.1 8.6 3.8 17 12.5 21.5.4.2.6.7.5 1.2s-.6.8-1.1.7l-49.9-5.2z" fill="#531CB3" fill-opacity=".92"/><path d="M337.2 64.3c-14.2 4-29.7 5.5-46 4.5-31.2-2-56.3-12.4-66.8-17.6L223.2 70c13.9 6 38 14.5 66.9 16.3 3.7.2 7.3.3 10.9.3 14.3 0 28.1-1.8 41-5.5 18.1-5.1 34.6-13.7 49.2-25.7L364.1 53c-8.4 4.8-17.4 8.6-26.9 11.3zm83.4 99.7c0-25.4-40.3-46-90-46s-90 20.6-90 46c0 4.1 1.1 8.2 3.1 12l98.3 8.5 63.9 4.7c9.3-7.2 14.7-15.9 14.7-25.2z" fill="#fff"/><path d="M408.4 142.5c-.2 0-.5-.1-.6-.2-.4-.4-.5-1-.1-1.4 16.7-20.1 37.4-36 61.5-47.1.5-.2 1.1 0 1.3.5s0 1.1-.5 1.3c-23.8 11-44.3 26.6-60.8 46.5-.2.3-.5.4-.8.4z" fill="#fff"/><path d="M341.9 185.5c-.6 0-1-.5-1-1.1l4.4-56.4c0-.5.4-.9.9-.9s.9.3 1 .8c2.2 11.1 10.2 18.8 19.3 18.8 11 0 19.9-11.1 19.9-24.7 0-.6.4-1 1-1s1 .4 1 1c0 14.7-9.8 26.7-21.9 26.7-8.6 0-16.1-6-19.7-15.1l-4 51c0 .5-.4.9-.9.9z" fill="#531CB3" fill-opacity=".92"/><path d="M209.7 138.2s13.7-10.2 19.2-17.9 12.6-23 13.5-25 3.1-8.2.9-9.3-11.5 9.8-11.5 9.8-7.4 9.4-9.8 6c-2.4-3.5-1.7-10.2-1.7-10.2l1.9-5.5.7-12.6s-7.8 3-9.5 6.3-8 16.7-8 16.7l-3.9 9.4-9.4 11.6s8.5-.6 12.1 5.4c3.6 5.8 5.5 15.3 5.5 15.3z" fill="#E2D8F4"/><path d="M209.7 139.2c-.3 0-.6-.1-.8-.4-.3-.4-.2-1.1.2-1.4.1-.1 15-11.3 20.5-19.9 6.1-9.5 14.7-26.5 13.5-30.3-.1-.3-.2-.3-.2-.3-1.1-.3-5.2 4.3-7.7 7.1-4.8 5.3-9.3 10.3-12.5 9.4-1.4-.4-2.3-1.7-2.7-4-2.1-11.7 1.4-14 1.8-14.3.5-.3 1.1-.1 1.4.4s.1 1.1-.4 1.4c0 0-2.6 2-.8 12.2.1.8.5 2.2 1.2 2.4 2 .6 6.9-4.9 10.5-8.8 4.9-5.5 7.9-8.6 10-7.6.4.2 1 .6 1.3 1.6 1.6 5.5-9.5 25.4-13.8 32-5.7 8.9-20.4 19.9-21 20.4-.1 0-.3.1-.5.1zM192 118.4c-.2 0-.4-.1-.6-.2-.4-.3-.5-1-.1-1.4l9.4-11.5 9.4-22c1.7-4 4.8-7.3 8.7-9.4l3.4-1.8c.5-.3 1.1-.1 1.3.4.3.5.1 1.1-.4 1.3l-3.4 1.8c-3.5 1.8-6.2 4.8-7.8 8.4l-9.4 22.1c0 .1-.1.2-.1.2l-9.4 11.6c-.4.4-.7.5-1 .5z" fill="#531CB3" fill-opacity=".92"/><path d="M88.1 379.1c-.4 0-.7-.2-.9-.6s-18.9-40.2-3.2-109c15.6-68.8 106.4-152.1 107.3-152.9.2-.1.3-.2.6-.3.2 0 5.6-.6 10.7 3.4 4.5 3.6 7.3 9.8 8.1 18.3 0 .3-.1.6-.3.8-.4.4-43.7 39.1-39.6 84.5 1.1 12.1 5.5 21.1 10.6 31.6 6.8 14 14.6 29.8 17.4 58.1.1.5-.3 1-.9 1.1-.5.1-1-.3-1.1-.9-2.8-28-10.5-43.6-17.2-57.4-5.2-10.6-9.7-19.8-10.8-32.3-3.9-44.1 35.6-81.8 39.9-85.8-.8-7.7-3.3-13.2-7.3-16.4-3.8-3-7.8-3.1-8.9-3-5.3 4.9-91.4 85.2-106.5 151.6-15.5 68.1 2.9 107.3 3.1 107.6.2.5 0 1.1-.5 1.3-.2.3-.3.3-.5.3z" fill="#531CB3" fill-opacity=".92"/><path d="m245.4 543.4-1.6-1.1 2.4-3.6c4.3-7 8.1-14.3 11.5-22.3l1.8.8c-3.5 8.1-7.3 15.4-11.6 22.5-.8 1.2-1.7 2.5-2.5 3.7z" fill="#E2D8F4"/><path d="m458.5 193.599-116.7-8-125.2-10.9c-.5 0-1-.5-.9-1.1 0-.5.5-1 1.1-.9l125.2 10.8 116.6 8c.6 0 1 .5.9 1.1 0 .5-.4 1-1 1zM350 80.7c-.6 0-1-.5-1-1.1l1.6-22.6c0-.6.5-1 1.1-.9.6 0 1 .5.9 1.1L351 79.8c0 .5-.4.9-1 .9z" fill="#531CB3" fill-opacity=".92"/><path d="M280 117.1c6.185 0 11.2-5.014 11.2-11.2 0-6.185-5.015-11.2-11.2-11.2-6.186 0-11.2 5.015-11.2 11.2 0 6.186 5.014 11.2 11.2 11.2z" fill="#E2D8F4"/><path d="M222.3 87.6c-.1 0-.1 0 0 0-.6 0-1-.5-1-1.1l3-48.9c0-.6.5-1 1.1-.9.6 0 1 .5.9 1.1l-3 48.9c-.1.5-.5.9-1 .9z" fill="#531CB3" fill-opacity=".92"/><path d="m41.6 542.4-.2-2c17.2-1.5 29.7-7.6 38.1-18.6 9.8-12.7 14.3-32 13.8-58.8-2.5-47.6 14.7-65 45.3-78.9 5.5-2.5 11.3-4.5 17.4-6.7 21-7.3 42.8-14.9 54.5-42.3 16.1-37.8 45-40.3 45.2-40.3l.1 2c-.3 0-27.9 2.4-43.5 39.1-12 28.2-35.2 36.3-55.7 43.4-6.1 2.1-11.9 4.1-17.3 6.6-29.8 13.6-46.6 30.5-44.1 77 1.1 51-16 76.2-53.6 79.5zm82.5 21.699-.7-1.9c60.6-23.4 57.8-54.4 54.6-90.3-.3-2.8-.5-5.6-.7-8.5-.7-29.5 22.9-60.1 39.5-69.9 3.4-2 6.9-3.8 10.3-5.5 13.8-6.9 26.9-13.5 28.9-34.7 2.5-27.2 24.8-42.8 25-42.9l1.1 1.6c-.2.1-21.7 15.2-24.1 41.5-2.1 22.3-15.6 29.1-30 36.3-3.4 1.7-6.9 3.4-10.2 5.4-16.5 9.8-39.2 40.4-38.5 68.1.2 2.8.5 5.6.7 8.4 1.6 18 3.2 35.1-3.5 50.7-7.5 17.5-24.1 30.8-52.4 41.7z" fill="#E2D8F4"/><path d="m196.7 377.2-.6-1.9c.2-.1 22.2-6.7 28.3-31.4 5.4-21.8 18.8-29.9 19.4-30.2l1 1.7c-.1.1-13.3 8-18.4 29-6.4 25.7-29.4 32.7-29.7 32.8z" fill="#E2D8F4"/><path d="m458.5 192.6-23.4 4.4-.6-5.3z" fill="#531CB3" fill-opacity=".92"/><path d="M435.1 198c-.2 0-.4-.1-.6-.2-.2-.2-.4-.4-.4-.7l-.6-5.2c0-.3.1-.6.3-.8s.5-.3.8-.3l24.1.8c.5 0 .9.4 1 .9 0 .5-.3 1-.8 1.1l-23.4 4.4h-.4zm.5-5.2.4 3 13.5-2.5zM182.1 140c-.2 0-.5-.1-.7-.2-.4-.4-.5-1-.1-1.4l17.1-19.9c.4-.4 1-.5 1.4-.1s.5 1 .1 1.4l-17.1 19.9c-.1.2-.4.3-.7.3zm7.9 7.4c-.2 0-.5-.1-.7-.3-.4-.4-.5-1-.1-1.4l16.7-18.8c.4-.4 1-.5 1.4-.1s.5 1 .1 1.4L190.8 147c-.2.3-.5.4-.8.4z" fill="#531CB3" fill-opacity=".92"/><path d="M343.7 427c-.5 0-1.2-.2-1.8-.8-6.1-6.5 1.3-63.1 2.2-69.6l2 .3c-3.4 24.9-6.9 63.5-2.7 67.9.2.2.3.2.4.2 2.9-.2 4.7-8.7 6.3-16.8 2.4-11.8 5.1-25.1 12.9-28.4l.8 1.8c-6.8 2.9-9.5 16.3-11.7 27-2.1 10.1-3.7 18.1-8.1 18.4h-.3zM120 327.8l-2-.2c2-18.3 17.8-22.6 29.4-25.7 7.7-2 12.3-3.5 12.1-6.9-.1-1.3-.6-2.3-1.7-3.2-7.1-5.9-31.5-2.8-31.8-2.8l-.3-2c1-.1 25.5-3.2 33.3 3.2 1.5 1.3 2.4 2.8 2.5 4.6.3 5.2-5.9 6.9-13.6 9-11.6 3.2-26.1 7-27.9 24z" fill="#E2D8F4"/><path d="M441.4 152a6.9 6.9 0 1 0 0-13.8 6.9 6.9 0 1 0 0 13.8z" fill="#fff"/><path d="M381.6 188.2h-.3c-.5-.2-.8-.7-.7-1.3 0-.1 3.8-11.9 13.5-27.4 4-6.5 8.6-12.7 13.5-18.6.4-.4 1-.5 1.4-.1s.5 1 .1 1.4c-4.8 5.8-9.3 12-13.3 18.4-9.6 15.4-13.3 26.9-13.3 27-.1.3-.5.6-.9.6z" fill="#531CB3" fill-opacity=".92"/></g></svg></g><g transform="translate(837.0 96.0) rotate(0.0 70.5 70.5) scale(0.5 0.5)"><svg width="282" height="282" viewBox="0 0 282 282"><clipPath id="b"><path d="M0 0h281.237v281.287H0z"/></clipPath><g clip-path="url(#b)"><path d="M140.618 279.787c76.833 0 139.118-62.285 139.118-139.118S217.451 1.551 140.618 1.551 1.5 63.836 1.5 140.669s62.285 139.118 139.118 139.118z" fill="#E2D8F4"/><g fill="#531CB3"><path d="M140.619 281.287C63.081 281.287 0 218.206 0 140.669 0 63.132 63.081.051 140.619.051s140.618 63.08 140.618 140.618c0 77.537-63.081 140.618-140.618 140.618zm0-278.236C64.735 3.05 3 64.786 3 140.669s61.735 137.618 137.619 137.618 137.618-61.735 137.618-137.618S216.5 3.051 140.619 3.051z"/><path d="M11.667 166.336s13.667-17 33-19.334A23.8 23.8 0 0 0 61 149.336s-.333 9.333 8 6a107.924 107.924 0 0 0 13.667 7s3 2.666-2 6.666c0 0 15.333-2 20 11 0 0 1.667 5.334-2.667 13 0 0 .3 5.667 2.982 8S93 207 92.334 212.336 93 226 91 236.669c0 0 10.667-1 12 4.667s8.334 10.666 13.334 12.333 7.333 4.667 0 4.667-24.667-8.667-29.667-9-6.333-2.336-15-13.336-1.333 7-16.667-15-25.333-24-25.333-24-5.333-2.664-7.667-11.664-7.333-13.667-10.333-19z"/><path d="M116.333 259.836c-4.466 0-12.046-2.878-18.734-5.417-4.686-1.779-9.113-3.459-11.032-3.587-5.425-.362-7.239-2.668-14.875-12.373l-1.2-1.529c-2.116-2.685-2.978-3.232-3.238-3.343-.048.025-.093.055-.14.083-2.528 1.465-4.556.8-13.34-11.81-14.655-21.025-24.317-23.369-24.413-23.39a1.599 1.599 0 0 1-.362-.126c-.243-.122-5.972-3.082-8.448-12.632-1.56-6.021-4.313-9.94-6.974-13.731a58.634 58.634 0 0 1-3.214-4.91 1.499 1.499 0 0 1 .137-1.671c.574-.714 14.276-17.5 33.99-19.883.337-.042.68.034.97.214a22.508 22.508 0 0 0 15.228 2.142 1.496 1.496 0 0 1 1.684.857c.093.208.137.435.13.663-.03.961.216 3.691 1.686 4.718.93.649 2.361.594 4.257-.164a1.51 1.51 0 0 1 1.337.111 107.027 107.027 0 0 0 13.431 6.884c.167.065.32.158.453.277a4.547 4.547 0 0 1 1.394 3.405 5.58 5.58 0 0 1-.912 2.826c5.18.269 14.394 2.191 17.933 12.049.094.3 1.77 5.916-2.55 13.842.157 1.654.793 5.1 2.437 6.533a2.539 2.539 0 0 1 .948 2.031c-.048 1.7-1.758 3.026-3.924 4.707-2.185 1.7-4.905 3.807-5.168 5.914a55.045 55.045 0 0 0-.177 6.9 90.007 90.007 0 0 1-.853 15.68c3.463 0 10.434.664 11.664 5.892 1.126 4.784 7.286 9.566 12.348 11.254 1.847.616 6.095 2.335 5.662 5-.374 2.315-3.68 2.584-6.135 2.584zm-49.066-29.271c1.511 0 3.086 1.345 5.578 4.509l1.2 1.53c7.771 9.877 8.757 10.971 12.717 11.235 2.365.158 6.782 1.834 11.9 3.775 6.447 2.448 13.754 5.222 17.67 5.222.904.022 1.807-.053 2.694-.223a11.63 11.63 0 0 0-3.168-1.521c-5.029-1.677-12.8-6.946-14.319-13.413-.844-3.588-7.97-3.743-10.4-3.517a1.505 1.505 0 0 1-1.248-.483 1.496 1.496 0 0 1-.366-1.287 82.897 82.897 0 0 0 1.12-16.939 56.907 56.907 0 0 1 .2-7.3c.417-3.342 3.681-5.876 6.305-7.912a19.188 19.188 0 0 0 2.643-2.29c-2.89-2.764-3.259-8.238-3.292-8.867a1.5 1.5 0 0 1 .192-.817c3.916-6.928 2.6-11.629 2.538-11.825-4.188-11.658-18.23-9.968-18.37-9.95a1.498 1.498 0 0 1-1.574-.9 1.5 1.5 0 0 1 .442-1.758c1.478-1.182 2.3-2.35 2.33-3.288a1.635 1.635 0 0 0-.28-.945 106.054 106.054 0 0 1-12.934-6.606c-2.583.879-4.73.734-6.392-.435a7.802 7.802 0 0 1-2.849-5.448 25.417 25.417 0 0 1-15.244-2.556C28.427 150.7 16.4 163.233 13.5 166.5c.756 1.237 1.622 2.469 2.527 3.758 2.684 3.823 5.726 8.155 7.423 14.7 1.943 7.492 5.985 10.176 6.77 10.635 1.741.476 11.664 3.969 26.008 24.55 6.777 9.723 8.713 10.965 9.231 11.047 0-.021.068-.073.143-.116a3.29 3.29 0 0 1 1.665-.509z"/><path d="M9.25 117.418c2.5-2.5 8-4.5 9.75-7s4.636-6.1 10.5-2.75c3.5 2 11-3.25 11-3.25s4.5 7.25 3.25 11.25c0 0 5.25 0 5.75-9.75 0 0 3.5-6.5 4.5-10.25a109.123 109.123 0 0 0 17-10.25s6.6 6.087 5.25-6.5c-.75-7 10.25-10.25 10.25-10.25s-2.25-14.75-4.25-17.5c0 0-9.75 12.75-8 0S63 52.668 63 52.668s-2.25 10.25-12.75 10l-.75-14.75s17-6.75 15.75-10.75 11.25-8.5 11.25-8.5 1 5.5 4.5 6-5.25 13.25 2.75 8.5 10.25-7 10.25-7 4.25-10.25 4-12.25c0 0 20.248-5.5 23-1.5s-12.749 8-12.749 8-4.25 6.5-3.25 10-5 1-9.5 8.25c0 0 13.069 3.9 25.826-8.5 6.174-6 4.424-9.75 4.424-9.75s8.987-6.5 14.868-7.75 0-10 0-10S149.5 8.474 147 1.7c0 0-33.057-3.147-68.653 14.537-35.596 17.684-51.34 43.53-54.93 49.45S5.433 97.35 4.592 111.383c-.841 14.034 2.658 19.284 1.158 22.284s4.75 3.25 3.75 7-2.666 7.75 2.167 10.75 8.083-1 8.333 4.25 3.584-2.333 3.584-2.333a95.718 95.718 0 0 0-6.417-8s5.5-6.417-2.25-10.584c0 0 6.667-9.666 5.333-12.166 0 0-.764.2-9.166 6.166-3.167 2.248-1.834-11.333-1.834-11.333z"/><path d="M20.78 159.035a2.25 2.25 0 0 1-.426-.047c-1.713-.317-1.814-2.447-1.853-3.249-.057-1.21-.28-1.459-.283-1.461a5.33 5.33 0 0 0-1.286-.082 10.421 10.421 0 0 1-6.056-1.5c-5.368-3.332-4.053-8.018-3.093-11.44.091-.325.182-.649.268-.971.215-.806-.143-1.2-1.578-2.241-1.173-.856-3.367-2.445-2.065-5.045.44-.876.16-2.47-.262-4.884a66.408 66.408 0 0 1-1.052-16.816c.971-16.183 18.86-46.09 19.04-46.386C34.865 43.915 54.072 26.619 77.68 14.89 113.247-2.781 146.806.17 147.141.199a1.502 1.502 0 0 1 1.265.974c2.05 5.56-2.24 9.93-5.694 12.056 1.105 1.992 2.728 5.618 1.667 8.236a4.441 4.441 0 0 1-3.448 2.667c-4.519.96-11.19 5.349-13.489 6.929.224 1.83-.2 5.45-5.07 10.179-13.238 12.865-26.733 9.03-27.3 8.862a1.5 1.5 0 0 1-.845-2.228 14.27 14.27 0 0 1 8.106-6.344c.435-.142.86-.316 1.269-.52a1.972 1.972 0 0 0-.043-.183C102.4 36.787 106.521 30.322 107 29.6a1.49 1.49 0 0 1 .88-.631c5.28-1.365 11.335-3.9 11.934-5.5.025-.068.031-.084-.046-.2-1.108-1.611-10.489-.745-20.37 1.83-.54 3.066-2.89 8.948-4.007 11.644a1.51 1.51 0 0 1-.325.486c-.1.1-2.476 2.439-10.545 7.229-1.65.98-3.52 1.843-4.86.793-1.506-1.18-.832-3.408-.052-5.988a18.09 18.09 0 0 0 .771-3.186c-2.8-.641-4.23-3.515-4.882-5.418-5.068 2.048-9.195 4.834-8.81 6.062 1.38 4.416-8.76 9.384-15.63 12.189l.621 12.222c7.978-.634 9.784-8.435 9.861-8.785a1.5 1.5 0 0 1 .357-.69c2.421-2.654 8.435-8.648 11.973-6.992 2.623 1.228 2.057 5.352 1.871 6.708-.358 2.605-.145 3.605-.02 3.937.993-.266 3.433-2.557 5.343-5.053a1.446 1.446 0 0 1 1.21-.588 1.5 1.5 0 0 1 1.194.617c2.108 2.9 4.135 15.633 4.52 18.157a1.5 1.5 0 0 1-1.057 1.664c-.1.029-9.792 2.983-9.184 8.652.567 5.3-.13 8.247-2.193 9.286-1.668.839-3.486-.026-4.584-.761a113.619 113.619 0 0 1-15.72 9.455 69.309 69.309 0 0 1-4.27 9.593c-.68 10.711-6.96 10.836-7.23 10.836a1.49 1.49 0 0 1-1.209-.611 1.504 1.504 0 0 1-.223-1.337c.693-2.216-1.07-6.294-2.333-8.674-2.635 1.621-7.906 4.323-11.229 2.424-4.559-2.605-6.635-.4-8.527 2.308-1.14 1.628-3.293 2.893-5.572 4.232a28.468 28.468 0 0 0-3.966 2.616 36.74 36.74 0 0 0 .085 9c8.1-5.74 8.851-5.932 9.1-6a1.506 1.506 0 0 1 1.7.747c1.374 2.576-1.91 8.427-4.54 12.416a7.723 7.723 0 0 1 3.411 4.9 8.709 8.709 0 0 1-1.352 6c2.338 2.619 5.552 7.046 5.7 7.257a1.502 1.502 0 0 1 .16 1.484c-1.979 4.515-3.377 5.105-4.176 5.105zm-3.758-7.836c2.018 0 3.847.3 4.353 3.226.16-.291.32-.6.474-.915a82.768 82.768 0 0 0-5.743-7.112 1.498 1.498 0 0 1-.078-2.036c.015-.018 1.91-2.3 1.465-4.625-.267-1.4-1.373-2.633-3.286-3.662a1.486 1.486 0 0 1-.748-.968 1.503 1.503 0 0 1 .223-1.204 47.58 47.58 0 0 0 4.73-8.412c-1.33.888-3.366 2.288-6.46 4.486a2.32 2.32 0 0 1-2.606.236c-1.795-1.041-2.329-5.394-1.589-12.939.034-.345.187-.668.432-.914a25.402 25.402 0 0 1 4.948-3.433c1.9-1.118 3.87-2.273 4.634-3.367 1.411-2.015 5.161-7.37 12.473-3.192 1.844 1.056 6.6-1.223 9.4-3.176a1.508 1.508 0 0 1 1.718-.001c.167.117.309.266.416.439.405.651 3.331 5.5 3.661 9.716 1.086-.959 2.337-3.03 2.567-7.5.011-.221.072-.438.177-.634.034-.064 3.43-6.39 4.372-9.926a1.5 1.5 0 0 1 .835-.982c5.87-2.86 11.47-6.242 16.735-10.105a1.5 1.5 0 0 1 1.892.116c.752.684 1.854 1.214 2.184 1.048.012-.005 1.161-.657.557-6.286-.713-6.658 6.961-10.247 10.065-11.418A110.884 110.884 0 0 0 81.88 53.99c-2.184 2.492-5.13 5.077-7.382 4.14-2.278-.949-2.123-4.329-1.734-7.166.412-3-.167-3.58-.174-3.584-.832-.406-4.648 2.177-8.223 6.018-1.052 4.043-5.2 11.02-14.153 10.77a1.5 1.5 0 0 1-1.462-1.424L48 48a1.5 1.5 0 0 1 .944-1.47C56.8 43.4 63.89 39.151 63.816 37.6c-1.555-4.97 8.926-9.176 12.176-10.345a1.499 1.499 0 0 1 1.984 1.145c.214 1.15 1.27 4.5 3.236 4.784a2.4 2.4 0 0 1 1.715 1.08c.9 1.406.272 3.474-.45 5.867-.2.671-.5 1.65-.642 2.357.395-.18.778-.384 1.15-.609a69.49 69.49 0 0 0 9.756-6.592c1.89-4.593 3.84-10.09 3.77-11.195a1.589 1.589 0 0 1 1.1-1.62c4.989-1.357 21.515-5.428 24.627-.9a3.143 3.143 0 0 1 .384 2.945c-1.355 3.622-9.977 6.278-13.416 7.2-1.467 2.387-3.311 6.362-2.761 8.29.838 2.932-1.528 3.785-3.094 4.35a11.482 11.482 0 0 0-5.223 3.276c4.057.472 13.108.253 22.156-8.54 5.181-5.036 4.1-8.056 4.09-8.086a1.443 1.443 0 0 1 .5-1.8c.378-.273 9.314-6.7 15.436-8 1.032-.219 1.22-.682 1.291-.857.613-1.51-.932-4.909-2.225-6.839a1.497 1.497 0 0 1 .098-1.802 1.5 1.5 0 0 1 .507-.39c.292-.139 6.795-3.3 5.866-8.192-5.787-.327-35.49-1.114-66.83 14.456-23.1 11.47-41.882 28.374-54.317 48.881C20.12 74.017 6.867 98.5 6.088 111.475A62.874 62.874 0 0 0 7.1 127.599c.524 3 .871 4.982-.009 6.743a.599.599 0 0 0-.076.213c.067.226.786.747 1.216 1.058 1.307.946 3.5 2.53 2.717 5.444-.089.334-.183.671-.278 1.008-1.064 3.793-1.5 6.038 1.787 8.081 1.34.81 2.9 1.178 4.46 1.053zm106.812.469s-.167 6.333 27.5 4.833c8.833 0 11.333 1.5 12.166 7s6.667 12 7 14.5 5.334 7.5-3.166 15.667c0 0 .041 3 3.416 5.5s8.5 16.25 8.5 16.25 9.125 9 15.5 11.25a25.521 25.521 0 0 0 11.875 1.25s.875-3.125 1.875-6.375 6-3.75 7.625-15.75 2.625-23.75 1-27.875-4.469-13.75.828-19.75 10.8-8.125 13.672-13.625 12.875-11.375 12.875-11.375 3.625-3.125 1.25-5.625-3.75-1.875-7.625 1-11.375-2.125-17-10.5-6-6.125-6-6.125 2.25-15-14-7.375c-3.75 1.875-11-1.5-15.25-3.625s-6.125 3-6.25 3.5-8.375 2.125-9.625-1.125 6.625-3 .875-7.625c0 0-14.25 3-18.625 2.75s0 3.125-10 3.5-5.875 10.375-5.875 10.375-5.625 3.75-7.125 8.25a10.559 10.559 0 0 1-5.417 6.125v7.125s-7.291 3.375 0 9.625c1.167 4.375 1.584 7.75.001 8.25z"/><path d="M203.449 229.641a27.868 27.868 0 0 1-9.2-1.559c-6.615-2.334-15.672-11.22-16.054-11.6a1.508 1.508 0 0 1-.353-.544c-1.922-5.156-5.79-13.942-7.987-15.569-3.926-2.908-4.021-6.532-4.024-6.685a1.518 1.518 0 0 1 .461-1.1c6.09-5.851 4.547-9.543 3.421-12.24a8.777 8.777 0 0 1-.7-2.147 19.192 19.192 0 0 0-2.221-4.112c-1.887-3.028-4.235-6.795-4.775-10.361-.629-4.155-1.713-5.725-10.684-5.725-14.714.8-24.333-.522-27.729-3.825a3.563 3.563 0 0 1-1.27-2.548 1.499 1.499 0 0 1 .92-1.344c.119-.281.409-1.535-.755-6.042-2.538-2.286-3.666-4.576-3.357-6.811a6.762 6.762 0 0 1 3.191-4.5v-6.259a1.495 1.495 0 0 1 .926-1.386 8.974 8.974 0 0 0 4.568-5.213c1.265-3.795 5.006-7 6.776-8.344-.517-1.784-1.175-5.3.558-8 1.332-2.072 3.7-3.186 7.033-3.311 5.181-.2 5.833-1.159 6.264-1.8.66-.976 1.462-1.838 3.877-1.7 3.43.2 14.322-1.9 18.231-2.72a1.5 1.5 0 0 1 1.249.3c1.883 1.514 2.711 2.777 2.685 4.095-.03 1.55-1.246 2.452-2.134 3.111-.333.247-.952.707-1 .907a.438.438 0 0 0 .037.142c.082.151.194.284.328.392.135.107.289.186.455.233 1.805.73 5.05.276 6.247-.051a7.466 7.466 0 0 1 3.461-3.981 5.198 5.198 0 0 1 4.655.229c2.617 1.308 10.577 5.288 13.908 3.625 5.841-2.741 10.233-3.044 13.086-.918s3.227 6.006 3.188 8.215c1.126.673 2.779 2.445 5.642 6.708 3.9 5.809 8.743 9.962 12.333 10.58a3.154 3.154 0 0 0 2.528-.448c3.78-2.806 6.267-4.344 9.606-.829a4.2 4.2 0 0 1 1.214 3.156c-.122 2.459-2.321 4.423-2.572 4.639a1.534 1.534 0 0 1-.219.157c-.1.056-9.664 5.724-12.306 10.776-1.8 3.447-4.537 5.663-7.434 8.009a50.05 50.05 0 0 0-6.442 5.914c-4.825 5.464-2 14.554-.557 18.208 1.485 3.772 1.188 13.136-.91 28.626-1.176 8.688-4.145 11.809-6.11 13.875a6.034 6.034 0 0 0-1.567 2.115c-.983 3.193-1.856 6.307-1.865 6.338a1.496 1.496 0 0 1-1.175 1.071c-1.14.179-2.294.263-3.448.251zm-22.913-15.066c1.443 1.388 9.273 8.758 14.713 10.678a24.733 24.733 0 0 0 10.2 1.3c.338-1.182.951-3.3 1.613-5.45a8.398 8.398 0 0 1 2.262-3.3c1.8-1.892 4.264-4.484 5.311-12.21 2.489-18.386 1.967-24.9 1.09-27.124-1.642-4.167-4.821-14.586 1.1-21.292a53.122 53.122 0 0 1 6.8-6.261c2.764-2.238 5.15-4.17 6.664-7.066 2.886-5.521 12.032-11.129 13.309-11.894a4.53 4.53 0 0 0 1.45-2.443 1.191 1.191 0 0 0-.392-.935c-1.425-1.5-1.681-1.769-5.644 1.171a6.143 6.143 0 0 1-4.825 1c-4.426-.762-9.911-5.308-14.314-11.864a29.452 29.452 0 0 0-4.327-5.523 1.493 1.493 0 0 1-1.412-.306 1.495 1.495 0 0 1-.499-1.355c.2-1.4.262-5.406-1.9-7.011-1.872-1.389-5.323-.968-9.98 1.217-4.108 2.053-11.008-.867-16.558-3.642a2.31 2.31 0 0 0-2.03-.2 5.035 5.035 0 0 0-2.1 2.737c-.109.44-.41 1.645-5.2 1.938-3.881.236-6.462-.794-7.273-2.9-.917-2.385.966-3.783 1.978-4.534.346-.226.66-.5.931-.812a4.255 4.255 0 0 0-1.045-1.2c-3 .615-14.322 2.846-18.3 2.631a2.084 2.084 0 0 0-.985.067c-.087.1-.166.207-.236.319-1.019 1.509-2.447 2.883-8.638 3.116-2.292.086-3.846.735-4.617 1.928-1.269 1.967-.377 5.271.074 6.379a1.508 1.508 0 0 1-.555 1.816c-.052.035-5.219 3.528-6.535 7.477a12.11 12.11 0 0 1-5.34 6.558v6.218a1.505 1.505 0 0 1-.87 1.361c-.586.279-2.166 1.314-2.351 2.7-.209 1.568 1.352 3.272 2.7 4.426.23.197.395.459.473.752.976 3.663 1.643 7.191.447 9 1.288 1.2 6.395 4.008 25.522 2.975h.023c8.465 0 12.643 1.241 13.708 8.273.448 2.953 2.614 6.43 4.355 9.223 1.434 2.3 2.471 3.964 2.649 5.3.121.478.288.942.5 1.387 1.179 2.822 3.349 8.014-3.556 15.013a6.785 6.785 0 0 0 2.716 3.759c3.438 2.536 7.968 14.157 8.894 16.603zm-2.325-110.67a1.34 1.34 0 0 0-.045.149s.02-.055.049-.149z"/><path d="M227.75 181.793a20.544 20.544 0 0 1 6.375-4.125s-.375 9.125-1.875 11.5-2.75 7.5-3.75 10.5-5.875 3.375-7.75 2.5 3.75-4.75 4.125-8.375-3.5-6.125 2.875-12z"/><path d="M223.047 204.081a7.102 7.102 0 0 1-2.931-.553 2.076 2.076 0 0 1-1.192-1.418c-.305-1.3.617-2.456 1.893-4.059 1.08-1.357 2.425-3.046 2.566-4.412a6.984 6.984 0 0 0-.352-2.447c-.662-2.548-1.486-5.72 3.7-10.5a21.964 21.964 0 0 1 6.9-4.438 1.493 1.493 0 0 1 1.388.211 1.493 1.493 0 0 1 .606 1.266c-.065 1.591-.475 9.656-2.106 12.239-.993 1.574-1.959 4.8-2.735 7.393a86.073 86.073 0 0 1-.86 2.781 5.41 5.41 0 0 1-3.162 3.216 9.658 9.658 0 0 1-3.715.721zm-.747-3.046a6.757 6.757 0 0 0 3.275-.432 2.473 2.473 0 0 0 1.5-1.408c.26-.782.537-1.708.832-2.693.872-2.913 1.86-6.214 3.073-8.134.7-1.1 1.223-4.89 1.488-8.219a21.505 21.505 0 0 0-3.7 2.748c-3.866 3.562-3.41 5.318-2.832 7.541a9.657 9.657 0 0 1 .432 3.51c-.231 2.238-1.879 4.308-3.2 5.971-.278.345-.607.758-.868 1.116zm-95.966-102.2c3.989 1.2 4.5 5 6.5 3.833s1.725-3.933 9.5-3.833c3.5 0 3.884-6.167 5.108-8.167s6.392-10 12.392-9c3.166.5 1.333 3.167 9 3.167 3.5.166-3.167 3.666-1.834 4.833s3 4 5.167.833.167-7.166 5-7.833c2.333-.333 1.833 5.667 2.667 7s4 3 5.833-4.833 4.833-4.5 6.333-2S197.667 86 202.667 85c0 0 3.708 9.917 5.958 11.292s4.375 4.465 7.625 6.67 8.625 11.455 11.875 13.33c0 2.875 1.875 11.5 6 8.375s4-4.375 7.25-7.375c2.375-1.5 8.875 1.125 11.75-6.625-6-7-4.5-8.177-11.625-8.026-2.625-4.849-2.875-5.849-1.375-6.974s3.989 3.875 6.432 3.75 6.443-3.75 8.943-3.75 1.375 3.375 3.875 3.875 2.875 2 4.125 5.875 6 4.5 6.75 11.5c1.167 4.583 4.5 6.25 4.5-1.083s.866-9.458-.382-13.57-9.516-28.625-20.046-41.773-21.748-26.164-33.889-33.782-18.733-11.93-30.77-16.267c-12.037-4.337-7.913 0-7.913 0a14.636 14.636 0 0 0 7.125 3.477s-4.25 3.812-5.062 7.812-4.688 1.188-3.875-.75-2-8.312-6.25-8.437-7.688 4.5-9.438 7.625-1.625 6.875-8 8-5.5 9.875-5.5 9.875l5.875-2.25 1.25 8.375s4.875-.5 6.5-7.5c.125-2.75-3.125-3.875-.125-6.375s8.875-6.75 8.875-8c0 0 1 9.25-2.375 12s-1.375 5.625 2.375 3.875 5.5-3.75 6.625-2.5-5.625 5.875-5.625 5.875-.25 7.75-6 7.375c-3.75.25-5.125 4.5-5.125 4.5s-5.125.375-5.625-3.625-2.625-5-3 .125 1.875 11.375-4.75 15-10.5 3-10.5 3-.763 2.25 1.493 5.75-.743 11.125-6.118 4.625-6.833 6.875-6.833 6.875-4.354 4.375-4.292 7.625 1.225 5.521 2.959 6.042z"/><path d="M232.425 126.838a3.515 3.515 0 0 1-1.563-.369c-2.89-1.437-4-6.716-4.2-9.358-1.778-1.358-3.79-3.993-5.906-6.764-1.958-2.565-3.983-5.217-5.346-6.142a31.318 31.318 0 0 1-4.57-3.99 18.39 18.39 0 0 0-3-2.642c-2.183-1.333-4.88-7.673-6.135-10.879-5.342.816-9.313-.285-10.994-3.086-1.069-1.782-1.829-2.16-1.974-2.163 0 0-.821.348-1.613 3.732-1.013 4.332-2.64 6.713-4.835 7.077a3.784 3.784 0 0 1-3.73-1.79 8.373 8.373 0 0 1-.776-3.213 12.873 12.873 0 0 0-.625-3.064c-1.784.3-1.923 1.058-2.273 2.967a10.33 10.33 0 0 1-1.483 4.2 4.185 4.185 0 0 1-3.013 2.094c-1.677.136-2.889-1.12-3.772-2.04-.212-.222-.413-.435-.608-.6a1.987 1.987 0 0 1-.69-1.46c-.029-1.14.86-2.076 1.857-3.046-3.723-.21-5.034-1.2-6.2-2.356a2.044 2.044 0 0 0-1.376-.787c-4.88-.807-9.56 6.15-10.878 8.3a12.345 12.345 0 0 0-.814 2.258c-.8 2.637-2 6.623-5.573 6.626-5.112-.078-6.121 1.078-7.108 2.182a6.675 6.675 0 0 1-1.638 1.447c-2.06 1.2-3.471-.337-4.405-1.355a7.13 7.13 0 0 0-3.283-2.338c-2.445-.737-3.95-3.522-4.026-7.45-.063-3.286 3.191-7.075 4.362-8.329.319-2.484 1.41-8.384 4.62-9.346 1.591-.476 3.2.261 4.8 2.191.508.614 2.24 2.558 3.24 1.828.977-.716 1.381-3.259.462-4.684-2.575-3.994-1.755-6.744-1.653-7.045a1.503 1.503 0 0 1 1.659-1c.019 0 3.551.442 9.541-2.835 4.3-2.354 4.157-5.9 3.988-10a33.687 33.687 0 0 1-.014-3.8c.234-3.2 1.178-4.84 2.806-4.882.392-.011.78.09 1.117.29a1.483 1.483 0 0 1-.41-.827l-.975-6.527-4.13 1.582a1.5 1.5 0 0 1-2.03-1.252c-.35-3.5.606-10.42 6.732-11.5 4.162-.735 4.892-2.515 5.9-4.978.302-.78.653-1.54 1.049-2.278 1.792-3.2 5.579-8.519 10.79-8.392 2.316.07 4.485 1.495 6.11 4.018 1.268 1.968 2.217 4.741 1.48 6.5a.918.918 0 0 0 .255.428.882.882 0 0 0 .462.274c.155-.254.257-.536.3-.83a16.016 16.016 0 0 1 3.673-6.694 17.22 17.22 0 0 1-5.288-3.2c-.925-.968-1.58-2.342-.833-3.486.911-1.4 2.886-1.684 10.278.978 11.577 4.17 18.226 8.348 29.244 15.27l1.815 1.14c12.262 7.694 23.714 20.943 34.262 34.114 11.716 14.63 20.228 42 20.311 42.276.9 2.967.791 5.022.627 8.132a103.609 103.609 0 0 0-.181 5.873c0 4.065-.989 6.249-2.94 6.494-1.909.251-3.673-1.741-4.514-5.041a1.665 1.665 0 0 1-.038-.211c-.4-3.712-1.985-5.279-3.665-6.939a10.456 10.456 0 0 1-3.021-4.26l-.159-.5c-1.158-3.6-1.391-4.08-2.832-4.369a4.078 4.078 0 0 1-3.02-3.012 3.319 3.319 0 0 0-.384-.82.905.905 0 0 0-.171-.015c-.889 0-2.484.91-3.892 1.712-1.765 1.006-3.432 1.957-4.974 2.036-1.878.1-3.359-1.365-4.673-2.654a14.64 14.64 0 0 0-1.235-1.127.16.16 0 0 0-.019.028c-.125.48.929 2.553 1.684 3.969 5.108-.041 6.066 1.024 8.618 4.447.8 1.078 1.8 2.42 3.255 4.113a1.507 1.507 0 0 1 .267 1.5c-2.361 6.365-7 6.733-10.063 6.977a8.082 8.082 0 0 0-2.2.345 25.23 25.23 0 0 0-2.587 2.832 23.346 23.346 0 0 1-4.649 4.52 4.286 4.286 0 0 1-2.607.975zM202.668 83.5a1.498 1.498 0 0 1 1.4.975c1.7 4.555 4.255 9.876 5.335 10.537a20.512 20.512 0 0 1 3.554 3.081 28.481 28.481 0 0 0 4.131 3.628c1.766 1.2 3.846 3.921 6.047 6.8 2.02 2.646 4.31 5.645 5.736 6.467a1.5 1.5 0 0 1 .75 1.3c0 2.34 1.2 6.808 2.572 7.488.11.055.369.185 1.022-.309a20.203 20.203 0 0 0 4.131-4.019 27.88 27.88 0 0 1 3.007-3.262 1.52 1.52 0 0 1 .217-.166 7.977 7.977 0 0 1 3.657-.85c2.672-.212 5.431-.431 7.161-4.234a77.637 77.637 0 0 1-2.788-3.569c-2.341-3.139-2.48-3.326-7.072-3.231a1.417 1.417 0 0 1-1.351-.785c-2.306-4.26-3.7-6.83-.956-8.889 1.787-1.34 3.549.391 4.837 1.654.7.683 1.845 1.848 2.418 1.8a11.85 11.85 0 0 0 3.642-1.646c1.816-1.036 3.694-2.106 5.378-2.106 2.311 0 2.994 1.8 3.36 2.772.362.953.476 1.065.809 1.132 3.255.651 3.95 2.812 5.1 6.392l.159.493a7.812 7.812 0 0 0 2.273 3.047 13.024 13.024 0 0 1 4.528 8.641 6.51 6.51 0 0 0 1.127 2.446 9.664 9.664 0 0 0 .394-3.256c0-2.531.1-4.472.185-6.032.158-2.991.246-4.639-.5-7.1-2.1-6.923-10.245-29.364-19.782-41.272-10.383-12.965-21.63-25.99-33.515-33.449l-1.816-1.14c-10.846-6.814-17.393-10.927-28.665-14.987a43.892 43.892 0 0 0-5.242-1.608 12.055 12.055 0 0 0 5.151 2.184 1.503 1.503 0 0 1 1.239 1.04 1.5 1.5 0 0 1-.425 1.56c-.039.035-3.894 3.54-4.595 7-.464 2.28-1.762 2.943-2.494 3.136a3.58 3.58 0 0 1-3.522-1.258 3.381 3.381 0 0 1-.713-3.507 6.625 6.625 0 0 0-1.408-3.973c-.6-.87-1.862-2.337-3.5-2.385-3.9-.154-7.168 5.22-8.085 6.86a17.858 17.858 0 0 0-.892 1.95c-1.054 2.571-2.367 5.771-8.156 6.793-3.3.583-4.108 3.968-4.271 6.221l3.848-1.474a1.5 1.5 0 0 1 2.02 1.18l.986 6.6c1.22-.67 2.937-2.208 3.784-5.693a3.803 3.803 0 0 0-.609-1.684c-.668-1.24-1.787-3.315 1.021-5.655.732-.61 1.635-1.324 2.582-2.074 1.967-1.556 5.227-4.135 5.777-5.045a1.497 1.497 0 0 1 1.531-1.228 1.5 1.5 0 0 1 1.436 1.34c.112 1.028.975 10.15-2.918 13.323-1.115.907-1.2 1.564-1.168 1.656.1.1.792.242 1.961-.3a32.693 32.693 0 0 0 3-1.633c1.868-1.11 3.8-2.258 5.372-.51a2.01 2.01 0 0 1 .5 1.611c-.213 1.782-3.147 4.226-5.8 6.1-.167 1.454-.765 4.587-2.861 6.488a6.069 6.069 0 0 1-4.559 1.561c-2.609.24-3.7 3.432-3.715 3.465a1.51 1.51 0 0 1-1.316 1.028c-2.266.17-6.687-.653-7.222-4.935 0-.02 0-.039-.008-.058 0 .034 0 .07-.008.106a30.852 30.852 0 0 0 .019 3.454c.174 4.235.391 9.505-5.545 12.753a23.711 23.711 0 0 1-9.823 3.2c.182 1.23.647 2.4 1.357 3.421 1.734 2.69 1.134 7.014-1.212 8.731-1.01.74-3.745 1.99-7.323-2.337-.833-1.009-1.426-1.29-1.626-1.229-.95.284-2.17 3.77-2.56 7.311a1.503 1.503 0 0 1-.427.894c-1.51 1.522-3.893 4.643-3.856 6.54.054 2.808 1.018 4.37 1.891 4.634a10.028 10.028 0 0 1 4.628 3.181c.232.265.479.516.74.752.319-.232.607-.505.855-.813 1.538-1.72 3.411-3.249 9.364-3.184 1.227 0 1.941-2.035 2.683-4.493a13.22 13.22 0 0 1 1.127-2.958c2.007-3.278 7.379-10.788 13.917-9.7a4.93 4.93 0 0 1 3.01 1.62c.756.75 1.538 1.527 5.743 1.527 1.309.06 2.095.513 2.41 1.347.511 1.354-.6 2.427-1.769 3.562-.253.245-.614.595-.877.885l.187.194c.324.337 1.083 1.128 1.362 1.13 0 0 .284-.069.783-.8a7.624 7.624 0 0 0 1.009-3.043c.375-2.05.891-4.86 5.024-5.43a2.537 2.537 0 0 1 1.944.5c1.329 1.014 1.6 3.14 1.857 5.194.058.683.177 1.359.356 2.02a.826.826 0 0 0 .682.4c.054-.009 1.345-.273 2.406-4.8.56-2.4 1.592-5.625 4.076-6.014 1.727-.272 3.414.935 5 3.584 1.069 1.781 4.635 2.357 9.087 1.467a1.48 1.48 0 0 1 .295-.033zM157.2 45.508a6.59 6.59 0 0 1 1.664 4.1c.224 1.79 2.033 2.213 3.151 2.3.762-1.543 2.581-4.26 6.011-4.489a1.31 1.31 0 0 1 .2 0 3.168 3.168 0 0 0 2.461-.783c1.779-1.614 1.941-5.109 1.942-5.144a1.494 1.494 0 0 1 .651-1.189 39.255 39.255 0 0 0 2.324-1.724c-.554.31-1.167.631-1.842.946-2.808 1.311-4.924.527-5.776-.83-.782-1.248-.775-3.454 1.82-5.567 1.357-1.106 1.877-4.143 1.96-7-1.006.873-2.325 1.94-4.03 3.288-.925.732-1.807 1.43-2.523 2.026-.923.77-.912.792-.3 1.926a6.26 6.26 0 0 1 .964 3.365 1.549 1.549 0 0 1-.038.271c-1.846 7.952-7.565 8.628-7.808 8.653a1.481 1.481 0 0 1-.831-.149z"/><path d="M136.017 63.033a1.599 1.599 0 0 1-1.3-.636c-1.848-2.3 4.79-8.744 4.858-8.809a1.499 1.499 0 0 1 2.541 1.08c0 .2-.043 4.914-3.786 7.414-.67.523-1.47.852-2.313.951zM143.9 61.8a1.503 1.503 0 0 1-1.483-1.274c-.03-.2-.7-4.864 2.622-7.9.668-.61 2.232-2.04 3.524-.857 2.175 1.99-3.414 9.366-3.471 9.441a1.497 1.497 0 0 1-1.192.59zm-92.732 81.952a1.5 1.5 0 0 1-1.168-.563 20.475 20.475 0 0 0-5.05-3.789 1.5 1.5 0 1 1 1.433-2.636c.168.091 4.12 2.254 5.955 4.547a1.504 1.504 0 0 1 .181 1.586 1.495 1.495 0 0 1-1.35.851zm-2.751-7.501a5.324 5.324 0 0 1-3.31-1.606 1.502 1.502 0 0 1 1.056-2.563c.398-.001.78.157 1.061.438.328.343.739.595 1.193.731a1.5 1.5 0 0 1 0 3zm-9.5-22.583a17.937 17.937 0 0 1-3.083 3.667c-1.75 1.5 2.416 4.333 2.416 4.333s3.584 7 5.584 7.583a38.08 38.08 0 0 0 8.916.917s-7.833-1.167-9.666-6.917-.584-7.252-4.167-9.583z"/><path d="M51.944 131.699a40.885 40.885 0 0 1-8.53-1.007c-2.258-.659-5.063-5.581-6.329-8.009-1.01-.736-3.073-2.459-3.176-4.315a2.617 2.617 0 0 1 .948-2.171 16.421 16.421 0 0 0 2.783-3.314 1.5 1.5 0 0 1 2.095-.471c2.945 1.917 3.276 3.671 3.734 6.1a33.523 33.523 0 0 0 1.044 4.288c1.523 4.775 8.392 5.878 8.461 5.888a1.504 1.504 0 0 1 1.276 1.517 1.502 1.502 0 0 1-1.343 1.458c-.32.029-.641.041-.963.036zm-14.986-13.355a7.574 7.574 0 0 0 2.137 2.084c.207.142.375.333.49.556 1.69 3.3 3.882 6.493 4.69 6.835l.037.01a9.585 9.585 0 0 1-2.658-4.122 36.183 36.183 0 0 1-1.133-4.642c-.312-1.654-.463-2.456-1.27-3.252a17.63 17.63 0 0 1-2.293 2.531zM229 238.168s12-6.875 8.25-13.125c0 0 12.875-2.875 14.875-7s4.586-5.517 7.293-4.946c-3.886 6.007-19.675 27.937-28.546 33.442-1.872-2.5-.622-4.5-5.372-3-.375-1.621 3.5-5.371 3.5-5.371z"/><path d="M230.873 248.039a1.502 1.502 0 0 1-1.2-.6 10.01 10.01 0 0 1-1.219-2.231 4.094 4.094 0 0 0-.347-.714 8.198 8.198 0 0 0-2.153.479 1.504 1.504 0 0 1-1.655-.536 1.485 1.485 0 0 1-.258-.557c-.493-2.132 2.243-5.17 3.918-6.79.09-.087.191-.162.3-.224 1.941-1.115 7.178-4.776 8.089-8.281a3.452 3.452 0 0 0-.378-2.77 1.519 1.519 0 0 1-.211-.671 1.508 1.508 0 0 1 1.17-1.565c5.054-1.131 12.692-3.8 13.852-6.191 2.927-6.037 6.865-6.2 8.953-5.759a1.495 1.495 0 0 1 1.075.891 1.508 1.508 0 0 1-.126 1.392c-4.4 6.807-20.1 28.367-29.014 33.9a1.495 1.495 0 0 1-.796.227zm-2.869-6.5c1.577 0 2.483.784 3.21 2.5l.149.347c7.619-5.651 19.555-21.589 24.874-29.256a8.724 8.724 0 0 0-2.762 3.567c-1.851 3.818-10.2 6.374-14.178 7.394a6.51 6.51 0 0 1-.053 3.254c-1.32 5.063-8.121 9.306-9.327 10.023a21.44 21.44 0 0 0-1.917 2.167zM121.876 45.793a1.5 1.5 0 0 1-.908-2.694 32.587 32.587 0 0 1 8.694-4.482 1.499 1.499 0 1 1 .926 2.853 30.084 30.084 0 0 0-7.807 4.019 1.5 1.5 0 0 1-.905.304z"/></g></g></svg></g><g transform="translate(1021.0 167.0) rotate(0.0 -42.5 42.0) scale(-0.5002147981191923 0.50265990868345)"><svg width="169.927" height="167.111" viewBox="0 0 169.927 167.111"><path d="m167.756 121.406-8.813-85.05a24.88 24.88 0 0 0-8.041-15.902l.002-.002-.022-.017a25.22 25.22 0 0 0-3.002-2.338L131.853 5.615l-7.466 9.205-84.561 8.762c-13.725 1.422-23.698 13.7-22.276 27.425l8.778 84.719-7.894 9.733 17.26 13.67c.49.418.992.819 1.513 1.198l.03.023.001-.002a24.888 24.888 0 0 0 17.238 4.627l85.05-8.812c17.393-1.802 30.032-17.363 28.23-34.757z" fill="#531CB3"/><path d="M51.89 167.109a26.926 26.926 0 0 1-15.746-5.083 26.052 26.052 0 0 1-1.748-1.375l-17.204-13.624a2.003 2.003 0 0 1-.311-2.828l7.373-9.091-8.693-83.896c-.743-7.169 1.351-14.198 5.895-19.793C26 25.823 32.451 22.333 39.62 21.591l83.736-8.677 6.944-8.561a2 2 0 0 1 2.782-.318l15.969 12.437a27.306 27.306 0 0 1 3.204 2.507 26.935 26.935 0 0 1 8.678 17.17l8.812 85.05c1.913 18.463-11.551 35.04-30.014 36.953l-85.05 8.812c-.931.097-1.863.145-2.791.145zm-13.519-8.408.041.029a22.957 22.957 0 0 0 15.858 4.256l85.05-8.812c16.269-1.687 28.133-16.294 26.448-32.562l-8.812-85.05a22.948 22.948 0 0 0-7.397-14.629l-.024-.022a23.193 23.193 0 0 0-2.758-2.146 2.572 2.572 0 0 1-.124-.089L132.171 8.398l-6.231 7.682a1.997 1.997 0 0 1-1.347.729l-84.561 8.762c-6.106.633-11.601 3.605-15.471 8.371s-5.654 10.753-5.021 16.859l8.778 84.719a1.997 1.997 0 0 1-.436 1.466l-6.62 8.162 15.674 12.414c.532.452.984.811 1.435 1.139z" fill="#531CB3"/><path d="m126.434 143.55-83.825 8.686c-15.897 1.647-30.12-9.905-31.767-25.802L2.156 42.609c-1.647-15.897 9.905-30.12 25.802-31.767l83.825-8.686c15.897-1.647 30.12 9.905 31.767 25.802l8.686 83.825c1.647 15.898-9.905 30.12-25.802 31.767z" fill="#E2D8F4"/><g fill="#531CB3"><path d="M39.568 154.393c-7.074.001-13.88-2.405-19.447-6.927-6.415-5.21-10.417-12.606-11.268-20.826L.167 42.815C-1.591 25.846 10.784 10.611 27.752 8.852L111.577.167c8.22-.848 16.28 1.548 22.694 6.759 6.415 5.21 10.417 12.606 11.268 20.826l8.686 83.824c1.758 16.969-10.616 32.204-27.585 33.963l-83.825 8.686c-1.086.113-2.17.168-3.247.168zM114.817 4c-.938 0-1.881.049-2.827.146l-83.825 8.685C13.389 14.362 2.615 27.628 4.146 42.403l8.686 83.825c.742 7.157 4.226 13.597 9.812 18.134 5.585 4.536 12.602 6.624 19.76 5.885l83.825-8.686c14.775-1.531 25.55-14.797 24.019-29.572l-8.686-83.824c-.742-7.157-4.226-13.598-9.812-18.134C126.903 6.094 120.976 4 114.817 4zm11.617 139.55h.01z"/><path d="M125.509 58.388c-1.772-17.105-16.898-24.038-26.59-23.034-10.635 1.102-21.457 7.222-24.228 21.319-5.603-13.229-17.449-17-28.084-15.898-9.693 1.004-23.075 10.891-21.303 27.996 1.77 17.079 22.043 43.588 56.35 55.8l.007.071.068-.043.075.028-.007-.071c31.074-18.986 45.482-49.089 43.712-66.168z"/><path d="M81.661 126.641a1.99 1.99 0 0 1-1.128-.349c-20.033-7.225-33.191-18.347-40.72-26.434-9.51-10.216-15.524-21.472-16.499-30.882-1.084-10.463 3.136-17.516 6.867-21.592 4.382-4.786 10.446-8.001 16.22-8.599 11.883-1.224 21.918 3.394 27.735 12.528 3.821-10.132 12.695-16.718 24.577-17.949 10.871-1.126 26.927 6.872 28.786 24.817 1.948 18.798-14.113 49.283-44.365 67.899a2.143 2.143 0 0 1-.931.485c-.178.051-.36.076-.542.076zm-31.672-84.04c-1.217 0-2.295.071-3.177.163-4.756.492-9.999 3.298-13.682 7.321-3.177 3.47-6.769 9.493-5.838 18.479 1.531 14.772 19.356 41.107 54.207 53.823 31.503-19.591 43.55-49.021 42.02-63.794-1.591-15.351-15.189-22.201-24.395-21.251-5.707.592-19.323 3.697-22.471 19.716a2 2 0 0 1-3.804.395c-5.384-12.711-16.198-14.852-22.86-14.852z"/></g><path d="M122.65 53.096c-1.772-17.105-16.898-24.038-26.59-23.034-10.635 1.102-21.457 7.222-24.228 21.319-5.603-13.229-17.449-17-28.084-15.898-9.693 1.004-23.075 10.891-21.303 27.996 1.77 17.079 22.043 43.588 56.35 55.8l.007.071.068-.043.075.028-.007-.071c31.074-18.986 45.481-49.088 43.712-66.168z" fill="#fff"/><path d="M78.802 121.349a1.99 1.99 0 0 1-1.124-.347c-20.033-7.226-33.194-18.349-40.723-26.436-9.51-10.216-15.524-21.472-16.499-30.882-1.084-10.464 3.135-17.518 6.866-21.593 4.382-4.786 10.446-8.001 16.22-8.599 11.883-1.228 21.918 3.394 27.735 12.528 3.821-10.132 12.695-16.718 24.577-17.949 10.873-1.136 26.927 6.871 28.786 24.817 1.948 18.799-14.112 49.285-44.367 67.901a2.124 2.124 0 0 1-.93.483 1.887 1.887 0 0 1-.541.077zM47.13 37.309c-1.217 0-2.295.071-3.177.163-4.756.492-9.999 3.298-13.682 7.321-3.177 3.47-6.769 9.493-5.838 18.479 1.531 14.771 19.356 41.107 54.207 53.824 31.503-19.592 43.55-49.022 42.02-63.795-1.591-15.351-15.188-22.2-24.395-21.251-5.708.592-19.323 3.697-22.471 19.716a2 2 0 0 1-3.804.395C64.606 39.45 53.792 37.309 47.13 37.309z" fill="#531CB3"/></svg></g><g transform="translate(691.0 297.0) rotate(-20.72936831054007 155.5 142.0) scale(0.5851859517739036 0.5851519746818751)"><svg width="531.455" height="485.344" viewBox="0 0 531.455 485.344"><path d="M520.2 119.304c-1.09.29-2.18.43-3.26.43-4.43 0-8.56-2.37-10.79-6.2-.55-.94-.98-1.96-1.27-3.05l-9.25-34.38c-1.01 4.83-2.04 9.65-3.1 14.48-12.05 55.13-26.88 110.13-43.22 159.7-25.97 78.79-54.75 141.23-83.23 180.58-16.34 22.58-37.7 38.83-61.77 46.99-10.81 3.66-21.67 5.49-32.14 5.49-11.96 0-23.41-2.39-33.69-7.15-5.41-2.5-10.37-5.6-14.81-9.25-9.16-7.49-16.19-17.3-20.67-28.97-7.05-18.36-7.54-40.27-1.44-65.11 1.03-4.22 2.13-8.62 3.26-13.2 16.33-65.69 43.66-175.64 9.63-219.16a46.7 46.7 0 0 0-4.45-4.94 45.023 45.023 0 0 0-10.02-7.3c-8.52-4.59-18.97-6.84-31.55-6.84-24.86 0-54.4 16.69-83.18 46.98-15.94 16.78-30.87 36.9-42.95 57.53H13.7c14.09-26.63 33-53.26 53.42-74.75 23.73-24.98 60.58-54.76 101.31-54.76 15.93 0 29.82 2.97 41.57 8.86 1.5.75 2.97 1.55 4.4 2.41 7.58 4.47 14.17 10.28 19.75 17.41 41.53 53.12 13.49 165.94-5.06 240.59-1.13 4.55-2.22 8.93-3.25 13.12-7.4 30.17-2.94 54 12.19 67.53 3.18 2.87 6.84 5.26 10.95 7.17 25.36 11.74 67.93 2.65 96.85-37.31 52.48-72.5 98.28-216.75 125.13-344.33l-14.04 18.87-7.85 10.56c-4.12 5.54-11.95 6.69-17.49 2.57a12.377 12.377 0 0 1-3.33-3.72c-2.46-4.19-2.32-9.62.76-13.77l54.57-73.35c.04-.06.08-.11.13-.16.07-.11.16-.21.24-.31.16-.19.33-.38.5-.57.07-.08.14-.16.22-.24.24-.25.49-.48.76-.71.07-.06.14-.11.21-.17.2-.17.42-.34.63-.5.1-.07.2-.14.31-.21.21-.14.43-.28.65-.41.09-.06.17-.11.27-.16.28-.16.57-.31.86-.44.14-.07.29-.13.44-.19.17-.07.34-.14.52-.2.16-.07.33-.13.5-.18.19-.06.38-.11.57-.16.27-.07.55-.14.83-.19.17-.04.33-.07.5-.09.18-.03.37-.05.55-.07.19-.02.38-.04.58-.05s.4-.02.61-.02c.28-.01.57 0 .85.01.14.01.29.03.43.04.25.02.51.05.76.09.09.02.17.02.26.03h.01l.09.03c.03 0 .06.01.08.01.33.06.64.14.95.22.13.04.25.08.37.12.23.07.46.14.69.23.13.05.27.1.41.15.26.11.52.23.78.36.15.07.3.15.44.23.21.11.41.23.61.35.13.08.26.16.38.25.2.13.39.27.58.41.09.07.19.14.27.21.27.21.53.44.77.67.08.07.15.15.22.22.2.2.39.4.57.6l.18.21c.47.56.89 1.15 1.25 1.79.05.07.09.14.13.22.14.26.28.53.4.8.04.07.07.14.1.2.15.33.28.66.39 1.01.03.08.06.17.08.25.06.18.12.35.16.53l23.35 86.74c1.8 6.67-2.15 13.53-8.82 15.32z" fill="#531CB3"/><path d="M272.17 485.344c-12.401 0-24.019-2.468-34.53-7.335-5.544-2.562-10.672-5.765-15.24-9.52-9.503-7.771-16.66-17.798-21.267-29.799-7.203-18.759-7.713-41.067-1.515-66.304.65-2.664 1.329-5.403 2.026-8.213l1.235-4.989c16.243-65.34 43.428-174.694 9.996-217.449a44.767 44.767 0 0 0-4.261-4.731 43.235 43.235 0 0 0-9.581-6.98c-8.246-4.442-18.255-6.601-30.603-6.601-24.3 0-53.326 16.463-81.73 46.358-15.694 16.521-30.451 36.288-42.674 57.163a2 2 0 0 1-1.726.99H13.7a1.998 1.998 0 0 1-1.767-2.935c14.349-27.12 33.434-53.824 53.738-75.192 24-25.265 61.311-55.382 102.759-55.382 16.17 0 30.458 3.052 42.467 9.072a67.305 67.305 0 0 1 4.534 2.484c7.75 4.57 14.583 10.593 20.295 17.891 42.127 53.884 13.953 167.262-4.69 242.286l-.498 2.002c-.954 3.841-1.877 7.555-2.756 11.132-7.16 29.196-3.047 52.479 11.582 65.562 3.012 2.719 6.529 5.021 10.459 6.847 24.636 11.405 66.091 2.43 94.387-36.669 53.174-73.458 97.911-219.246 122.879-334.605l-16.414 22.071c-4.771 6.416-13.873 7.753-20.289 2.982a14.279 14.279 0 0 1-3.865-4.319 14.468 14.468 0 0 1 .882-15.968l54.547-73.319c.063-.091.127-.174.197-.255a4.81 4.81 0 0 1 .197-.25l.078-.094c.168-.2.347-.4.526-.601a6.94 6.94 0 0 1 .306-.332c.261-.271.558-.547.88-.821l.166-.135c.272-.229.521-.423.759-.604.188-.134.312-.219.446-.305.193-.129.428-.279.665-.42.126-.083.245-.154.382-.225.324-.183.658-.354.992-.504a7.04 7.04 0 0 1 .516-.222c.167-.069.351-.143.544-.211a6.29 6.29 0 0 1 .652-.23c.184-.059.406-.118.627-.176.307-.08.62-.157.934-.215a6.18 6.18 0 0 1 .67-.117c.104-.02.313-.044.513-.066.287-.031.513-.053.75-.065.233-.011.466-.022.71-.022.25-.011.589 0 .915.011l.508.044c.318.025.632.062.934.11l.029.005.049.004c.14.009.281.033.417.07.374.069.727.158 1.079.249.232.069.367.114.502.159.229.069.507.156.785.264l.355.13a15.854 15.854 0 0 1 1.002.455c.151.07.35.175.535.281.184.095.417.234.649.373.177.108.34.212.494.323.208.138.409.285.61.432l.122.092c.083.062.165.125.239.187a12.003 12.003 0 0 1 1.106.99c.262.263.477.489.68.716l.21.244a13.722 13.722 0 0 1 1.431 2.034c.08.12.15.244.218.381.126.233.275.521.407.812a11.01 11.01 0 0 1 .588 1.448c.037.103.073.213.102.317.087.261.151.466.198.68l23.328 86.65a14.4 14.4 0 0 1-1.432 11.009 14.397 14.397 0 0 1-8.8 6.763h-.004c-1.24.331-2.51.499-3.774.499a14.531 14.531 0 0 1-12.518-7.194 14.289 14.289 0 0 1-1.475-3.543l-7.085-26.335c-.461 2.148-.918 4.257-1.378 6.35-12.147 55.573-27.111 110.866-43.274 159.897-26.032 78.978-54.909 141.61-83.509 181.126-16.585 22.919-38.283 39.418-62.748 47.711-10.968 3.713-21.997 5.596-32.782 5.596zm-103.74-365.92c13.026 0 23.657 2.316 32.499 7.079a47.23 47.23 0 0 1 10.461 7.623 48.917 48.917 0 0 1 4.638 5.149c34.631 44.289 7.152 154.827-9.266 220.872l-1.235 4.99c-.695 2.806-1.373 5.54-2.023 8.202-6 24.432-5.541 45.937 1.364 63.919 4.354 11.343 11.106 20.811 20.069 28.139 4.309 3.542 9.146 6.563 14.383 8.983 9.982 4.622 21.035 6.965 32.851 6.965 10.348 0 20.946-1.812 31.499-5.384 23.674-8.026 44.695-24.025 60.792-46.268 28.362-39.187 57.045-101.441 82.951-180.033 16.121-48.903 31.047-104.058 43.166-159.501 1.022-4.655 2.035-9.385 3.097-14.462a2 2 0 0 1 3.889-.11l9.25 34.38c.24.901.597 1.76 1.065 2.559a10.519 10.519 0 0 0 9.063 5.211c.917 0 1.84-.122 2.745-.363a10.421 10.421 0 0 0 6.368-4.895 10.42 10.42 0 0 0 1.036-7.971l-23.35-86.741c-.042-.178-.073-.26-.102-.346a4.212 4.212 0 0 1-.067-.218 7.353 7.353 0 0 1-.048-.136 6.765 6.765 0 0 0-.303-.782 2.435 2.435 0 0 1-.108-.217 9.51 9.51 0 0 0-.332-.662c-.042-.058-.078-.125-.112-.188a9.67 9.67 0 0 0-1.039-1.484l-.165-.192a12.81 12.81 0 0 0-.467-.489l-.099-.102c-.023-.02-.07-.069-.093-.09a8.153 8.153 0 0 0-.613-.535 1.647 1.647 0 0 1-.091-.075l-.181-.136c-.123-.089-.278-.205-.442-.312a2.07 2.07 0 0 1-.108-.075c-.07-.053-.148-.098-.225-.145-.152-.091-.319-.192-.494-.284a5.549 5.549 0 0 0-.358-.189 13.45 13.45 0 0 0-.662-.308 19.625 19.625 0 0 1-.401-.147c-.19-.074-.372-.128-.554-.183l-.373-.121c-.168-.041-.413-.106-.677-.156a1.834 1.834 0 0 1-.233-.042 3.309 3.309 0 0 1-.246-.035 7.945 7.945 0 0 0-.567-.066l-.413-.039c-.164-.004-.401-.014-.634-.006-.249.001-.416.01-.583.019-.162.008-.316.025-.471.042-.168.019-.303.032-.431.054a3.475 3.475 0 0 0-.37.064c-.036.008-.072.016-.108.022a9.283 9.283 0 0 0-.678.156c-.153.04-.312.081-.469.131a2.762 2.762 0 0 0-.302.105 1.904 1.904 0 0 1-.169.065c-.135.045-.262.099-.39.152-.118.047-.216.083-.306.129a9.098 9.098 0 0 0-.766.389 2.11 2.11 0 0 1-.093.05c-.029.02-.12.077-.15.095-.188.111-.377.231-.557.352-.12.077-.196.131-.273.185-.117.091-.308.238-.481.385a8.619 8.619 0 0 0-.824.741c-.073.074-.114.123-.156.171-.178.2-.332.371-.477.543l-.051.063a2.467 2.467 0 0 1-.233.298l-.01.013-54.57 73.35a10.475 10.475 0 0 0-.64 11.563 10.335 10.335 0 0 0 2.796 3.126c4.647 3.457 11.239 2.489 14.694-2.157l21.89-29.43a2 2 0 0 1 3.561 1.606c-14.343 68.155-32.678 134.917-53.023 193.068-23.337 66.707-47.711 117.854-72.444 152.022-21.673 29.946-50.946 42.877-75.303 42.879-8.854 0-17.053-1.707-24.008-4.927-4.296-1.996-8.147-4.52-11.45-7.5-15.776-14.108-20.322-38.79-12.792-69.491.88-3.58 1.804-7.298 2.759-11.142l.493-1.983c18.46-74.29 46.352-186.529 5.426-238.876-5.402-6.903-11.859-12.595-19.19-16.919a63.2 63.2 0 0 0-4.279-2.344c-11.449-5.739-25.134-8.649-40.676-8.649-40.029 0-76.398 29.44-99.859 54.137-19.328 20.341-37.54 45.58-51.53 71.373h24.115c12.261-20.771 26.99-40.428 42.644-56.907 29.167-30.697 59.223-47.603 84.63-47.603zM495.771 8.257v.016l.026-.09-.026.075z" fill="#531CB3"/><path d="M511.59 113.304a12.304 12.304 0 0 1-5.44.23c-4.62-.82-8.58-4.22-9.88-9.05l-3.74-13.9-5.51-20.48c-12.55 59.94-28.55 120.27-46.32 174.18-25.97 78.79-54.75 141.23-83.23 180.58-16.34 22.58-37.7 38.83-61.77 46.99-10.81 3.66-21.67 5.49-32.14 5.49-11.96 0-23.41-2.39-33.69-7.15-2.14-.99-4.21-2.07-6.2-3.25-13.43-7.9-23.48-19.87-29.28-34.97-7.05-18.36-7.54-40.27-1.44-65.11 1.03-4.22 2.13-8.62 3.26-13.2 16.33-65.69 43.66-175.64 9.63-219.16a46.7 46.7 0 0 0-5.86-6.24c-9.73-8.62-22.96-12.84-40.16-12.84-24.86 0-54.4 16.69-83.18 46.98-17.48 18.4-33.75 40.83-46.39 63.53H2c14.34-28.6 34.56-57.65 56.51-80.75 23.73-24.98 60.58-54.76 101.31-54.76 15.93 0 29.82 2.97 41.57 8.86a69.44 69.44 0 0 1 13.01 8.41c4.08 3.32 7.79 7.13 11.14 11.41 41.53 53.12 13.49 165.94-5.06 240.59-1.13 4.55-2.22 8.93-3.25 13.12-8.66 35.29-1.08 61.9 20.8 73.53.76.41 1.54.8 2.34 1.17 25.36 11.74 67.93 2.65 96.85-37.31 49.1-67.82 92.35-198.44 119.7-319.46 1.89-8.35 3.7-16.64 5.43-24.87l-21.89 29.43c-2.92 3.93-7.7 5.65-12.21 4.85-1.86-.33-3.67-1.08-5.28-2.28-5.54-4.12-6.69-11.95-2.57-17.49l54.57-73.35c.04-.06.08-.11.13-.16.08-.11.16-.21.24-.31.16-.19.33-.38.5-.57.07-.08.14-.16.22-.24.24-.25.5-.48.76-.71.07-.06.14-.11.21-.17.21-.17.42-.34.63-.5.1-.07.2-.14.31-.21.21-.14.43-.28.65-.41a9.956 9.956 0 0 1 1.13-.6c.15-.07.29-.13.44-.19.17-.07.35-.14.52-.2.17-.07.33-.13.5-.18.19-.06.38-.11.57-.16.27-.07.55-.14.83-.19.17-.04.33-.07.5-.09.18-.03.37-.05.55-.07a11.34 11.34 0 0 1 1.19-.07c.28-.01.57 0 .85.01.14.01.29.03.43.04.25.02.51.05.76.09.09.02.17.02.26.03l.1.03c.03 0 .06.01.09.01.32.06.63.14.94.22.13.04.25.08.37.12.23.07.46.14.69.23.14.05.27.1.41.15.26.11.53.23.78.36.15.07.3.15.44.23.21.11.41.23.61.35.13.08.26.16.38.25.2.13.39.27.58.41.09.07.19.14.28.21.26.21.52.44.76.67.08.07.15.15.22.22.2.2.39.4.57.6l.18.21c.45.54.86 1.11 1.22 1.73.02.02.03.04.04.06.04.07.08.14.12.22.14.26.28.53.41.8.03.07.06.14.09.2.15.33.28.66.39 1.01.03.08.06.17.08.25.06.18.12.35.17.53l23.34 86.74c1.8 6.67-2.15 13.53-8.82 15.32z" fill="#fece2f"/><path d="M263.56 479.344c-12.4 0-24.018-2.468-34.53-7.335a71.416 71.416 0 0 1-6.38-3.344c-13.782-8.107-24.202-20.548-30.127-35.974-7.203-18.758-7.713-41.066-1.515-66.304.654-2.678 1.336-5.432 2.037-8.258l1.223-4.944c16.243-65.341 43.428-174.695 9.996-217.449a44.966 44.966 0 0 0-4.261-4.731 42.84 42.84 0 0 0-1.341-1.236c-9.379-8.309-22.082-12.345-38.842-12.345-24.301 0-53.327 16.463-81.73 46.358-17.049 17.947-33.419 40.365-46.092 63.125a2 2 0 0 1-1.748 1.027H2a2.002 2.002 0 0 1-1.788-2.896c14.652-29.223 34.841-58.071 56.848-81.231 24.001-25.265 61.312-55.382 102.76-55.382 16.169 0 30.457 3.052 42.466 9.072a71.803 71.803 0 0 1 13.381 8.651c4.149 3.376 8.002 7.322 11.447 11.724 42.127 53.884 13.954 167.262-4.689 242.286l-.556 2.239c-.934 3.757-1.836 7.392-2.697 10.895-8.383 34.161-1.167 60.144 19.796 71.287.729.393 1.479.768 2.241 1.121 24.641 11.407 66.094 2.431 94.391-36.667 43.094-59.524 87.718-178.675 119.369-318.728 1.197-5.29 2.373-10.602 3.513-15.877L442.065 96.5a14.408 14.408 0 0 1-14.164 5.626 14.346 14.346 0 0 1-6.126-2.646c-3.106-2.31-5.128-5.693-5.691-9.525s.4-7.654 2.711-10.762l54.544-73.318c.069-.099.142-.193.22-.281.073-.096.146-.188.219-.279.201-.24.38-.44.559-.641.108-.123.204-.229.311-.336.247-.258.546-.526.848-.793l.194-.159.081-.066c.226-.183.452-.365.677-.537.185-.132.31-.218.446-.305.194-.13.43-.28.667-.421a11.808 11.808 0 0 1 1.37-.728c.159-.074.331-.148.516-.222.182-.075.394-.157.595-.228.145-.062.366-.143.602-.213.186-.059.407-.118.628-.176.307-.08.62-.157.934-.215a6.18 6.18 0 0 1 .67-.117c.104-.02.313-.044.516-.066.282-.03.519-.053.742-.065.238-.012.471-.022.715-.022.253-.01.588 0 .913.011l.51.044c.318.025.632.062.934.11l.029.005.135.012c.097.011.193.029.287.053l.05.009c.365.068.719.158 1.072.249.232.069.367.114.502.159.229.069.507.156.785.264l.357.13a13.12 13.12 0 0 1 1.027.467c.124.056.322.161.508.267.184.095.417.234.649.373.179.11.342.213.494.323.214.141.418.291.623.442l.317.238a14.467 14.467 0 0 1 1.131 1.017c.265.267.479.492.682.718l.212.246a14.508 14.508 0 0 1 1.398 1.972 6.09 6.09 0 0 1 .25.443c.127.234.28.531.424.827l.08.18c.213.466.365.858.492 1.252.037.104.073.214.103.319l.021.062c.057.169.111.334.16.507l23.345 86.759a14.395 14.395 0 0 1-1.433 11.009 14.393 14.393 0 0 1-8.8 6.762h-.004a14.337 14.337 0 0 1-6.31.266c-5.502-.976-10.002-5.097-11.456-10.498l-7.088-26.343c-12.371 57.69-27.757 114.996-44.651 166.249-26.032 78.978-54.909 141.611-83.509 181.127-16.586 22.919-38.284 39.418-62.748 47.711-10.967 3.713-21.997 5.596-32.782 5.596zm-103.74-365.92c17.781 0 31.351 4.365 41.486 13.343.493.431.984.891 1.466 1.351a48.848 48.848 0 0 1 4.645 5.156c34.631 44.288 7.152 154.827-9.266 220.872l-1.224 4.945c-.7 2.822-1.381 5.571-2.034 8.247-6 24.433-5.541 45.937 1.364 63.919 5.597 14.572 15.427 26.316 28.427 33.963a67.225 67.225 0 0 0 6.026 3.159c9.982 4.622 21.034 6.965 32.85 6.965 10.348 0 20.946-1.812 31.499-5.384 23.673-8.025 44.695-24.025 60.792-46.268 28.362-39.187 57.046-101.441 82.951-180.033 17.643-53.524 33.64-113.68 46.262-173.964a1.999 1.999 0 0 1 3.889-.109l9.25 34.38a10.533 10.533 0 0 0 8.299 7.6c1.57.284 3.072.206 4.574-.193a10.416 10.416 0 0 0 6.369-4.895 10.427 10.427 0 0 0 1.037-7.972l-23.34-86.741c-.024-.087-.06-.188-.094-.292l-.043-.129a1.705 1.705 0 0 1-.042-.144 3.03 3.03 0 0 1-.047-.134 6.883 6.883 0 0 0-.303-.785 4.818 4.818 0 0 1-.109-.242 25.56 25.56 0 0 0-.331-.637l-.07-.129a1.873 1.873 0 0 1-.059-.095c-.285-.49-.62-.966-1.027-1.454l-.159-.186a14.577 14.577 0 0 0-.469-.491l-.101-.104c-.023-.02-.066-.065-.089-.086a9.878 9.878 0 0 0-.632-.558l-.249-.185c-.119-.087-.277-.205-.444-.313a1.888 1.888 0 0 1-.113-.079c-.07-.052-.147-.096-.223-.143-.15-.09-.317-.191-.493-.283a5.549 5.549 0 0 0-.358-.189 9.638 9.638 0 0 0-.669-.311l-.349-.128c-.234-.091-.417-.144-.598-.2l-.373-.121c-.167-.041-.405-.104-.657-.154a2.014 2.014 0 0 1-.254-.044 3.309 3.309 0 0 1-.246-.035 7.813 7.813 0 0 0-.567-.066l-.413-.039c-.165-.004-.402-.014-.634-.006-.249.001-.416.01-.583.019a8.749 8.749 0 0 0-.471.042c-.167.019-.302.032-.43.054-.19.025-.277.042-.371.064-.036.008-.072.016-.108.022a9.283 9.283 0 0 0-.678.156c-.154.04-.313.081-.471.132-.141.042-.239.08-.343.123a13.59 13.59 0 0 0-.874.352 8.285 8.285 0 0 0-.712.363c-.067.038-.109.059-.151.087l-.094.059c-.188.111-.377.231-.557.352-.118.076-.194.129-.27.182a31.2 31.2 0 0 0-.521.418l-.127.103a9.76 9.76 0 0 0-.659.608c-.074.075-.111.119-.149.162-.188.21-.341.382-.486.553-.028.037-.09.113-.151.197a2.087 2.087 0 0 1-.132.163l-.011.014-54.57 73.35c-1.674 2.25-2.371 5.018-1.963 7.793s1.872 5.225 4.122 6.898a10.404 10.404 0 0 0 4.436 1.916 10.436 10.436 0 0 0 10.255-4.073l21.891-29.431a2 2 0 0 1 3.562 1.605 1648.345 1648.345 0 0 1-5.437 24.9c-31.764 140.553-76.635 260.251-120.03 320.191-21.673 29.946-50.947 42.877-75.303 42.879-8.854 0-17.053-1.707-24.008-4.927a44.394 44.394 0 0 1-2.45-1.225c-22.699-12.066-30.647-39.684-21.792-75.767.862-3.507 1.766-7.146 2.7-10.906l.551-2.22c18.461-74.29 46.352-186.529 5.425-238.876-3.261-4.167-6.903-7.898-10.826-11.091a67.766 67.766 0 0 0-12.643-8.173c-11.449-5.739-25.134-8.649-40.675-8.649-40.029 0-76.399 29.44-99.86 54.137-21.016 22.117-40.355 49.488-54.701 77.373h23.815c12.751-22.693 29.095-44.994 46.113-62.907 29.167-30.697 59.222-47.603 84.63-47.603zM476.513 8.289l-.002.002z" fill="#531CB3"/></svg></g><g transform="translate(162.0 172.0) rotate(116.27108195716022 155.5 142.0) scale(0.5851859517739036 0.5851519746818751)"><svg width="531.455" height="485.344" viewBox="0 0 531.455 485.344"><path d="M520.2 119.304c-1.09.29-2.18.43-3.26.43-4.43 0-8.56-2.37-10.79-6.2-.55-.94-.98-1.96-1.27-3.05l-9.25-34.38c-1.01 4.83-2.04 9.65-3.1 14.48-12.05 55.13-26.88 110.13-43.22 159.7-25.97 78.79-54.75 141.23-83.23 180.58-16.34 22.58-37.7 38.83-61.77 46.99-10.81 3.66-21.67 5.49-32.14 5.49-11.96 0-23.41-2.39-33.69-7.15-5.41-2.5-10.37-5.6-14.81-9.25-9.16-7.49-16.19-17.3-20.67-28.97-7.05-18.36-7.54-40.27-1.44-65.11 1.03-4.22 2.13-8.62 3.26-13.2 16.33-65.69 43.66-175.64 9.63-219.16a46.7 46.7 0 0 0-4.45-4.94 45.023 45.023 0 0 0-10.02-7.3c-8.52-4.59-18.97-6.84-31.55-6.84-24.86 0-54.4 16.69-83.18 46.98-15.94 16.78-30.87 36.9-42.95 57.53H13.7c14.09-26.63 33-53.26 53.42-74.75 23.73-24.98 60.58-54.76 101.31-54.76 15.93 0 29.82 2.97 41.57 8.86 1.5.75 2.97 1.55 4.4 2.41 7.58 4.47 14.17 10.28 19.75 17.41 41.53 53.12 13.49 165.94-5.06 240.59-1.13 4.55-2.22 8.93-3.25 13.12-7.4 30.17-2.94 54 12.19 67.53 3.18 2.87 6.84 5.26 10.95 7.17 25.36 11.74 67.93 2.65 96.85-37.31 52.48-72.5 98.28-216.75 125.13-344.33l-14.04 18.87-7.85 10.56c-4.12 5.54-11.95 6.69-17.49 2.57a12.377 12.377 0 0 1-3.33-3.72c-2.46-4.19-2.32-9.62.76-13.77l54.57-73.35c.04-.06.08-.11.13-.16.07-.11.16-.21.24-.31.16-.19.33-.38.5-.57.07-.08.14-.16.22-.24.24-.25.49-.48.76-.71.07-.06.14-.11.21-.17.2-.17.42-.34.63-.5.1-.07.2-.14.31-.21.21-.14.43-.28.65-.41.09-.06.17-.11.27-.16.28-.16.57-.31.86-.44.14-.07.29-.13.44-.19.17-.07.34-.14.52-.2.16-.07.33-.13.5-.18.19-.06.38-.11.57-.16.27-.07.55-.14.83-.19.17-.04.33-.07.5-.09.18-.03.37-.05.55-.07.19-.02.38-.04.58-.05s.4-.02.61-.02c.28-.01.57 0 .85.01.14.01.29.03.43.04.25.02.51.05.76.09.09.02.17.02.26.03h.01l.09.03c.03 0 .06.01.08.01.33.06.64.14.95.22.13.04.25.08.37.12.23.07.46.14.69.23.13.05.27.1.41.15.26.11.52.23.78.36.15.07.3.15.44.23.21.11.41.23.61.35.13.08.26.16.38.25.2.13.39.27.58.41.09.07.19.14.27.21.27.21.53.44.77.67.08.07.15.15.22.22.2.2.39.4.57.6l.18.21c.47.56.89 1.15 1.25 1.79.05.07.09.14.13.22.14.26.28.53.4.8.04.07.07.14.1.2.15.33.28.66.39 1.01.03.08.06.17.08.25.06.18.12.35.16.53l23.35 86.74c1.8 6.67-2.15 13.53-8.82 15.32z" fill="#531CB3"/><path d="M272.17 485.344c-12.401 0-24.019-2.468-34.53-7.335-5.544-2.562-10.672-5.765-15.24-9.52-9.503-7.771-16.66-17.798-21.267-29.799-7.203-18.759-7.713-41.067-1.515-66.304.65-2.664 1.329-5.403 2.026-8.213l1.235-4.989c16.243-65.34 43.428-174.694 9.996-217.449a44.767 44.767 0 0 0-4.261-4.731 43.235 43.235 0 0 0-9.581-6.98c-8.246-4.442-18.255-6.601-30.603-6.601-24.3 0-53.326 16.463-81.73 46.358-15.694 16.521-30.451 36.288-42.674 57.163a2 2 0 0 1-1.726.99H13.7a1.998 1.998 0 0 1-1.767-2.935c14.349-27.12 33.434-53.824 53.738-75.192 24-25.265 61.311-55.382 102.759-55.382 16.17 0 30.458 3.052 42.467 9.072a67.305 67.305 0 0 1 4.534 2.484c7.75 4.57 14.583 10.593 20.295 17.891 42.127 53.884 13.953 167.262-4.69 242.286l-.498 2.002c-.954 3.841-1.877 7.555-2.756 11.132-7.16 29.196-3.047 52.479 11.582 65.562 3.012 2.719 6.529 5.021 10.459 6.847 24.636 11.405 66.091 2.43 94.387-36.669 53.174-73.458 97.911-219.246 122.879-334.605l-16.414 22.071c-4.771 6.416-13.873 7.753-20.289 2.982a14.279 14.279 0 0 1-3.865-4.319 14.468 14.468 0 0 1 .882-15.968l54.547-73.319c.063-.091.127-.174.197-.255a4.81 4.81 0 0 1 .197-.25l.078-.094c.168-.2.347-.4.526-.601a6.94 6.94 0 0 1 .306-.332c.261-.271.558-.547.88-.821l.166-.135c.272-.229.521-.423.759-.604.188-.134.312-.219.446-.305.193-.129.428-.279.665-.42.126-.083.245-.154.382-.225.324-.183.658-.354.992-.504a7.04 7.04 0 0 1 .516-.222c.167-.069.351-.143.544-.211a6.29 6.29 0 0 1 .652-.23c.184-.059.406-.118.627-.176.307-.08.62-.157.934-.215a6.18 6.18 0 0 1 .67-.117c.104-.02.313-.044.513-.066.287-.031.513-.053.75-.065.233-.011.466-.022.71-.022.25-.011.589 0 .915.011l.508.044c.318.025.632.062.934.11l.029.005.049.004c.14.009.281.033.417.07.374.069.727.158 1.079.249.232.069.367.114.502.159.229.069.507.156.785.264l.355.13a15.854 15.854 0 0 1 1.002.455c.151.07.35.175.535.281.184.095.417.234.649.373.177.108.34.212.494.323.208.138.409.285.61.432l.122.092c.083.062.165.125.239.187a12.003 12.003 0 0 1 1.106.99c.262.263.477.489.68.716l.21.244a13.722 13.722 0 0 1 1.431 2.034c.08.12.15.244.218.381.126.233.275.521.407.812a11.01 11.01 0 0 1 .588 1.448c.037.103.073.213.102.317.087.261.151.466.198.68l23.328 86.65a14.4 14.4 0 0 1-1.432 11.009 14.397 14.397 0 0 1-8.8 6.763h-.004c-1.24.331-2.51.499-3.774.499a14.531 14.531 0 0 1-12.518-7.194 14.289 14.289 0 0 1-1.475-3.543l-7.085-26.335c-.461 2.148-.918 4.257-1.378 6.35-12.147 55.573-27.111 110.866-43.274 159.897-26.032 78.978-54.909 141.61-83.509 181.126-16.585 22.919-38.283 39.418-62.748 47.711-10.968 3.713-21.997 5.596-32.782 5.596zm-103.74-365.92c13.026 0 23.657 2.316 32.499 7.079a47.23 47.23 0 0 1 10.461 7.623 48.917 48.917 0 0 1 4.638 5.149c34.631 44.289 7.152 154.827-9.266 220.872l-1.235 4.99c-.695 2.806-1.373 5.54-2.023 8.202-6 24.432-5.541 45.937 1.364 63.919 4.354 11.343 11.106 20.811 20.069 28.139 4.309 3.542 9.146 6.563 14.383 8.983 9.982 4.622 21.035 6.965 32.851 6.965 10.348 0 20.946-1.812 31.499-5.384 23.674-8.026 44.695-24.025 60.792-46.268 28.362-39.187 57.045-101.441 82.951-180.033 16.121-48.903 31.047-104.058 43.166-159.501 1.022-4.655 2.035-9.385 3.097-14.462a2 2 0 0 1 3.889-.11l9.25 34.38c.24.901.597 1.76 1.065 2.559a10.519 10.519 0 0 0 9.063 5.211c.917 0 1.84-.122 2.745-.363a10.421 10.421 0 0 0 6.368-4.895 10.42 10.42 0 0 0 1.036-7.971l-23.35-86.741c-.042-.178-.073-.26-.102-.346a4.212 4.212 0 0 1-.067-.218 7.353 7.353 0 0 1-.048-.136 6.765 6.765 0 0 0-.303-.782 2.435 2.435 0 0 1-.108-.217 9.51 9.51 0 0 0-.332-.662c-.042-.058-.078-.125-.112-.188a9.67 9.67 0 0 0-1.039-1.484l-.165-.192a12.81 12.81 0 0 0-.467-.489l-.099-.102c-.023-.02-.07-.069-.093-.09a8.153 8.153 0 0 0-.613-.535 1.647 1.647 0 0 1-.091-.075l-.181-.136c-.123-.089-.278-.205-.442-.312a2.07 2.07 0 0 1-.108-.075c-.07-.053-.148-.098-.225-.145-.152-.091-.319-.192-.494-.284a5.549 5.549 0 0 0-.358-.189 13.45 13.45 0 0 0-.662-.308 19.625 19.625 0 0 1-.401-.147c-.19-.074-.372-.128-.554-.183l-.373-.121c-.168-.041-.413-.106-.677-.156a1.834 1.834 0 0 1-.233-.042 3.309 3.309 0 0 1-.246-.035 7.945 7.945 0 0 0-.567-.066l-.413-.039c-.164-.004-.401-.014-.634-.006-.249.001-.416.01-.583.019-.162.008-.316.025-.471.042-.168.019-.303.032-.431.054a3.475 3.475 0 0 0-.37.064c-.036.008-.072.016-.108.022a9.283 9.283 0 0 0-.678.156c-.153.04-.312.081-.469.131a2.762 2.762 0 0 0-.302.105 1.904 1.904 0 0 1-.169.065c-.135.045-.262.099-.39.152-.118.047-.216.083-.306.129a9.098 9.098 0 0 0-.766.389 2.11 2.11 0 0 1-.093.05c-.029.02-.12.077-.15.095-.188.111-.377.231-.557.352-.12.077-.196.131-.273.185-.117.091-.308.238-.481.385a8.619 8.619 0 0 0-.824.741c-.073.074-.114.123-.156.171-.178.2-.332.371-.477.543l-.051.063a2.467 2.467 0 0 1-.233.298l-.01.013-54.57 73.35a10.475 10.475 0 0 0-.64 11.563 10.335 10.335 0 0 0 2.796 3.126c4.647 3.457 11.239 2.489 14.694-2.157l21.89-29.43a2 2 0 0 1 3.561 1.606c-14.343 68.155-32.678 134.917-53.023 193.068-23.337 66.707-47.711 117.854-72.444 152.022-21.673 29.946-50.946 42.877-75.303 42.879-8.854 0-17.053-1.707-24.008-4.927-4.296-1.996-8.147-4.52-11.45-7.5-15.776-14.108-20.322-38.79-12.792-69.491.88-3.58 1.804-7.298 2.759-11.142l.493-1.983c18.46-74.29 46.352-186.529 5.426-238.876-5.402-6.903-11.859-12.595-19.19-16.919a63.2 63.2 0 0 0-4.279-2.344c-11.449-5.739-25.134-8.649-40.676-8.649-40.029 0-76.398 29.44-99.859 54.137-19.328 20.341-37.54 45.58-51.53 71.373h24.115c12.261-20.771 26.99-40.428 42.644-56.907 29.167-30.697 59.223-47.603 84.63-47.603zM495.771 8.257v.016l.026-.09-.026.075z" fill="#531CB3"/><path d="M511.59 113.304a12.304 12.304 0 0 1-5.44.23c-4.62-.82-8.58-4.22-9.88-9.05l-3.74-13.9-5.51-20.48c-12.55 59.94-28.55 120.27-46.32 174.18-25.97 78.79-54.75 141.23-83.23 180.58-16.34 22.58-37.7 38.83-61.77 46.99-10.81 3.66-21.67 5.49-32.14 5.49-11.96 0-23.41-2.39-33.69-7.15-2.14-.99-4.21-2.07-6.2-3.25-13.43-7.9-23.48-19.87-29.28-34.97-7.05-18.36-7.54-40.27-1.44-65.11 1.03-4.22 2.13-8.62 3.26-13.2 16.33-65.69 43.66-175.64 9.63-219.16a46.7 46.7 0 0 0-5.86-6.24c-9.73-8.62-22.96-12.84-40.16-12.84-24.86 0-54.4 16.69-83.18 46.98-17.48 18.4-33.75 40.83-46.39 63.53H2c14.34-28.6 34.56-57.65 56.51-80.75 23.73-24.98 60.58-54.76 101.31-54.76 15.93 0 29.82 2.97 41.57 8.86a69.44 69.44 0 0 1 13.01 8.41c4.08 3.32 7.79 7.13 11.14 11.41 41.53 53.12 13.49 165.94-5.06 240.59-1.13 4.55-2.22 8.93-3.25 13.12-8.66 35.29-1.08 61.9 20.8 73.53.76.41 1.54.8 2.34 1.17 25.36 11.74 67.93 2.65 96.85-37.31 49.1-67.82 92.35-198.44 119.7-319.46 1.89-8.35 3.7-16.64 5.43-24.87l-21.89 29.43c-2.92 3.93-7.7 5.65-12.21 4.85-1.86-.33-3.67-1.08-5.28-2.28-5.54-4.12-6.69-11.95-2.57-17.49l54.57-73.35c.04-.06.08-.11.13-.16.08-.11.16-.21.24-.31.16-.19.33-.38.5-.57.07-.08.14-.16.22-.24.24-.25.5-.48.76-.71.07-.06.14-.11.21-.17.21-.17.42-.34.63-.5.1-.07.2-.14.31-.21.21-.14.43-.28.65-.41a9.956 9.956 0 0 1 1.13-.6c.15-.07.29-.13.44-.19.17-.07.35-.14.52-.2.17-.07.33-.13.5-.18.19-.06.38-.11.57-.16.27-.07.55-.14.83-.19.17-.04.33-.07.5-.09.18-.03.37-.05.55-.07a11.34 11.34 0 0 1 1.19-.07c.28-.01.57 0 .85.01.14.01.29.03.43.04.25.02.51.05.76.09.09.02.17.02.26.03l.1.03c.03 0 .06.01.09.01.32.06.63.14.94.22.13.04.25.08.37.12.23.07.46.14.69.23.14.05.27.1.41.15.26.11.53.23.78.36.15.07.3.15.44.23.21.11.41.23.61.35.13.08.26.16.38.25.2.13.39.27.58.41.09.07.19.14.28.21.26.21.52.44.76.67.08.07.15.15.22.22.2.2.39.4.57.6l.18.21c.45.54.86 1.11 1.22 1.73.02.02.03.04.04.06.04.07.08.14.12.22.14.26.28.53.41.8.03.07.06.14.09.2.15.33.28.66.39 1.01.03.08.06.17.08.25.06.18.12.35.17.53l23.34 86.74c1.8 6.67-2.15 13.53-8.82 15.32z" fill="#FFC83D"/><path d="M263.56 479.344c-12.4 0-24.018-2.468-34.53-7.335a71.416 71.416 0 0 1-6.38-3.344c-13.782-8.107-24.202-20.548-30.127-35.974-7.203-18.758-7.713-41.066-1.515-66.304.654-2.678 1.336-5.432 2.037-8.258l1.223-4.944c16.243-65.341 43.428-174.695 9.996-217.449a44.966 44.966 0 0 0-4.261-4.731 42.84 42.84 0 0 0-1.341-1.236c-9.379-8.309-22.082-12.345-38.842-12.345-24.301 0-53.327 16.463-81.73 46.358-17.049 17.947-33.419 40.365-46.092 63.125a2 2 0 0 1-1.748 1.027H2a2.002 2.002 0 0 1-1.788-2.896c14.652-29.223 34.841-58.071 56.848-81.231 24.001-25.265 61.312-55.382 102.76-55.382 16.169 0 30.457 3.052 42.466 9.072a71.803 71.803 0 0 1 13.381 8.651c4.149 3.376 8.002 7.322 11.447 11.724 42.127 53.884 13.954 167.262-4.689 242.286l-.556 2.239c-.934 3.757-1.836 7.392-2.697 10.895-8.383 34.161-1.167 60.144 19.796 71.287.729.393 1.479.768 2.241 1.121 24.641 11.407 66.094 2.431 94.391-36.667 43.094-59.524 87.718-178.675 119.369-318.728 1.197-5.29 2.373-10.602 3.513-15.877L442.065 96.5a14.408 14.408 0 0 1-14.164 5.626 14.346 14.346 0 0 1-6.126-2.646c-3.106-2.31-5.128-5.693-5.691-9.525s.4-7.654 2.711-10.762l54.544-73.318c.069-.099.142-.193.22-.281.073-.096.146-.188.219-.279.201-.24.38-.44.559-.641.108-.123.204-.229.311-.336.247-.258.546-.526.848-.793l.194-.159.081-.066c.226-.183.452-.365.677-.537.185-.132.31-.218.446-.305.194-.13.43-.28.667-.421a11.808 11.808 0 0 1 1.37-.728c.159-.074.331-.148.516-.222.182-.075.394-.157.595-.228.145-.062.366-.143.602-.213.186-.059.407-.118.628-.176.307-.08.62-.157.934-.215a6.18 6.18 0 0 1 .67-.117c.104-.02.313-.044.516-.066.282-.03.519-.053.742-.065.238-.012.471-.022.715-.022.253-.01.588 0 .913.011l.51.044c.318.025.632.062.934.11l.029.005.135.012c.097.011.193.029.287.053l.05.009c.365.068.719.158 1.072.249.232.069.367.114.502.159.229.069.507.156.785.264l.357.13a13.12 13.12 0 0 1 1.027.467c.124.056.322.161.508.267.184.095.417.234.649.373.179.11.342.213.494.323.214.141.418.291.623.442l.317.238a14.467 14.467 0 0 1 1.131 1.017c.265.267.479.492.682.718l.212.246a14.508 14.508 0 0 1 1.398 1.972 6.09 6.09 0 0 1 .25.443c.127.234.28.531.424.827l.08.18c.213.466.365.858.492 1.252.037.104.073.214.103.319l.021.062c.057.169.111.334.16.507l23.345 86.759a14.395 14.395 0 0 1-1.433 11.009 14.393 14.393 0 0 1-8.8 6.762h-.004a14.337 14.337 0 0 1-6.31.266c-5.502-.976-10.002-5.097-11.456-10.498l-7.088-26.343c-12.371 57.69-27.757 114.996-44.651 166.249-26.032 78.978-54.909 141.611-83.509 181.127-16.586 22.919-38.284 39.418-62.748 47.711-10.967 3.713-21.997 5.596-32.782 5.596zm-103.74-365.92c17.781 0 31.351 4.365 41.486 13.343.493.431.984.891 1.466 1.351a48.848 48.848 0 0 1 4.645 5.156c34.631 44.288 7.152 154.827-9.266 220.872l-1.224 4.945c-.7 2.822-1.381 5.571-2.034 8.247-6 24.433-5.541 45.937 1.364 63.919 5.597 14.572 15.427 26.316 28.427 33.963a67.225 67.225 0 0 0 6.026 3.159c9.982 4.622 21.034 6.965 32.85 6.965 10.348 0 20.946-1.812 31.499-5.384 23.673-8.025 44.695-24.025 60.792-46.268 28.362-39.187 57.046-101.441 82.951-180.033 17.643-53.524 33.64-113.68 46.262-173.964a1.999 1.999 0 0 1 3.889-.109l9.25 34.38a10.533 10.533 0 0 0 8.299 7.6c1.57.284 3.072.206 4.574-.193a10.416 10.416 0 0 0 6.369-4.895 10.427 10.427 0 0 0 1.037-7.972l-23.34-86.741c-.024-.087-.06-.188-.094-.292l-.043-.129a1.705 1.705 0 0 1-.042-.144 3.03 3.03 0 0 1-.047-.134 6.883 6.883 0 0 0-.303-.785 4.818 4.818 0 0 1-.109-.242 25.56 25.56 0 0 0-.331-.637l-.07-.129a1.873 1.873 0 0 1-.059-.095c-.285-.49-.62-.966-1.027-1.454l-.159-.186a14.577 14.577 0 0 0-.469-.491l-.101-.104c-.023-.02-.066-.065-.089-.086a9.878 9.878 0 0 0-.632-.558l-.249-.185c-.119-.087-.277-.205-.444-.313a1.888 1.888 0 0 1-.113-.079c-.07-.052-.147-.096-.223-.143-.15-.09-.317-.191-.493-.283a5.549 5.549 0 0 0-.358-.189 9.638 9.638 0 0 0-.669-.311l-.349-.128c-.234-.091-.417-.144-.598-.2l-.373-.121c-.167-.041-.405-.104-.657-.154a2.014 2.014 0 0 1-.254-.044 3.309 3.309 0 0 1-.246-.035 7.813 7.813 0 0 0-.567-.066l-.413-.039c-.165-.004-.402-.014-.634-.006-.249.001-.416.01-.583.019a8.749 8.749 0 0 0-.471.042c-.167.019-.302.032-.43.054-.19.025-.277.042-.371.064-.036.008-.072.016-.108.022a9.283 9.283 0 0 0-.678.156c-.154.04-.313.081-.471.132-.141.042-.239.08-.343.123a13.59 13.59 0 0 0-.874.352 8.285 8.285 0 0 0-.712.363c-.067.038-.109.059-.151.087l-.094.059c-.188.111-.377.231-.557.352-.118.076-.194.129-.27.182a31.2 31.2 0 0 0-.521.418l-.127.103a9.76 9.76 0 0 0-.659.608c-.074.075-.111.119-.149.162-.188.21-.341.382-.486.553-.028.037-.09.113-.151.197a2.087 2.087 0 0 1-.132.163l-.011.014-54.57 73.35c-1.674 2.25-2.371 5.018-1.963 7.793s1.872 5.225 4.122 6.898a10.404 10.404 0 0 0 4.436 1.916 10.436 10.436 0 0 0 10.255-4.073l21.891-29.431a2 2 0 0 1 3.562 1.605 1648.345 1648.345 0 0 1-5.437 24.9c-31.764 140.553-76.635 260.251-120.03 320.191-21.673 29.946-50.947 42.877-75.303 42.879-8.854 0-17.053-1.707-24.008-4.927a44.394 44.394 0 0 1-2.45-1.225c-22.699-12.066-30.647-39.684-21.792-75.767.862-3.507 1.766-7.146 2.7-10.906l.551-2.22c18.461-74.29 46.352-186.529 5.425-238.876-3.261-4.167-6.903-7.898-10.826-11.091a67.766 67.766 0 0 0-12.643-8.173c-11.449-5.739-25.134-8.649-40.675-8.649-40.029 0-76.399 29.44-99.86 54.137-21.016 22.117-40.355 49.488-54.701 77.373h23.815c12.751-22.693 29.095-44.994 46.113-62.907 29.167-30.697 59.222-47.603 84.63-47.603zM476.513 8.289l-.002.002z" fill="#531CB3"/></svg></g><g transform="translate(254.0 90.0) rotate(-5.459162245631443 81.5 65.5) scale(0.5451505016722408 0.5413223140495868)"><svg width="299" height="242" viewBox="0 0 299 242"><path d="M284.5 30.5h-98v-21a8.001 8.001 0 0 0-8-8h-58a8 8 0 0 0-8 8v21h-98a13 13 0 0 0-13 13v184a12.999 12.999 0 0 0 13 13h270a13 13 0 0 0 13-13v-184a13 13 0 0 0-13-13zm-160-13a5.002 5.002 0 0 1 5-5h40a5.002 5.002 0 0 1 5 5v13h-50z" fill="#E2D8F4"/><path d="M297 223c-4 6-38 9-120 9s-135-5-135-5c0 .327-.07.714-.127.593A25.826 25.826 0 0 1 25 231c-10.257 2.335-23.438-5.235-23.438-5.235C1.624 234.03 11.5 240.5 11.5 240.5l42.5-.012s216 .512 229.627.012S297 223 297 223z" fill="#531CB3"/><path d="M284 30.5c-10-.5-225.5 0-225.5 0-2.447.379-4.925.53-7.4.45-14.2.1-38.1.05-38.1.05A14.213 14.213 0 0 0 1 43s17.222-5.348 24.611-1.174c0 0 10.389-2.493 15.889 3.84A774.756 774.756 0 0 1 150 38c60 0 126-1.333 147.5 6.833C297.5 39.167 294 31 284 30.5zM186 14s-2-7-14-7h-46c-12 0-14 7-14 7s-3.5-12.5 9.75-12.5H177S187 0 186 14z" fill="#fff"/><path d="M284.5 29H188V9.5a9.512 9.512 0 0 0-9.5-9.5h-58a9.51 9.51 0 0 0-9.5 9.5V29H14.5A14.517 14.517 0 0 0 0 43.5v184A14.517 14.517 0 0 0 14.5 242h270a14.516 14.516 0 0 0 14.5-14.5v-184A14.516 14.516 0 0 0 284.5 29zM114 9.5a6.51 6.51 0 0 1 6.5-6.5h58a6.51 6.51 0 0 1 6.5 6.5V29h-9V17.5a6.51 6.51 0 0 0-6.5-6.5h-40a6.51 6.51 0 0 0-6.5 6.5V29h-9zM173 29h-47V17.5a3.501 3.501 0 0 1 3.5-3.5h40a3.502 3.502 0 0 1 3.5 3.5zM14.5 239A11.51 11.51 0 0 1 3 227.5v-184A11.513 11.513 0 0 1 14.5 32h15.2A14.47 14.47 0 0 0 24 43.5v184a14.473 14.473 0 0 0 5.7 11.5zm24 0A11.51 11.51 0 0 1 27 227.5v-184A11.512 11.512 0 0 1 38.5 32h7.2A14.47 14.47 0 0 0 40 43.5v184a14.473 14.473 0 0 0 5.7 11.5zM296 227.5a11.51 11.51 0 0 1-11.5 11.5h-230A11.51 11.51 0 0 1 43 227.5v-184A11.513 11.513 0 0 1 54.5 32h230A11.513 11.513 0 0 1 296 43.5z" fill="#531CB3"/></svg></g><g transform="translate(171.0 340.0) rotate(-143.8399184270772 76.0 37.5) scale(0.17886266877222545 0.17781571179629432)"><svg width="849.814" height="421.785" viewBox="0 0 849.814 421.785"><path d="M580.796 276.405c0 79.18-64.19 143.38-143.38 143.38s-143.37-64.2-143.37-143.38c0-23.61 5.71-45.88 15.82-65.52 23.79-46.23 71.98-77.86 127.55-77.86 16.29 0 31.95 2.72 46.55 7.73 56.34 19.32 96.83 72.76 96.83 135.65z" fill="#E2D8F4"/><path d="M437.416 421.785c-80.157 0-145.37-65.217-145.37-145.38 0-23.405 5.397-45.757 16.042-66.435 25.058-48.695 74.614-78.945 129.328-78.945 16.163 0 32.043 2.637 47.199 7.838 58.725 20.138 98.181 75.412 98.181 137.542 0 80.163-65.217 145.38-145.38 145.38zm0-286.76c-53.209 0-101.402 29.419-125.771 76.775-10.35 20.106-15.598 41.843-15.598 64.604 0 77.957 63.418 141.38 141.37 141.38s141.38-63.423 141.38-141.38c0-60.421-38.37-114.175-95.479-133.759-14.738-5.057-30.181-7.621-45.901-7.621z" fill="#531CB3"/><circle cx="437.418" cy="276.405" fill="#fff" r="127.318"/><path d="M437.418 405.723c-71.306 0-129.318-58.012-129.318-129.317s58.012-129.317 129.318-129.317 129.318 58.012 129.318 129.317-58.012 129.317-129.318 129.317zm0-254.635c-69.101 0-125.318 56.217-125.318 125.317s56.217 125.317 125.318 125.317 125.318-56.217 125.318-125.317-56.217-125.317-125.318-125.317z" fill="#531CB3"/><circle cx="382.873" cy="181.931" fill="#E2D8F4" r="6.504"/><path d="M382.887 190.433a8.508 8.508 0 0 1-7.378-4.25c-2.344-4.062-.948-9.272 3.113-11.617 4.061-2.343 9.271-.947 11.616 3.113a8.445 8.445 0 0 1 .85 6.452 8.45 8.45 0 0 1-3.962 5.164 8.466 8.466 0 0 1-4.238 1.138zm-.022-13.005a4.46 4.46 0 0 0-2.244.603 4.508 4.508 0 0 0-1.648 6.152 4.506 4.506 0 0 0 6.152 1.647c1.042-.602 1.787-1.572 2.098-2.734s.152-2.375-.45-3.417a4.508 4.508 0 0 0-3.908-2.251z" fill="#531CB3"/><circle cx="342.944" cy="221.861" fill="#E2D8F4" r="6.504"/><path d="M342.93 230.368a8.457 8.457 0 0 1-4.238-1.143 8.45 8.45 0 0 1-3.962-5.164 8.445 8.445 0 0 1 .85-6.452 8.443 8.443 0 0 1 5.164-3.963 8.456 8.456 0 0 1 6.453.85 8.45 8.45 0 0 1 3.962 5.164 8.445 8.445 0 0 1-.85 6.452 8.443 8.443 0 0 1-5.164 3.963 8.56 8.56 0 0 1-2.215.293zm.021-13.013c-.391 0-.785.051-1.173.155-1.162.312-2.133 1.057-2.735 2.099s-.761 2.255-.45 3.417 1.057 2.133 2.098 2.734a4.46 4.46 0 0 0 3.417.45c1.162-.312 2.133-1.057 2.735-2.099s.761-2.255.45-3.417-1.057-2.133-2.098-2.734a4.474 4.474 0 0 0-2.245-.605z" fill="#531CB3"/><circle cx="342.944" cy="330.95" fill="#E2D8F4" r="6.504"/><path d="M342.958 339.452a8.508 8.508 0 0 1-7.378-4.25c-2.344-4.062-.948-9.272 3.113-11.617 4.06-2.342 9.271-.947 11.616 3.113a8.445 8.445 0 0 1 .85 6.452 8.45 8.45 0 0 1-3.962 5.164 8.456 8.456 0 0 1-4.238 1.138zm-.022-13.005c-.764 0-1.537.193-2.244.603a4.508 4.508 0 0 0-1.648 6.152 4.505 4.505 0 0 0 7.8-4.504 4.508 4.508 0 0 0-3.908-2.251z" fill="#531CB3"/><circle cx="382.873" cy="370.879" fill="#E2D8F4" r="6.504"/><path d="M382.859 379.387a8.457 8.457 0 0 1-4.238-1.143 8.45 8.45 0 0 1-3.962-5.164 8.445 8.445 0 0 1 .85-6.452c1.135-1.968 2.969-3.375 5.163-3.963s4.486-.285 6.453.85a8.45 8.45 0 0 1 3.962 5.164 8.445 8.445 0 0 1-.85 6.452 8.447 8.447 0 0 1-5.163 3.963 8.56 8.56 0 0 1-2.215.293zm.021-13.013c-.391 0-.785.051-1.173.155a4.474 4.474 0 0 0-2.734 2.099c-.601 1.042-.761 2.255-.45 3.417s1.056 2.133 2.098 2.734a4.46 4.46 0 0 0 3.417.45 4.474 4.474 0 0 0 2.734-2.099c.602-1.042.761-2.255.45-3.417s-1.057-2.133-2.098-2.734a4.474 4.474 0 0 0-2.245-.605z" fill="#531CB3"/><circle cx="491.962" cy="370.879" fill="#E2D8F4" r="6.504"/><path d="M491.976 379.387a8.566 8.566 0 0 1-2.215-.293 8.452 8.452 0 0 1-5.164-3.963 8.45 8.45 0 0 1-.849-6.452 8.45 8.45 0 0 1 3.962-5.164c1.967-1.135 4.259-1.438 6.453-.85s4.028 1.996 5.164 3.963a8.45 8.45 0 0 1 .849 6.452 8.45 8.45 0 0 1-3.962 5.164 8.46 8.46 0 0 1-4.238 1.143zm-.021-13.013c-.781 0-1.551.204-2.245.605a4.472 4.472 0 0 0-2.098 2.734 4.468 4.468 0 0 0 .45 3.417 4.477 4.477 0 0 0 2.734 2.099 4.462 4.462 0 0 0 3.418-.45c1.042-.602 1.787-1.572 2.098-2.734s.151-2.375-.45-3.417a4.479 4.479 0 0 0-2.735-2.099 4.528 4.528 0 0 0-1.173-.155z" fill="#531CB3"/><circle cx="531.892" cy="330.95" fill="#E2D8F4" r="6.504"/><path d="M531.878 339.452a8.456 8.456 0 0 1-4.238-1.138 8.45 8.45 0 0 1-3.962-5.164 8.445 8.445 0 0 1 .85-6.452c2.345-4.062 7.555-5.456 11.616-3.113 4.061 2.345 5.457 7.556 3.113 11.617a8.51 8.51 0 0 1-7.379 4.25zm-2.238-4.603c2.151 1.246 4.911.504 6.152-1.647s.502-4.911-1.649-6.152a4.512 4.512 0 0 0-6.152 1.648c-.602 1.042-.761 2.255-.45 3.417s1.057 2.133 2.098 2.734z" fill="#531CB3"/><circle cx="531.892" cy="221.861" fill="#E2D8F4" r="6.504"/><path d="M531.905 230.368a8.566 8.566 0 0 1-2.215-.293c-2.194-.588-4.028-1.996-5.164-3.963s-1.438-4.259-.85-6.452a8.45 8.45 0 0 1 3.962-5.164c1.967-1.135 4.259-1.438 6.453-.85s4.028 1.996 5.164 3.963a8.45 8.45 0 0 1 .849 6.452 8.45 8.45 0 0 1-3.962 5.164 8.46 8.46 0 0 1-4.238 1.143zm-.021-13.013c-.781 0-1.551.204-2.245.605-1.042.602-1.787 1.572-2.098 2.734s-.152 2.375.45 3.417 1.573 1.787 2.735 2.099a4.464 4.464 0 0 0 3.417-.45 4.472 4.472 0 0 0 2.098-2.734c.312-1.162.152-2.375-.45-3.417s-1.573-1.787-2.735-2.099a4.528 4.528 0 0 0-1.173-.155z" fill="#531CB3"/><circle cx="491.962" cy="181.931" fill="#E2D8F4" r="6.504"/><g fill="#531CB3"><path d="M491.948 190.433a8.456 8.456 0 0 1-4.238-1.138 8.45 8.45 0 0 1-3.962-5.164 8.445 8.445 0 0 1 .85-6.452c2.344-4.061 7.555-5.455 11.616-3.113 4.06 2.345 5.457 7.556 3.113 11.617a8.508 8.508 0 0 1-7.378 4.25zm.022-13.005a4.507 4.507 0 0 0-3.908 2.251c-.601 1.042-.761 2.255-.45 3.417s1.056 2.133 2.098 2.734a4.508 4.508 0 0 0 6.152-1.647 4.508 4.508 0 0 0-1.648-6.152 4.478 4.478 0 0 0-2.244-.603zm-61.056-16.616h13.008v26.763h-13.008z"/><path d="M443.922 189.576h-13.008a2 2 0 0 1-2-2v-26.764a2 2 0 0 1 2-2h13.008a2 2 0 0 1 2 2v26.764a2 2 0 0 1-2 2zm-11.008-4h9.008v-22.764h-9.008zm-111.09 97.333v-13.008h26.763v13.008z"/><path d="M348.588 284.909h-26.763a2 2 0 0 1-2-2v-13.008a2 2 0 0 1 2-2h26.763a2 2 0 0 1 2 2v13.008a2 2 0 0 1-2 2zm-24.763-4h22.763v-9.008h-22.763zm120.096 111.089h-13.008v-26.763h13.008z"/><path d="M443.922 393.998h-13.008a2 2 0 0 1-2-2v-26.764a2 2 0 0 1 2-2h13.008a2 2 0 0 1 2 2v26.764a2 2 0 0 1-2 2zm-11.008-4h9.008v-22.764h-9.008zm120.097-120.097v13.008h-26.763v-13.008z"/><path d="M553.011 284.909h-26.764a2 2 0 0 1-2-2v-13.008a2 2 0 0 1 2-2h26.764a2 2 0 0 1 2 2v13.008a2 2 0 0 1-2 2zm-24.764-4h22.764v-9.008h-22.764zm-90.828-.885a4 4 0 0 1-3.729-2.552l-31.347-80.673a4 4 0 0 1 7.457-2.899l31.347 80.673a4 4 0 0 1-3.728 5.45z"/><path d="M420.216 322.846a4 4 0 0 1-3.711-5.492l17.201-42.821a4 4 0 0 1 7.424 2.982l-17.201 42.821a4.002 4.002 0 0 1-3.713 2.51zm63.75-182.091-25.15 10.12-24.66 9.94-3.24 1.3-42.18 17-12.04 4.85-41.71 16.8-25.12 10.12c23.79-46.23 71.98-77.86 127.55-77.86 16.29 0 31.95 2.72 46.55 7.73z"/><path d="M309.867 212.886a2 2 0 0 1-1.779-2.915c25.058-48.695 74.614-78.945 129.328-78.945 16.163 0 32.043 2.637 47.199 7.838a2 2 0 0 1 .097 3.747l-174.099 70.131a1.99 1.99 0 0 1-.747.145zm127.549-77.86c-51.374 0-98.07 27.421-123.164 71.938l163.834-65.998c-13.145-3.943-26.8-5.939-40.67-5.939z"/></g><rect fill="#E2D8F4" height="12.449" rx="6.224" transform="matrix(.95961403 -.28131996 .28131996 .95961403 -19.518 124.798)" width="880.882" x="-15.534" y="124.154"/><path d="M8.214 260.759a8.17 8.17 0 0 1-3.932-1.012 8.171 8.171 0 0 1-3.948-4.903c-1.276-4.351 1.227-8.93 5.578-10.206L839.274.334c4.351-1.277 8.93 1.227 10.206 5.579a8.169 8.169 0 0 1-.676 6.258 8.163 8.163 0 0 1-4.903 3.947L10.54 260.422a8.217 8.217 0 0 1-2.326.337zM841.586 4.001c-.392 0-.791.056-1.186.171L7.038 248.475a4.23 4.23 0 0 0-2.865 5.243 4.2 4.2 0 0 0 2.028 2.519c.99.54 2.132.663 3.214.347L842.776 12.28a4.196 4.196 0 0 0 2.518-2.027 4.2 4.2 0 0 0 .347-3.215 4.234 4.234 0 0 0-4.056-3.037z" fill="#531CB3"/></svg></g><g transform="translate(204.0 172.0) rotate(27.92562559269937 61.5 27.0) scale(0.6307692307692307 0.627906976744186)"><svg width="195" height="86" viewBox="0 0 195 86"><clipPath id="c"><path d="M0 0h195v86H0z"/></clipPath><g clip-path="url(#c)"><path d="M172.5 81.5h-86c-35 0-85-6-85-6l30-36s45 10 69 8c30.893-2.574 93-2 93-2z" fill="#E2D8F4"/><path d="M172.5 83.001h-86c-34.689 0-84.678-5.95-85.179-6.01a1.5 1.5 0 0 1-.974-2.45l30-36a1.491 1.491 0 0 1 1.478-.5c.447.1 45.056 9.936 68.55 7.97 30.607-2.552 92.516-2.014 93.138-2.006a1.497 1.497 0 0 1 1.292.759 1.5 1.5 0 0 1-.009 1.498l-21 36a1.497 1.497 0 0 1-1.296.74zM4.428 74.33c10.95 1.238 52.234 5.672 82.072 5.672h85.138l19.262-33.02c-12.073-.069-63.374-.228-90.274 2.014-22.37 1.856-61.926-6.395-68.557-7.835z" fill="#531CB3"/><path d="M166.5 75.5s-50.982-1-79-1c-35 0-85-6-85-6l30-36s45 10 69 8c30.893-2.574 90-2 90-2z" fill="#E2D8F4"/><path d="M166.5 77.001h-.03c-.509-.01-51.288-1-78.97-1-34.689 0-84.678-5.95-85.179-6.01a1.5 1.5 0 0 1-.974-2.45l30-36a1.492 1.492 0 0 1 1.478-.5c.448.1 45.053 9.927 68.55 7.97 30.608-2.55 89.548-2.013 90.139-2.006a1.5 1.5 0 0 1 1.229 2.34l-25 37a1.5 1.5 0 0 1-1.243.656zM5.428 67.33c10.95 1.238 52.234 5.672 82.072 5.672 25.778 0 71.543.857 78.214.984l22.975-34c-12.088-.07-60.413-.206-87.064 2.015-22.368 1.852-61.925-6.399-68.556-7.839z" fill="#531CB3"/><path d="M164.5 68.5s-48.982-1-77-1c-35 0-85-6-85-6l30-36s45 10 69 8c30.893-2.574 86 0 86 0z" fill="#E2D8F4"/><path d="M164.5 70.001h-.031c-.49-.01-49.288-1-76.969-1-34.689 0-84.678-5.95-85.179-6.01a1.5 1.5 0 0 1-.974-2.45l30-36a1.489 1.489 0 0 1 1.478-.5c.448.1 45.053 9.93 68.55 7.97 30.635-2.552 85.643-.029 86.2 0a1.502 1.502 0 0 1 1.428 1.58c-.014.264-.098.52-.244.741l-23 35a1.5 1.5 0 0 1-1.259.67zM5.428 60.33c10.95 1.238 52.234 5.672 82.072 5.672 25.719 0 69.629.854 76.2.983l21.094-32.1c-11.34-.466-56.567-2.109-83.17.11-22.367 1.858-61.924-6.393-68.555-7.833z" fill="#531CB3"/><path d="M163.5 58.5s-47.982 3-76 3c-35 0-85-6-85-6l30-36s45 10 69 8c30.893-2.574 85-3 85-3z" fill="#E2D8F4"/><path d="M87.5 63.001c-34.689 0-84.678-5.95-85.179-6.011a1.5 1.5 0 0 1-.974-2.449l30-36a1.493 1.493 0 0 1 1.478-.5c.448.1 45.053 9.934 68.55 7.969 30.6-2.549 84.571-3 85.113-3h.012a1.497 1.497 0 0 1 1.325.797 1.493 1.493 0 0 1-.083 1.544l-23 34a1.495 1.495 0 0 1-1.149.656c-.48.021-48.35 2.994-76.093 2.994zM5.428 54.329c10.95 1.238 52.234 5.672 82.072 5.672 25.766 0 69.011-2.576 75.171-2.952l20.983-31.019c-11.578.132-55.6.763-82.029 2.966-22.368 1.858-61.925-6.395-68.556-7.835z" fill="#531CB3"/><path d="M161.5 48.5s-44.982 7-73 7c-35 0-85-8-85-8l30-36s45 12 69 10c30.893-2.574 85-6 85-6z" fill="#E2D8F4"/><path d="M88.5 57c-34.718 0-84.736-7.938-85.238-8.02a1.5 1.5 0 0 1-.915-2.44l30-36a1.5 1.5 0 0 1 1.54-.49c.447.12 45.041 11.92 68.488 9.955 30.554-2.546 84.489-5.968 85.03-6a1.502 1.502 0 0 1 1.589 1.635 1.49 1.49 0 0 1-.316.79l-26 33a1.497 1.497 0 0 1-.948.554C161.279 50.053 116.311 57 88.5 57zM6.351 46.422C17.085 48.042 58.563 54 88.501 54c25.866 0 66.831-6.081 72.187-6.894l23.554-29.894C171.947 18 128.733 20.819 102.625 23c-22.367 1.854-61.852-8.055-68.583-9.8z" fill="#531CB3"/><path d="M160.5 38.5s-44.982 11-73 11c-35 0-83-11-83-11l30-36s43 15 67 13c30.893-2.574 82-14 82-14z" fill="#E2D8F4"/><path d="M87.5 51C52.732 51 4.646 40.072 4.165 39.962a1.5 1.5 0 0 1-.818-2.422l30-36a1.5 1.5 0 0 1 1.647-.456c.427.149 42.978 14.868 66.381 12.92C131.81 11.47 182.663.15 183.173.037a1.5 1.5 0 0 1 1.6 2.256l-23 37a1.5 1.5 0 0 1-.917.665C160.4 40.067 115.376 51 87.5 51zM7.23 37.566C17.361 39.756 57.5 48 87.5 48c25.785 0 66.65-9.527 72.05-10.814l20.8-33.463c-12.056 2.6-52.734 11.106-78.725 13.277C79.3 18.842 41.709 6.532 34.991 4.254z" fill="#531CB3"/><path d="M87.5 43.501c-24.636 0-56.34-5.672-72.012-8.813l21-25.2c10.528 3.421 39.557 12.2 60.307 12.2 1.828 0 3.579-.069 5.206-.2 21.3-1.776 51.509-7.575 68.962-11.17l-14.252 22.914c-9.549 2.216-45.844 10.27-69.21 10.27z" fill="#fff"/><path d="M87.5 45c-24.532 0-55.832-5.54-72.307-8.842a1.5 1.5 0 0 1-.857-2.43l21-25.2a1.5 1.5 0 0 1 1.616-.466c11.216 3.644 39.5 12.12 59.843 12.12 1.79 0 3.5-.067 5.081-.2 21.479-1.79 52.315-7.75 68.784-11.143a1.5 1.5 0 0 1 1.576 2.26l-14.252 22.924a1.5 1.5 0 0 1-.935.669C146.633 37.11 110.833 45 87.5 45zM18.257 33.708C35.137 37.017 64.4 42 87.5 42c22.585 0 57.211-7.541 68.265-10.091l12.081-19.432c-17.123 3.472-45.5 8.812-65.723 10.5a64.933 64.933 0 0 1-5.33.209c-20.2 0-47.863-8.118-59.8-11.955z" fill="#531CB3"/><path d="M91.668 40.554c12.398-1.005 22.141-5.613 21.762-10.292-.38-4.68-10.738-7.657-23.136-6.652-12.397 1.005-22.14 5.613-21.76 10.292.378 4.679 10.736 7.657 23.134 6.652z" fill="#E2D8F4"/><path d="M87.047 42.242c-10.063 0-19.556-2.621-20.01-8.218-.525-6.474 11.528-10.967 23.136-11.908a48.325 48.325 0 0 1 16.61 1.248c5.013 1.442 7.9 3.849 8.141 6.779.525 6.474-11.528 10.967-23.135 11.908a58.633 58.633 0 0 1-4.742.19zm8.032-17.327c-1.519 0-3.08.064-4.664.192-11.992.97-20.655 5.38-20.388 8.675s9.525 6.252 21.52 5.279c11.995-.973 20.654-5.382 20.387-8.676-.126-1.55-2.361-3.1-5.979-4.137a40.237 40.237 0 0 0-10.876-1.333z" fill="#531CB3"/><path d="M97.5 83.5s-10 1-16 1-15-2-15-2-2.3-31.088-1-35c2-6 23-33 23-33a72.97 72.97 0 0 1 15-2 142.25 142.25 0 0 1 15 1s-18 27-22 36c-2.957 6.653 1 34 1 34zm39.538-52.137c4.001-1.075 6.835-3.465 6.332-5.338s-4.154-2.522-8.155-1.447c-4 1.074-6.835 3.464-6.331 5.338.503 1.874 4.154 2.522 8.154 1.447z" fill="#E2D8F4"/><path d="M133.285 33.4c-3.059 0-5.318-1.108-5.851-3.09-.753-2.807 2.356-5.826 7.391-7.179a14.315 14.315 0 0 1 6.04-.41c2.895.514 3.72 2.05 3.953 2.918s.289 2.61-1.959 4.5a14.364 14.364 0 0 1-5.432 2.671 16.096 16.096 0 0 1-4.142.59zm5.655-7.838a13.159 13.159 0 0 0-3.337.465c-3.6.97-5.431 2.91-5.271 3.5s2.712 1.357 6.317.388a11.517 11.517 0 0 0 4.276-2.068c.82-.692 1.045-1.245 1-1.433-.05-.187-.523-.554-1.579-.74a8.065 8.065 0 0 0-1.406-.115z" fill="#531CB3"/><path d="M55.404 27.7c.353-2.18-2.675-4.485-6.764-5.148-4.089-.662-7.69.569-8.043 2.75s2.675 4.485 6.763 5.147 7.69-.568 8.044-2.749z" fill="#E2D8F4"/><path d="M49.544 32.127a15.153 15.153 0 0 1-2.424-.2 13.023 13.023 0 0 1-5.72-2.29c-1.739-1.324-2.552-2.95-2.288-4.577s1.548-2.914 3.616-3.621A14.07 14.07 0 0 1 54.6 23.36c1.74 1.325 2.552 2.95 2.288 4.577s-1.547 2.914-3.616 3.62a11.597 11.597 0 0 1-3.728.569zm-3.084-8.254a8.702 8.702 0 0 0-2.758.405c-.928.318-1.55.8-1.625 1.262s.363 1.115 1.143 1.709a11.119 11.119 0 0 0 9.08 1.47c.927-.317 1.55-.8 1.625-1.261s-.364-1.115-1.144-1.71a10.144 10.144 0 0 0-4.38-1.717 12.193 12.193 0 0 0-1.94-.158z" fill="#531CB3"/><path d="M89 14S66.5 44 65.5 48s1 35 1 35l7.5 1s-4-28-2-35 25-36 25-36zm22.5-.5s-21 31-22 35 1 35 1 35h7s-4-25-2-32 22.47-37.559 22.47-37.559z" fill="#fff"/><path d="M119.748 14.332a1.495 1.495 0 0 0 .116-1.456 1.507 1.507 0 0 0-1.178-.864c-5.04-.608-10.11-.946-15.186-1.012a73.7 73.7 0 0 0-15.365 2.045c-.325.081-.614.27-.819.534-.864 1.11-21.182 27.274-23.239 33.446-1.331 4 .538 30.344.927 35.586a1.5 1.5 0 0 0 1.17 1.353C66.549 84.048 75.405 86 81.5 86c6.006 0 15.738-.967 16.149-1.008a1.5 1.5 0 0 0 1.335-1.707C97.9 75.8 95.589 55.242 97.871 50.109c3.902-8.781 21.697-35.509 21.877-35.777zM66.923 47.975c1.545-4.637 16.412-24.369 22.437-32.137.738-.17 2.252-.5 4.165-.838-6.09 8.261-21.57 29.495-22.48 33.136-.928 3.71.433 27.025.857 33.866a121.732 121.732 0 0 1-3.988-.738c-.865-11.99-1.845-30.73-.991-33.289zm8.014 34.491c-.784-12.387-1.656-30.9-.982-33.6s14.926-22.578 23.75-34.47l.007-.013c1.92-.24 3.853-.367 5.788-.383 1.887 0 3.851.077 5.716.186-4.5 6.611-19.767 29.333-21.171 34.95-1.845 7.374.324 28.686.855 33.564-2.556.168-5.25.3-7.4.3a51.21 51.21 0 0 1-6.563-.534zm20.863-.312c-.977.089-2.347.208-3.9.329-.489-4.483-2.66-25.759-.945-32.619 1.2-4.8 16.036-27.128 21.727-35.435 1.214.1 2.32.2 3.209.293-4.3 6.52-17.359 26.511-20.762 34.169-2.729 6.138-.185 26.96.671 33.263z" fill="#531CB3"/></g></svg></g><g transform="translate(979.0 367.0) rotate(0.0 -32.0 36.0) scale(-0.28436482229420207 0.2822146006859383)"><svg width="225.063" height="255.125" viewBox="0 0 225.063 255.125"><path d="M196.05 143.562 142.299 40.004 38.74 93.756 9.943 84.638 2 112.826l72.822 140.299 140.298-72.822 7.943-28.188z" fill="#fff"/><path d="M74.824 255.125c-.723 0-1.42-.393-1.776-1.079L.225 113.748a2 2 0 0 1-.15-1.464l7.943-28.188a2.002 2.002 0 0 1 2.528-1.364L38.554 91.6l102.823-53.37a1.997 1.997 0 0 1 2.696.853l53.37 102.823 26.223 8.303a2.001 2.001 0 0 1 1.322 2.449l-7.942 28.188c-.15.532-.513.978-1.004 1.232L75.744 254.9c-.295.152-.61.225-.92.225zM4.14 112.607l71.536 137.821 137.755-71.501 7.182-25.49-25.166-7.968a1.999 1.999 0 0 1-1.171-.985L141.445 42.7 39.662 95.531c-.47.245-1.02.292-1.525.132l-26.829-8.495z" fill="#531CB3"/><path d="m9.945 84.64 140.304-72.824 72.824 140.305-140.305 72.823z" fill="#fff"/><path d="M171.942 53.623 31.64 126.445 9.939 84.641l38.219-19.835 67.032-34.792 35.05-18.196z" fill="#E2D8F4"/><path d="M116.501 40.005c0 21.354-17.312 38.666-38.666 38.666-11.919 0-22.576-5.393-29.677-13.866l67.032-34.792a38.565 38.565 0 0 1 1.311 9.992z" fill="#fff"/><path d="m154.775 156.724 28.059-14.564 12.169 24.519-27.053 14.462z" fill="#E2D8F4"/><path d="M82.766 226.937c-.723 0-1.42-.393-1.776-1.079L8.167 85.56a1.998 1.998 0 0 1 .853-2.696l140.3-72.823a1.997 1.997 0 0 1 2.696.853l72.822 140.299c.509.98.127 2.188-.854 2.696L83.686 226.712a2 2 0 0 1-.92.225zM12.639 85.492 83.618 222.24l136.749-70.979-70.979-136.749z" fill="#531CB3"/><path d="M31.646 128.449a1.999 1.999 0 0 1-.922-3.775l140.298-72.822a2 2 0 0 1 1.842 3.55L32.566 128.224a1.99 1.99 0 0 1-.92.225z" fill="#531CB3"/><path d="m72.484 136.507 28.06-14.565 12.78 24.622-27.665 14.36z" fill="#E2D8F4"/><g fill="#531CB3"><path d="M110.825 212.372c-.723 0-1.42-.393-1.776-1.079L57.93 112.807a1.999 1.999 0 1 1 3.55-1.842l51.119 98.486a1.999 1.999 0 0 1-1.774 2.921zm28.06-14.564c-.723 0-1.42-.393-1.776-1.079l-51.12-98.486a1.999 1.999 0 1 1 3.55-1.842l51.119 98.486a1.999 1.999 0 0 1-1.773 2.921zm28.059-14.565c-.723 0-1.42-.393-1.776-1.079l-51.119-98.486a1.999 1.999 0 1 1 3.55-1.842l51.119 98.486a1.999 1.999 0 0 1-1.774 2.921zm28.06-14.564c-.723 0-1.42-.393-1.776-1.079l-51.12-98.486a1.999 1.999 0 1 1 3.55-1.842l51.12 98.486a1.999 1.999 0 0 1-1.774 2.921z"/><path d="M44.426 153.071a1.999 1.999 0 0 1-.922-3.775l140.299-72.822a2 2 0 1 1 1.842 3.55L45.346 152.846c-.295.153-.61.225-.92.225zm12.78 24.623a1.999 1.999 0 0 1-.922-3.775l140.298-72.822a1.999 1.999 0 1 1 1.842 3.55L58.126 177.468a1.988 1.988 0 0 1-.92.226zm12.78 24.622a1.999 1.999 0 0 1-.922-3.775l140.299-72.822a1.999 1.999 0 1 1 1.842 3.55L70.906 202.09c-.295.153-.61.226-.92.226z"/><path d="M113.325 148.565c-.158 0-.319-.019-.479-.059l-40.84-10.057a2 2 0 1 1 .956-3.884l40.84 10.057a2 2 0 0 1-.477 3.943z"/><path d="M85.659 162.924a2 2 0 0 1-1.868-2.714l14.884-38.981a2 2 0 1 1 3.737 1.427l-14.884 38.981a2.002 2.002 0 0 1-1.869 1.287zm109.345 5.755c-.158 0-.319-.019-.479-.059l-40.839-10.057a2 2 0 1 1 .956-3.884l40.839 10.057a2 2 0 0 1-.477 3.943z"/><path d="M166.942 183.243a2 2 0 0 1-1.865-2.721l15.118-39.101a2 2 0 0 1 3.73 1.442l-15.118 39.101a1.998 1.998 0 0 1-1.865 1.279zM61.398 91.193a1.999 1.999 0 0 1-.922-3.775c12.715-6.6 17.69-22.313 11.09-35.028-3.197-6.16-8.602-10.705-15.217-12.8-6.614-2.094-13.651-1.487-19.811 1.709-12.715 6.6-17.689 22.313-11.09 35.028a1.999 1.999 0 1 1-3.55 1.842c-7.616-14.672-1.875-32.805 12.797-40.421 7.108-3.69 15.227-4.39 22.861-1.973s13.871 7.663 17.56 14.771c7.616 14.672 1.875 32.805-12.797 40.42a1.99 1.99 0 0 1-.921.227zm64.513-34.372a1.999 1.999 0 0 1-.922-3.775c12.715-6.6 17.689-22.313 11.09-35.028-6.601-12.715-22.314-17.689-35.028-11.09-6.159 3.197-10.705 8.601-12.799 15.217-2.095 6.616-1.488 13.651 1.709 19.811a1.999 1.999 0 1 1-3.55 1.842c-3.689-7.107-4.39-15.226-1.973-22.861s7.663-13.871 14.77-17.56c7.108-3.689 15.227-4.39 22.861-1.973s13.871 7.663 17.56 14.771c7.616 14.672 1.875 32.805-12.797 40.421-.295.152-.61.225-.921.225zM74.823 255.125a1.999 1.999 0 0 1-1.925-2.543l7.942-28.188a1.999 1.999 0 1 1 3.849 1.085l-7.942 28.188a2 2 0 0 1-1.924 1.458zM9.943 84.638 2 112.826l21.302 41.04 8.342-27.417z"/><path d="M23.301 155.865a1.998 1.998 0 0 1-1.774-1.079L.225 113.748a2 2 0 0 1-.15-1.464l7.942-28.188a2 2 0 0 1 3.7-.379l21.702 41.811c.241.464.291 1.003.139 1.503l-8.343 27.417a2.002 2.002 0 0 1-1.914 1.417zM4.14 112.607l18.677 35.982 6.677-21.943-18.998-36.6z"/></g></svg></g></svg>