<svg xmlns="http://www.w3.org/2000/svg" viewBox="0 0 1200 800" width="1200" height="800"><g transform="translate(25.0 234.0) rotate(0.0 252.5 264.0) scale(0.9634848771032112 0.9629957923649755)"><svg width="524.139" height="548.289" viewBox="0 0 524.139 548.289"><path d="M491.179 159.804c11.285 0 21.854 3.322 30.961 9.095V2h-186.3c7.277 9.863 11.527 21.75 11.527 34.544 0 34.148-30.266 61.83-67.601 61.83s-67.601-27.683-67.601-61.83c0-12.794 4.249-24.68 11.527-34.544H37.39v450.811h184.301c-6.045 9.259-9.527 20.08-9.527 31.648 0 34.148 30.266 61.83 67.601 61.83s67.601-27.682 67.601-61.83c0-11.568-3.482-22.389-9.527-31.648h184.3v-166.9c-9.107 5.774-19.676 9.095-30.961 9.095-34.148 0-61.83-30.266-61.83-67.601s27.682-67.601 61.83-67.601z" fill="#fff"/><path d="M279.765 548.289c-38.378 0-69.601-28.634-69.601-63.83 0-10.358 2.741-20.535 7.959-29.647H37.39a2 2 0 0 1-2-2V2a2 2 0 0 1 2-2h186.3a1.999 1.999 0 0 1 1.609 3.188c-7.285 9.874-11.136 21.409-11.136 33.356 0 32.991 29.428 59.831 65.601 59.831s65.601-26.84 65.601-59.831c0-11.948-3.851-23.482-11.136-33.356A2 2 0 0 1 335.839 0h186.3a2 2 0 0 1 2 2v166.9a2 2 0 0 1-3.071 1.689c-9.065-5.747-19.401-8.785-29.89-8.785-32.991 0-59.831 29.429-59.831 65.602s26.84 65.601 59.831 65.601c10.49 0 20.826-3.037 29.89-8.784a1.998 1.998 0 0 1 3.071 1.689v166.9a2 2 0 0 1-2 2H341.407c5.217 9.112 7.958 19.289 7.958 29.647 0 35.196-31.223 63.83-69.601 63.83zM39.39 450.812h182.301a2 2 0 0 1 1.675 3.094c-6.02 9.221-9.202 19.786-9.202 30.554 0 32.99 29.428 59.83 65.601 59.83s65.601-26.84 65.601-59.83c0-10.769-3.182-21.334-9.201-30.554a2 2 0 0 1 1.675-3.094h182.3V289.426c-8.94 4.969-18.881 7.58-28.96 7.58-35.196 0-63.831-31.223-63.831-69.601s28.634-69.602 63.831-69.602c10.079 0 20.02 2.611 28.96 7.581V4H339.655c6.366 9.829 9.712 21.002 9.712 32.544 0 35.196-31.223 63.831-69.601 63.831s-69.601-28.634-69.601-63.831c0-11.542 3.346-22.715 9.712-32.544H39.39z" fill="#531CB3"/><path d="M165.678 168.658c-118.249 14.469-106.29 96.55-63.184 113.332 30.689 11.948 65.383-10.11 97.608-3.315 29.35 6.189 55.393 38.551 86.787 30.237 9.698-2.569 18.012-9.108 27.767-11.451 11.128-2.672 22.703.389 34.032 2.008 42.401 6.06 45.83-25.886 35.33-45.482-12.218-22.803-46.298-41.604-40.677-70.691 1.62-8.384 6.809-15.634 9.409-23.768 4.76-14.892-.253-32.418-12.167-42.542-19.097-16.228-70.364-29.594-88.557-18.074-37.304 23.62-23.739 62.087-86.348 69.748z" fill="#531CB3"/><path d="M276.497 312.266c-15.615 0-29.995-8.416-43.989-16.605-10.651-6.232-21.664-12.677-32.818-15.029-14.447-3.047-29.812-.055-44.672 2.838-17.775 3.462-36.155 7.041-53.249.384-21.036-8.189-34.234-30.647-31.381-53.401 1.883-15.016 10.395-28.618 24.615-39.337 16.628-12.534 40.325-20.758 70.432-24.441l.243 1.985-.243-1.985c37.405-4.577 46.949-20.49 57.054-37.337 6.699-11.169 13.626-22.719 28.467-32.115 8.775-5.558 25.34-6.151 45.448-1.63 18.53 4.166 35.954 11.78 45.474 19.869 12.527 10.646 17.782 29.017 12.777 44.675-1.141 3.569-2.757 6.965-4.321 10.249-2.13 4.475-4.143 8.701-5.029 13.29-3.508 18.15 9.686 32.511 22.445 46.398 6.752 7.35 13.734 14.948 18.031 22.969 5.711 10.659 8.024 26.347.317 37.364-4.767 6.813-15.179 14.26-37.692 11.042-2.271-.324-4.581-.711-6.814-1.085-8.822-1.478-17.944-3.004-26.468-.958-4.785 1.149-9.183 3.343-13.838 5.665-4.408 2.199-8.966 4.473-13.884 5.775a42.466 42.466 0 0 1-10.904 1.421zm-89.907-36.917c4.671 0 9.322.397 13.925 1.368 11.789 2.486 23.087 9.098 34.013 15.491 17.243 10.09 33.53 19.621 51.849 14.77 4.523-1.197 8.7-3.281 13.123-5.487 4.651-2.32 9.46-4.72 14.689-5.975 9.317-2.238 18.846-.641 28.063.901 2.21.37 4.495.753 6.719 1.071 16.234 2.317 27.937-.923 33.849-9.375 6.734-9.627 4.569-23.603-.564-33.184-4.059-7.575-10.564-14.655-17.451-22.151-13.43-14.617-27.318-29.732-23.428-49.864.983-5.088 3.201-9.745 5.345-14.249 1.506-3.164 3.064-6.437 4.122-9.747 4.527-14.164-.226-30.781-11.557-40.409-18.857-16.024-69.252-28.635-86.191-17.909-14.039 8.889-20.718 20.024-27.177 30.794-10.622 17.709-20.654 34.436-59.998 39.25-29.401 3.598-52.451 11.56-68.51 23.665-13.336 10.053-21.308 22.723-23.053 36.64-2.628 20.961 9.51 41.644 28.863 49.178 16.014 6.232 33.025 2.923 51.034-.583 10.645-2.072 21.543-4.194 32.336-4.194z" fill="#531CB3"/><path d="M381.639 452.805h-43.801c6.047 9.259 9.533 20.088 9.533 31.655 0 34.14-30.275 61.824-67.608 61.824s-67.597-27.684-67.597-61.824c0-11.567 3.476-22.396 9.523-31.655H37.387c0-58.301-2.895-140.117 34.787-173.267 29.33-25.802 59.208-40.711 59.208-40.711 11.408-6.752 29.348-13.579 50.563-17.129 36.142-6.057 81.807-2.591 121.036 26.988v.011c5.615 4.224 10.882 9.206 16.391 14.337 30.106 28.042 47.414 67.312 55.967 106.942 6.215 28.811 7.795 57.811 6.3 82.829z" fill="#E2D8F4"/><path d="M279.764 548.284c-38.376 0-69.597-28.632-69.597-63.824 0-10.368 2.74-20.547 7.955-29.655H37.387a2 2 0 0 1-2-2c0-3.801-.012-7.702-.025-11.684-.185-58.585-.415-131.497 35.491-163.085 28.52-25.089 57.956-40.148 59.569-40.965 13.176-7.785 31.829-14.105 51.194-17.346 26.363-4.419 77.343-6.74 122.57 27.364.05.037.097.076.142.118 5.269 3.979 10.146 8.525 15.307 13.337l1.101 1.025c27.228 25.361 46.786 62.701 56.559 107.983 7.329 33.975 7.494 64.09 6.341 83.37a2 2 0 0 1-1.997 1.881h-40.232c5.221 9.116 7.965 19.296 7.965 29.655 0 35.192-31.226 63.824-69.608 63.824zM39.386 450.805H221.69a2 2 0 0 1 1.675 3.094c-6.017 9.214-9.197 19.782-9.197 30.562 0 32.987 29.427 59.824 65.597 59.824s65.608-26.837 65.608-59.824c0-10.769-3.184-21.337-9.208-30.562a2 2 0 0 1 1.675-3.094h41.911c1.014-19.078.635-47.96-6.365-80.407-9.6-44.479-28.749-81.099-55.375-105.899l-1.102-1.027c-5.128-4.781-9.973-9.297-15.128-13.175a2.394 2.394 0 0 1-.144-.119c-43.997-33.089-93.658-30.813-119.359-26.506-18.926 3.167-37.105 9.318-49.875 16.877a1.692 1.692 0 0 1-.125.068c-.297.148-30 15.105-58.78 40.424-34.543 30.388-34.316 102.292-34.133 160.068.01 3.291.021 6.526.024 9.696z" fill="#531CB3"/><path d="M381.639 452.805h-43.801c6.047 9.259 9.533 20.088 9.533 31.655 0 34.14-30.275 61.824-67.608 61.824s-67.597-27.684-67.597-61.824c0-11.567 3.476-22.396 9.523-31.655h-62.857a119.503 119.503 0 0 0 7.416-5.646c12.525-10.271 25.587-22.206 41.757-23.048 11.946-.622 23.48 5.077 35.436 4.856 27.547-.527 45.054-29.327 63.341-44.401 23.681-19.509 53.176-21.816 68.555-14.59 6.215 28.811 7.795 57.811 6.3 82.829z" fill="#531CB3"/><path d="M279.764 548.284c-38.376 0-69.597-28.632-69.597-63.824 0-10.368 2.74-20.547 7.955-29.655h-59.288a1.999 1.999 0 0 1-1.147-3.638 117.522 117.522 0 0 0 7.292-5.552c1.026-.842 2.053-1.692 3.085-2.546 11.962-9.905 24.332-20.147 39.839-20.955 6.441-.338 12.735 1.081 18.823 2.451 5.726 1.288 11.133 2.49 16.681 2.402 19.197-.367 33.289-15.04 46.917-29.23 5.198-5.413 10.109-10.526 15.189-14.714 24.134-19.883 54.428-22.492 70.678-14.857.564.266.973.779 1.104 1.389 7.329 33.975 7.494 64.09 6.341 83.37a2 2 0 0 1-1.997 1.881h-40.232c5.221 9.116 7.965 19.296 7.965 29.655 0 35.192-31.226 63.824-69.608 63.824zm-114.866-97.479h56.792a2 2 0 0 1 1.675 3.094c-6.017 9.214-9.197 19.782-9.197 30.562 0 32.987 29.427 59.824 65.597 59.824s65.608-26.837 65.608-59.824c0-10.769-3.184-21.337-9.208-30.562a2 2 0 0 1 1.675-3.094h41.911c1.003-18.885.643-47.376-6.154-79.421-15.345-6.604-43.118-3.746-65.54 14.726-4.901 4.04-9.733 9.071-14.848 14.397-13.531 14.09-28.869 30.061-49.726 30.46-6.031.099-11.928-1.217-17.634-2.5-6.092-1.371-11.844-2.661-17.737-2.359-14.184.739-26.035 10.552-37.496 20.041-1.037.858-2.069 1.713-3.097 2.557a126.7 126.7 0 0 1-2.62 2.1z" fill="#531CB3"/><path d="M266.575 294.331c-45.933-2.317-85.928-47.608-84.634-72.629 36.146-6.057 81.807-2.588 121.041 26.99v.011c7.884 21.128-1.49 47.379-36.407 45.628z" fill="#E2D8F4"/><path d="M269.881 296.415a67.6 67.6 0 0 1-3.407-.087c-23.738-1.197-48.963-14.155-67.478-34.664-12.511-13.857-19.634-28.836-19.053-40.065a1.999 1.999 0 0 1 1.667-1.869c26.361-4.42 77.339-6.737 122.575 27.365.344.259.591.618.712 1.021 4.605 12.439 3.309 25.387-3.476 34.656-4.642 6.341-13.835 13.643-31.54 13.643zm-3.207-4.081c14.378.721 25.281-3.403 31.519-11.924 5.913-8.079 7.062-19.436 3.108-30.479-43-32.138-91.32-30.632-117.384-26.523.234 9.919 7.015 23.356 18.048 35.577 17.817 19.735 42.01 32.202 64.709 33.35z" fill="#531CB3"/><path d="M204.192 240.909S265.217 113.365 272.841 95.1c10.657-25.531 71.486-51.629 86.805 14.751 14.976 64.895-31.146 99.345-74.264 90.835l-9.136 61.215-72.053-20.992z" fill="#E2D8F4"/><path d="M276.248 263.901a2 2 0 0 1-1.981-2.294l9.136-61.215a2 2 0 0 1 2.365-1.667c21.194 4.18 42.475-2.227 56.925-17.146 16.379-16.91 21.708-42.224 15.003-71.276-7.234-31.35-23.904-39.21-36.615-40.285-19.684-1.657-40.729 12.278-46.396 25.854-7.556 18.103-68.081 144.625-68.691 145.901a2 2 0 0 1-3.608-1.727c.61-1.275 61.091-127.706 68.608-145.716 6.209-14.876 28.443-30.157 50.424-28.299 11.49.971 31.989 7.897 40.175 43.37 7.02 30.42 1.328 57.041-16.027 74.96-14.928 15.413-36.665 22.31-58.512 18.663l-8.832 59.172a2 2 0 0 1-1.976 1.705z" fill="#531CB3"/><ellipse cx="361.149" cy="147.006" fill="#fff" rx="10.496" ry="18.723" transform="matrix(.19729804 -.98034355 .98034355 .19729804 145.778 472.052)"/><path d="M365.427 159.949c-2.149 0-4.418-.224-6.744-.691-5.233-1.054-9.949-3.209-13.28-6.069-3.649-3.134-5.271-6.781-4.569-10.271.702-3.489 3.609-6.225 8.186-7.702 4.178-1.352 9.361-1.513 14.594-.46 11.392 2.294 19.232 9.471 17.85 16.34-1.1 5.467-7.662 8.854-16.037 8.854zm-8.551-21.883c-2.402 0-4.659.319-6.627.955-3.093.999-5.096 2.707-5.494 4.686s.787 4.329 3.253 6.446c2.82 2.422 6.891 4.263 11.463 5.183 9.806 1.976 17.26-1.008 18.07-5.029.81-4.022-4.911-9.654-14.718-11.629a30.285 30.285 0 0 0-5.948-.611z" fill="#531CB3"/><ellipse cx="307.25" cy="133.957" fill="#fff" rx="10.496" ry="18.723" transform="matrix(.19729804 -.98034355 .98034355 .19729804 115.306 408.738)"/><path d="M311.513 146.894c-2.181 0-4.449-.229-6.728-.687-5.233-1.054-9.949-3.209-13.28-6.069-3.649-3.134-5.271-6.78-4.569-10.27s3.609-6.225 8.186-7.702c4.178-1.351 9.361-1.513 14.594-.46 5.233 1.054 9.949 3.209 13.281 6.069 3.649 3.134 5.271 6.78 4.569 10.27s-3.61 6.226-8.186 7.703c-2.359.762-5.039 1.146-7.866 1.146zm-8.535-21.877c-2.403 0-4.658.319-6.627.955-3.094.999-5.096 2.707-5.494 4.686s.788 4.328 3.254 6.446c2.82 2.421 6.891 4.262 11.464 5.182 4.573.921 9.04.799 12.576-.344 3.093-.999 5.096-2.706 5.494-4.686.398-1.979-.788-4.328-3.254-6.446-2.82-2.421-6.891-4.262-11.464-5.182a30.303 30.303 0 0 0-5.949-.611zm28.931 45.64a5.274 5.274 0 0 1-3.353-1.17 2 2 0 0 1 2.514-3.112c.389.315.906.368 1.536.159 1.124-.371 2.145-1.435 2.427-2.528.58-2.244-.272-4.74-1.173-7.382l-.224-.658c-1.073-3.18-2.049-7.277-.064-10.771a2 2 0 1 1 3.478 1.977c-1.201 2.113-.429 5.127.376 7.516l.219.646c1.002 2.938 2.139 6.27 1.26 9.673-.617 2.393-2.645 4.533-5.044 5.326a6.214 6.214 0 0 1-1.952.324z" fill="#531CB3"/><path d="M264.026 122.112c-8.258-20.175-42.861-4.672-13.687 26.624z" fill="#E2D8F4"/><g fill="#531CB3"><path d="M248.835 149.006a1.998 1.998 0 0 1-1.524-.703c-13.519-15.88-10.707-26.264-8.871-29.991 2.294-4.656 7.004-7.493 11.982-7.254 5.406.271 9.959 3.977 12.178 9.914a1.999 1.999 0 0 1-1.173 2.573 1.998 1.998 0 0 1-2.574-1.173c-1.667-4.46-4.814-7.128-8.632-7.319-3.44-.166-6.582 1.754-8.194 5.026-1.487 3.019-3.652 11.558 8.329 25.63a1.999 1.999 0 0 1-1.522 3.297z"/><path d="M269.97 72.103c12.375-59.41 68.542-47.071 49.233-15.788 41.946-36.815 42.238 18.928 51.648 28.714 10.638 11.063 33.19-4.255 19.999-23.403 17.446 5.532 23.256 28.142 16.169 41.275-18.259 33.839-68.545 27-63.621-.07-15.561 30.863-44.542-.323-44.651-.386-8.743-5.075-17.237.943-21.083 9.818-4.816 11.112-.855 17.762-8.42 27.083-3.985 4.909-14.213 6.976-11.74 1.157 5.001-11.766 7.899-16.161 3.224-18.83-57.223-32.675 1.192-75.364 9.242-49.569z"/><path d="M259.871 146.05c-1.112 0-2.125-.221-2.947-.716-.681-.41-2.785-2.027-1.26-5.614a405.826 405.826 0 0 1 2.001-4.614c3.969-9.048 4.221-10.469 2.072-11.697-26.708-15.25-27.188-31.556-25.097-39.917 3.206-12.818 15.136-21.038 24.351-21.303 4.288-.108 7.822 1.412 10.249 4.327 8.118-30.407 26.851-36.586 32.643-37.774 8.666-1.776 16.577.734 20.646 6.555 2.749 3.933 3.359 8.904 1.878 14.266 8.991-6.531 16.545-8.864 22.962-7.126 10.842 2.938 15.472 16.847 19.191 28.023 1.89 5.679 3.676 11.043 5.734 13.184 4.506 4.687 11.243 3.564 15.568.033 4.651-3.796 7.793-11.551 1.342-20.916a2 2 0 0 1 2.252-3.041c8.078 2.561 14.442 8.705 17.919 17.3 3.669 9.07 3.442 19.351-.594 26.831-11.436 21.192-35.598 27.777-52.353 21.902-8.41-2.95-13.746-8.75-15.045-15.905-3.702 4.78-8.149 7.593-13.281 8.386-13.658 2.104-27.635-11.19-30.583-14.188-2.777-1.545-5.593-1.864-8.372-.95-3.891 1.28-7.497 5.005-9.646 9.961-1.925 4.442-2.364 8.137-2.789 11.71-.612 5.152-1.19 10.02-5.914 15.839-2.419 2.979-7.217 5.444-10.926 5.444zm-.739-4.075c1.268.442 6.146-.917 8.559-3.891 3.993-4.92 4.482-9.03 5.047-13.789.437-3.68.933-7.85 3.091-12.828 2.634-6.078 7.032-10.514 12.065-12.171 3.93-1.292 8.03-.804 11.857 1.419.24.14.376.278.52.426 2.457 2.517 15.319 14.974 27.219 13.14 5.682-.878 10.433-5.033 14.123-12.351a2 2 0 0 1 3.753 1.259c-1.547 8.503 3.083 15.527 12.385 18.79 15.171 5.322 37.087-.715 47.508-20.028 3.433-6.36 3.592-15.558.407-23.431-2.224-5.496-5.775-9.829-10.254-12.61 3.412 8.735.333 16.497-5.021 20.866-5.746 4.689-14.797 6.072-20.981-.36-2.685-2.792-4.52-8.307-6.646-14.692-3.418-10.269-7.671-23.05-16.442-25.426-6.422-1.74-15.104 2.135-25.799 11.521a2 2 0 0 1-3.021-2.554c4.265-6.911 4.886-13.188 1.749-17.677-3.092-4.423-9.594-6.357-16.564-4.928-5.503 1.129-23.986 7.34-30.758 39.851a2 2 0 0 1-3.867.188c-1.73-5.545-5.82-6.604-8.956-6.511-7.79.224-17.921 7.62-20.585 18.274-3.136 12.542 5.103 25.141 23.2 35.475 5.572 3.182 3.327 8.299-.392 16.776-.608 1.387-1.274 2.905-1.983 4.572a2.826 2.826 0 0 0-.213.69zm62.469 42.041c-.189 0-.381-.027-.571-.084l-23.385-6.959a2 2 0 0 1 1.14-3.834l23.385 6.959a2 2 0 0 1-.569 3.918z"/><circle cx="309.074" cy="136.526" r="7.901"/><path d="M309.074 146.426c-5.459 0-9.901-4.441-9.901-9.9s4.441-9.9 9.901-9.9 9.901 4.441 9.901 9.9-4.441 9.9-9.901 9.9zm0-15.801c-3.254 0-5.901 2.646-5.901 5.9s2.647 5.9 5.901 5.9 5.901-2.646 5.901-5.9-2.647-5.9-5.901-5.9z"/><circle cx="361.149" cy="149.52" r="7.901"/><path d="M361.149 159.42c-5.459 0-9.901-4.441-9.901-9.9s4.441-9.9 9.901-9.9 9.9 4.441 9.9 9.9-4.441 9.9-9.9 9.9zm0-15.801c-3.254 0-5.901 2.646-5.901 5.9s2.647 5.9 5.901 5.9 5.9-2.646 5.9-5.9-2.647-5.9-5.9-5.9zm-75.767 57.067c-10.3-1.783-16.79-5.838-23.49-9.752-3.752-2.192-5.771 2.198 0 9.068s21.47 15.938 21.47 15.938l2.021-15.255z"/><path d="M283.361 217.94a1.99 1.99 0 0 1-1-.269c-.653-.377-16.072-9.325-22-16.384-4.75-5.654-4.716-9.718-3.1-11.635 1.021-1.212 3.039-1.966 5.64-.446l1.112.65c6.344 3.721 12.337 7.235 21.711 8.858a2 2 0 0 1 1.641 2.233l-2.021 15.254a2 2 0 0 1-1.983 1.737zm-23.076-25.545c-.109.762.384 3.043 3.137 6.32 4.103 4.884 13.722 11.095 18.356 13.941l1.372-10.359c-9.039-1.88-15.196-5.49-21.162-8.989l-1.106-.648a2.484 2.484 0 0 0-.597-.265z"/></g><path d="M273.875 323.962c7.16 2.299 30.21 5.632 35.684 6.897 6.467 1.494 6.582 7.701 0 7.931s-27.369-1.609-27.369-1.609z" fill="#E2D8F4"/><path d="M308.268 340.81c-7.659 0-25.453-1.565-26.255-1.637a1.999 1.999 0 0 1-1.517-.928l-8.315-13.219a1.998 1.998 0 0 1 2.304-2.969c4.471 1.436 15.501 3.316 24.364 4.828 4.91.837 9.15 1.56 11.159 2.024 4.761 1.1 6.666 4.334 6.421 6.874-.213 2.206-2.121 4.841-6.802 5.005-.406.014-.862.021-1.361.021zm-24.915-5.536c4.195.359 20.561 1.708 26.136 1.518 1.948-.068 2.9-.769 2.959-1.39.071-.74-.918-2.034-3.34-2.595-1.896-.438-6.083-1.151-10.931-1.979-6.602-1.125-14.388-2.453-19.937-3.683l5.113 8.128z" fill="#531CB3"/><path d="M258.807 322.852c4.792-2.444 9.976-4.63 14.447-.903 5.056 4.215 12.884 9.634 15.292 14.652 1.053 2.194-4.817 6.824-9.634 6.824s-25.704-14.024-20.105-20.573z" fill="#E2D8F4"/><path d="M278.912 345.424c-4.702 0-18.857-9.249-22.202-16.509-1.655-3.592-.6-5.986.577-7.363a1.99 1.99 0 0 1 .612-.481c4.043-2.063 10.811-5.516 16.636-.658 1.017.848 2.147 1.744 3.322 2.677 4.863 3.859 10.375 8.233 12.492 12.646.319.665.683 2.054-.469 3.883-1.765 2.804-6.594 5.807-10.969 5.807zm-18.792-20.995c-.26.425-.499 1.244.223 2.813 2.906 6.307 15.792 14.183 18.569 14.183 3.448 0 7.264-2.915 7.724-4.173-1.825-3.537-7.051-7.684-11.266-11.029a182.794 182.794 0 0 1-3.397-2.737c-3.096-2.581-6.711-1.636-11.854.944z" fill="#531CB3"/><path d="M249.174 324.548c5.232-2.668 10.892-5.055 15.773-.986 5.52 4.602 14.066 10.518 16.696 15.997 1.15 2.395-5.259 7.45-10.518 7.45s-28.063-15.311-21.95-22.461z" fill="#E2D8F4"/><path d="M271.125 349.009c-5.096 0-20.443-10.038-24.073-17.918-1.766-3.834-.647-6.381.603-7.843.17-.199.378-.363.612-.481 4.375-2.231 11.696-5.965 17.962-.741 1.111.926 2.345 1.905 3.63 2.925 5.294 4.201 11.294 8.963 13.588 13.742.332.691.708 2.139-.501 4.062-1.901 3.021-7.104 6.255-11.82 6.255zm-20.647-22.879c-.316.484-.645 1.438.207 3.287 3.194 6.934 17.381 15.592 20.44 15.592 3.927 0 8.259-3.39 8.634-4.752-1.978-3.912-7.742-8.487-12.387-12.174a199.778 199.778 0 0 1-3.704-2.985c-3.466-2.891-7.481-1.836-13.189 1.032z" fill="#531CB3"/><path d="M138.288 358.219c-41.09 20.13-41.26 60.43-26.04 71.37 14.96 10.75 53.25-2.44 84.7-52.2 7.57-12.88 14.604-31.566 17.839-35.609 9.391-11.739 13.715-12.681 26.321-17.341 5.785-2.139 11.56-2.89 15.55.44 7.89 6.57 18.31 13.83 19.39 17.75 1.4 5.05-11.28 10.95-21.29 13.73-6.32 5.15-12.2 9.94-17.3 15.97-5.1 6.04-9.44 13.33-12.65 23.5-2.76 16.55-7.27 31.12-9.25 37.31-19.36 60.47-74.92 86.81-129.71 82.9-45.28-3.23-104.53-60.96-76.69-146.09 19.56-59.82 79.04-110.34 122.21-131.11z" fill="#E2D8F4"/><path d="M96.256 518.41c-3.506 0-7.024-.125-10.55-.376-24.4-1.741-50.728-18.58-67.073-42.9-19.944-29.674-23.984-67.25-11.375-105.807 8.984-27.476 27.221-55.482 52.738-80.991 21.297-21.291 46.995-39.988 70.505-51.3a2.001 2.001 0 0 1 1.734 3.606C85.83 262.967 29.306 314.766 11.059 370.572c-12.218 37.359-8.349 73.701 10.893 102.331 15.684 23.336 40.821 39.485 64.038 41.142 60.321 4.31 110.431-27.691 127.663-81.515 4.168-13.03 7.258-25.489 9.182-37.029a1.89 1.89 0 0 1 .065-.272c3.012-9.542 7.152-17.229 13.029-24.188 5.216-6.168 11.205-11.049 17.546-16.216a2.11 2.11 0 0 1 .747-.392c12.039-3.343 20.582-8.803 19.898-11.269-.643-2.333-7.291-7.599-12.633-11.829-2.045-1.62-4.16-3.295-6.11-4.918-3.169-2.646-7.895-1.639-13.746-.048-13.186 3.585-19.408 7.77-26.63 17.906-1.18 1.656-3.052 6.001-5.219 11.031-3.013 6.993-6.763 15.697-11.112 23.097-19.404 30.702-44.266 51.585-66.539 55.916-8.615 1.676-15.895.602-21.052-3.105-7.139-5.132-10.956-15.677-9.961-27.519 1.619-19.262 15.185-36.933 36.288-47.271a2 2 0 0 1 1.76 3.592c-19.828 9.714-32.562 26.168-34.062 44.015-.865 10.29 2.397 19.686 8.309 23.936 4.18 3.004 10.557 3.866 17.955 2.427 21.212-4.124 45.095-24.338 63.887-54.071 4.188-7.129 7.884-15.706 10.853-22.598 2.351-5.456 4.208-9.766 5.635-11.769 7.762-10.896 14.769-15.62 28.839-19.445 5.496-1.495 12.337-3.355 17.356.835 1.91 1.59 4.005 3.25 6.032 4.854 8.098 6.414 13.082 10.55 14.005 13.899 2.369 8.547-18.912 15.095-22.274 16.071-6.093 4.966-11.828 9.67-16.717 15.451-5.496 6.51-9.384 13.719-12.228 22.678-1.958 11.69-5.084 24.289-9.295 37.45-9.237 28.851-27.376 51.917-52.458 66.706-19.864 11.713-43.945 17.956-68.75 17.956z" fill="#531CB3"/><path d="M253.393 358.39c-6.789 0-11.916-1.963-14.188-5.475-1.293-1.998-1.531-3.991-.654-5.469.917-1.542 2.781-2.221 5.542-2.007 2.246.167 5.002-.287 7.217-.849-2.897-.95-6.915-2.161-10.643-3.219-1.063-.301-1.68-1.407-1.378-2.47s1.406-1.681 2.47-1.378c.039.011 3.929 1.115 7.756 2.301 8.037 2.488 9.306 3.034 9.017 5.056-.46 3.218-11.477 4.801-14.743 4.547-1.03-.078-1.537.029-1.75.103.035.231.176.674.525 1.212 1.25 1.933 5.085 3.895 12.12 3.622 1.109-.023 2.034.816 2.077 1.919a2 2 0 0 1-1.92 2.077c-.491.02-.974.029-1.449.029z" fill="#531CB3"/><path d="M224.808 395.829c-2.76 16.55-7.27 31.12-9.25 37.31-19.36 60.47-74.92 86.81-129.71 82.9-13.02-.93-27.2-6.36-40.13-15.67-32.03-23.03-56.39-69.77-36.56-130.42 16.22-49.61 59.89-92.82 98.95-117.97 8.04-5.18 15.89-9.6 23.26-13.14l6.92 119.38c-41.09 20.13-41.26 60.43-26.04 71.37 14.96 10.75 53.25-2.44 84.7-52.2 2.77 13.3 16.08 22.3 27.86 18.44z" fill="#E2D8F4"/><path d="M108.108 251.979c-.46.71-.94 1.43-1.43 2.15-5.41 7.95-7.49 17.67-13.07 25.52-9.6 13.52-28.89 19.89-33.54 35.8-1.06 3.59-1.22 7.39-2.1 11.03-3.78 15.7-18 23.18-30.71 54.15-5.75 14.01-5.16 19.8-1.56 33.41 6.86 25.94 14.21 21.7 20.7 32.34 7.79 12.77-1.92 26.26-.68 53.99-32.03-23.03-56.39-69.77-36.56-130.42 16.22-49.61 59.89-92.82 98.95-117.97z" fill="#fff"/><path d="M96.254 518.41c-3.506 0-7.022-.125-10.548-.376-24.4-1.741-50.728-18.58-67.073-42.9-19.944-29.675-23.984-67.251-11.375-105.808 8.984-27.476 27.221-55.481 52.738-80.991 21.297-21.29 46.995-39.987 70.505-51.299a2.001 2.001 0 0 1 1.734 3.606C85.83 262.967 29.306 314.766 11.059 370.571-1.159 407.93 2.71 444.273 21.952 472.903c15.684 23.336 40.821 39.485 64.038 41.142 3.615.258 7.205.386 10.742.386 55.478.004 100.722-31.305 116.921-81.9 3.812-11.916 6.721-23.353 8.662-34.047-4.836.767-9.899-.229-14.548-2.919-5.26-3.042-9.297-7.81-11.495-13.446-24.701 37.34-51.948 51.854-69.556 52.897-6.242.375-11.649-.94-15.635-3.801-4.162-2.988-7.33-8.019-8.92-14.164-4.821-18.519 4.151-45.393 35.247-60.627a2 2 0 0 1 1.76 3.592c-29.079 14.247-37.56 39.031-33.135 56.03 1.357 5.244 3.978 9.477 7.381 11.919 3.23 2.319 7.748 3.377 13.064 3.059 16.398-.972 44.249-15.881 68.779-54.702a2.001 2.001 0 0 1 3.649.661c1.31 6.292 5.372 11.944 10.864 15.121 4.661 2.695 9.78 3.344 14.415 1.826a1.999 1.999 0 0 1 2.595 2.23c-1.956 11.73-5.091 24.378-9.318 37.591-9.237 28.851-27.376 51.917-52.458 66.706-19.864 11.712-43.947 17.955-68.752 17.956z" fill="#531CB3"/><path d="m126.598 433.019-15.58 18.1c-5.01 5.82-13.79 6.48-19.61 1.47a13.874 13.874 0 0 1-4.83-10.54c0-3.21 1.11-6.44 3.37-9.07l14.15-16.43c1.47 5.68 4.32 10.29 8.15 13.04 3.58 2.57 8.51 3.78 14.35 3.43z" fill="#531CB3"/><path d="M100.466 457.948a15.827 15.827 0 0 1-10.362-3.843 15.902 15.902 0 0 1-1.672-22.43l14.151-16.431a2.004 2.004 0 0 1 1.969-.644 2.003 2.003 0 0 1 1.483 1.447c1.357 5.241 3.978 9.474 7.38 11.916 3.231 2.32 7.748 3.375 13.063 3.059.81-.056 1.555.388 1.912 1.108s.248 1.583-.276 2.192l-15.58 18.101c-3.142 3.649-7.594 5.523-12.068 5.523zm2.82-37.391-11.822 13.727a11.907 11.907 0 0 0 1.251 16.791c4.973 4.281 12.505 3.716 16.789-1.26l12.763-14.828c-4.368-.338-8.18-1.616-11.184-3.772-3.339-2.397-6.038-6.109-7.796-10.657z" fill="#531CB3"/><path d="M473.112 310.8H312.1l-71.382 173.088H401.73z" fill="#fff"/><path d="M401.73 485.888H240.718a2 2 0 0 1-1.849-2.763l71.382-173.088a2 2 0 0 1 1.849-1.237h161.012a2 2 0 0 1 1.849 2.763l-71.382 173.088a2 2 0 0 1-1.849 1.237zm-158.024-4h156.685L470.123 312.8H313.438z" fill="#531CB3"/><path d="m446.157 376.175-15.256 36.993c-7.848-1.226-31.582-2.675-37.959-2.675s-9.075 4.415 1.717 7.848c10.792 3.434 30.877 7.837 30.877 7.837 3.501.321 7.172.048 10.746-.919l.023-.002-.002-.004c8.838-2.398 17.076-9.06 20.654-21.628 5.743-20.172-10.798-27.451-10.798-27.451z" fill="#E2D8F4"/><path d="M428.369 428.309c-1.002 0-2.008-.046-3.016-.139a1.85 1.85 0 0 1-.246-.038c-.824-.18-20.299-4.462-31.055-7.884-7.737-2.463-8.976-5.463-8.652-7.545.397-2.558 3.357-4.21 7.542-4.21 5.9 0 27.361 1.254 36.703 2.477l14.664-35.558a2.002 2.002 0 0 1 2.655-1.069c.181.08 18.066 8.231 11.916 29.829-3.374 11.853-11.159 20.008-21.927 22.977a1.98 1.98 0 0 1-.251.068 32.196 32.196 0 0 1-8.332 1.091zm-2.529-4.11c3.315.288 6.738-.01 9.906-.866l.031-.009c9.428-2.558 16.266-9.748 19.254-20.246 4.119-14.464-4.057-21.609-7.882-24.065l-14.4 34.919a2 2 0 0 1-2.158 1.213c-7.909-1.235-31.648-2.65-37.651-2.65-2.079 0-3.213.541-3.539.831.288.499 1.727 1.796 5.862 3.111 10.144 3.228 28.875 7.387 30.576 7.763z" fill="#531CB3"/><path d="M439.694 420.052c-5.947 3.035-21.875-2.587-29.695-4.428s-7.316-10.845-15.365-19.593c-8.048-8.748-.619-7.794 6.616-3.028 7.236 4.766 10.688 7.778 12.389 11.04s33.589.319 33.589.319l-6.126 5.517s3.27 7.786-1.408 10.173z" fill="#E2D8F4"/><path d="M431.196 420.856c-7.846 0-14.529-1.591-20.185-2.937l-1.471-.349c-5.435-1.279-7.562-5.517-9.813-10.002-1.577-3.143-3.364-6.704-6.565-10.184-2.62-2.847-5.363-6.424-3.315-8.832 2.831-3.327 10.913 1.731 12.504 2.779 7.527 4.958 11.078 8.125 12.95 11.574 2.235 1.318 15.256 1.279 26.272.474a2.007 2.007 0 0 1 2.141 1.85 2 2 0 0 1-1.849 2.141c-.066.005-6.735.487-13.525.562-13.692.154-15.647-1.382-16.473-2.965-1.492-2.861-4.667-5.651-11.716-10.295-2.799-1.843-5.154-2.786-6.524-3.118.402.657 1.137 1.663 2.479 3.122 3.582 3.894 5.586 7.888 7.197 11.098 2.326 4.634 3.7 7.09 7.154 7.902l1.481.352c7.634 1.817 16.286 3.879 27.143 2.238a1.996 1.996 0 0 1 2.276 1.679 2 2 0 0 1-1.679 2.276 56.635 56.635 0 0 1-8.481.635z" fill="#531CB3"/><path d="M444.512 409.011c-6.537 3.336-24.046-2.844-32.642-4.867s-8.042-11.921-16.889-21.537-.681-8.567 7.273-3.329c7.954 5.239 11.749 8.55 13.619 12.136s36.922.351 36.922.351l-6.734 6.065s3.594 8.558-1.548 11.182z" fill="#E2D8F4"/><path d="M439.23 411.97c-6.271 0-14.545-2.285-21.58-4.229-2.312-.639-4.496-1.241-6.239-1.651-5.884-1.385-8.095-5.79-10.654-10.891-1.739-3.466-3.71-7.394-7.249-11.238-2.824-3.069-5.79-6.917-3.64-9.445 3.005-3.536 11.76 1.956 13.484 3.092 8.283 5.455 12.165 8.924 14.2 12.706 2.189 1.405 15.917 1.169 27.584.05 1.101-.093 2.076.701 2.182 1.801s-.7 2.076-1.8 2.182c-.07.006-7.044.669-14.158.882-14.313.419-16.416-1.268-17.263-2.89-1.659-3.181-5.167-6.268-12.945-11.391-3.427-2.257-6.231-3.29-7.676-3.55.383.713 1.207 1.934 2.975 3.854 3.918 4.259 6.115 8.636 7.88 12.153 2.368 4.718 3.932 7.834 7.996 8.79 1.818.429 4.038 1.042 6.388 1.69 8.122 2.244 20.397 5.632 24.887 3.344a1.999 1.999 0 1 1 1.817 3.562c-1.638.836-3.765 1.178-6.19 1.178z" fill="#531CB3"/><path d="M448.373 399.927c-5.947 3.035-21.875-2.587-29.695-4.428s-7.316-10.845-15.365-19.593c-8.048-8.748-.619-7.794 6.616-3.028 7.236 4.766 10.688 7.778 12.389 11.04s26.646 1.134 26.646 1.134l.816 4.703s3.27 7.786-1.408 10.173z" fill="#E2D8F4"/><path d="M443.569 402.798c-5.736 0-13.269-2.08-19.675-3.85-2.103-.581-4.09-1.13-5.674-1.502-5.435-1.279-7.562-5.517-9.813-10.003-1.577-3.142-3.364-6.703-6.565-10.183-2.62-2.848-5.363-6.424-3.315-8.832 2.83-3.329 10.912 1.731 12.503 2.779 7.534 4.962 11.084 8.13 12.956 11.585 2.102 1.249 14.4 1.153 24.81.265a2.006 2.006 0 0 1 2.163 1.823 2 2 0 0 1-1.823 2.163c-.063.005-6.376.539-12.816.663-13.045.249-14.981-1.346-15.773-2.864-1.493-2.862-4.668-5.652-11.716-10.295-2.799-1.843-5.153-2.785-6.523-3.118.402.657 1.137 1.663 2.479 3.122 3.582 3.893 5.586 7.888 7.197 11.098 2.325 4.634 3.7 7.09 7.154 7.902 1.658.391 3.681.949 5.822 1.541 7.36 2.031 18.484 5.102 22.505 3.053a2 2 0 1 1 1.818 3.562c-1.516.773-3.479 1.09-5.713 1.09z" fill="#531CB3"/></svg></g><g transform="translate(486.0 33.0) rotate(0.0 329.0 311.0) scale(0.9647089525870474 0.9615726505239953)"><svg width="682.071" height="646.857" viewBox="0 0 682.071 646.857"><path d="M680.071 98.455H493.709c7.314-9.879 11.588-21.795 11.588-34.625 0-34.148-30.266-61.83-67.601-61.83s-67.601 27.682-67.601 61.83c0 12.83 4.274 24.746 11.588 34.625H195.322v166.467c-9.107-5.774-19.676-9.095-30.961-9.095-34.148 0-61.83 30.266-61.83 67.601s27.682 67.601 61.83 67.601c11.285 0 21.854-3.322 30.961-9.095v167.332h185.751c-6.933 9.708-10.977 21.299-10.977 33.759 0 34.148 30.266 61.83 67.601 61.83s67.601-27.683 67.601-61.83c0-12.461-4.044-24.051-10.977-33.759h185.751V98.455z" fill="#E2D8F4"/><path d="M437.696 646.856c-38.378 0-69.601-28.634-69.601-63.83 0-11.207 3.18-22.11 9.231-31.76H195.321a2 2 0 0 1-2-2V385.449c-8.94 4.969-18.881 7.58-28.961 7.58-35.196 0-63.83-31.223-63.83-69.601s28.634-69.602 63.83-69.602c10.08 0 20.021 2.611 28.961 7.58V98.455a2 2 0 0 1 2-2H377.86c-6.401-9.849-9.765-21.05-9.765-32.625 0-35.196 31.223-63.83 69.601-63.83s69.601 28.634 69.601 63.83c0 11.575-3.364 22.776-9.765 32.625h182.539a2 2 0 0 1 2 2v450.812a2 2 0 0 1-2 2H498.066c6.051 9.649 9.231 20.553 9.231 31.76 0 35.196-31.223 63.83-69.601 63.83zm-240.375-99.59h183.751a2 2 0 0 1 1.627 3.162c-6.938 9.715-10.605 20.987-10.605 32.598 0 32.99 29.428 59.83 65.601 59.83s65.601-26.84 65.601-59.83c0-11.611-3.667-22.883-10.604-32.598a2 2 0 0 1 1.627-3.162H678.07V100.455H493.708a2.001 2.001 0 0 1-1.607-3.191c7.324-9.892 11.195-21.453 11.195-33.435 0-32.99-29.429-59.83-65.601-59.83s-65.601 26.84-65.601 59.83c0 11.981 3.871 23.543 11.195 33.435a2.002 2.002 0 0 1-1.607 3.191H197.321v164.467a2 2 0 0 1-3.071 1.689c-9.064-5.747-19.4-8.784-29.89-8.784-32.99 0-59.83 29.429-59.83 65.602s26.84 65.601 59.83 65.601c10.49 0 20.826-3.037 29.89-8.784a1.998 1.998 0 0 1 3.071 1.689v165.332z" fill="#531CB3"/><path d="M680.07 391.794v157.474H494.323c6.931 9.702 10.976 21.3 10.976 33.751 0 14.21-5.235 27.314-14.052 37.754-9.059 10.734-21.89 18.666-36.669 22.132-14.948-15.948-27.104-34.025-35.9-56.989a192.706 192.706 0 0 1-4.888-14.474c-7.563 3.677-23.449 9.185-43.684 12.241-.011-.221-.011-.442-.011-.664 0-12.452 4.045-24.049 10.977-33.751H240.505c-15.696-11.788-31.138-25.419-45.18-38.755-30.391-28.864-54.282-56.389-60.181-61.087-12.093-9.617-29.959-12.367-35.721-6.868-5.773 5.499-15.39 17.033-24.186 28.031-8.796 10.987-15.654 2.75-12.915-1.38 4.161-6.268 9.892-14.558 18.14-29.675-8.522 4.393-36.827 19.235-45.075 23.08-8.238 3.856-16.981 7.184-20.552-.242-9.122 4.782-16.265-2.497-6.373-8.817 9.891-6.32 48.362-32.434 42.315-29.959s-28.031 12.641-38.744 16.76c-10.713 4.129-14.01-3.571-4.119-8.237 9.891-4.678 52.48-28.579 66.227-34.352-4.951-2.749-18.687-12.093-21.437-24.734-2.749-12.641 3.023-13.189 8.796-4.951 5.762 8.248 15.106 15.116 28.305 18.139 13.189 3.023 21.384 7.237 33.245 11.819 1.896.727 5.657 2.496 10.871 5.014.011 0 .021 0 .032.011 13.336 6.446 36.121 17.781 61.371 29.2 39.408 17.824 84.82 35.848 109.649 35.848 4.919 0 9.912-1.559 15.148-4.298v-.011c29.264-15.327 65.764-67.639 135.563-90.951a208.914 208.914 0 0 1 13.231-3.939c17.623-4.656 37.238-7.427 59.191-7.427 22.459 0 42.747 1.549 61.045 4.161v.01c38.46 5.488 68.166 15.706 90.919 26.135z" fill="#FFF"/><path d="M468.915 368.914c-1.338 2.581-3.982 4.698-6.468 6.425a418.134 418.134 0 0 1-47.825 28.779c-7.037 3.613-14.263 7.089-20.236 12.261-5.52 4.782-9.765 10.829-14.579 16.317-10.513 11.956-23.712 21.184-36.785 30.285-7.11 4.951-14.411 9.997-22.774 12.262-7.679 2.086-15.769 1.696-23.712 1.296-16.581-.843-33.783-1.843-48.436-9.649-6.141-3.276-11.661-7.669-17.897-10.776-10.65-5.298-22.869-6.573-33.888-11.04-9.207-3.729-17.371-9.586-25.429-15.39-12.199-8.786-24.502-17.444-36.595-26.367a7.994 7.994 0 0 1-.337-.253c13.336 6.446 36.121 17.781 61.371 29.2 39.408 17.824 84.82 35.848 109.649 35.848 4.919 0 9.912-1.559 15.148-4.298v-.011c29.264-15.327 65.764-67.639 135.563-90.951a208.914 208.914 0 0 1 13.231-3.939zm25.408 180.354c6.931 9.702 10.976 21.3 10.976 33.751 0 14.21-5.235 27.314-14.052 37.754-5.13-6.499-12.42-12.852-23.07-18.329-13.305-6.826-14.885-29.938-8.617-41.515 19.688-36.364-3.108-49.436-5.467-65.206-3.708-24.724 33.34-47.013 56.399-38.987 12.199 4.246 22.269 18.466 20.225 33.014-1.085 7.753-5.33 14.853-5.056 22.701.495 13.979 14.063 21.616 23.828 36.817h-55.167z" fill="#E2D8F4"/><path d="M454.578 644.904a2 2 0 0 1-1.459-.632c-16.418-17.518-27.956-35.833-36.309-57.641a193.848 193.848 0 0 1-4.271-12.408c-8.493 3.755-23.755 8.661-42.135 11.437a2.01 2.01 0 0 1-1.565-.43 1.996 1.996 0 0 1-.731-1.449c-.013-.255-.013-.508-.013-.763 0-11.205 3.18-22.105 9.23-31.751h-136.82c-.433 0-.855-.141-1.201-.4-13.935-10.466-29.195-23.555-45.356-38.904-18.075-17.166-33.587-33.577-44.914-45.56-7.458-7.89-12.848-13.591-15.135-15.413-11.354-9.029-28.269-11.59-33.094-6.985-4.792 4.564-13.093 14.188-24.005 27.833-5.704 7.126-11.108 7.203-14.263 4.9-2.827-2.063-3.67-5.937-1.88-8.635l1.263-1.896c3.362-5.038 7.778-11.655 13.563-21.839l-2.403 1.249c-12.112 6.297-30.416 15.813-36.847 18.81-6.041 2.827-16.957 7.936-22.207.514-5.436 2.134-9.937.543-11.6-2.326-1.479-2.55-1.068-6.894 4.96-10.745 6.27-4.006 19.632-13.021 29.706-20.068-8.472 3.769-18.188 8.057-24.34 10.423-6.837 2.634-11.142.908-12.375-1.975-1.203-2.81.398-6.974 6.685-9.939 3.771-1.783 12.424-6.433 22.443-11.817 13.866-7.451 30.72-16.509 40.368-21.009-5.684-3.778-16.586-12.366-19.122-24.025-1.893-8.704.183-11.614 2.258-12.523 2.88-1.264 6.574.924 10.13 6 4.222 6.044 12.353 13.956 27.114 17.338 9.925 2.275 17.204 5.269 24.909 8.438 2.729 1.123 5.55 2.283 8.61 3.466 2.951 1.136 10.198 4.669 20.229 9.559 13.512 6.588 32.018 15.609 52.148 24.709 52.333 23.669 88.947 35.67 108.825 35.67 4.29 0 8.889-1.304 14.057-3.984.052-.034.107-.066.163-.096 9.845-5.156 20.763-14.799 33.406-25.964 25.065-22.137 56.26-49.686 102.451-65.113 22.788-7.61 47.367-11.469 73.055-11.469 21.26 0 41.894 1.406 61.328 4.182.069.01.137.022.204.039 33.235 4.761 63.088 13.354 91.267 26.268a2 2 0 0 1 1.167 1.818v157.474a2 2 0 0 1-2 2h-182c6.05 9.645 9.23 20.546 9.23 31.751 0 29.183-21.492 54.609-52.264 61.833a2.036 2.036 0 0 1-.457.053zm-40.788-75.463a2.004 2.004 0 0 1 1.919 1.434 191.326 191.326 0 0 0 4.837 14.325c8.026 20.955 19.067 38.616 34.698 55.484 28.356-7.142 48.057-30.703 48.057-57.666 0-11.609-3.667-22.879-10.604-32.588a2 2 0 0 1 1.627-3.163h183.747V393.079c-27.539-12.482-56.731-20.808-89.202-25.441a1.966 1.966 0 0 1-.203-.039c-19.188-2.729-39.561-4.112-60.56-4.112-25.257 0-49.41 3.789-71.788 11.263-45.42 15.17-76.276 42.421-101.07 64.317-12.767 11.274-23.802 21.021-34.029 26.42a2.379 2.379 0 0 1-.17.101c-5.82 3.045-11.079 4.525-16.075 4.525-20.45 0-57.619-12.121-110.473-36.025-20.182-9.123-38.718-18.16-52.252-24.758-9.941-4.847-17.124-8.348-19.916-9.423-3.102-1.198-5.944-2.367-8.692-3.498-7.876-3.239-14.678-6.036-24.281-8.238-12.667-2.901-22.867-9.452-29.498-18.943-2.824-4.03-4.912-4.773-5.248-4.629-.255.112-1.271 1.953.046 8.01 2.354 10.821 13.964 19.807 20.453 23.409a2 2 0 0 1-.197 3.592c-8.352 3.507-27.851 13.985-43.519 22.405-10.068 5.41-18.763 10.083-22.628 11.91-3.968 1.873-5.03 4.018-4.716 4.75.335.782 2.809 1.529 7.261-.186 6.751-2.596 17.958-7.587 26.964-11.597 5.1-2.271 9.504-4.232 11.741-5.148 2.05-.84 2.899.277 3.169.797.968 1.865-.463 2.914-5.788 6.819-3.029 2.221-7.409 5.314-12.667 8.946-10.112 6.983-20.75 14.094-25.193 16.933-3.411 2.179-4.293 4.266-3.654 5.367.783 1.35 4.006 2.098 8.021-.007.48-.25 1.043-.298 1.558-.127s.938.543 1.174 1.031c2.51 5.218 8.71 3.601 17.902-.702 6.356-2.963 24.614-12.454 36.695-18.734 3.47-1.804 6.392-3.322 8.311-4.312a2 2 0 0 1 2.672 2.735c-7.488 13.724-12.969 21.938-16.971 27.936l-1.258 1.888c-.603.908-.18 2.399.905 3.191 1.661 1.212 4.842.753 8.782-4.168 7.686-9.61 18.154-22.31 24.368-28.229 6.848-6.536 25.842-3.191 38.345 6.751 2.51 1.999 7.698 7.487 15.552 15.796 11.295 11.949 26.765 28.314 44.762 45.406 15.845 15.048 30.803 27.898 44.471 38.205h139.898a2 2 0 0 1 1.627 3.163c-6.603 9.241-10.243 19.896-10.579 30.911 18.521-3.02 33.455-8.131 40.795-11.699.276-.134.575-.201.875-.201z" fill="#531CB3"/><path d="M14.836 464.377a2 2 0 0 1-1.083-3.683l44.874-28.816a2 2 0 1 1 2.162 3.366L15.915 464.06a1.988 1.988 0 0 1-1.079.317zm439.742 180.527a2 2 0 0 1-1.459-.632c-16.418-17.518-27.956-35.833-36.309-57.641a193.848 193.848 0 0 1-4.271-12.408c-8.493 3.756-23.755 8.661-42.135 11.437a1.995 1.995 0 0 1-1.565-.43 1.996 1.996 0 0 1-.731-1.449c-.013-.254-.013-.508-.013-.763 0-11.205 3.18-22.105 9.23-31.751h-31.848a1.998 1.998 0 0 1-1.994-2.155c2.701-34.854-10.442-68.604-24.82-83.93a1.996 1.996 0 0 1-.542-1.368c0-.744.413-1.438 1.072-1.782 9.845-5.156 20.763-14.799 33.406-25.964 25.065-22.137 56.26-49.686 102.451-65.113 22.788-7.61 47.367-11.469 73.055-11.469 21.26 0 41.894 1.407 61.328 4.182.069.01.137.022.204.039 33.234 4.761 63.088 13.354 91.266 26.268a2 2 0 0 1 1.167 1.818v157.474a2 2 0 0 1-2 2h-182c6.05 9.645 9.23 20.546 9.23 31.751 0 29.184-21.492 54.609-52.264 61.833a2.036 2.036 0 0 1-.457.053zm-40.788-75.463a2.003 2.003 0 0 1 1.919 1.435 191.454 191.454 0 0 0 4.837 14.324c8.026 20.955 19.067 38.615 34.698 55.484 28.356-7.142 48.057-30.703 48.057-57.666 0-11.609-3.667-22.879-10.604-32.588a2 2 0 0 1 1.627-3.163h183.747V393.079c-27.538-12.482-56.731-20.808-89.202-25.441a1.966 1.966 0 0 1-.203-.039c-19.188-2.729-39.562-4.112-60.56-4.112-25.257 0-49.41 3.789-71.788 11.264-45.42 15.169-76.276 42.42-101.07 64.316-11.914 10.521-22.32 19.711-31.967 25.28 13.999 16.377 26.353 49.041 24.338 82.92h33.453a2 2 0 0 1 1.627 3.163c-6.603 9.241-10.243 19.896-10.579 30.911 18.521-3.02 33.455-8.131 40.795-11.699a2 2 0 0 1 .874-.201z" fill="#531CB3"/><path d="M589.148 365.651v.011c0 35.953-51.153 67.829-91.267 65.079-40.124-2.749-53.86-34.625-42.199-57.884 20.91-6.984 44.822-11.366 72.422-11.366 22.459 0 42.747 1.549 61.045 4.161z" fill="#FFF"/><path d="M502.725 432.903c-1.681 0-3.34-.056-4.98-.168-19.761-1.354-34.986-9.704-42.871-23.514-6.555-11.48-6.922-25.41-.98-37.262a2.001 2.001 0 0 1 1.154-1.001c22.785-7.61 47.364-11.469 73.055-11.469 21.258 0 41.891 1.406 61.328 4.181a2 2 0 0 1 1.717 1.979v.011c0 13.681-6.901 27.356-19.958 39.548-18.129 16.93-45.042 27.694-68.466 27.694zm-45.614-58.414c-4.964 10.49-4.519 22.671 1.236 32.749 7.2 12.609 21.289 20.247 39.671 21.507 23.466 1.614 51.772-9.024 70.443-26.459 8.214-7.671 17.948-19.849 18.647-34.902-18.734-2.584-38.576-3.894-59.005-3.894-24.96 0-48.841 3.7-70.993 10.999zm-43.322 198.952a2 2 0 0 1-1.94-1.52c-7.524-30.419-6.296-60.326-3.942-80.06 1.272-10.779 2.765-17.33 2.828-17.604a2.006 2.006 0 0 1 2.397-1.501 2 2 0 0 1 1.501 2.397c-.015.064-1.51 6.634-2.754 17.179-2.315 19.404-3.526 48.795 3.853 78.627a2 2 0 0 1-1.943 2.481z" fill="#531CB3"/><path d="M483.588 385.127s6.9-34.466 10.462-56.448c-12.66.388-25.164-2.085-34.782-9.23-10.178-7.561-11.129-16.351-5.359-15.801s13.603.687 19.373-2.473c12.612-6.907 4.466-15.32-.824-14.015-5.609 1.384-5.908 3.023-17.587 5.496-11.841 2.508-11.816-6.046-11.542-14.29-13.74-3.572-10.992-15.664.824-16.488 6.32-50.014 45.205-53.998 55.922-53.998 14.839 0 38.747 15.114 52.487 26.381s17.862 38.747-9.618 57.433c1.798 30.302 8.244 90.135 8.244 90.135l-67.601 3.298z" fill="#FFF"/><g fill="#531CB3"><path d="M654.692 549.27c-13.726-13.389-30.285-24.976-46.898-31.139-15.396-6.368-19.518 1.876-8.389 8.884 11.129 7.007-1.924 13.465-6.87 13.328s-10.03 3.847-8.381 8.794c5.771 0 70.538.133 70.538.133z"/><path d="M654.692 551.271h-.004c-.648 0-64.831-.134-70.534-.134a2 2 0 0 1-1.897-1.367c-.832-2.496-.418-5.046 1.166-7.181 1.988-2.677 5.57-4.351 9.168-4.244 2.785.054 8.288-2.391 9.095-5.051.522-1.72-1.531-3.443-3.346-4.586-5.839-3.677-8.465-8.27-6.691-11.701 1.589-3.074 6.864-4.879 16.91-.723 15.77 5.848 32.674 17.063 47.529 31.555a2 2 0 0 1-1.397 3.432zm-68.853-4.133c9.598.013 49.602.094 63.82.122-13.541-12.438-28.504-22.039-42.561-27.253-7.721-3.192-11.395-2.132-11.896-1.163-.497.962.833 3.687 5.269 6.479 5.423 3.414 5.736 6.851 5.043 9.133-1.541 5.073-9.324 7.99-13.034 7.887-2.274-.054-4.631.993-5.845 2.63-.508.685-.773 1.409-.796 2.165zM85.976 409.231c-5.741 0-10.763-3.871-13.68-10.676a2 2 0 1 1 3.677-1.576c2.515 5.868 6.646 8.836 11.337 8.153a2 2 0 0 1 .58 3.957 13.13 13.13 0 0 1-1.914.142zm410.528-242.846c-29.266 0-57.159 18.686-57.159 40.945s17.725 29.816 43.419 14.839c19.453-11.339 38.598 5.793 27.332 23.93-9.694 15.605-6.32 21.16-1.374 22.809 3.498 1.166 9.206.275 15.389-9.618s17.128-15.548 23.77-7.007c6.733 8.656 1.684 19.43-7.007 24.732-13.74 8.381-7.917 22.843 1.374 19.923 19.236-6.046 40.269-30.388 40.269-56.357 0-18.961-15.389-45.342-42.732-39.984-2.473-21.847-24.32-34.213-43.281-34.213z"/><path d="M539.841 299.321c-3.491 0-6.568-1.973-8.138-5.433-2.333-5.139-.784-13.145 8.128-18.581 4.759-2.903 8.106-7.397 8.952-12.021.638-3.487-.22-6.868-2.482-9.776-1.859-2.39-4.148-3.531-6.803-3.396-4.578.234-9.953 4.252-13.693 10.235-7.363 11.781-14.262 11.606-17.717 10.456-2.77-.923-4.711-2.731-5.614-5.23-1.69-4.68.247-11.396 5.921-20.531 4.373-7.039 4.007-14.583-.956-19.687-4.712-4.849-13.859-7.178-23.669-1.46-14.487 8.445-27.278 10.332-36.016 5.311-6.713-3.857-10.41-11.627-10.41-21.878 0-22.877 27.644-42.945 59.159-42.945 19.615 0 41.313 12.631 44.971 33.898 9.963-1.422 19.201 1.11 26.83 7.389 11.199 9.218 16.212 24.175 16.212 34.909 0 27.019-21.546 51.94-41.67 58.266a10.048 10.048 0 0 1-3.005.475zm.088-53.219c3.719 0 7.002 1.703 9.53 4.953 2.981 3.833 4.108 8.312 3.259 12.951-1.048 5.728-5.087 11.228-10.804 14.715-6.835 4.17-8.197 9.928-6.569 13.514.917 2.021 3.053 3.817 6.302 2.795 18.384-5.778 38.869-29.561 38.869-54.449 0-9.794-4.562-23.432-14.754-31.82-7.201-5.927-16.05-8.07-25.593-6.2a2.001 2.001 0 0 1-2.372-1.739c-2.298-20.304-22.801-32.438-41.294-32.438-28.868 0-55.159 18.563-55.159 38.945 0 8.885 2.906 15.251 8.403 18.409 7.335 4.215 19.002 2.285 32.009-5.297 11.678-6.807 22.755-3.837 28.552 2.127 6.307 6.487 6.876 15.908 1.485 24.586-6.125 9.859-6.402 14.72-5.557 17.062.485 1.343 1.505 2.257 3.117 2.794 2.338.777 7.149.677 13.061-8.78 4.479-7.167 10.947-11.808 16.88-12.111.213-.011.424-.017.635-.017z"/><path d="M483.59 387.127a2 2 0 0 1-1.963-2.393c.066-.332 6.454-32.284 10.061-54.018h-.129c-13.411 0-24.946-3.32-33.483-9.662-7.164-5.321-11-12.074-9.329-16.423.809-2.105 2.81-3.21 5.353-2.975 8.104.771 14.064.04 18.223-2.236 4.379-2.398 6.354-5.154 5.416-7.561-.72-1.849-3.052-3.187-4.801-2.759-2.021.499-3.311 1.037-4.803 1.659-2.454 1.023-5.507 2.297-12.849 3.853-4.643.982-8.058.489-10.44-1.506-3.516-2.948-3.689-8.438-3.563-13.259-7.214-2.378-9.482-7.025-9.137-10.749.421-4.546 4.539-8.104 10.233-9.027 7.337-51.555 49.288-54.192 57.697-54.192 16.634 0 42.436 17.553 53.755 26.834 7.509 6.158 11.883 16.471 11.415 26.912-.563 12.542-7.737 24.248-20.236 33.071 1.863 30.246 8.104 88.327 8.168 88.918a1.999 1.999 0 0 1-1.774 2.202 1.999 1.999 0 0 1-2.203-1.774c-.065-.599-6.472-60.228-8.252-90.23a2 2 0 0 1 .872-1.772c12.01-8.167 18.91-19.032 19.429-30.594.413-9.207-3.401-18.265-9.955-23.639-15.229-12.487-37.753-25.928-51.219-25.928-4.681 0-16.834.774-28.566 7.95-14.219 8.696-22.756 23.602-25.371 44.3a2 2 0 0 1-1.845 1.744c-5.288.369-7.939 3.158-8.165 5.595-.277 2.986 2.675 5.654 7.704 6.962a2 2 0 0 1 1.496 2.002c-.142 4.273-.32 9.592 2.087 11.609 1.357 1.138 3.726 1.36 7.041.657 6.976-1.478 9.718-2.621 12.138-3.63 1.576-.657 3.065-1.278 5.385-1.851 3.692-.913 8.036 1.466 9.486 5.189.646 1.656 2.031 7.454-7.222 12.521-4.884 2.675-11.597 3.559-20.524 2.711-1.039-.103-1.174.258-1.24.428-.61 1.586 1.105 6.669 7.98 11.776 8.344 6.198 19.941 9.266 33.527 8.836.592-.044 1.17.23 1.564.68.394.448.567 1.05.471 1.64-3.527 21.767-10.405 56.176-10.475 56.521a2 2 0 0 1-1.959 1.607z"/><path d="M539.72 266.215a2 2 0 0 1-1.829-2.809 3.21 3.21 0 0 0-.228-2.955 3.21 3.21 0 0 0-2.59-1.441 2.001 2.001 0 0 1 .03-4h.031a7.213 7.213 0 0 1 5.897 3.283 7.207 7.207 0 0 1 .52 6.729 2 2 0 0 1-1.831 1.193z"/></g><ellipse cx="470.874" cy="258.088" fill="#E2D8F4" rx="15.801" ry="8.107"/><path d="M470.874 268.194c-9.982 0-17.801-4.439-17.801-10.106s7.819-10.106 17.801-10.106 17.801 4.439 17.801 10.106-7.819 10.106-17.801 10.106zm0-16.213c-7.899 0-13.801 3.224-13.801 6.106s5.902 6.106 13.801 6.106 13.801-3.224 13.801-6.106-5.902-6.106-13.801-6.106z" fill="#531CB3"/><circle cx="462.17" cy="257.875" fill="#531CB3" r="6.004"/><path d="M462.17 265.879c-4.414 0-8.004-3.591-8.004-8.004s3.591-8.004 8.004-8.004 8.004 3.591 8.004 8.004-3.591 8.004-8.004 8.004zm0-12.008c-2.208 0-4.004 1.796-4.004 4.004s1.796 4.004 4.004 4.004 4.004-1.796 4.004-4.004-1.796-4.004-4.004-4.004zm31.88 74.808c12.817-1.376 19.618-5.498 23.534-7.559s2.473 7.832-5.565 10.305c-6.916 2.128-11.587 10.345-12.963 13.616-3.034 7.214-8.886 5.795-8.886 5.795z" fill="#531CB3"/><path d="M491.384 352.967a7.207 7.207 0 0 1-1.686-.187 2 2 0 0 1-1.5-2.288l3.88-22.158a2 2 0 0 1 1.757-1.644c11.415-1.225 17.927-4.719 21.817-6.807l.999-.532c1.866-.982 3.165-.297 3.638.044.664.479 1.714 1.671 1.286 4.275-.577 3.504-3.629 8.023-8.968 9.666-5.869 1.807-10.225 8.953-11.708 12.479-2.391 5.685-6.631 7.15-9.516 7.15zm4.378-22.476-3.212 18.346c1.421-.325 3.326-1.395 4.662-4.571.205-.486 5.118-11.951 14.218-14.751 3.839-1.182 5.677-4.318 6.138-6.119l-.024.013c-3.975 2.133-10.515 5.643-21.782 7.083zM413.79 571.442c-7.563 3.677-23.449 9.185-43.684 12.241-.011-.221-.011-.442-.011-.664 0-12.452 4.045-24.049 10.977-33.751h-32.793c.179-.243.379-.474.579-.695 7.458-8.354 21.742-4.045 31.602-9.354 6.51-3.519 10.092-10.713 12.399-17.74 2.307-7.026 3.813-14.484 7.901-20.657a28.452 28.452 0 0 1 9.133-8.722c-2.18 18.276-3.708 48.593 3.898 79.342z" fill="#531CB3"/><path d="M370.106 585.683a1.998 1.998 0 0 1-1.997-1.901c-.013-.254-.013-.508-.013-.763 0-11.205 3.18-22.105 9.23-31.751H348.28a2 2 0 0 1-1.61-3.187c.219-.298.463-.582.707-.852 4.761-5.333 11.802-6.036 18.612-6.717 4.738-.474 9.638-.963 13.524-3.056 4.904-2.65 8.649-8.082 11.447-16.603.542-1.649 1.051-3.366 1.544-5.026 1.629-5.487 3.313-11.162 6.59-16.111a30.499 30.499 0 0 1 9.777-9.336 2 2 0 0 1 3.009 1.956c-2.315 19.402-3.525 48.793 3.853 78.624a2 2 0 0 1-1.067 2.279c-7.897 3.839-24.227 9.395-44.26 12.42a1.996 1.996 0 0 1-.299.022zm-16.351-38.415h27.316a2 2 0 0 1 1.627 3.163c-6.603 9.241-10.243 19.896-10.579 30.911 17.371-2.832 31.586-7.504 39.341-11.018-6.569-27.658-6.003-54.754-4.047-74.007a26.515 26.515 0 0 0-4.986 5.606c-2.948 4.452-4.475 9.597-6.091 15.043-.501 1.687-1.019 3.432-1.578 5.136-3.132 9.539-7.498 15.713-13.348 18.875-4.593 2.473-9.896 3.003-15.026 3.516-4.65.465-9.11.91-12.631 2.774z" fill="#531CB3"/></svg></g><g transform="translate(0.0 153.0) rotate(0.0 82.0 81.0) scale(0.9651203163711477 0.9694155381752249)"><svg width="169.927" height="167.111" viewBox="0 0 169.927 167.111"><path d="m167.756 121.406-8.813-85.05a24.88 24.88 0 0 0-8.041-15.902l.002-.002-.022-.017a25.22 25.22 0 0 0-3.002-2.338L131.853 5.615l-7.466 9.205-84.561 8.762c-13.725 1.422-23.698 13.7-22.276 27.425l8.778 84.719-7.894 9.733 17.26 13.67c.49.418.992.819 1.513 1.198l.03.023.001-.002a24.888 24.888 0 0 0 17.238 4.627l85.05-8.812c17.393-1.802 30.032-17.363 28.23-34.757z" fill="#531CB3"/><path d="M51.89 167.109a26.926 26.926 0 0 1-15.746-5.083 26.052 26.052 0 0 1-1.748-1.375l-17.204-13.624a2.003 2.003 0 0 1-.311-2.828l7.373-9.091-8.693-83.896c-.743-7.169 1.351-14.198 5.895-19.793C26 25.823 32.451 22.333 39.62 21.591l83.736-8.677 6.944-8.561a2 2 0 0 1 2.782-.318l15.969 12.437a27.306 27.306 0 0 1 3.204 2.507 26.935 26.935 0 0 1 8.678 17.17l8.812 85.05c1.913 18.463-11.551 35.04-30.014 36.953l-85.05 8.812c-.931.097-1.863.145-2.791.145zm-13.519-8.408.041.029a22.957 22.957 0 0 0 15.858 4.256l85.05-8.812c16.269-1.687 28.133-16.294 26.448-32.562l-8.812-85.05a22.948 22.948 0 0 0-7.397-14.629l-.024-.022a23.193 23.193 0 0 0-2.758-2.146 2.572 2.572 0 0 1-.124-.089L132.171 8.398l-6.231 7.682a1.997 1.997 0 0 1-1.347.729l-84.561 8.762c-6.106.633-11.601 3.605-15.471 8.371s-5.654 10.753-5.021 16.859l8.778 84.719a1.997 1.997 0 0 1-.436 1.466l-6.62 8.162 15.674 12.414c.532.452.984.811 1.435 1.139z" fill="#531CB3"/><path d="m126.434 143.55-83.825 8.686c-15.897 1.647-30.12-9.905-31.767-25.802L2.156 42.609c-1.647-15.897 9.905-30.12 25.802-31.767l83.825-8.686c15.897-1.647 30.12 9.905 31.767 25.802l8.686 83.825c1.647 15.898-9.905 30.12-25.802 31.767z" fill="#E2D8F4"/><g fill="#531CB3"><path d="M39.568 154.393c-7.074.001-13.88-2.405-19.447-6.927-6.415-5.21-10.417-12.606-11.268-20.826L.167 42.815C-1.591 25.846 10.784 10.611 27.752 8.852L111.577.167c8.22-.848 16.28 1.548 22.694 6.759 6.415 5.21 10.417 12.606 11.268 20.826l8.686 83.824c1.758 16.969-10.616 32.204-27.585 33.963l-83.825 8.686c-1.086.113-2.17.168-3.247.168zM114.817 4c-.938 0-1.881.049-2.827.146l-83.825 8.685C13.389 14.362 2.615 27.628 4.146 42.403l8.686 83.825c.742 7.157 4.226 13.597 9.812 18.134 5.585 4.536 12.602 6.624 19.76 5.885l83.825-8.686c14.775-1.531 25.55-14.797 24.019-29.572l-8.686-83.824c-.742-7.157-4.226-13.598-9.812-18.134C126.903 6.094 120.976 4 114.817 4zm11.617 139.55h.01z"/><path d="M125.509 58.388c-1.772-17.105-16.898-24.038-26.59-23.034-10.635 1.102-21.457 7.222-24.228 21.319-5.603-13.229-17.449-17-28.084-15.898-9.693 1.004-23.075 10.891-21.303 27.996 1.77 17.079 22.043 43.588 56.35 55.8l.007.071.068-.043.075.028-.007-.071c31.074-18.986 45.482-49.089 43.712-66.168z"/><path d="M81.661 126.641a1.99 1.99 0 0 1-1.128-.349c-20.033-7.225-33.191-18.347-40.72-26.434-9.51-10.216-15.524-21.472-16.499-30.882-1.084-10.463 3.136-17.516 6.867-21.592 4.382-4.786 10.446-8.001 16.22-8.599 11.883-1.224 21.918 3.394 27.735 12.528 3.821-10.132 12.695-16.718 24.577-17.949 10.871-1.126 26.927 6.872 28.786 24.817 1.948 18.798-14.113 49.283-44.365 67.899a2.143 2.143 0 0 1-.931.485c-.178.051-.36.076-.542.076zm-31.672-84.04c-1.217 0-2.295.071-3.177.163-4.756.492-9.999 3.298-13.682 7.321-3.177 3.47-6.769 9.493-5.838 18.479 1.531 14.772 19.356 41.107 54.207 53.823 31.503-19.591 43.55-49.021 42.02-63.794-1.591-15.351-15.189-22.201-24.395-21.251-5.707.592-19.323 3.697-22.471 19.716a2 2 0 0 1-3.804.395c-5.384-12.711-16.198-14.852-22.86-14.852z"/></g><path d="M122.65 53.096c-1.772-17.105-16.898-24.038-26.59-23.034-10.635 1.102-21.457 7.222-24.228 21.319-5.603-13.229-17.449-17-28.084-15.898-9.693 1.004-23.075 10.891-21.303 27.996 1.77 17.079 22.043 43.588 56.35 55.8l.007.071.068-.043.075.028-.007-.071c31.074-18.986 45.481-49.088 43.712-66.168z" fill="#FFC83D"/><path d="M78.802 121.349a1.99 1.99 0 0 1-1.124-.347c-20.033-7.226-33.194-18.349-40.723-26.436-9.51-10.216-15.524-21.472-16.499-30.882-1.084-10.464 3.135-17.518 6.866-21.593 4.382-4.786 10.446-8.001 16.22-8.599 11.883-1.228 21.918 3.394 27.735 12.528 3.821-10.132 12.695-16.718 24.577-17.949 10.873-1.136 26.927 6.871 28.786 24.817 1.948 18.799-14.112 49.285-44.367 67.901a2.124 2.124 0 0 1-.93.483 1.887 1.887 0 0 1-.541.077zM47.13 37.309c-1.217 0-2.295.071-3.177.163-4.756.492-9.999 3.298-13.682 7.321-3.177 3.47-6.769 9.493-5.838 18.479 1.531 14.771 19.356 41.107 54.207 53.824 31.503-19.592 43.55-49.022 42.02-63.795-1.591-15.351-15.188-22.2-24.395-21.251-5.708.592-19.323 3.697-22.471 19.716a2 2 0 0 1-3.804.395C64.606 39.45 53.792 37.309 47.13 37.309z" fill="#531CB3"/></svg></g><g transform="translate(1035.0 49.0) rotate(0.0 81.5 81.5) scale(0.7196340903471904 0.7196340903471904)"><svg width="226.504" height="226.504" viewBox="0 0 226.504 226.504"><path d="M219.107 30.526 198.423 9.711a23.769 23.769 0 0 0-1.246-1.254l-.058-.058-.002.001A23.764 23.764 0 0 0 180.866 2H29.773C14.434 2 2 14.434 2 29.773v151.093a23.748 23.748 0 0 0 5.688 15.45l-.002.003.035.035a23.942 23.942 0 0 0 2.573 2.582l19.201 19.272 13.63-13.491h137.742c13.173 0 23.852-10.679 23.852-23.852V44.769z" fill="#531CB3"/><path d="M29.494 220.209a1.995 1.995 0 0 1-1.417-.588L8.929 200.4a26.254 26.254 0 0 1-2.764-2.788A25.856 25.856 0 0 1 0 180.866V29.773C0 13.356 13.356 0 29.773 0h151.093a25.758 25.758 0 0 1 17.667 6.985c.504.475.946.92 1.363 1.374l20.63 20.759a1.996 1.996 0 0 1-.011 2.831l-13.796 13.656v135.262c0 14.255-11.597 25.852-25.852 25.852H43.946L30.901 219.63c-.39.386-.898.579-1.407.579zM9.226 195.038l.014.016c.721.844 1.515 1.64 2.359 2.368.039.033.076.067.111.103l17.794 17.86 12.213-12.089c.374-.371.88-.579 1.407-.579h137.742c12.049 0 21.852-9.802 21.852-21.852V44.769c0-.534.213-1.046.593-1.421l12.965-12.833-19.271-19.394a23.21 23.21 0 0 0-1.196-1.206l-.033-.032-.021-.02A21.779 21.779 0 0 0 180.866 4H29.773C15.562 4 4 15.562 4 29.773v151.093a21.854 21.854 0 0 0 5.21 14.153l.016.019z" fill="#531CB3"/><path d="M199.504 224.504H46.786c-13.807 0-25-11.193-25-25V46.787c0-13.807 11.193-25 25-25h152.717c13.807 0 25 11.193 25 25v152.717c.001 13.807-11.192 25-24.999 25z" fill="#E2D8F4"/><g fill="#531CB3"><path d="M199.504 226.504H46.786c-14.888 0-27-12.112-27-27V46.786c0-14.888 12.112-27 27-27h152.718c14.888 0 27 12.112 27 27v152.718c0 14.888-12.112 27-27 27zM46.786 23.786c-12.682 0-23 10.318-23 23v152.718c0 12.682 10.318 23 23 23h152.718c12.682 0 23-10.318 23-23V46.786c0-12.682-10.318-23-23-23z"/><path d="m174.582 123.117.014.027c0-5.206 5.429-11.903 11.597-18.744a11.14 11.14 0 0 0 1.751-12.236 71.993 71.993 0 0 0-5.965-10.262c-1.249-1.768-2.991-3.127-5.007-3.907s-4.216-.945-6.326-.475c-9.009 1.972-17.475 3.434-21.815.92h.041c-4.498-2.598-7.564-10.671-10.386-19.446a11.02 11.02 0 0 0-3.604-5.254 10.957 10.957 0 0 0-5.902-2.369 71.184 71.184 0 0 0-12.022.041c-2.151.202-4.195 1.036-5.876 2.398s-2.923 3.192-3.572 5.259c-2.797 8.806-5.762 16.89-10.1 19.414l.014-.041c-4.496 2.609-12.998 1.233-21.981-.701-2.117-.463-4.323-.287-6.341.506s-3.756 2.166-4.997 3.948a72.123 72.123 0 0 0-5.971 10.459 11.042 11.042 0 0 0 1.883 12.042c6.206 6.836 11.695 13.463 11.695 18.473l-.014-.027c0 5.208-5.429 11.904-11.595 18.744a11.131 11.131 0 0 0-1.752 12.235 72.088 72.088 0 0 0 5.965 10.262c1.249 1.768 2.991 3.128 5.007 3.908s4.216.945 6.326.476c9.008-1.972 17.475-3.434 21.813-.921h-.042c4.498 2.6 7.564 10.672 10.386 19.447a11.022 11.022 0 0 0 3.605 5.254 10.977 10.977 0 0 0 5.903 2.37c4.001.326 8.023.312 12.022-.038a10.955 10.955 0 0 0 5.876-2.399 11.014 11.014 0 0 0 3.572-5.259c2.797-8.808 5.762-16.891 10.1-19.416l-.014.041c4.498-2.609 12.998-1.232 21.983.702 2.117.462 4.323.286 6.34-.506a10.99 10.99 0 0 0 4.997-3.948 72.123 72.123 0 0 0 5.971-10.459 11.036 11.036 0 0 0-1.882-12.034c-6.207-6.841-11.697-13.468-11.697-18.484zm-51.437 25.373a25.197 25.197 0 0 1-14.036-4.272 25.322 25.322 0 0 1-9.305-11.375 25.43 25.43 0 0 1-1.438-14.644 25.368 25.368 0 0 1 6.914-12.977c3.533-3.545 8.035-5.959 12.936-6.937s9.981-.476 14.597 1.442a25.276 25.276 0 0 1 11.338 9.335 25.403 25.403 0 0 1-3.143 32.001 25.223 25.223 0 0 1-17.863 7.427z"/><path d="M123.092 197.152c-1.987 0-3.971-.08-5.941-.241a12.952 12.952 0 0 1-6.99-2.803 12.981 12.981 0 0 1-4.26-6.208c-2.634-8.19-5.606-16.083-9.481-18.323a2.032 2.032 0 0 1-.197-.13c-3.949-2.027-12.454-.411-20.147 1.273-2.497.556-5.084.361-7.475-.564s-4.438-2.522-5.919-4.619a74.21 74.21 0 0 1-6.138-10.556 13.092 13.092 0 0 1-1.152-7.528 13.083 13.083 0 0 1 3.221-6.903c5.758-6.388 11.083-12.916 11.083-17.408 0-.064.003-.127.009-.189-.21-4.838-7.323-12.674-11.171-16.912-1.727-1.89-2.852-4.233-3.249-6.771s-.041-5.114 1.028-7.449a74.59 74.59 0 0 1 6.141-10.759 12.963 12.963 0 0 1 13.413-5.275c8.386 1.806 16.685 3.168 20.55.925.081-.047.164-.087.248-.122 3.708-2.453 6.553-10.625 8.937-18.127a12.974 12.974 0 0 1 4.219-6.208 12.918 12.918 0 0 1 6.948-2.836 73.432 73.432 0 0 1 12.371-.043 12.93 12.93 0 0 1 6.991 2.802 12.97 12.97 0 0 1 4.258 6.207c2.633 8.19 5.606 16.083 9.481 18.322.069.04.134.083.197.129 3.946 2.029 12.454.413 20.149-1.271 2.496-.555 5.083-.362 7.475.563s4.438 2.522 5.919 4.618a74.21 74.21 0 0 1 6.138 10.556 13.088 13.088 0 0 1 1.152 7.527 13.089 13.089 0 0 1-3.22 6.903c-5.759 6.389-11.085 12.917-11.085 17.409 0 .064-.003.127-.009.189.21 4.84 7.325 12.682 11.173 16.925 1.725 1.889 2.849 4.231 3.246 6.767s.042 5.11-1.027 7.443a74.496 74.496 0 0 1-6.141 10.759 12.947 12.947 0 0 1-5.913 4.676 12.91 12.91 0 0 1-7.499.598c-8.387-1.805-16.687-3.168-20.552-.926a2.034 2.034 0 0 1-.248.122c-3.708 2.455-6.554 10.626-8.937 18.129a12.974 12.974 0 0 1-4.219 6.208 12.926 12.926 0 0 1-6.948 2.836 72.214 72.214 0 0 1-6.429.285zm-24.358-30.848c4.605 2.892 7.628 9.964 10.977 20.378a9 9 0 0 0 7.78 6.244c3.861.314 7.793.302 11.671-.038a8.989 8.989 0 0 0 7.715-6.264c2.789-8.781 5.934-17.595 11.003-20.545.114-.066.232-.12.353-.162 4.801-2.523 12.407-1.611 23.042.678 1.742.381 3.533.238 5.188-.412s3.068-1.767 4.086-3.229a70.36 70.36 0 0 0 5.798-10.159 9 9 0 0 0 .707-5.149 8.994 8.994 0 0 0-2.251-4.693c-6.186-6.818-12.22-13.962-12.22-19.834 0-.091.006-.181.018-.269.162-5.462 4.763-11.64 12.106-19.787 1.204-1.342 1.978-3.002 2.234-4.795s-.021-3.604-.802-5.238a70.112 70.112 0 0 0-5.802-9.98 8.947 8.947 0 0 0-4.088-3.186 8.91 8.91 0 0 0-5.17-.388c-8.984 1.967-18.175 3.64-23.251.698a2.038 2.038 0 0 1-.269-.186c-4.606-2.89-7.63-9.963-10.979-20.379-.543-1.705-1.563-3.192-2.951-4.305s-3.056-1.782-4.825-1.937a69.353 69.353 0 0 0-11.672.041 8.987 8.987 0 0 0-7.715 6.265c-2.79 8.782-5.936 17.596-11.003 20.544-.114.066-.232.12-.353.162-4.8 2.524-12.406 1.612-23.042-.677a8.92 8.92 0 0 0-5.188.412 8.952 8.952 0 0 0-4.087 3.23 70.442 70.442 0 0 0-5.798 10.159 9.008 9.008 0 0 0-.708 5.154 9.007 9.007 0 0 0 2.254 4.696c6.185 6.812 12.219 13.95 12.219 19.822 0 .091-.006.181-.018.269-.161 5.464-4.762 11.641-12.105 19.787a9.08 9.08 0 0 0-2.235 4.795 9.1 9.1 0 0 0 .802 5.238 70.274 70.274 0 0 0 5.802 9.981 8.952 8.952 0 0 0 9.257 3.576c8.985-1.967 18.175-3.639 23.25-.699.096.05.186.113.27.182zm24.412-15.814a27.118 27.118 0 0 1-15.15-4.61 27.238 27.238 0 0 1-10.04-12.273 27.33 27.33 0 0 1-1.551-15.796 27.286 27.286 0 0 1 7.46-14 27.15 27.15 0 0 1 13.961-7.486 27.102 27.102 0 0 1 15.756 1.557 27.185 27.185 0 0 1 12.235 10.073 27.315 27.315 0 0 1 4.593 15.19c-.001 7.303-2.837 14.168-7.985 19.332-5.149 5.165-11.996 8.011-19.279 8.013zm.012-50.694c-1.518 0-3.041.15-4.55.451a23.165 23.165 0 0 0-11.911 6.387c-3.266 3.276-5.468 7.41-6.369 11.955s-.443 9.21 1.325 13.492a23.25 23.25 0 0 0 8.57 10.476 23.13 23.13 0 0 0 12.922 3.933c6.212-.001 12.053-2.429 16.447-6.837 4.395-4.409 6.816-10.272 6.818-16.509a23.33 23.33 0 0 0-3.922-12.972 23.208 23.208 0 0 0-10.441-8.597 23.14 23.14 0 0 0-8.889-1.779z"/></g><path d="m179.808 128.344.014.027c0-5.206 5.429-11.903 11.597-18.744a11.14 11.14 0 0 0 1.751-12.236 71.993 71.993 0 0 0-5.965-10.262c-1.249-1.768-2.991-3.127-5.007-3.907s-4.216-.945-6.325-.475c-9.009 1.972-17.475 3.434-21.815.92h.041c-4.498-2.598-7.564-10.671-10.386-19.446-.659-2.069-1.912-3.897-3.604-5.254s-3.745-2.181-5.902-2.369a71.184 71.184 0 0 0-12.022.041c-2.151.202-4.195 1.036-5.876 2.398s-2.923 3.192-3.572 5.259c-2.797 8.806-5.762 16.89-10.1 19.414l.014-.041c-4.496 2.609-12.998 1.233-21.981-.701-2.117-.463-4.323-.287-6.341.506s-3.756 2.166-4.997 3.948a72.123 72.123 0 0 0-5.971 10.459 11.042 11.042 0 0 0 1.883 12.042c6.206 6.836 11.695 13.463 11.695 18.473l-.014-.027c0 5.208-5.429 11.904-11.595 18.744a11.131 11.131 0 0 0-1.752 12.236 72.088 72.088 0 0 0 5.965 10.262c1.249 1.768 2.991 3.128 5.007 3.908s4.216.945 6.326.476c9.008-1.972 17.475-3.434 21.813-.921h-.041c4.498 2.6 7.564 10.672 10.386 19.447a11.022 11.022 0 0 0 3.605 5.254 10.977 10.977 0 0 0 5.903 2.37c4.001.326 8.023.312 12.022-.038a10.955 10.955 0 0 0 5.876-2.399 11.014 11.014 0 0 0 3.572-5.259c2.797-8.808 5.762-16.891 10.1-19.416l-.014.041c4.498-2.609 12.998-1.232 21.983.702 2.117.462 4.323.286 6.34-.506a10.99 10.99 0 0 0 4.997-3.948 72.123 72.123 0 0 0 5.971-10.459 11.036 11.036 0 0 0-1.882-12.034c-6.209-6.842-11.699-13.469-11.699-18.485zm-51.436 25.373a25.204 25.204 0 0 1-14.036-4.271 25.322 25.322 0 0 1-9.305-11.375 25.43 25.43 0 0 1-1.438-14.644 25.368 25.368 0 0 1 6.914-12.977c3.533-3.545 8.035-5.959 12.936-6.937s9.981-.476 14.597 1.442a25.276 25.276 0 0 1 11.338 9.335 25.403 25.403 0 0 1-3.143 32.001 25.232 25.232 0 0 1-17.863 7.426z" fill="#FFC83D"/><path d="M128.318 202.379c-1.987 0-3.971-.08-5.941-.241a12.952 12.952 0 0 1-6.99-2.803 12.986 12.986 0 0 1-4.26-6.208c-2.633-8.19-5.605-16.083-9.481-18.323a2.032 2.032 0 0 1-.197-.13c-3.949-2.026-12.454-.411-20.147 1.273a12.895 12.895 0 0 1-7.475-.564 12.942 12.942 0 0 1-5.919-4.619 74.377 74.377 0 0 1-6.138-10.556 13.091 13.091 0 0 1-1.152-7.528 13.083 13.083 0 0 1 3.221-6.903c5.758-6.388 11.084-12.916 11.084-17.408 0-.062.003-.125.009-.186-.207-4.838-7.323-12.676-11.172-16.915a12.985 12.985 0 0 1-3.249-6.772 13.008 13.008 0 0 1 1.028-7.448 74.542 74.542 0 0 1 6.142-10.759 12.95 12.95 0 0 1 5.914-4.676 12.903 12.903 0 0 1 7.499-.598c8.386 1.805 16.685 3.169 20.55.925a1.91 1.91 0 0 1 .249-.122c3.707-2.454 6.552-10.625 8.936-18.126a12.974 12.974 0 0 1 4.219-6.208 12.918 12.918 0 0 1 6.948-2.836 73.326 73.326 0 0 1 12.371-.043 12.93 12.93 0 0 1 6.991 2.802 12.97 12.97 0 0 1 4.258 6.207c2.633 8.19 5.606 16.083 9.481 18.321.069.04.134.083.197.13 3.946 2.03 12.455.413 20.149-1.271 2.495-.556 5.083-.362 7.475.563s4.438 2.522 5.919 4.618a74.106 74.106 0 0 1 6.138 10.556 13.088 13.088 0 0 1 1.152 7.527 13.089 13.089 0 0 1-3.22 6.903c-5.759 6.389-11.085 12.917-11.085 17.409 0 .064-.003.127-.009.189.21 4.84 7.325 12.682 11.173 16.925a12.987 12.987 0 0 1 3.246 6.768c.397 2.536.042 5.11-1.027 7.443a74.482 74.482 0 0 1-6.141 10.759 12.955 12.955 0 0 1-5.914 4.676 12.9 12.9 0 0 1-7.499.598c-8.388-1.805-16.686-3.169-20.552-.926-.08.047-.163.087-.247.122-3.709 2.455-6.554 10.627-8.937 18.129a12.973 12.973 0 0 1-4.219 6.207 12.923 12.923 0 0 1-6.948 2.836 72.996 72.996 0 0 1-6.43.283zM103.96 171.53c4.606 2.892 7.629 9.965 10.977 20.378a8.997 8.997 0 0 0 7.78 6.244 69.57 69.57 0 0 0 11.672-.038 8.992 8.992 0 0 0 7.714-6.265c2.789-8.781 5.934-17.595 11.003-20.545.114-.066.232-.12.354-.162 4.8-2.522 12.406-1.611 23.042.678a8.961 8.961 0 0 0 9.275-3.641 70.388 70.388 0 0 0 5.798-10.159 9.003 9.003 0 0 0 .707-5.15 8.994 8.994 0 0 0-2.251-4.693c-6.186-6.818-12.22-13.962-12.22-19.834 0-.091.006-.181.018-.269.162-5.462 4.763-11.64 12.106-19.787a9.082 9.082 0 0 0 2.234-4.795 9.11 9.11 0 0 0-.802-5.238 70.143 70.143 0 0 0-5.802-9.98 8.947 8.947 0 0 0-4.088-3.186 8.919 8.919 0 0 0-5.17-.388c-8.984 1.967-18.173 3.64-23.251.698a2.038 2.038 0 0 1-.269-.186c-4.606-2.89-7.63-9.963-10.979-20.379-.543-1.705-1.563-3.192-2.951-4.305s-3.056-1.782-4.825-1.937a69.353 69.353 0 0 0-11.672.041 8.987 8.987 0 0 0-7.715 6.265c-2.79 8.782-5.936 17.596-11.002 20.544-.114.066-.233.12-.354.162-4.801 2.523-12.406 1.612-23.04-.678a8.91 8.91 0 0 0-5.188.413 8.951 8.951 0 0 0-4.087 3.229 70.447 70.447 0 0 0-5.799 10.159c-.737 1.608-.983 3.394-.708 5.154s1.055 3.383 2.254 4.696c6.185 6.812 12.219 13.95 12.219 19.822 0 .089-.006.178-.018.264-.159 5.464-4.76 11.643-12.105 19.792a9.08 9.08 0 0 0-2.235 4.795 9.108 9.108 0 0 0 .802 5.238 70.172 70.172 0 0 0 5.801 9.981 8.952 8.952 0 0 0 9.257 3.576c8.984-1.967 18.174-3.64 23.25-.699.094.054.185.116.268.185zm24.412-15.813a27.118 27.118 0 0 1-15.15-4.61c-4.498-3.016-7.97-7.26-10.04-12.273s-2.606-10.475-1.551-15.796a27.277 27.277 0 0 1 7.459-14 27.154 27.154 0 0 1 13.961-7.486c5.309-1.058 10.757-.52 15.756 1.557s9.23 5.561 12.235 10.073 4.593 9.765 4.593 15.19c-.001 7.303-2.837 14.168-7.985 19.332-5.148 5.165-11.995 8.011-19.278 8.013zm.013-50.694c-1.518 0-3.041.15-4.551.451a23.173 23.173 0 0 0-11.911 6.387 23.292 23.292 0 0 0-6.369 11.954 23.354 23.354 0 0 0 1.324 13.492 23.257 23.257 0 0 0 8.57 10.477 23.13 23.13 0 0 0 12.922 3.933c6.212-.001 12.053-2.429 16.447-6.837 4.395-4.409 6.816-10.272 6.818-16.509a23.33 23.33 0 0 0-3.922-12.972 23.208 23.208 0 0 0-10.441-8.597 23.123 23.123 0 0 0-8.887-1.779z" fill="#531CB3"/></svg></g></svg>