<svg xmlns="http://www.w3.org/2000/svg" viewBox="0 0 600 630" width="600" height="630"><g transform="translate(3.0 2.0) rotate(0.0 298.0 313.0) scale(0.760910641514059 0.7617490049197304)"><svg width="783.272" height="821.793" viewBox="0 0 783.272 821.793"><ellipse cx="208.169" cy="599.103" fill="#531CB3" rx="50.699" ry="281.317" transform="matrix(.7491 -.6625 .6625 .7491 -344.6608 288.2365)"/><path d="M386.225 814.493c-36.508.005-134.314-86.382-217.532-180.477-49.857-56.375-92.783-112.889-120.87-159.132C27.6 441.587 6.44 399.291 20.477 386.877c14.036-12.415 53.43 13.758 84.004 37.899 42.464 33.529 93.307 83.041 143.164 139.415s92.783 112.888 120.87 159.132c20.224 33.296 41.384 75.593 27.347 88.007-2.422 2.141-5.669 3.162-9.637 3.163zM30.134 387.677c-2.986 0-5.342.722-7.008 2.196-9.066 8.018 1.444 39.021 28.116 82.935 27.967 46.046 70.743 102.357 120.447 158.558s100.364 105.539 142.646 138.925c40.324 31.84 69.81 46.06 78.875 38.042 9.066-8.018-1.444-39.021-28.116-82.934-27.968-46.047-70.743-102.357-120.447-158.558-49.704-56.202-100.364-105.54-142.646-138.926-32.912-25.987-58.605-40.238-71.867-40.238z" fill="#531CB3"/><path d="M345.787 326.597c4.98-19.922 18.677-118.285 19.299-129.491l-72.839-36.731c-5.603 38.598-17.276 84.356-44.825 130.44z" fill="#E2D8F4"/><path d="M345.787 328.597c-.231 0-.462-.04-.684-.121l-98.364-35.782a2 2 0 0 1-1.034-2.905c22.871-38.256 37.447-80.682 44.563-129.7a2.003 2.003 0 0 1 1.056-1.487 2.002 2.002 0 0 1 1.824-.011l72.838 36.73a2 2 0 0 1 1.097 1.896c-.62 11.15-14.255 109.463-19.356 129.865a1.997 1.997 0 0 1-1.94 1.515zm-95.414-38.837 93.982 34.188c5.235-23.46 17.32-110.328 18.638-125.657l-69.174-34.882c-7.2 47.512-21.431 88.896-43.446 126.351z" fill="#531CB3"/><path d="M339.794 45.204c29.923 9.171 37.411 34.77 56.255 54.225 14.182 14.642 28.084 24.667 32.173 29.161 6.229 6.845-13.332 11.242-15.2 13.11s20.343 47.314-3.813 66.415c-25.447 20.12-69.838 10.876-102.021-9.14-51.049-31.75-59.595-68.354-59.765-98.986-.307-55.408 56.638-65.738 92.371-54.785z" fill="#E2D8F4"/><path d="M287.449 192.279c-33.69-5.432-67.785-40.165-71.585-92.85-3.789-52.547 27.284-64.392 31.559-49.653 14.673-5.034 44.825-72.487 66.442-38.002 21.789 34.759 1.44 76.129-20.238 90.549s16.076 93.544-6.178 89.956z" fill="#531CB3"/><path d="M288.853 194.398c-.549 0-1.123-.048-1.722-.145-33.401-5.385-69.292-39.636-73.261-94.68-2.78-38.546 12.624-55.475 23.656-57.45 4.805-.858 8.881 1.036 10.937 4.905 4.057-2.62 9.585-9.656 15.396-17.05C275.14 15.619 287.908-.66 300.681.02c5.612.298 10.617 3.895 14.878 10.691 10.027 15.997 12.299 35.37 6.398 54.552-4.919 15.989-15.351 30.827-27.224 38.724-10.067 6.697-5.402 31.606-1.654 51.621 3.303 17.635 5.911 31.564.835 36.771-1.309 1.343-3.007 2.019-5.061 2.019zM239.797 45.915a8.86 8.86 0 0 0-1.567.146c-9.241 1.654-22.942 17.566-20.371 53.224 3.82 52.972 38.06 85.885 69.908 91.019 2.001.324 2.832-.255 3.283-.718 3.626-3.719.815-18.727-1.903-33.241-4.171-22.277-8.9-47.526 3.371-55.687 22.015-14.643 40.141-55.136 19.652-87.821-3.578-5.708-7.406-8.594-11.701-8.822-10.705-.584-23.314 15.514-33.467 28.435-7.344 9.347-13.688 17.419-18.931 19.218a1.999 1.999 0 0 1-2.57-1.335c-.83-2.863-2.871-4.418-5.704-4.418z" fill="#531CB3"/><path d="M361.825 301.064c37.501 8.724 125.744-16.827 190.611-60.475 51.519-34.666 82.497-91.438 90.608-117.853 8.408-27.38 12.024-43.668 19.77-59.296 4.5-9.08 12.732-1.154 6.271 13.341-4.653 10.439-6.063 21.463 4.338 19.148 17.34-3.859 34.141-36.21 42.071-44.565 3.439-3.623 8.18-.374 8.472 3.01 3.892-1.383 7.665 2.169 4.862 7.792 5.307 0 5.164 5.39 1.641 11.643 7.896 1.891-3.21 28.795-19.346 43.931-11.414 10.706-34.576 31.11-36.353 49.087-6.517 65.93-14.619 130.48-71.368 201.528-49.035 61.39-129.368 136.913-260.727 131.933z" fill="#E2D8F4"/><path d="M354.773 502.52c-4.041 0-8.092-.077-12.174-.232a1.996 1.996 0 0 1-1.915-2.19l19.151-199.225a2 2 0 0 1 2.444-1.757c18.111 4.212 50.476.047 86.575-11.144 39.281-12.177 76.973-30.521 106.132-51.65 48.499-35.144 76.718-83.469 86.147-114.173 2.217-7.219 4.129-13.764 5.816-19.54 4.816-16.487 8.296-28.399 14.074-40.058 2.524-5.092 6.148-5.57 8.485-4.43 4.28 2.087 5.967 9.96 1.381 19.524-3.159 6.589-4.141 13.076-2.334 15.423.78 1.014 2.292 1.315 4.495.895 13.329-2.539 24.531-19.772 32.71-32.355 3.202-4.926 5.967-9.18 8.284-11.621 1.946-2.051 4.509-2.72 7.03-1.838 1.915.67 3.496 2.157 4.311 3.927 1.864-.08 3.604.624 4.835 2.014 1.482 1.674 1.924 4.011 1.305 6.534a5.143 5.143 0 0 1 2.637 2.227c1.382 2.365 1.009 5.938-1.033 10.185.717.677 1.243 1.594 1.54 2.711 2.339 8.82-9.475 31.551-22.982 44.221-.766.719-1.582 1.478-2.438 2.274-11.559 10.757-30.906 28.761-32.489 44.782-5.959 60.284-12.713 128.61-71.796 202.58-31.862 39.891-64.578 69.761-100.015 91.316-45.42 27.628-95.893 41.6-150.176 41.6zm-9.904-4.156c57.329 1.791 110.468-11.948 158.001-40.861 35.03-21.308 67.403-50.876 98.969-90.395 58.344-73.044 65.036-140.746 70.94-200.477 1.732-17.525 21.771-36.174 33.745-47.316.851-.792 1.663-1.547 2.426-2.263 6.184-5.8 12.265-14.045 16.685-22.62 3.951-7.666 5.979-14.597 5.167-17.659-.234-.883-.601-.971-.798-1.019a1.998 1.998 0 0 1-1.276-2.927c2.249-3.991 2.615-6.873 1.981-7.958-.102-.174-.411-.703-1.879-.703a2 2 0 0 1-1.79-2.893c.947-1.899 1.017-3.593.187-4.531-.592-.668-1.559-.85-2.589-.483a2.003 2.003 0 0 1-2.662-1.713c-.092-1.066-1.068-2.218-2.221-2.621-1.014-.354-1.958-.081-2.808.816-2.065 2.175-4.737 6.287-7.832 11.047-8.572 13.187-20.311 31.247-35.316 34.105-4.739.902-7.192-.799-8.413-2.385-3.405-4.425-1.252-13.022 1.898-19.593 3.734-7.787 2.316-13.3.473-14.199-.895-.438-2.158.613-3.148 2.611-5.622 11.342-9.06 23.112-13.819 39.403-1.69 5.788-3.606 12.347-5.831 19.592-9.611 31.295-38.326 80.515-87.625 116.238-55.746 40.396-133.941 65.166-178.37 65.168-5.723 0-10.877-.41-15.36-1.251z" fill="#531CB3"/><path d="M687.878 101.429a2 2 0 0 1-1.006-3.73c8.373-4.863 17.051-18.574 24.024-29.59 6.394-10.101 9.601-14.987 12.621-15.684a2 2 0 1 1 .899 3.897c-1.68.559-6.371 7.97-10.141 13.926-7.206 11.385-16.175 25.554-25.395 30.909a1.973 1.973 0 0 1-1.002.272zm3.929 6.669a2 2 0 0 1-.686-3.879c8.821-3.224 18.004-17.878 24.71-28.579 6.014-9.596 9.302-14.64 12.527-15.419a2 2 0 0 1 .939 3.889c-1.792.433-6.386 7.764-10.078 13.654-7.404 11.814-16.618 26.517-26.727 30.211a1.956 1.956 0 0 1-.685.123z" fill="#531CB3"/><path d="M695.026 116.279a2 2 0 0 1-.776-3.845c11.334-4.763 20.507-20.055 26.577-30.174 4.701-7.836 6.447-10.557 8.812-10.749.892-.075 1.752.293 2.356 1.005a2 2 0 0 1-2.096 3.21c-1.208 1.199-3.55 5.104-5.642 8.591-6.338 10.566-15.917 26.534-28.458 31.804a1.959 1.959 0 0 1-.773.158z" fill="#531CB3"/><path d="M588.353 403.347c-9.944-59.002-53.504-117.371-84.547-134.735-50.721 24.72-112.788 39.244-141.981 32.453L342.674 500.29c114.635 4.346 201.766-39.197 245.679-96.943z" fill="#fff"/><g fill="#531CB3"><path d="M358.65 502.595c-5.31 0-10.656-.102-16.051-.307a1.996 1.996 0 0 1-1.915-2.19l19.151-199.225a2 2 0 0 1 2.444-1.757c28.231 6.566 90.011-7.622 140.652-32.302a2 2 0 0 1 1.853.052c16.047 8.976 35.066 28.562 50.875 52.393 17.766 26.78 30.078 56.525 34.667 83.755a2 2 0 0 1-.38 1.543c-22.996 30.241-56.584 55.272-97.132 72.389-40.371 17.04-85.439 25.649-134.164 25.649zm-13.781-4.229c53.505 1.764 102.738-6.68 146.388-25.105 39.596-16.715 72.418-41.059 94.977-70.435-7.868-44.845-43.363-109.385-82.5-131.955-43.063 20.828-92.326 33.875-124.635 33.877-5.748 0-10.952-.412-15.497-1.267z"/><path d="M567.828 428.273a2.001 2.001 0 0 1-1.993-2.203c3.864-37.886-42.244-115.191-86.553-145.117a2 2 0 0 1 2.239-3.315c21.016 14.194 44.282 40.516 62.235 70.41 18.501 30.807 27.999 59.392 26.058 78.428a1.998 1.998 0 0 1-1.986 1.797zM372.336 221.442c-14.446 0-30.62-3.619-47.31-10.871a2 2 0 0 1 1.593-3.669c25.238 10.967 59.862 16.632 81.35-.357 17.731-14.02 8.586-44.389 4.681-57.356-1.814-6.024-2.302-7.644-1.042-8.903.747-.748 2.134-1.31 4.951-2.411 3.343-1.307 10.301-4.026 10.857-6.403.037-.157.148-.633-.673-1.535-1.388-1.525-3.333-2.95-6.024-4.922-4.731-3.466-11.21-8.214-20.228-17.524-5.922-6.115-10.811-12.942-15.985-20.17-11.161-15.589-22.703-31.709-45.415-40.244-21.953-8.249-49.72-5.347-67.527 7.058-14.594 10.167-22.25 26.019-22.14 45.843a2 2 0 0 1-1.989 2.011h-.011a2 2 0 0 1-2-1.989c-.118-21.2 8.131-38.195 23.854-49.148 18.822-13.112 48.109-16.204 71.22-7.52 23.85 8.962 35.751 25.584 47.26 41.66 5.086 7.104 9.89 13.814 15.606 19.715 8.782 9.067 15.104 13.699 19.719 17.081 2.771 2.031 4.96 3.634 6.618 5.457 1.849 2.032 1.896 3.916 1.609 5.139-.958 4.092-6.588 6.595-13.295 9.217-1.035.404-2.251.88-3.005 1.229.239 1.118.862 3.189 1.47 5.206 4.14 13.748 13.835 45.941-6.03 61.648-9.908 7.832-23.074 11.757-38.114 11.758z"/><path d="M366.848 15.26c5.351 13.15-15.518 54.131-41.024 54.131s-46.183-11.509-46.183-25.706 21.682-18.615 46.183-25.706c21.753-6.294 33.282-21.742 41.024-2.719z"/><path d="M325.824 71.391c-27.019 0-48.183-12.17-48.183-27.706 0-14.209 18.527-19.421 39.98-25.455 2.502-.704 5.059-1.423 7.646-2.172 6.404-1.853 11.91-4.525 16.768-6.882 7.419-3.6 13.277-6.441 18.515-4.434 3.376 1.295 5.966 4.398 8.15 9.765 2.983 7.331-1.116 21.963-9.747 34.793-9.444 14.04-21.519 22.091-33.129 22.091zm31.018-63.306c-3.397 0-7.781 2.127-13.061 4.689-5.001 2.427-10.67 5.178-17.402 7.126-2.598.751-5.164 1.473-7.676 2.18-20.708 5.825-37.063 10.425-37.063 21.604 0 13.072 19.82 23.706 44.183 23.706 10.257 0 21.122-7.408 29.811-20.324 7.686-11.425 11.797-25.065 9.361-31.053-1.714-4.213-3.637-6.678-5.878-7.538-.7-.267-1.459-.39-2.275-.39z"/><ellipse cx="292.247" cy="96.486" rx="44.59" ry="35.719" transform="matrix(.3256 -.9455 .9455 .3256 105.8757 341.4021)"/><path d="M287.2 142.223c-3.407 0-6.808-.544-10.12-1.685-19.666-6.771-28.86-32.041-20.497-56.332s31.167-38.544 50.832-31.773c19.666 6.771 28.86 32.042 20.497 56.332l-1.891-.651 1.891.651c-6.955 20.199-23.895 33.458-40.712 33.458zm10.05-87.481c-15.134 0-30.499 12.221-36.884 30.767-7.646 22.206.437 45.195 18.017 51.248a27.115 27.115 0 0 0 8.863 1.474c15.134.001 30.499-12.222 36.884-30.767 7.646-22.205-.437-45.194-18.017-51.248a27.15 27.15 0 0 0-8.863-1.474zm45.424 49.581a2 2 0 0 1-1.875-2.695c3.4-9.183 10.712-11.825 11.022-11.933a2 2 0 0 1 1.318 3.776c-.228.083-5.868 2.198-8.588 9.545a2.003 2.003 0 0 1-1.877 1.307z"/></g><ellipse cx="366.848" cy="124.173" fill="#fff" rx="20.45" ry="10.317" transform="matrix(.9108 -.4128 .4128 .9108 -18.5457 162.4881)"/><path d="M357.581 138.804c-.329 0-.655-.007-.977-.021-5.116-.213-8.74-2.112-10.205-5.345-1.465-3.232-.503-7.209 2.708-11.196 2.907-3.608 7.401-6.907 12.656-9.288s10.694-3.593 15.327-3.393c5.116.213 8.74 2.112 10.205 5.345 1.465 3.232.503 7.209-2.708 11.196-2.907 3.608-7.401 6.907-12.656 9.288-4.889 2.217-9.942 3.414-14.35 3.414zm18.518-25.263c-3.839 0-8.306 1.072-12.684 3.057-4.696 2.128-8.67 5.023-11.192 8.154-2.184 2.711-2.979 5.275-2.18 7.036.798 1.761 3.25 2.854 6.728 3 4.012.161 8.813-.912 13.509-3.04s8.67-5.023 11.192-8.154c2.184-2.711 2.979-5.275 2.18-7.036-.798-1.761-3.25-2.854-6.728-3a20.334 20.334 0 0 0-.825-.017z" fill="#531CB3"/><ellipse cx="373.476" cy="118.106" fill="#531CB3" rx="7.329" ry="7.69"/><path d="M363.374 168.625c7.005.058 20.544-.467 26.925-3.735 3.033 2.628 5.759 17.276-6.848 18.054-12.606.777-19.061-9.031-20.077-14.319" fill="#fff"/><path d="M382.006 184.988c-13.2 0-19.565-10.615-20.597-15.987-.113-.588.044-1.197.428-1.657s.977-.704 1.553-.72c9.108.072 20.712-.808 25.997-3.515a2.001 2.001 0 0 1 2.221.269c2.556 2.214 4.248 9.009 2.518 14.127-1.511 4.468-5.258 7.108-10.552 7.435-.532.032-1.055.048-1.568.048zm-15.896-14.372c2.015 4.581 7.551 10.93 17.218 10.331 3.667-.227 6.025-1.816 7.009-4.724 1.092-3.228.236-7.014-.683-8.853-6.647 2.642-17.63 3.167-23.544 3.246z" fill="#531CB3"/><ellipse cx="288.349" cy="151.452" fill="#E2D8F4" rx="13.818" ry="19.878" transform="matrix(.3896 -.921 .921 .3896 36.525 358.0127)"/><path d="M276.734 150.263a2.001 2.001 0 0 1-1.751-2.963c1.494-2.721 3.981-4.452 7.195-5.006 5.024-.868 10.65 1.292 12.778 3.184a2 2 0 0 1-2.658 2.99c-1.233-1.097-5.684-2.876-9.439-2.232-2.028.35-3.457 1.328-4.369 2.99a2.003 2.003 0 0 1-1.756 1.037z" fill="#531CB3"/><path d="M290.375 159.074a2 2 0 0 1-1.815-1.158l-5.849-12.59a2.002 2.002 0 0 1 .971-2.657 2.002 2.002 0 0 1 2.657.971l5.849 12.59a2.002 2.002 0 0 1-1.813 2.844z" fill="#531CB3"/><path d="M600.259 299.758c-49.828 36.236-112.656 54.266-176.653 26.839-77.054-33.023-131.358-56.49-176.183-35.782 0 0-96.964 154.195-185.032 200.327-.493.258-.827.749-1.018 1.448 26.738 40.897 64.371 89.842 108.819 140.101 37.489 42.389 74.643 79.851 107.753 109.467 2.461-.1 4.877-.392 7.237-.91 84.979-18.677 186.473-80.716 192.041-193.232 36.337-8.228 72.726-22.361 105.646-45.051 38.237-26.355 66.359-57.266 87.162-89.255-7.467-51.957-41.995-94.244-69.772-113.952z" fill="#fff"/><path d="m774.364 110.421-.014.022c.086-1.315-1.036-2.06-4.193-1.787-22.16 1.921-49.094 44.496-67.77 43.251-18.677-1.245-34.705-44.457-47.623-36.675-7.691 4.633 11.708 17.184 14.198 37.728s4.84 41.767-3.027 61.417c-14.923 37.271-34.072 62.398-65.677 85.382 27.777 19.708 62.305 61.995 69.771 113.951 49.958-76.822 45.384-162.931 49.28-204.097 2.112-22.312 11.997-28.453 31.911-45.496 8.895-7.612 33.04-30.362 25.926-41.379 1.254-1.715 2.255-3.209 2.912-4.379 4.682-8.335-5.694-7.938-5.694-7.938z" fill="#E2D8F4"/><path d="M744.778 159.09a2 2 0 0 1-1.213-3.591c10.587-8.065 30.34-30.267 34.75-38.12.906-1.613 1.181-2.87.774-3.54-.64-1.052-3.144-1.461-4.653-1.42-1.109.059-2.028-.826-2.067-1.927a1.998 1.998 0 0 1 1.919-2.07c.619-.024 6.098-.131 8.212 3.328 1.232 2.016.998 4.569-.698 7.587-4.673 8.322-24.696 30.874-35.813 39.343-.362.276-.788.41-1.211.41z" fill="#531CB3"/><path d="M719.31 209.611c2.112-22.312 11.997-28.453 31.911-45.496.484-.415 1.022-.882 1.589-1.382-33.261 5.933-49.278 32.568-51.216 55.503-4.297 50.859-3.023 127.454-10.463 157.888 31.251-65.022 24.914-132.009 28.179-166.513z" fill="#fff"/><path d="M670.035 415.713a2 2 0 0 1-1.674-3.09c41.471-63.769 45.063-133.393 47.441-179.464.469-9.09.874-16.94 1.517-23.736 1.984-20.964 10.908-28.495 27.107-42.166 1.739-1.468 3.57-3.013 5.495-4.66 16.217-13.878 30.405-31.25 25.546-38.775a2 2 0 1 1 3.36-2.17c8.286 12.832-18.04 36.91-26.306 43.984-1.932 1.653-3.77 3.205-5.516 4.678-16.393 13.834-23.875 20.148-25.705 39.486-.635 6.711-1.038 14.521-1.505 23.565-2.4 46.499-6.026 116.768-48.083 181.438a1.99 1.99 0 0 1-1.677.91zm-69.771-113.95a2.001 2.001 0 0 1-1.178-3.618c29.744-21.631 51.609-50.059 64.986-84.493 7.213-18.566 5.583-38.362 2.906-60.452-1.2-9.904-6.48-17.805-10.723-24.154-3.417-5.113-5.887-8.808-5.154-12.087.318-1.422 1.204-2.58 2.633-3.441 8.086-4.872 16.163 5.268 24.713 16.003 7.405 9.298 15.799 19.837 24.074 20.389 8.498.562 19.989-9.853 31.107-19.928 12.098-10.964 24.607-22.301 36.357-23.319 1.195-.103 4.824-.417 6.043 2.117 1.468 3.051-1.83 6.85-7.435 12.743-1.086 1.142-2.112 2.221-2.899 3.127-3.64 4.191-10.505 11.208-15.623 16.355a1089.357 1089.357 0 0 1-7.306 7.278c-1.398 1.379-2.287 2.255-2.902 2.801a2.101 2.101 0 0 1-.115.138l-.021-.019c-.958.826-1.213.774-1.863.644a2.001 2.001 0 0 1-1.505-1.338 2.023 2.023 0 0 1 .635-2.174c1.28-1.22 19.014-18.63 25.679-26.307.847-.975 1.903-2.085 3.021-3.261 2.003-2.106 6.015-6.323 6.598-8.098-.327-.059-.931-.11-1.962-.021-10.408.902-22.41 11.779-34.017 22.298-12.276 11.125-23.873 21.631-34.059 20.956-10.038-.669-18.629-11.457-26.937-21.888-7.425-9.324-14.438-18.131-19.521-15.069-.688.414-.762.745-.793.886-.359 1.608 2.15 5.362 4.576 8.993 4.243 6.348 10.053 15.043 11.368 25.895 2.744 22.635 4.4 42.952-3.148 62.382-13.66 35.162-35.987 64.19-66.362 86.28a1.982 1.982 0 0 1-1.173.382z" fill="#531CB3"/><path d="M552.549 521.059c-10.12-2.832-26.866-2.736-56.249 1.328-71.242 9.853-118.616-16.482-131.979-27.85-13.362-11.368-30.961 5.305-15.719 15.916 15.241 10.611 18.878 16.607 13.722 25.911-6.64 11.983-58.544 6.568-95.934-21.726-20.023-15.153-39.694 8.688-18.968 19.27 76.063 38.834 222.084 34.287 305.127-12.849zM62.391 491.142c-.493.258-.824.754-1.015 1.453 23.197 35.48 54.598 77.019 91.533 120.218 8.138-37.417-32.918-74.985-28.75-112.224 5.305-47.396 50.779-83.72 82.61-116.97 22.79-23.805 25.851-49.155 26.525-71.485C203.251 356.08 130.19 455.627 62.391 491.142zm253.551 211.876c-37.632-10.699-63.929-9.647-83.035-3.563 15.572 15.551 30.684 29.863 45.037 42.701 2.461-.1 4.877-.391 7.237-.909 44.972-9.884 94.565-31.916 132.122-67.143-28.578-13.556-60.895 40.419-101.361 28.914zM590.6 348.546c7.369-9.642 3.254-25.053-13.471-33.881-38.595 21.808-83.049 32-128.908 20.313 27.02 21.311 36.846 27.661 53.117 32.627 17.004 5.19 16.167-18.189 32.841-18.947s45.416 14.288 56.421-.112z" fill="#E2D8F4"/><path d="M650.988 441.982c-.028 0-.057 0-.085-.002a2 2 0 0 1-1.914-2.082c.92-21.919-23.496-92.353-72.927-123.542a2 2 0 0 1 2.135-3.383c28.227 17.81 46.5 46.166 56.859 66.817 9.093 18.127 18.583 44.722 17.929 60.276a2 2 0 0 1-1.997 1.916z" fill="#531CB3"/><path d="M277.944 744.158c-.491 0-.966-.181-1.333-.509-34.317-30.696-71.635-68.607-107.917-109.633-42.655-48.23-81.363-98.067-108.995-140.332a2 2 0 0 1-.255-1.622c.431-1.576 1.335-2.333 2.019-2.692 86.578-45.351 183.301-198.083 184.268-199.62.206-.328.503-.589.854-.751 45.418-20.983 100.483 2.619 176.698 35.282l1.112.477c29.792 12.769 60.909 16.243 92.484 10.327 28.069-5.259 55.727-17.689 82.206-36.945a2 2 0 0 1 2.333-.014c15.558 11.038 30.832 27.162 43.008 45.403 14.624 21.906 24.162 46.075 27.585 69.895.069.48-.039.969-.303 1.375-22.962 35.31-52.47 65.526-87.704 89.811-30.13 20.768-65.403 35.91-104.865 45.018-2.914 50.676-26.005 96.185-66.845 131.702-33.766 29.364-78.756 51.337-126.683 61.87a43.753 43.753 0 0 1-7.667.958zM63.807 492.657c27.477 41.858 65.741 91.06 107.882 138.709 35.965 40.667 72.942 78.257 106.977 108.753a39.205 39.205 0 0 0 6.086-.825c135.067-29.685 187.021-121.647 190.472-191.377a2 2 0 0 1 1.556-1.852c39.558-8.957 74.87-24.012 104.954-44.747 34.591-23.842 63.592-53.469 86.208-88.067-7.166-48.033-38.882-90.086-67.679-111.027-26.608 19.126-54.406 31.502-82.649 36.794-32.369 6.063-64.262 2.503-94.796-10.582l-1.112-.477c-74.961-32.127-129.204-55.376-172.912-35.572-2.998 4.711-26.549 41.368-59.296 82.537-32.167 40.44-80.035 93.618-125.691 117.733z" fill="#531CB3"/><path d="M477.226 548.026c-106.631 24.27-208.746-2.859-229.803-14.118 24.02 17.109 53.094 44.361 117.663 36.108 82.799-10.583 58.944 10.353 74.387 18.443 9.805 5.135 34.738-1.064 37.753-40.433z" fill="#531CB3"/><path d="M446.444 592.013c-2.895 0-5.616-.588-7.898-1.784-4.837-2.534-6.375-6.262-7.73-9.552-3.13-7.591-6.677-16.195-65.476-8.679-59.278 7.579-88.597-14.042-112.153-31.414-2.404-1.772-4.674-3.447-6.924-5.049a2 2 0 0 1 2.103-3.393c19.07 10.197 120.468 38.502 228.417 13.932a2.002 2.002 0 0 1 2.438 2.103c-2.03 26.507-13.691 36.758-20.462 40.51-3.97 2.2-8.309 3.326-12.315 3.326zm-44.204-26.897c26.488 0 29.416 7.106 32.273 14.037 1.255 3.044 2.339 5.674 5.888 7.533 3.509 1.837 9.946 2.088 16.418-1.497 5.84-3.235 15.75-11.988 18.166-34.613-56.894 12.5-110.135 10.03-144.998 5.698-29.657-3.686-53.373-9.543-68.519-14.581 22.07 15.954 50.51 33.091 103.364 26.337 16.015-2.046 28.151-2.914 37.408-2.914zM289.885 782.681c-.417 0-.836-.129-1.196-.398-44.91-33.567-93.307-74.977-139.96-119.753C90.78 606.911 39.49 550.152.404 498.387a1.999 1.999 0 1 1 3.192-2.41C42.557 547.575 93.7 604.17 151.499 659.644c46.537 44.665 94.805 85.964 139.585 119.435a2 2 0 0 1-1.199 3.602zm8.445 39.112c-.356 0-.717-.095-1.042-.295-45.988-28.169-96.647-64.219-146.501-104.251a2 2 0 0 1 2.505-3.119c49.724 39.929 100.239 75.877 146.084 103.959a2 2 0 0 1-1.046 3.706z" fill="#531CB3"/></svg></g></svg>