<svg width="23" height="23" xmlns="http://www.w3.org/2000/svg" xmlns:xlink="http://www.w3.org/1999/xlink" overflow="hidden"><defs><clipPath id="clip0"><rect x="446" y="224" width="23" height="23"/></clipPath></defs><g clip-path="url(#clip0)" transform="translate(-446 -224)"><path d="M454.298 231.108C453.81 231.108 453.322 231.286 452.949 231.642 452.205 232.353 452.205 233.505 452.949 234.217L454.296 235.502 452.952 236.781C452.206 237.491 452.204 238.644 452.947 239.356 453.691 240.068 454.899 240.07 455.645 239.36L456.994 238.077 458.345 239.366C459.089 240.077 460.297 240.077 461.042 239.366 461.787 238.655 461.787 237.502 461.042 236.791L459.695 235.506 461.048 234.219C461.795 233.509 461.797 232.356 461.053 231.644 460.309 230.932 459.101 230.93 458.355 231.64L456.998 232.931 455.647 231.642C455.275 231.286 454.786 231.108 454.298 231.108ZM457 225C463.075 225 468 229.701 468 235.5 468 241.299 463.075 246 457 246 450.925 246 446 241.299 446 235.5 446 229.701 450.925 225 457 225Z" fill="#FB4D3D" fill-rule="evenodd"/></g></svg>