<svg width="642" height="140" xmlns="http://www.w3.org/2000/svg" xmlns:xlink="http://www.w3.org/1999/xlink" overflow="hidden"><defs><clipPath id="clip0"><rect x="319" y="320" width="642" height="140"/></clipPath><clipPath id="clip1"><rect x="319" y="321" width="642" height="138"/></clipPath><clipPath id="clip2"><rect x="319" y="321" width="642" height="138"/></clipPath></defs><g clip-path="url(#clip0)" transform="translate(-319 -320)"><g clip-path="url(#clip1)"><g clip-path="url(#clip2)"><path d="M1292.66 407.944C1289.85 407.944 1287.36 408.588 1285.19 409.878 1283.02 411.168 1281.29 412.926 1280 415.154 1278.71 417.382 1278.06 419.903 1278.06 422.716 1278.06 425.53 1278.68 428.051 1279.91 430.279 1281.14 432.507 1282.87 434.265 1285.1 435.555 1287.33 436.845 1289.79 437.49 1292.49 437.49 1296.82 437.49 1300.31 436.112 1302.95 433.357 1305.59 430.601 1306.91 427.055 1306.91 422.716 1306.91 419.785 1306.32 417.235 1305.15 415.066 1303.98 412.897 1302.3 411.168 1300.14 409.878 1297.97 408.588 1295.48 407.944 1292.66 407.944ZM1036.6 400.733C1033.08 400.733 1030.03 401.612 1027.45 403.371 1024.87 405.13 1022.91 407.65 1021.56 410.933L1021.16 412.365 1050.76 412.126 1050.05 409.79C1048.94 406.8 1047.27 404.543 1045.04 403.019 1042.81 401.495 1040 400.733 1036.6 400.733ZM1355.51 379.453 1389.98 379.453 1389.98 465.98 1355.51 465.98ZM1464.13 377.694C1470.34 377.694 1475.88 379.072 1480.75 381.827 1485.61 384.582 1489.45 388.334 1492.27 393.083 1495.08 397.831 1496.49 403.312 1496.49 409.526L1496.49 465.98 1462.02 465.98 1462.02 417.44C1462.02 414.04 1461.06 411.432 1459.12 409.614 1457.19 407.797 1454.75 406.888 1451.82 406.888 1449.83 406.888 1448.04 407.299 1446.46 408.119 1444.88 408.94 1443.65 410.142 1442.77 411.725 1441.89 413.308 1441.45 415.213 1441.45 417.44L1441.45 465.98 1406.98 465.98 1406.98 379.453 1441.45 379.453 1441.45 384.188 1441.71 383.981C1442.93 383.161 1444.22 382.413 1445.58 381.739 1451.03 379.042 1457.22 377.694 1464.13 377.694ZM1284.75 377.694C1289.79 377.694 1294.45 378.544 1298.73 380.244 1300.87 381.094 1302.83 382.113 1304.62 383.3L1305.85 384.335 1305.85 379.453 1339.44 379.453 1339.44 465.98 1305.85 465.98 1305.85 461.099 1304.62 462.133C1302.83 463.32 1300.87 464.339 1298.73 465.189 1294.45 466.889 1289.79 467.739 1284.75 467.739 1276.66 467.739 1269.51 465.804 1263.29 461.935 1257.08 458.066 1252.21 452.761 1248.69 446.019 1245.18 439.278 1243.42 431.51 1243.42 422.716 1243.42 413.923 1245.18 406.126 1248.69 399.326 1252.21 392.526 1257.08 387.22 1263.29 383.41 1269.51 379.599 1276.66 377.694 1284.75 377.694ZM1149.62 377.694C1155.48 377.694 1160.79 379.101 1165.54 381.915 1167.91 383.322 1170.04 385 1171.93 386.949L1172.28 387.354 1175.09 384.938C1176.37 383.993 1177.73 383.131 1179.17 382.355 1184.91 379.247 1191.48 377.694 1198.86 377.694 1205.78 377.694 1211.91 379.16 1217.24 382.091 1222.58 385.022 1226.77 389.243 1229.82 394.753 1232.87 400.264 1234.39 406.888 1234.39 414.627L1234.39 465.98 1199.92 465.98 1199.92 416.385C1199.92 413.454 1199.04 411.138 1197.28 409.438 1195.52 407.738 1193.3 406.888 1190.6 406.888 1188.72 406.888 1187.05 407.269 1185.59 408.031 1184.12 408.794 1183.01 409.878 1182.24 411.285 1181.48 412.692 1181.1 414.392 1181.1 416.385L1181.1 465.98 1146.63 465.98 1146.63 416.385C1146.63 413.454 1145.75 411.138 1143.99 409.438 1142.23 407.738 1140.01 406.888 1137.31 406.888 1135.43 406.888 1133.76 407.269 1132.3 408.031 1130.83 408.794 1129.72 409.878 1128.96 411.285 1128.19 412.692 1127.81 414.392 1127.81 416.385L1127.81 465.98 1093.34 465.98 1093.34 379.453 1127.81 379.453 1127.81 384.074 1127.93 383.981C1129.11 383.161 1130.36 382.413 1131.68 381.739 1136.96 379.042 1142.94 377.694 1149.62 377.694ZM1035.89 377.342C1044.92 377.342 1052.89 379.189 1059.81 382.882 1066.73 386.575 1072.15 391.705 1076.08 398.271 1080.01 404.836 1081.97 412.34 1081.97 420.782 1081.97 422.541 1081.88 424.387 1081.71 426.322 1081.53 428.256 1081.15 430.513 1080.56 433.093L1021.19 433.494 1021.73 434.939C1023.2 438.164 1025.34 440.597 1028.15 442.238 1030.97 443.879 1034.49 444.7 1038.71 444.7 1042.81 444.7 1046.42 444.026 1049.52 442.678 1052.63 441.329 1055.47 439.19 1058.05 436.258L1075.29 453.318C1070.95 458.242 1065.73 461.935 1059.63 464.398 1053.54 466.86 1046.56 468.091 1038.71 468.091 1028.62 468.091 1019.77 466.186 1012.15 462.375 1004.53 458.565 998.578 453.23 994.299 446.371 990.02 439.512 987.88 431.627 987.88 422.716 987.88 413.923 989.961 406.126 994.123 399.326 998.285 392.526 1004 387.162 1011.27 383.234 1018.54 379.306 1026.75 377.342 1035.89 377.342ZM896.135 370.659 896.135 436.083 913.722 436.083C920.287 436.083 925.974 434.881 930.781 432.477 935.588 430.074 939.281 426.41 941.861 421.485 944.44 416.561 945.73 410.464 945.73 403.195 945.73 395.926 944.411 389.888 941.773 385.08 939.135 380.273 935.442 376.668 930.693 374.265 925.945 371.861 920.287 370.659 913.722 370.659ZM860.961 340.761 882.769 340.761 896.135 340.761 913.722 340.761C923.57 340.761 932.628 342.227 940.893 345.158 949.159 348.089 956.341 352.31 962.437 357.821 968.534 363.331 973.253 369.926 976.595 377.606 979.936 385.286 981.607 393.874 981.607 403.371 981.607 412.868 979.936 421.456 976.595 429.136 973.253 436.815 968.534 443.41 962.437 448.921 956.341 454.432 949.189 458.652 940.981 461.584 932.774 464.515 923.805 465.98 914.073 465.98L896.135 465.98 884.527 465.98 860.961 465.98ZM1372.74 335.485C1377.9 335.485 1382.12 337.215 1385.4 340.673 1388.69 344.132 1390.33 348.382 1390.33 353.424 1390.33 358.466 1388.69 362.716 1385.4 366.175 1382.12 369.633 1377.9 371.363 1372.74 371.363 1367.7 371.363 1363.51 369.633 1360.17 366.175 1356.82 362.716 1355.15 358.466 1355.15 353.424 1355.15 348.382 1356.82 344.132 1360.17 340.673 1363.51 337.215 1367.7 335.485 1372.74 335.485Z" stroke="#531CB3" stroke-width="2.93129" stroke-linejoin="round" stroke-miterlimit="10" fill="#531CB3" fill-rule="evenodd" transform="matrix(1 0 0 1.00312 -539.253 -13.1653)"/><path d="M1716.48 393.346C1710.75 393.346 1705.6 394.695 1701.02 397.391 1696.45 400.088 1692.86 403.752 1690.28 408.383 1687.7 413.014 1686.43 418.32 1686.43 424.299 1686.43 430.396 1687.7 435.819 1690.28 440.567 1692.86 445.316 1696.45 449.038 1701.02 451.735 1705.6 454.432 1710.75 455.78 1716.48 455.78 1722.35 455.78 1727.53 454.432 1732.05 451.735 1736.58 449.038 1740.14 445.286 1742.79 440.479 1745.43 435.672 1746.73 430.279 1746.73 424.299 1746.73 418.32 1745.43 413.014 1742.79 408.383 1740.14 403.752 1736.58 400.088 1732.05 397.391 1727.53 394.695 1722.35 393.346 1716.48 393.346ZM1936.63 381.563C1942.84 381.563 1948.46 382.677 1953.51 384.905 1958.54 387.132 1962.58 390.415 1965.63 394.753L1957.72 402.667C1955.26 399.502 1952.19 397.069 1948.5 395.369 1944.79 393.669 1940.67 392.819 1936.1 392.819 1930.82 392.819 1926.81 393.845 1924.04 395.896 1921.28 397.948 1919.92 400.616 1919.92 403.898 1919.92 407.064 1921.04 409.556 1923.26 411.373 1925.49 413.19 1928.32 414.656 1931.78 415.77 1935.24 416.884 1938.9 417.997 1942.77 419.111 1946.64 420.225 1950.35 421.691 1953.86 423.508 1957.37 425.325 1960.22 427.787 1962.38 430.894 1964.55 434.001 1965.63 438.193 1965.63 443.469 1965.63 450.856 1962.98 456.747 1957.63 461.144 1952.3 465.541 1945.07 467.739 1935.93 467.739 1931.47 467.739 1927.18 467.124 1923.09 465.892 1918.97 464.661 1915.25 462.932 1911.92 460.704 1908.58 458.477 1905.68 455.839 1903.2 452.79L1911.13 444.7C1914.4 448.687 1918.13 451.647 1922.28 453.582 1926.44 455.516 1931.12 456.483 1936.28 456.483 1941.79 456.483 1946.08 455.428 1949.19 453.318 1952.3 451.207 1953.86 448.276 1953.86 444.524 1953.86 441.007 1952.75 438.252 1950.52 436.258 1948.28 434.265 1945.45 432.682 1941.98 431.51 1938.52 430.338 1934.86 429.194 1930.99 428.081 1927.13 426.967 1923.44 425.56 1919.92 423.86 1916.39 422.16 1913.56 419.785 1911.39 416.737 1909.22 413.689 1908.12 409.702 1908.12 404.778 1908.12 400.088 1909.27 396.014 1911.55 392.555 1913.84 389.096 1917.12 386.4 1921.42 384.465 1925.68 382.53 1930.77 381.563 1936.63 381.563ZM1805.77 381.563C1809.89 381.563 1813.62 382.296 1817.02 383.761 1820.42 385.227 1823.6 387.543 1826.53 390.708L1818.44 399.326C1816.45 397.098 1814.25 395.515 1811.85 394.577 1809.43 393.639 1806.72 393.17 1803.67 393.17 1797.33 393.17 1792.17 395.252 1788.18 399.414 1784.21 403.576 1782.22 409.702 1782.22 417.792L1782.22 465.98 1769.9 465.98 1769.9 383.322 1782.22 383.322 1782.22 394.503 1784.77 390.708C1789.87 384.611 1796.87 381.563 1805.77 381.563ZM1716.48 381.563C1724.57 381.563 1731.86 383.439 1738.29 387.191 1744.74 390.943 1749.87 396.072 1753.68 402.579 1757.51 409.087 1759.4 416.327 1759.4 424.299 1759.4 432.507 1757.51 439.864 1753.68 446.371 1749.87 452.878 1744.74 458.066 1738.29 461.935 1731.86 465.804 1724.57 467.739 1716.48 467.739 1708.53 467.739 1701.27 465.804 1694.78 461.935 1688.27 458.066 1683.11 452.849 1679.29 446.283 1675.48 439.717 1673.59 432.389 1673.59 424.299 1673.59 416.327 1675.48 409.116 1679.29 402.667 1683.11 396.219 1688.27 391.089 1694.78 387.279 1701.27 383.468 1708.53 381.563 1716.48 381.563ZM1509.27 344.982 1522.09 344.982 1553.04 442.94 1583.64 344.982 1593.33 344.982 1624.02 442.678 1654.89 344.982 1667.9 344.982 1628.68 465.98 1619.18 465.98 1588.48 367.941 1557.81 465.98 1548.29 465.98ZM1834.39 341.465 1846.7 341.465 1846.7 422.401 1886.97 383.322 1902.26 383.322 1860.84 423.128 1904.03 465.98 1887.68 465.98 1846.7 424.833 1846.7 465.98 1834.39 465.98Z" stroke="#531CB3" stroke-width="2.93129" stroke-linejoin="round" stroke-miterlimit="10" fill="#531CB3" fill-rule="evenodd" transform="matrix(1 0 0 1.00312 -539.253 -13.1653)"/></g></g><path d="M813 341C813 329.402 822.178 320 833.5 320 844.822 320 854 329.402 854 341 854 352.598 844.822 362 833.5 362 822.178 362 813 352.598 813 341Z" fill="#FFC83D" fill-rule="evenodd"/></g></svg>