<svg width="759" height="96" xmlns="http://www.w3.org/2000/svg" xmlns:xlink="http://www.w3.org/1999/xlink" overflow="hidden"><defs><clipPath id="clip0"><rect x="265" y="224" width="759" height="96"/></clipPath><clipPath id="clip1"><rect x="266" y="225" width="757" height="94"/></clipPath><clipPath id="clip2"><rect x="266" y="225" width="758" height="94"/></clipPath></defs><g clip-path="url(#clip0)" transform="translate(-265 -224)"><g clip-path="url(#clip1)"><g clip-path="url(#clip2)"><path d="M881.01 278.033C879.093 278.033 877.394 278.472 875.916 279.351 874.438 280.23 873.259 281.429 872.38 282.947 871.501 284.466 871.062 286.184 871.062 288.101 871.062 290.019 871.481 291.737 872.32 293.256 873.159 294.774 874.338 295.972 875.856 296.852 877.375 297.73 879.053 298.17 880.891 298.17 883.847 298.17 886.224 297.231 888.022 295.353 889.82 293.475 890.719 291.058 890.719 288.101 890.719 286.104 890.32 284.366 889.521 282.887 888.722 281.409 887.583 280.23 886.105 279.351 884.626 278.472 882.928 278.033 881.01 278.033ZM706.489 273.119C704.092 273.119 702.014 273.718 700.256 274.917 698.498 276.115 697.16 277.833 696.241 280.071L695.969 281.047 716.143 280.884 715.659 279.292C714.9 277.254 713.761 275.716 712.243 274.677 710.724 273.638 708.807 273.119 706.489 273.119ZM923.842 258.615 947.335 258.615 947.335 317.588 923.842 317.588ZM997.877 257.416C1002.11 257.416 1005.88 258.355 1009.2 260.233 1012.52 262.111 1015.13 264.668 1017.05 267.904 1018.97 271.141 1019.93 274.877 1019.93 279.112L1019.93 317.588 996.439 317.588 996.439 284.506C996.439 282.188 995.779 280.41 994.461 279.172 993.143 277.933 991.484 277.314 989.487 277.314 988.128 277.314 986.91 277.593 985.831 278.153 984.752 278.712 983.913 279.531 983.314 280.61 982.714 281.689 982.415 282.987 982.415 284.506L982.415 317.588 958.922 317.588 958.922 258.615 982.415 258.615 982.415 261.842 982.595 261.702C983.424 261.142 984.303 260.633 985.232 260.173 988.947 258.335 993.162 257.416 997.877 257.416ZM875.617 257.416C879.053 257.416 882.229 257.996 885.146 259.154 886.604 259.734 887.942 260.428 889.161 261.237L890 261.942 890 258.615 912.894 258.615 912.894 317.588 890 317.588 890 314.261 889.161 314.966C887.942 315.775 886.604 316.469 885.146 317.048 882.229 318.207 879.053 318.786 875.617 318.786 870.103 318.786 865.228 317.468 860.993 314.831 856.758 312.194 853.442 308.578 851.045 303.983 848.647 299.389 847.449 294.095 847.449 288.101 847.449 282.108 848.647 276.794 851.045 272.16 853.442 267.525 856.758 263.909 860.993 261.312 865.228 258.715 870.103 257.416 875.617 257.416ZM783.521 257.416C787.517 257.416 791.133 258.375 794.369 260.293 795.987 261.252 797.441 262.396 798.729 263.724L798.964 264 800.883 262.354C801.755 261.71 802.68 261.122 803.659 260.593 807.574 258.475 812.049 257.416 817.083 257.416 821.798 257.416 825.973 258.415 829.609 260.413 833.245 262.411 836.102 265.287 838.179 269.043 840.257 272.799 841.296 277.314 841.296 282.588L841.296 317.588 817.802 317.588 817.802 283.786C817.802 281.789 817.203 280.21 816.004 279.052 814.806 277.893 813.288 277.314 811.45 277.314 810.171 277.314 809.032 277.573 808.034 278.093 807.035 278.612 806.276 279.351 805.756 280.31 805.237 281.269 804.977 282.428 804.977 283.786L804.977 317.588 781.484 317.588 781.484 283.786C781.484 281.789 780.885 280.21 779.686 279.052 778.487 277.893 776.969 277.314 775.131 277.314 773.853 277.314 772.714 277.573 771.715 278.093 770.716 278.612 769.957 279.351 769.438 280.31 768.918 281.269 768.658 282.428 768.658 283.786L768.658 317.588 745.165 317.588 745.165 258.615 768.658 258.615 768.658 261.764 768.737 261.702C769.543 261.142 770.396 260.633 771.295 260.173 774.891 258.335 778.967 257.416 783.521 257.416ZM706.01 257.177C712.163 257.177 717.597 258.435 722.311 260.952 727.026 263.47 730.722 266.966 733.399 271.44 736.076 275.915 737.414 281.03 737.414 286.783 737.414 287.982 737.354 289.24 737.234 290.559 737.114 291.877 736.855 293.415 736.455 295.173L695.991 295.447 696.361 296.432C697.36 298.629 698.818 300.288 700.736 301.406 702.654 302.525 705.051 303.084 707.928 303.084 710.724 303.084 713.182 302.625 715.299 301.706 717.417 300.787 719.355 299.329 721.113 297.331L732.859 308.958C729.903 312.314 726.347 314.831 722.191 316.509 718.036 318.187 713.282 319.026 707.928 319.026 701.056 319.026 695.022 317.728 689.828 315.131 684.634 312.534 680.579 308.898 677.662 304.223 674.746 299.548 673.287 294.175 673.287 288.101 673.287 282.108 674.706 276.794 677.542 272.16 680.379 267.525 684.275 263.869 689.229 261.192 694.183 258.515 699.777 257.177 706.01 257.177ZM610.759 252.622 610.759 297.211 622.745 297.211C627.22 297.211 631.095 296.392 634.372 294.754 637.648 293.116 640.165 290.619 641.923 287.262 643.681 283.906 644.56 279.751 644.56 274.797 644.56 269.842 643.661 265.727 641.863 262.451 640.065 259.174 637.548 256.717 634.312 255.079 631.075 253.441 627.22 252.622 622.745 252.622ZM586.786 232.245 601.649 232.245 610.759 232.245 622.745 232.245C629.457 232.245 635.63 233.244 641.264 235.242 646.897 237.239 651.792 240.116 655.947 243.872 660.102 247.628 663.319 252.122 665.596 257.357 667.873 262.591 669.012 268.444 669.012 274.917 669.012 281.389 667.873 287.242 665.596 292.476 663.319 297.711 660.102 302.205 655.947 305.961 651.792 309.717 646.917 312.594 641.324 314.591 635.73 316.589 629.617 317.588 622.985 317.588L610.759 317.588 602.848 317.588 586.786 317.588ZM935.588 228.649C939.104 228.649 941.981 229.828 944.218 232.185 946.456 234.543 947.574 237.439 947.574 240.875 947.574 244.311 946.456 247.208 944.218 249.565 941.981 251.923 939.104 253.101 935.588 253.101 932.152 253.101 929.295 251.923 927.018 249.565 924.74 247.208 923.602 244.311 923.602 240.875 923.602 237.439 924.74 234.543 927.018 232.185 929.295 229.828 932.152 228.649 935.588 228.649Z" stroke="#531CB3" stroke-width="1.99776" stroke-linejoin="round" stroke-miterlimit="10" fill="#531CB3" fill-rule="evenodd" transform="matrix(1 0 0 1.00255 -318.932 -2.61981)"/><path d="M1169.87 268.084C1165.96 268.084 1162.44 269.003 1159.33 270.841 1156.21 272.679 1153.76 275.176 1152.01 278.333 1150.25 281.489 1149.38 285.105 1149.38 289.18 1149.38 293.336 1150.25 297.031 1152.01 300.268 1153.76 303.504 1156.21 306.041 1159.33 307.879 1162.44 309.717 1165.96 310.636 1169.87 310.636 1173.86 310.636 1177.4 309.717 1180.47 307.879 1183.56 306.041 1185.99 303.484 1187.8 300.208 1189.59 296.931 1190.48 293.256 1190.48 289.18 1190.48 285.105 1189.59 281.489 1187.8 278.333 1185.99 275.176 1183.56 272.679 1180.47 270.841 1177.4 269.003 1173.86 268.084 1169.87 268.084ZM1319.9 260.053C1324.14 260.053 1327.97 260.813 1331.41 262.331 1334.84 263.849 1337.59 266.087 1339.67 269.043L1334.28 274.437C1332.6 272.28 1330.51 270.621 1328 269.463 1325.47 268.304 1322.66 267.725 1319.55 267.725 1315.95 267.725 1313.21 268.424 1311.32 269.822 1309.45 271.221 1308.52 273.039 1308.52 275.276 1308.52 277.434 1309.28 279.132 1310.8 280.37 1312.31 281.609 1314.24 282.608 1316.6 283.367 1318.96 284.126 1321.45 284.885 1324.09 285.644 1326.73 286.403 1329.25 287.402 1331.65 288.641 1334.04 289.879 1335.99 291.558 1337.45 293.675 1338.93 295.793 1339.67 298.649 1339.67 302.245 1339.67 307.28 1337.86 311.295 1334.22 314.292 1330.58 317.288 1325.66 318.786 1319.43 318.786 1316.39 318.786 1313.46 318.367 1310.68 317.528 1307.87 316.689 1305.33 315.51 1303.06 313.992 1300.79 312.474 1298.81 310.676 1297.12 308.598L1302.52 303.084C1304.75 305.801 1307.3 307.819 1310.13 309.137 1312.96 310.456 1316.15 311.115 1319.67 311.115 1323.42 311.115 1326.35 310.396 1328.47 308.958 1330.58 307.519 1331.65 305.522 1331.65 302.965 1331.65 300.567 1330.89 298.689 1329.37 297.331 1327.85 295.972 1325.92 294.894 1323.55 294.095 1321.19 293.296 1318.7 292.516 1316.06 291.757 1313.43 290.998 1310.92 290.039 1308.52 288.881 1306.11 287.722 1304.18 286.104 1302.7 284.026 1301.23 281.948 1300.48 279.232 1300.48 275.875 1300.48 272.679 1301.26 269.902 1302.81 267.545 1304.37 265.188 1306.61 263.35 1309.54 262.031 1312.44 260.713 1315.91 260.053 1319.9 260.053ZM1230.72 260.053C1233.52 260.053 1236.07 260.553 1238.39 261.552 1240.71 262.551 1242.87 264.129 1244.87 266.286L1239.36 272.16C1238 270.641 1236.5 269.563 1234.86 268.923 1233.21 268.284 1231.37 267.964 1229.29 267.964 1224.96 267.964 1221.45 269.383 1218.73 272.22 1216.02 275.056 1214.66 279.232 1214.66 284.745L1214.66 317.588 1206.27 317.588 1206.27 261.252 1214.66 261.252 1214.66 268.872 1216.4 266.286C1219.88 262.131 1224.65 260.053 1230.72 260.053ZM1169.87 260.053C1175.38 260.053 1180.34 261.332 1184.73 263.889 1189.12 266.446 1192.62 269.942 1195.22 274.377 1197.82 278.812 1199.11 283.746 1199.11 289.18 1199.11 294.774 1197.82 299.788 1195.22 304.223 1192.62 308.658 1189.12 312.194 1184.73 314.831 1180.34 317.468 1175.38 318.786 1169.87 318.786 1164.44 318.786 1159.5 317.468 1155.07 314.831 1150.64 312.194 1147.12 308.638 1144.51 304.163 1141.92 299.688 1140.63 294.694 1140.63 289.18 1140.63 283.746 1141.92 278.832 1144.51 274.437 1147.12 270.042 1150.64 266.546 1155.07 263.949 1159.5 261.352 1164.44 260.053 1169.87 260.053ZM1028.64 235.122 1037.38 235.122 1058.47 301.885 1079.33 235.122 1085.93 235.122 1106.85 301.706 1127.88 235.122 1136.75 235.122 1110.02 317.588 1103.55 317.588 1082.63 250.769 1061.72 317.588 1055.24 317.588ZM1250.22 232.725 1258.61 232.725 1258.61 287.887 1286.06 261.252 1296.48 261.252 1268.25 288.382 1297.69 317.588 1286.54 317.588 1258.61 289.544 1258.61 317.588 1250.22 317.588Z" stroke="#531CB3" stroke-width="1.99776" stroke-linejoin="round" stroke-miterlimit="10" fill="#531CB3" fill-rule="evenodd" transform="matrix(1 0 0 1.00255 -318.932 -2.61981)"/></g></g></g></svg>