<svg width="439" height="96" xmlns="http://www.w3.org/2000/svg" xmlns:xlink="http://www.w3.org/1999/xlink" overflow="hidden"><defs><clipPath id="clip0"><rect x="265" y="224" width="439" height="96"/></clipPath><clipPath id="clip1"><rect x="266" y="225" width="437" height="94"/></clipPath><clipPath id="clip2"><rect x="266" y="225" width="437" height="94"/></clipPath></defs><g clip-path="url(#clip0)" transform="translate(-265 -224)"><g clip-path="url(#clip1)"><g clip-path="url(#clip2)"><path d="M880.61 277.906C878.693 277.906 876.995 278.346 875.518 279.224 874.04 280.103 872.862 281.301 871.983 282.819 871.105 284.336 870.666 286.053 870.666 287.97 870.666 289.887 871.085 291.605 871.924 293.122 872.762 294.64 873.94 295.838 875.458 296.716 876.975 297.595 878.653 298.034 880.49 298.034 883.445 298.034 885.821 297.096 887.618 295.219 889.416 293.342 890.314 290.926 890.314 287.97 890.314 285.974 889.915 284.236 889.116 282.759 888.317 281.281 887.179 280.103 885.701 279.224 884.224 278.346 882.527 277.906 880.61 277.906ZM706.168 272.994C703.772 272.994 701.695 273.593 699.938 274.791 698.181 275.99 696.843 277.707 695.924 279.943L695.653 280.919 715.818 280.756 715.333 279.164C714.575 277.128 713.436 275.59 711.919 274.552 710.401 273.514 708.484 272.994 706.168 272.994ZM923.421 258.497 946.904 258.497 946.904 317.443 923.421 317.443ZM997.423 257.299C1001.65 257.299 1005.43 258.238 1008.74 260.115 1012.05 261.992 1014.67 264.548 1016.59 267.783 1018.5 271.017 1019.46 274.752 1019.46 278.985L1019.46 317.443 995.986 317.443 995.986 284.376C995.986 282.06 995.327 280.283 994.009 279.045 992.691 277.807 991.033 277.188 989.037 277.188 987.679 277.188 986.461 277.467 985.382 278.026 984.304 278.585 983.465 279.404 982.866 280.482 982.267 281.561 981.968 282.859 981.968 284.376L981.968 317.443 958.485 317.443 958.485 258.497 981.968 258.497 981.968 261.723 982.148 261.583C982.976 261.023 983.855 260.514 984.783 260.055 988.497 258.218 992.711 257.299 997.423 257.299ZM875.218 257.299C878.653 257.299 881.828 257.878 884.743 259.037 886.201 259.616 887.539 260.31 888.757 261.118L889.595 261.823 889.595 258.497 912.479 258.497 912.479 317.443 889.595 317.443 889.595 314.118 888.757 314.823C887.539 315.631 886.201 316.325 884.743 316.904 881.828 318.062 878.653 318.641 875.218 318.641 869.707 318.641 864.835 317.324 860.602 314.688 856.368 312.052 853.054 308.438 850.657 303.845 848.261 299.252 847.063 293.961 847.063 287.97 847.063 281.98 848.261 276.668 850.657 272.036 853.054 267.403 856.368 263.789 860.602 261.193 864.835 258.597 869.707 257.299 875.218 257.299ZM783.165 257.299C787.159 257.299 790.773 258.258 794.008 260.175 795.625 261.133 797.078 262.276 798.366 263.604L798.601 263.88 800.518 262.235C801.39 261.591 802.315 261.003 803.293 260.474 807.207 258.358 811.68 257.299 816.712 257.299 821.424 257.299 825.597 258.298 829.232 260.295 832.866 262.291 835.721 265.167 837.798 268.921 839.875 272.675 840.913 277.188 840.913 282.459L840.913 317.443 817.43 317.443 817.43 283.657C817.43 281.66 816.831 280.083 815.633 278.925 814.435 277.767 812.918 277.188 811.081 277.188 809.803 277.188 808.664 277.447 807.666 277.966 806.668 278.486 805.909 279.224 805.39 280.183 804.871 281.141 804.611 282.299 804.611 283.657L804.611 317.443 781.128 317.443 781.128 283.657C781.128 281.66 780.529 280.083 779.331 278.925 778.133 277.767 776.616 277.188 774.779 277.188 773.501 277.188 772.362 277.447 771.364 277.966 770.366 278.486 769.607 279.224 769.088 280.183 768.568 281.141 768.309 282.299 768.309 283.657L768.309 317.443 744.826 317.443 744.826 258.497 768.309 258.497 768.309 261.645 768.388 261.583C769.193 261.023 770.046 260.514 770.945 260.055 774.539 258.218 778.612 257.299 783.165 257.299ZM705.689 257.06C711.839 257.06 717.27 258.318 721.983 260.834 726.695 263.35 730.389 266.844 733.065 271.317 735.741 275.79 737.079 280.902 737.079 286.653 737.079 287.851 737.019 289.109 736.899 290.427 736.779 291.744 736.52 293.282 736.12 295.039L695.675 295.313 696.044 296.297C697.043 298.494 698.5 300.151 700.417 301.269 702.334 302.387 704.73 302.947 707.606 302.947 710.401 302.947 712.857 302.487 714.974 301.569 717.091 300.65 719.027 299.193 720.785 297.196L732.526 308.817C729.571 312.172 726.016 314.688 721.863 316.365 717.71 318.042 712.957 318.881 707.606 318.881 700.737 318.881 694.706 317.583 689.515 314.987 684.323 312.391 680.269 308.757 677.354 304.085 674.439 299.412 672.981 294.041 672.981 287.97 672.981 281.98 674.399 276.668 677.234 272.036 680.07 267.403 683.963 263.749 688.916 261.073 693.868 258.398 699.459 257.06 705.689 257.06ZM610.481 252.507 610.481 297.076 622.462 297.076C626.934 297.076 630.808 296.257 634.083 294.62 637.358 292.982 639.874 290.486 641.631 287.132 643.388 283.777 644.267 279.624 644.267 274.672 644.267 269.72 643.368 265.606 641.571 262.331 639.774 259.057 637.258 256.6 634.023 254.963 630.788 253.326 626.934 252.507 622.462 252.507ZM586.519 232.14 601.375 232.14 610.481 232.14 622.462 232.14C629.171 232.14 635.341 233.138 640.972 235.135 646.603 237.132 651.495 240.007 655.649 243.761 659.802 247.515 663.017 252.008 665.293 257.239 667.57 262.471 668.708 268.322 668.708 274.791 668.708 281.261 667.57 287.112 665.293 292.343 663.017 297.575 659.802 302.068 655.649 305.822 651.495 309.576 646.623 312.451 641.032 314.448 635.441 316.445 629.331 317.443 622.701 317.443L610.481 317.443 602.573 317.443 586.519 317.443ZM935.163 228.545C938.677 228.545 941.552 229.723 943.789 232.08 946.025 234.436 947.143 237.331 947.143 240.766 947.143 244.2 946.025 247.096 943.789 249.452 941.552 251.808 938.677 252.986 935.163 252.986 931.728 252.986 928.873 251.808 926.596 249.452 924.32 247.096 923.182 244.2 923.182 240.766 923.182 237.331 924.32 234.436 926.596 232.08 928.873 229.723 931.728 228.545 935.163 228.545Z" stroke="#531CB3" stroke-width="1.99685" stroke-linejoin="round" stroke-miterlimit="10" fill="#531CB3" fill-rule="evenodd" transform="matrix(1 0 0 1.00301 -318.674 -2.61981)"/><path d="M1169.33 267.962C1165.43 267.962 1161.92 268.881 1158.8 270.718 1155.69 272.555 1153.24 275.051 1151.48 278.206 1149.73 281.361 1148.86 284.975 1148.86 289.049 1148.86 293.202 1149.73 296.896 1151.48 300.131 1153.24 303.366 1155.69 305.902 1158.8 307.739 1161.92 309.576 1165.43 310.494 1169.33 310.494 1173.33 310.494 1176.86 309.576 1179.94 307.739 1183.02 305.902 1185.45 303.346 1187.26 300.071 1189.05 296.796 1189.94 293.122 1189.94 289.049 1189.94 284.975 1189.05 281.361 1187.26 278.206 1185.45 275.051 1183.02 272.555 1179.94 270.718 1176.86 268.881 1173.33 267.962 1169.33 267.962ZM1319.3 259.935C1323.54 259.935 1327.36 260.694 1330.81 262.212 1334.23 263.729 1336.99 265.966 1339.06 268.921L1333.67 274.312C1331.99 272.156 1329.91 270.498 1327.39 269.34 1324.87 268.182 1322.06 267.603 1318.95 267.603 1315.35 267.603 1312.62 268.302 1310.73 269.7 1308.85 271.097 1307.92 272.914 1307.92 275.151 1307.92 277.307 1308.68 279.005 1310.2 280.243 1311.72 281.481 1313.64 282.479 1316 283.238 1318.36 283.997 1320.85 284.756 1323.49 285.514 1326.12 286.273 1328.65 287.272 1331.05 288.51 1333.43 289.748 1335.38 291.425 1336.85 293.542 1338.32 295.658 1339.06 298.514 1339.06 302.108 1339.06 307.14 1337.26 311.153 1333.61 314.149 1329.98 317.144 1325.06 318.641 1318.83 318.641 1315.79 318.641 1312.86 318.222 1310.08 317.384 1307.27 316.545 1304.74 315.367 1302.47 313.849 1300.2 312.332 1298.22 310.534 1296.53 308.458L1301.93 302.947C1304.16 305.662 1306.7 307.679 1309.53 308.997 1312.37 310.315 1315.55 310.974 1319.06 310.974 1322.82 310.974 1325.74 310.255 1327.86 308.817 1329.98 307.379 1331.05 305.383 1331.05 302.827 1331.05 300.431 1330.29 298.554 1328.77 297.196 1327.24 295.838 1325.31 294.76 1322.95 293.961 1320.59 293.162 1318.1 292.383 1315.46 291.625 1312.83 290.866 1310.32 289.907 1307.92 288.749 1305.52 287.591 1303.59 285.974 1302.11 283.897 1300.63 281.82 1299.89 279.105 1299.89 275.75 1299.89 272.555 1300.66 269.779 1302.22 267.423 1303.78 265.067 1306.02 263.23 1308.94 261.912 1311.85 260.594 1315.31 259.935 1319.3 259.935ZM1230.16 259.935C1232.96 259.935 1235.51 260.434 1237.82 261.433 1240.14 262.431 1242.31 264.009 1244.3 266.165L1238.79 272.036C1237.44 270.518 1235.94 269.44 1234.3 268.801 1232.65 268.162 1230.81 267.843 1228.73 267.843 1224.41 267.843 1220.89 269.26 1218.18 272.096 1215.47 274.931 1214.11 279.105 1214.11 284.616L1214.11 317.443 1205.73 317.443 1205.73 261.133 1214.11 261.133 1214.11 268.75 1215.85 266.165C1219.32 262.012 1224.1 259.935 1230.16 259.935ZM1169.33 259.935C1174.85 259.935 1179.81 261.213 1184.19 263.769 1188.58 266.325 1192.08 269.819 1194.67 274.252 1197.28 278.685 1198.57 283.617 1198.57 289.049 1198.57 294.64 1197.28 299.652 1194.67 304.085 1192.08 308.518 1188.58 312.052 1184.19 314.688 1179.81 317.324 1174.85 318.641 1169.33 318.641 1163.91 318.641 1158.97 317.324 1154.55 314.688 1150.11 312.052 1146.6 308.498 1143.99 304.025 1141.4 299.552 1140.11 294.56 1140.11 289.049 1140.11 283.617 1141.4 278.705 1143.99 274.312 1146.6 269.919 1150.11 266.425 1154.55 263.829 1158.97 261.233 1163.91 259.935 1169.33 259.935ZM1028.17 235.015 1036.91 235.015 1057.99 301.747 1078.84 235.015 1085.44 235.015 1106.34 301.569 1127.37 235.015 1136.24 235.015 1109.52 317.443 1103.05 317.443 1082.13 250.655 1061.24 317.443 1054.76 317.443ZM1249.66 232.619 1258.04 232.619 1258.04 287.756 1285.48 261.133 1295.89 261.133 1267.68 288.251 1297.1 317.443 1285.96 317.443 1258.04 289.412 1258.04 317.443 1249.66 317.443Z" stroke="#531CB3" stroke-width="1.99685" stroke-linejoin="round" stroke-miterlimit="10" fill="#531CB3" fill-rule="evenodd" transform="matrix(1 0 0 1.00301 -318.674 -2.61981)"/></g></g></g></svg>