<svg width="440" height="95" xmlns="http://www.w3.org/2000/svg" xmlns:xlink="http://www.w3.org/1999/xlink" overflow="hidden"><defs><clipPath id="clip0"><rect x="260" y="377" width="440" height="95"/></clipPath><clipPath id="clip1"><rect x="261" y="377" width="438" height="94"/></clipPath><clipPath id="clip2"><rect x="261" y="377" width="438" height="94"/></clipPath></defs><g clip-path="url(#clip0)" transform="translate(-260 -377)"><g clip-path="url(#clip1)"><g clip-path="url(#clip2)"><path d="M881.909 278.317C879.989 278.317 878.29 278.757 876.81 279.636 875.33 280.516 874.15 281.716 873.27 283.236 872.39 284.756 871.95 286.476 871.95 288.395 871.95 290.315 872.37 292.035 873.21 293.555 874.05 295.075 875.23 296.274 876.75 297.154 878.27 298.034 879.949 298.474 881.789 298.474 884.749 298.474 887.128 297.534 888.928 295.655 890.728 293.775 891.628 291.355 891.628 288.395 891.628 286.396 891.228 284.656 890.428 283.176 889.628 281.696 888.488 280.516 887.008 279.636 885.529 278.757 883.829 278.317 881.909 278.317ZM707.21 273.397C704.81 273.397 702.731 273.997 700.971 275.197 699.211 276.397 697.871 278.117 696.951 280.356L696.679 281.333 716.874 281.17 716.389 279.576C715.629 277.537 714.489 275.997 712.969 274.957 711.45 273.917 709.53 273.397 707.21 273.397ZM924.784 258.879 948.301 258.879 948.301 317.912 924.784 317.912ZM998.895 257.679C1003.13 257.679 1006.91 258.619 1010.23 260.499 1013.55 262.379 1016.17 264.938 1018.09 268.178 1020.01 271.417 1020.97 275.157 1020.97 279.396L1020.97 317.912 997.455 317.912 997.455 284.796C997.455 282.476 996.795 280.696 995.475 279.456 994.156 278.217 992.496 277.597 990.496 277.597 989.136 277.597 987.916 277.877 986.837 278.437 985.757 278.996 984.917 279.816 984.317 280.896 983.717 281.976 983.417 283.276 983.417 284.796L983.417 317.912 959.9 317.912 959.9 258.879 983.417 258.879 983.417 262.11 983.597 261.969C984.427 261.409 985.307 260.899 986.237 260.439 989.956 258.599 994.176 257.679 998.895 257.679ZM876.51 257.679C879.949 257.679 883.129 258.259 886.049 259.419 887.508 259.999 888.848 260.694 890.068 261.504L890.908 262.21 890.908 258.879 913.825 258.879 913.825 317.912 890.908 317.912 890.908 314.581 890.068 315.287C888.848 316.097 887.508 316.792 886.049 317.372 883.129 318.532 879.949 319.112 876.51 319.112 870.99 319.112 866.111 317.792 861.872 315.152 857.632 312.512 854.312 308.893 851.913 304.293 849.513 299.694 848.313 294.395 848.313 288.395 848.313 282.396 849.513 277.077 851.913 272.437 854.312 267.798 857.632 264.178 861.872 261.579 866.111 258.979 870.99 257.679 876.51 257.679ZM784.321 257.679C788.32 257.679 791.94 258.639 795.18 260.559 796.799 261.519 798.254 262.663 799.544 263.993L799.779 264.269 801.7 262.621C802.573 261.977 803.498 261.389 804.478 260.859 808.398 258.739 812.877 257.679 817.917 257.679 822.636 257.679 826.816 258.679 830.455 260.679 834.095 262.678 836.955 265.558 839.034 269.318 841.114 273.077 842.154 277.597 842.154 282.876L842.154 317.912 818.637 317.912 818.637 284.076C818.637 282.076 818.037 280.496 816.837 279.336 815.637 278.177 814.117 277.597 812.277 277.597 810.998 277.597 809.858 277.857 808.858 278.377 807.858 278.897 807.098 279.636 806.578 280.596 806.058 281.556 805.798 282.716 805.798 284.076L805.798 317.912 782.281 317.912 782.281 284.076C782.281 282.076 781.681 280.496 780.481 279.336 779.281 278.177 777.762 277.597 775.922 277.597 774.642 277.597 773.502 277.857 772.502 278.377 771.502 278.897 770.742 279.636 770.223 280.596 769.703 281.556 769.443 282.716 769.443 284.076L769.443 317.912 745.925 317.912 745.925 258.879 769.443 258.879 769.443 262.032 769.522 261.969C770.329 261.409 771.182 260.899 772.082 260.439 775.682 258.599 779.761 257.679 784.321 257.679ZM706.73 257.439C712.889 257.439 718.329 258.699 723.048 261.219 727.768 263.738 731.467 267.238 734.147 271.717 736.827 276.197 738.166 281.316 738.166 287.076 738.166 288.275 738.106 289.535 737.986 290.855 737.866 292.175 737.606 293.715 737.206 295.475L696.701 295.749 697.071 296.734C698.071 298.934 699.531 300.594 701.451 301.714 703.371 302.834 705.77 303.394 708.65 303.394 711.45 303.394 713.909 302.934 716.029 302.014 718.149 301.094 720.089 299.634 721.848 297.634L733.607 309.273C730.647 312.632 727.088 315.152 722.928 316.832 718.769 318.512 714.009 319.352 708.65 319.352 701.771 319.352 695.731 318.052 690.532 315.452 685.333 312.852 681.273 309.213 678.354 304.533 675.434 299.854 673.974 294.475 673.974 288.395 673.974 282.396 675.394 277.077 678.234 272.437 681.073 267.798 684.973 264.138 689.932 261.459 694.892 258.779 700.491 257.439 706.73 257.439ZM611.382 252.88 611.382 297.514 623.38 297.514C627.86 297.514 631.739 296.694 635.019 295.055 638.298 293.415 640.818 290.915 642.578 287.555 644.338 284.196 645.218 280.036 645.218 275.077 645.218 270.118 644.318 265.998 642.518 262.718 640.718 259.439 638.198 256.979 634.959 255.339 631.719 253.7 627.86 252.88 623.38 252.88ZM587.385 232.482 602.263 232.482 611.382 232.482 623.38 232.482C630.099 232.482 636.279 233.482 641.918 235.482 647.557 237.481 652.457 240.361 656.616 244.121 660.776 247.88 663.995 252.38 666.275 257.619 668.555 262.858 669.695 268.718 669.695 275.197 669.695 281.676 668.555 287.535 666.275 292.775 663.995 298.014 660.776 302.514 656.616 306.273 652.457 310.033 647.577 312.912 641.978 314.912 636.379 316.912 630.259 317.912 623.62 317.912L611.382 317.912 603.463 317.912 587.385 317.912ZM936.543 228.883C940.062 228.883 942.942 230.062 945.182 232.422 947.421 234.782 948.541 237.681 948.541 241.121 948.541 244.561 947.421 247.46 945.182 249.82 942.942 252.18 940.062 253.36 936.543 253.36 933.103 253.36 930.243 252.18 927.964 249.82 925.684 247.46 924.544 244.561 924.544 241.121 924.544 237.681 925.684 234.782 927.964 232.422 930.243 230.062 933.103 228.883 936.543 228.883Z" stroke="#FFFFFF" stroke-width="1.9998" stroke-linejoin="round" stroke-miterlimit="10" fill="#FFFFFF" fill-rule="evenodd" transform="matrix(1 0 0 1.00153 -324.537 149.38)"/><path d="M1171.06 268.358C1167.15 268.358 1163.63 269.278 1160.51 271.117 1157.39 272.957 1154.94 275.457 1153.18 278.617 1151.42 281.776 1150.55 285.396 1150.55 289.475 1150.55 293.635 1151.42 297.334 1153.18 300.574 1154.94 303.814 1157.39 306.353 1160.51 308.193 1163.63 310.033 1167.15 310.953 1171.06 310.953 1175.06 310.953 1178.6 310.033 1181.68 308.193 1184.77 306.353 1187.2 303.794 1189.01 300.514 1190.81 297.234 1191.7 293.555 1191.7 289.475 1191.7 285.396 1190.81 281.776 1189.01 278.617 1187.2 275.457 1184.77 272.957 1181.68 271.117 1178.6 269.278 1175.06 268.358 1171.06 268.358ZM1321.25 260.319C1325.49 260.319 1329.32 261.079 1332.77 262.598 1336.2 264.118 1338.96 266.358 1341.04 269.318L1335.64 274.717C1333.96 272.557 1331.87 270.897 1329.35 269.738 1326.82 268.578 1324.01 267.998 1320.89 267.998 1317.29 267.998 1314.55 268.698 1312.66 270.098 1310.78 271.497 1309.85 273.317 1309.85 275.557 1309.85 277.717 1310.61 279.416 1312.13 280.656 1313.65 281.896 1315.58 282.896 1317.94 283.656 1320.3 284.416 1322.8 285.176 1325.44 285.936 1328.08 286.696 1330.61 287.695 1333.01 288.935 1335.4 290.175 1337.35 291.855 1338.82 293.975 1340.3 296.094 1341.04 298.954 1341.04 302.554 1341.04 307.593 1339.23 311.613 1335.58 314.612 1331.94 317.612 1327.01 319.112 1320.77 319.112 1317.73 319.112 1314.8 318.692 1312.01 317.852 1309.2 317.012 1306.66 315.832 1304.39 314.312 1302.11 312.792 1300.13 310.993 1298.44 308.913L1303.85 303.394C1306.08 306.113 1308.63 308.133 1311.46 309.453 1314.3 310.773 1317.49 311.433 1321.01 311.433 1324.77 311.433 1327.7 310.713 1329.82 309.273 1331.94 307.833 1333.01 305.833 1333.01 303.274 1333.01 300.874 1332.25 298.994 1330.73 297.634 1329.2 296.274 1327.27 295.195 1324.9 294.395 1322.54 293.595 1320.04 292.815 1317.4 292.055 1314.77 291.295 1312.25 290.335 1309.85 289.175 1307.44 288.015 1305.51 286.396 1304.03 284.316 1302.55 282.236 1301.8 279.516 1301.8 276.157 1301.8 272.957 1302.58 270.178 1304.14 267.818 1305.7 265.458 1307.94 263.618 1310.87 262.298 1313.78 260.979 1317.25 260.319 1321.25 260.319ZM1231.97 260.319C1234.78 260.319 1237.33 260.819 1239.65 261.819 1241.97 262.818 1244.14 264.398 1246.14 266.558L1240.62 272.437C1239.26 270.917 1237.76 269.838 1236.12 269.198 1234.47 268.558 1232.62 268.238 1230.54 268.238 1226.21 268.238 1222.69 269.658 1219.97 272.497 1217.26 275.337 1215.9 279.516 1215.9 285.036L1215.9 317.912 1207.51 317.912 1207.51 261.519 1215.9 261.519 1215.9 269.147 1217.64 266.558C1221.12 262.398 1225.9 260.319 1231.97 260.319ZM1171.06 260.319C1176.58 260.319 1181.55 261.599 1185.94 264.158 1190.34 266.718 1193.84 270.218 1196.44 274.657 1199.05 279.096 1200.34 284.036 1200.34 289.475 1200.34 295.075 1199.05 300.094 1196.44 304.533 1193.84 308.973 1190.34 312.512 1185.94 315.152 1181.55 317.792 1176.58 319.112 1171.06 319.112 1165.63 319.112 1160.68 317.792 1156.25 315.152 1151.81 312.512 1148.29 308.953 1145.68 304.473 1143.08 299.994 1141.79 294.995 1141.79 289.475 1141.79 284.036 1143.08 279.116 1145.68 274.717 1148.29 270.318 1151.81 266.818 1156.25 264.218 1160.68 261.619 1165.63 260.319 1171.06 260.319ZM1029.69 235.362 1038.44 235.362 1059.55 302.193 1080.43 235.362 1087.04 235.362 1107.98 302.014 1129.03 235.362 1137.91 235.362 1111.16 317.912 1104.68 317.912 1083.73 251.025 1062.8 317.912 1056.31 317.912ZM1251.5 232.962 1259.9 232.962 1259.9 288.18 1287.38 261.519 1297.8 261.519 1269.55 288.676 1299.01 317.912 1287.86 317.912 1259.9 289.839 1259.9 317.912 1251.5 317.912Z" stroke="#FFFFFF" stroke-width="1.9998" stroke-linejoin="round" stroke-miterlimit="10" fill="#FFFFFF" fill-rule="evenodd" transform="matrix(1 0 0 1.00153 -324.537 149.38)"/></g></g></g></svg>