<svg width="760" height="95" xmlns="http://www.w3.org/2000/svg" xmlns:xlink="http://www.w3.org/1999/xlink" overflow="hidden"><defs><clipPath id="clip0"><rect x="260" y="377" width="760" height="95"/></clipPath><clipPath id="clip1"><rect x="261" y="377" width="758" height="94"/></clipPath><clipPath id="clip2"><rect x="261" y="377" width="759" height="94"/></clipPath></defs><g clip-path="url(#clip0)" transform="translate(-260 -377)"><g clip-path="url(#clip1)"><g clip-path="url(#clip2)"><path d="M882.174 278.4C880.254 278.4 878.554 278.84 877.073 279.72 875.593 280.601 874.413 281.801 873.533 283.321 872.652 284.841 872.212 286.562 872.212 288.482 872.212 290.402 872.632 292.123 873.473 293.643 874.313 295.163 875.493 296.363 877.013 297.244 878.534 298.124 880.214 298.564 882.054 298.564 885.015 298.564 887.395 297.624 889.195 295.743 890.996 293.863 891.896 291.443 891.896 288.482 891.896 286.482 891.496 284.741 890.696 283.261 889.896 281.781 888.755 280.601 887.275 279.72 885.795 278.84 884.095 278.4 882.174 278.4ZM707.423 273.479C705.022 273.479 702.942 274.079 701.182 275.28 699.421 276.48 698.081 278.2 697.161 280.441L696.889 281.418 717.089 281.255 716.604 279.66C715.844 277.62 714.704 276.08 713.184 275.04 711.663 273.999 709.743 273.479 707.423 273.479ZM925.062 258.957 948.586 258.957 948.586 318.007 925.062 318.007ZM999.195 257.757C1003.43 257.757 1007.21 258.697 1010.53 260.577 1013.85 262.457 1016.47 265.018 1018.39 268.258 1020.31 271.499 1021.27 275.24 1021.27 279.48L1021.27 318.007 997.755 318.007 997.755 284.881C997.755 282.561 997.095 280.781 995.775 279.54 994.454 278.3 992.794 277.68 990.794 277.68 989.434 277.68 988.213 277.96 987.133 278.52 986.053 279.08 985.213 279.901 984.613 280.981 984.013 282.061 983.712 283.361 983.712 284.881L983.712 318.007 960.188 318.007 960.188 258.957 983.712 258.957 983.712 262.188 983.893 262.047C984.723 261.487 985.603 260.977 986.533 260.517 990.254 258.677 994.474 257.757 999.195 257.757ZM876.773 257.757C880.214 257.757 883.394 258.337 886.315 259.497 887.775 260.077 889.115 260.772 890.336 261.582L891.176 262.288 891.176 258.957 914.1 258.957 914.1 318.007 891.176 318.007 891.176 314.676 890.336 315.382C889.115 316.192 887.775 316.887 886.315 317.467 883.394 318.628 880.214 319.208 876.773 319.208 871.252 319.208 866.371 317.887 862.131 315.247 857.89 312.606 854.569 308.986 852.169 304.385 849.768 299.784 848.568 294.483 848.568 288.482 848.568 282.481 849.768 277.16 852.169 272.519 854.569 267.878 857.89 264.258 862.131 261.657 866.371 259.057 871.252 257.757 876.773 257.757ZM784.557 257.757C788.557 257.757 792.178 258.717 795.419 260.637 797.039 261.597 798.494 262.742 799.784 264.073L800.019 264.349 801.941 262.7C802.814 262.055 803.74 261.467 804.72 260.937 808.641 258.817 813.122 257.757 818.163 257.757 822.883 257.757 827.064 258.757 830.705 260.757 834.346 262.757 837.206 265.638 839.286 269.399 841.367 273.159 842.407 277.68 842.407 282.961L842.407 318.007 818.883 318.007 818.883 284.161C818.883 282.161 818.283 280.581 817.082 279.42 815.882 278.26 814.362 277.68 812.522 277.68 811.241 277.68 810.101 277.94 809.101 278.46 808.101 278.98 807.341 279.72 806.821 280.681 806.301 281.641 806.04 282.801 806.04 284.161L806.04 318.007 782.516 318.007 782.516 284.161C782.516 282.161 781.916 280.581 780.716 279.42 779.516 278.26 777.995 277.68 776.155 277.68 774.875 277.68 773.735 277.94 772.734 278.46 771.734 278.98 770.974 279.72 770.454 280.681 769.934 281.641 769.674 282.801 769.674 284.161L769.674 318.007 746.15 318.007 746.15 258.957 769.674 258.957 769.674 262.11 769.753 262.047C770.56 261.487 771.414 260.977 772.314 260.517 775.915 258.677 779.996 257.757 784.557 257.757ZM706.943 257.516C713.104 257.516 718.545 258.777 723.266 261.297 727.986 263.818 731.687 267.318 734.367 271.799 737.048 276.28 738.388 281.401 738.388 287.162 738.388 288.362 738.328 289.622 738.208 290.943 738.088 292.263 737.828 293.803 737.428 295.563L696.911 295.837 697.281 296.824C698.281 299.024 699.741 300.684 701.662 301.804 703.582 302.925 705.982 303.485 708.863 303.485 711.663 303.485 714.124 303.025 716.244 302.104 718.365 301.184 720.305 299.724 722.065 297.724L733.827 309.366C730.867 312.726 727.306 315.247 723.146 316.927 718.985 318.607 714.224 319.448 708.863 319.448 701.982 319.448 695.941 318.147 690.74 315.547 685.539 312.946 681.478 309.306 678.557 304.625 675.637 299.944 674.177 294.563 674.177 288.482 674.177 282.481 675.597 277.16 678.437 272.519 681.278 267.878 685.179 264.218 690.14 261.537 695.1 258.857 700.701 257.516 706.943 257.516ZM611.565 252.956 611.565 297.604 623.568 297.604C628.048 297.604 631.929 296.784 635.21 295.143 638.49 293.503 641.011 291.003 642.771 287.642 644.531 284.281 645.411 280.121 645.411 275.16 645.411 270.199 644.511 266.078 642.711 262.797 640.911 259.517 638.39 257.056 635.15 255.416 631.909 253.776 628.048 252.956 623.568 252.956ZM587.561 232.552 602.444 232.552 611.565 232.552 623.568 232.552C630.289 232.552 636.47 233.552 642.111 235.553 647.752 237.553 652.653 240.433 656.814 244.194 660.974 247.955 664.195 252.456 666.475 257.697 668.756 262.937 669.896 268.798 669.896 275.28 669.896 281.761 668.756 287.622 666.475 292.863 664.195 298.104 660.974 302.605 656.814 306.365 652.653 310.126 647.772 313.007 642.171 315.007 636.57 317.007 630.449 318.007 623.808 318.007L611.565 318.007 603.644 318.007 587.561 318.007ZM936.824 228.951C940.345 228.951 943.225 230.132 945.466 232.492 947.706 234.852 948.826 237.753 948.826 241.194 948.826 244.634 947.706 247.535 945.466 249.895 943.225 252.256 940.345 253.436 936.824 253.436 933.383 253.436 930.523 252.256 928.242 249.895 925.962 247.535 924.822 244.634 924.822 241.194 924.822 237.753 925.962 234.852 928.242 232.492 930.523 230.132 933.383 228.951 936.824 228.951Z" stroke="#FFFFFF" stroke-width="2.0004" stroke-linejoin="round" stroke-miterlimit="10" fill="#FFFFFF" fill-rule="evenodd" transform="matrix(1 0 0 1.00123 -324.705 149.38)"/><path d="M1171.41 268.438C1167.5 268.438 1163.98 269.359 1160.86 271.199 1157.74 273.039 1155.29 275.54 1153.53 278.7 1151.77 281.861 1150.9 285.482 1150.9 289.562 1150.9 293.723 1151.77 297.424 1153.53 300.664 1155.29 303.905 1157.74 306.445 1160.86 308.286 1163.98 310.126 1167.5 311.046 1171.41 311.046 1175.41 311.046 1178.95 310.126 1182.03 308.286 1185.12 306.445 1187.55 303.885 1189.36 300.604 1191.16 297.324 1192.06 293.643 1192.06 289.562 1192.06 285.482 1191.16 281.861 1189.36 278.7 1187.55 275.54 1185.12 273.039 1182.03 271.199 1178.95 269.359 1175.41 268.438 1171.41 268.438ZM1321.65 260.397C1325.89 260.397 1329.72 261.157 1333.17 262.677 1336.6 264.198 1339.36 266.438 1341.44 269.399L1336.04 274.8C1334.36 272.639 1332.27 270.979 1329.75 269.819 1327.22 268.658 1324.41 268.078 1321.29 268.078 1317.69 268.078 1314.95 268.779 1313.06 270.179 1311.18 271.579 1310.25 273.399 1310.25 275.64 1310.25 277.8 1311.01 279.5 1312.53 280.741 1314.05 281.981 1315.98 282.981 1318.34 283.741 1320.7 284.501 1323.2 285.261 1325.84 286.022 1328.48 286.782 1331.01 287.782 1333.41 289.022 1335.8 290.262 1337.75 291.943 1339.22 294.063 1340.7 296.183 1341.44 299.044 1341.44 302.645 1341.44 307.686 1339.63 311.706 1335.98 314.707 1332.34 317.707 1327.41 319.208 1321.17 319.208 1318.13 319.208 1315.2 318.788 1312.41 317.947 1309.6 317.107 1307.06 315.927 1304.79 314.407 1302.51 312.886 1300.52 311.086 1298.83 309.006L1304.25 303.485C1306.48 306.205 1309.03 308.226 1311.86 309.546 1314.7 310.866 1317.89 311.526 1321.41 311.526 1325.17 311.526 1328.1 310.806 1330.22 309.366 1332.34 307.926 1333.41 305.925 1333.41 303.365 1333.41 300.964 1332.65 299.084 1331.13 297.724 1329.6 296.363 1327.67 295.283 1325.3 294.483 1322.94 293.683 1320.44 292.903 1317.8 292.143 1315.17 291.383 1312.65 290.422 1310.25 289.262 1307.84 288.102 1305.91 286.482 1304.43 284.401 1302.95 282.321 1302.19 279.6 1302.19 276.24 1302.19 273.039 1302.98 270.259 1304.54 267.898 1306.1 265.538 1308.34 263.698 1311.27 262.377 1314.18 261.057 1317.65 260.397 1321.65 260.397ZM1232.34 260.397C1235.15 260.397 1237.7 260.897 1240.02 261.897 1242.34 262.897 1244.51 264.478 1246.52 266.638L1240.99 272.519C1239.63 270.999 1238.13 269.919 1236.49 269.279 1234.84 268.638 1232.99 268.318 1230.91 268.318 1226.58 268.318 1223.06 269.739 1220.34 272.579 1217.63 275.42 1216.27 279.6 1216.27 285.121L1216.27 318.007 1207.87 318.007 1207.87 261.597 1216.27 261.597 1216.27 269.228 1218.01 266.638C1221.49 262.477 1226.27 260.397 1232.34 260.397ZM1171.41 260.397C1176.93 260.397 1181.9 261.677 1186.29 264.238 1190.69 266.798 1194.2 270.299 1196.8 274.74 1199.41 279.18 1200.7 284.121 1200.7 289.562 1200.7 295.163 1199.41 300.184 1196.8 304.625 1194.2 309.066 1190.69 312.606 1186.29 315.247 1181.9 317.887 1176.93 319.208 1171.41 319.208 1165.98 319.208 1161.03 317.887 1156.6 315.247 1152.16 312.606 1148.64 309.046 1146.03 304.565 1143.43 300.084 1142.14 295.083 1142.14 289.562 1142.14 284.121 1143.43 279.2 1146.03 274.8 1148.64 270.399 1152.16 266.898 1156.6 264.298 1161.03 261.697 1165.98 260.397 1171.41 260.397ZM1030 235.432 1038.75 235.432 1059.87 302.284 1080.76 235.432 1087.37 235.432 1108.31 302.104 1129.37 235.432 1138.26 235.432 1111.49 318.007 1105.01 318.007 1084.06 251.1 1063.12 318.007 1056.63 318.007ZM1251.88 233.032 1260.28 233.032 1260.28 288.267 1287.76 261.597 1298.19 261.597 1269.93 288.763 1299.4 318.007 1288.24 318.007 1260.28 289.926 1260.28 318.007 1251.88 318.007Z" stroke="#FFFFFF" stroke-width="2.0004" stroke-linejoin="round" stroke-miterlimit="10" fill="#FFFFFF" fill-rule="evenodd" transform="matrix(1 0 0 1.00123 -324.705 149.38)"/></g></g></g></svg>