<svg xmlns="http://www.w3.org/2000/svg" viewBox="0 0 1000 930" width="1000" height="930"><path fill="#FFF" d="M0 0h1000v930H0z"/><g transform="translate(105.0 -20.0) rotate(89.99999999999994 387.5 468.5) scale(1.2704918032786885 1.271370420624152)"><svg width="610" height="737" viewBox="0 0 610 737"><g fill="#E6E6E6"><path d="M425.472 1.313c-33.049 3.715-75.084 17.669-91.933 69.166-24.754 75.689-74.868 83.552-130.641 74.523-11.88-1.901-24.193-2.16-36.678-.475C97.357 153.771.283 238.057.283 340.876c0 99.795 20.132 154.445 50.546 204.775 37.585 62.21 106.405 141.269 171.51 131.937 40.523-5.832 67.826-31.235 90.421-62.124 47.176-64.543 74.739-79.318 154.316-86.662 1.728-.173 3.499-.346 5.227-.605 68.863-9.245 128.222-80.139 129.388-149.607 1.253-75.041 19.57-167.363-2.549-239.941C576.202 63.393 494.422-6.42 425.472 1.313z"/><path d="M483.794 699.924c-30.371 26.871-90.68 23.977-117.551-6.394s-11.362-76.899 19.052-103.77c30.371-26.871 80.312-38.233 107.183-7.863 26.871 30.414 21.687 91.156-8.684 118.027zm-151.032 21.86c-9.98 14.429-35.598 19.441-50.027 9.504-14.429-9.98-12.744-31.105-2.765-45.534 9.98-14.429 29.766-24.366 44.195-14.386 14.472 9.936 18.576 35.987 8.597 50.416z"/></g></svg></g><g transform="translate(111.0 149.0) rotate(0.0 401.0 266.0) scale(1.9950248756218905 1.9925093632958801)"><svg width="402" height="267" viewBox="0 0 402 267"><clipPath id="a"><path d="M0 0h401.241v266.152H0z"/></clipPath><g clip-path="url(#a)"><path d="M371.325 136.874c-9.182 0-17.372 5.346-22.588 13.622l5.6-64.7-68.5-6.639C297.4 85.448 304.509 97.173 303 109.631c-2.069 16.941-19.441 28.709-38.753 26.338s-33.279-18.018-31.21-34.96c1.466-11.768 10.3-21.079 22.028-24.829l-68.238-6.6-6.423 82.549-1.724 24.361-6.035 76.083 166.178 12.286 6.724-77.463c4.613 11.811 14.441 19.915 25.778 19.915 15.82 0 28.623-15.777 28.623-35.218s-12.803-35.219-28.623-35.219z" fill="#E2D8F4"/><path d="M206.441 130.409c-9.656 0-18.622 5.733-24.183 15l5.863-75.7a1.317 1.317 0 0 0-1.164-1.38l-69.7-7.241c10.389-4.742 17.588-13.838 18.881-24.356 1.078-8.578-1.724-17.07-7.889-23.967A39.035 39.035 0 0 0 103.8.312c-20-2.457-38.02 9.87-40.176 27.459-1.379 11.122 3.88 22.028 13.58 29.1l-64.14-6.684a1.326 1.326 0 0 0-1.423 1.207L.001 237.615A1.294 1.294 0 0 0 1.165 239l171.35 14.872h.13c.299-.008.586-.113.819-.3.271-.228.441-.553.474-.905l5.431-70.135c4.871 12.587 15.26 20.907 27.071 20.907 16.51 0 29.917-16.381 29.917-36.512s-13.407-36.518-29.917-36.518z" fill="#531CB3"/><path d="M338.823 266.152h-.087l-166.177-12.285a1.492 1.492 0 0 1-.905-.431 1.286 1.286 0 0 1-.247-.444 1.288 1.288 0 0 1-.053-.505l6.035-76.083a1.299 1.299 0 0 1 2.233-.709 1.3 1.3 0 0 1 .354.881l-5.949 74.79 163.591 12.113 6.6-76.212a1.299 1.299 0 0 1 2.5-.345c4.569 11.6 14.225 19.1 24.614 19.1 15.088 0 27.33-15.217 27.33-33.925s-12.286-33.925-27.33-33.925c-8.449 0-16.294 4.742-21.51 13.018a1.236 1.236 0 0 1-1.509.517 1.273 1.273 0 0 1-.862-1.336l5.474-63.41-61.9-5.992c9.484 7.069 14.57 17.932 13.234 28.8-1.983 16.122-17.243 27.8-35.132 27.8-1.7.006-3.399-.094-5.087-.3a39.04 39.04 0 0 1-24.442-12.458c-6.164-6.9-8.966-15.39-7.888-23.968 1.25-10.259 7.975-19.053 17.932-23.881l-61.6-5.949-6.294 81.214a1.29 1.29 0 0 1-.406.96 1.29 1.29 0 0 1-.981.354 1.31 1.31 0 0 1-1.167-.955 1.308 1.308 0 0 1-.032-.532l6.423-82.55a1.345 1.345 0 0 1 .917-1.152c.163-.052.335-.07.505-.053l68.238 6.6a1.325 1.325 0 0 1 1.164 1.164 1.302 1.302 0 0 1-.9 1.379c-11.725 3.75-19.829 12.846-21.166 23.752a27.73 27.73 0 0 0 7.242 21.9 36.39 36.39 0 0 0 22.8 11.6c18.579 2.285 35.305-9.052 37.287-25.217 1.423-11.467-5.043-22.933-16.466-29.184a1.277 1.277 0 0 1-.6-1.509 1.313 1.313 0 0 1 1.38-.905l68.5 6.6a1.32 1.32 0 0 1 1.164 1.379l-5.216 60.048c5.561-6.639 12.975-10.389 20.907-10.389 16.51 0 29.916 16.381 29.916 36.512s-13.406 36.511-29.916 36.511c-10.044 0-19.441-6.25-24.916-16.294l-6.309 72.654a1.346 1.346 0 0 1-1.293 1.252z" fill="#531CB3"/><path d="m172.775 251.322 88.843 6.553c11.9-9.656 18.8-21.123 18.8-33.408 0-34.744-55.177-62.936-123.286-62.936-68.109 0-123.29 28.192-123.29 62.936a34.471 34.471 0 0 0 3.577 15.087z" fill="#fff"/><path d="M371.325 135.499c-7.932 0-15.346 3.75-20.907 10.389l5.216-60.048a1.322 1.322 0 0 0-1.164-1.379l-68.5-6.6a1.316 1.316 0 0 0-1.38.905 1.277 1.277 0 0 0 .6 1.51c11.423 6.25 17.889 17.716 16.466 29.183-1.982 16.165-18.708 27.5-37.287 25.217a36.38 36.38 0 0 1-22.8-11.6 27.729 27.729 0 0 1-7.242-21.9c1.337-10.906 9.441-20 21.166-23.752a1.3 1.3 0 0 0 .52-2.163 1.325 1.325 0 0 0-.784-.38L187 68.291a1.259 1.259 0 0 0-.948.3 1.343 1.343 0 0 0-.474.906l-6.423 82.549a1.308 1.308 0 0 0 .274 1.006c.113.14.253.255.413.337a1.292 1.292 0 0 0 1.04.07 1.302 1.302 0 0 0 .859-1.24l6.294-81.214 61.6 5.95c-9.957 4.827-16.682 13.621-17.932 23.88-1.078 8.579 1.724 17.071 7.889 23.968a39.03 39.03 0 0 0 24.441 12.458c1.688.206 3.387.306 5.087.3 17.889 0 33.149-11.682 35.132-27.8 1.336-10.863-3.75-21.725-13.234-28.795l61.9 5.992-5.475 63.41a1.278 1.278 0 0 0 .862 1.336 1.24 1.24 0 0 0 1.509-.517c5.216-8.276 13.061-13.018 21.51-13.018 15.045 0 27.33 15.217 27.33 33.925s-12.242 33.925-27.33 33.925c-10.389 0-20.045-7.5-24.614-19.1a1.304 1.304 0 0 0-1.385-.805 1.298 1.298 0 0 0-1.115 1.15l-6.6 76.213-75.955-5.648c-.474.388-.991.776-1.509 1.207l-87.55-6.466-1.25-.129v.043a1.255 1.255 0 0 0 .3.949c.243.244.563.396.905.431l166.177 12.285h.086a1.343 1.343 0 0 0 1.294-1.25l6.293-72.678c5.475 10.044 14.872 16.294 24.916 16.294 16.51 0 29.916-16.38 29.916-36.511s-13.398-36.505-29.908-36.505z" fill="#531CB3"/><path d="M263.687 194.94a1.137 1.137 0 0 1-.819-.3 1.264 1.264 0 0 1-.473-.868 1.254 1.254 0 0 1 .301-.943 237.805 237.805 0 0 1 84.144-64.445 1.303 1.303 0 0 1 1.078 2.371 234.91 234.91 0 0 0-83.239 63.712 1.296 1.296 0 0 1-.992.473z" fill="#fff"/><path d="M172.646 253.867h-.087a1.3 1.3 0 0 1-1.207-1.38l5.992-77.247a1.298 1.298 0 0 1 1.207-1.207 1.261 1.261 0 0 1 1.336 1.034c3.018 15.174 13.924 25.778 26.511 25.778 15.088 0 27.33-15.217 27.33-33.925 0-.343.136-.672.379-.914a1.29 1.29 0 0 1 1.829 0c.242.242.378.571.378.914 0 20.131-13.406 36.512-29.916 36.512-11.811 0-22.2-8.32-27.071-20.907l-5.388 70.135a1.28 1.28 0 0 1-1.293 1.207zm11.164-143.46h-.086a1.305 1.305 0 0 1-.888-.44 1.305 1.305 0 0 1-.319-.939l2.242-30.95a1.294 1.294 0 0 1 .859-1.24 1.299 1.299 0 0 1 1.727 1.411L185.1 109.2a1.34 1.34 0 0 1-1.29 1.207z" fill="#531CB3"/><path d="M185.233 107.26a184.197 184.197 0 0 0 54.961-31.166l-37.115-3.578a170.97 170.97 0 0 1-15.906 7.932z" fill="#fff"/><path d="M87.897 160.196c8.452 0 15.303-6.852 15.303-15.303 0-8.452-6.851-15.303-15.303-15.303-8.451 0-15.303 6.851-15.303 15.303 0 8.451 6.852 15.303 15.303 15.303z" fill="#E2D8F4"/><path d="M184.5 81.612a166.304 166.304 0 0 1-18.277 6.336c-19.485 5.475-40.693 7.544-62.936 6.165A251.151 251.151 0 0 1 13.064 70.62L11.47 96.4c19.182 8.19 51.6 19.355 90.309 21.812 5 .3 9.957.474 14.872.474a207.846 207.846 0 0 0 56.125-7.457c3.319-.948 6.552-1.94 9.785-3.061zM308.906 208.13c5.238 0 9.484-4.246 9.484-9.484s-4.246-9.484-9.484-9.484c-5.237 0-9.484 4.246-9.484 9.484s4.247 9.484 9.484 9.484z" fill="#fff"/><path d="M227 257.53a1.182 1.182 0 0 1-.388-.043 1.31 1.31 0 0 1-.862-1.638c.043-.173 5.173-16.209 18.493-37.547a236.13 236.13 0 0 1 18.407-25.476 1.288 1.288 0 0 1 2.272.697c.032.34-.072.678-.289.941a231.292 231.292 0 0 0-18.233 25.218c-13.147 21.079-18.191 36.813-18.234 36.986a1.129 1.129 0 0 1-1.166.862z" fill="#531CB3"/></g></svg></g><g transform="translate(746.0 208.0) rotate(0.0 83.5 83.5) scale(2.3946428827485335 2.3946428827485335)"><svg width="69.739" height="69.739" viewBox="0 0 69.739 69.739"><circle cx="34.87" cy="34.87" fill="#fece2f" r="32.87"/><g fill="#531CB3"><path d="M34.869 69.739C15.643 69.739 0 54.096 0 34.869S15.643 0 34.869 0s34.87 15.643 34.87 34.87-15.643 34.87-34.87 34.87zm0-65.739C17.848 4 4 17.848 4 34.869s13.848 30.87 30.869 30.87 30.87-13.848 30.87-30.87S51.891 4 34.869 4z"/><path d="M30.664 53.03a4.62 4.62 0 0 1-3.32-1.409L15.135 38.979a4.615 4.615 0 0 1 6.64-6.412l8.72 9.03 16.271-18.613a4.616 4.616 0 0 1 6.95 6.074L34.14 51.453a4.614 4.614 0 0 1-3.361 1.577l-.114.001z"/></g></svg></g></svg>