<svg xmlns="http://www.w3.org/2000/svg" viewBox="0 0 650 500" width="650" height="500"><g transform="translate(27.0 32.0) rotate(0.0 175.0 175.0) scale(0.3078295117032383 0.30824891716558955)"><svg width="1136.993" height="1135.446" viewBox="0 0 1136.993 1135.446"><path d="M174.387 16.794C38.718 55.982-25.955 184.008 9.654 327.881c24.48 98.911 94.199 137.006 113.87 282.83 22.548 167.153-51.893 233.413 17.465 339.56 85.457 130.787 244.8 59.053 405.848 95.301 159.115 35.813 265.481 108.028 398.426 85.657 133.417-22.45 199.756-128.862 190.957-278.049-19.039-322.786-259.161-392.003-465.645-468.075-59.303-21.848-93.031-100.079-91.377-173.191 4.301-190.125-237.436-243.465-404.811-195.12z" fill="#D2C3EF"/></svg></g><g transform="translate(482.0 346.0) rotate(0.0 64.0 64.0) scale(0.16 0.15980024968789014)"><svg width="800" height="801" viewBox="0 0 800 801"><path d="M400 800.725c220.914 0 400-179.086 400-400s-179.086-400-400-400-400 179.086-400 400 179.086 400 400 400z" fill="#D2C3EF"/></svg></g><g transform="translate(141.0 130.0) rotate(0.0 202.5 157.5) scale(0.4418908125990163 0.44250646902314233)"><svg width="916.516" height="711.854" viewBox="0 0 916.516 711.854"><path d="M914.516 51.159V660.7c0 27.144-22.012 49.156-49.156 49.156H51.16c-27.154 0-49.157-22.012-49.157-49.156V51.159c0-27.154 22.002-49.157 49.157-49.157h814.199c27.144 0 49.157 22.003 49.157 49.157z" fill="#fff"/><g fill="#E2D8F4"><path d="M914.516 289.342V660.7c0 27.144-22.012 49.156-49.156 49.156H301.131c11.257-5.112 23.89-12.319 38.116-22.533 34.331-24.667 63.569-59.863 104.723-69.468 28.58-6.675 58.319.285 87.626 1.868 55.773 3.018 124.946-17.411 148.915-47.033 33.731-41.695 20.223-151.402 80.597-205.189 21.806-19.427 50.385-28.963 77.077-40.83 20.43-9.084 47.043-24.361 76.331-37.329zm0-238.183v17.008H2.004V51.159c0-27.154 22.002-49.157 49.157-49.157H865.36c1.268 0 2.537.049 3.785.148.403.029.806.059 1.209.108.492.049.983.098 1.465.167a18.9 18.9 0 0 1 1.022.147l.747.118c.256.039.501.088.757.138.305.049.61.108.914.177.226.039.452.088.678.147a43.58 43.58 0 0 1 2.871.718c.393.108.777.226 1.16.344.61.187 1.209.394 1.799.6.344.118.688.246 1.022.373.433.167.855.334 1.278.511.246.098.492.197.727.305.334.147.659.285.993.443a46.288 46.288 0 0 1 5.673 3.067c.728.457 1.438.941 2.14 1.436.24.169.48.337.716.51.607.445 1.206.901 1.792 1.371.284.228.561.463.84.697.172.144.348.284.518.43l-.052-.025c10.466 9.006 17.102 22.333 17.102 37.227zM15.63 694.647C7.195 685.819 2.004 673.874 2.004 660.7V68.167h7.432v603.721a44.687 44.687 0 0 0 6.194 22.759z"/></g><path d="M897.468 13.957a44.719 44.719 0 0 0-20.498-4.945H54.415c-24.844 0-44.978 20.134-44.978 44.978v14.177H2.004V51.159c0-27.154 22.002-49.157 49.157-49.157H865.36c1.278 0 2.537.049 3.785.148.403.029.806.059 1.209.108.492.049.983.098 1.465.167a18.9 18.9 0 0 1 1.022.147l.747.118c.256.039.501.088.757.138.305.049.61.108.914.177.226.039.452.088.678.147a43.58 43.58 0 0 1 2.871.718c.393.108.777.226 1.16.344.61.187 1.209.394 1.799.6.344.118.688.246 1.022.373.433.167.855.334 1.278.511.246.098.492.197.727.305.334.147.659.285.993.443a50.007 50.007 0 0 1 5.673 3.067 50.117 50.117 0 0 1 6.008 4.444z" fill="#fff"/><path d="M864.516 711.854H52c-28.673 0-52-23.327-52-52V52C0 23.327 23.327 0 52 0h812.516c28.673 0 52 23.327 52 52v607.854c0 28.673-23.327 52-52 52zM52 4C25.533 4 4 25.533 4 52v607.854c0 26.467 21.533 48 48 48h812.516c26.467 0 48-21.533 48-48V52c0-26.467-21.533-48-48-48z" fill="#531CB3"/><path d="M914.516 70.169H2a2 2 0 0 1-2-2V52C0 23.327 23.327 0 52 0h812.516c28.673 0 52 23.327 52 52v16.169a2 2 0 0 1-2 2zM4 66.169h908.516V52c0-26.467-21.533-48-48-48H52C25.533 4 4 25.533 4 52z" fill="#531CB3"/><circle cx="57.88" cy="35.902" fill="#fff" r="15.607"/><path d="M57.88 53.509c-9.709 0-17.607-7.898-17.607-17.607 0-9.708 7.898-17.607 17.607-17.607 9.708 0 17.607 7.898 17.607 17.607 0 9.708-7.899 17.607-17.607 17.607zm0-31.214c-7.503 0-13.607 6.104-13.607 13.607s6.104 13.607 13.607 13.607 13.607-6.104 13.607-13.607-6.104-13.607-13.607-13.607z" fill="#531CB3"/><circle cx="111.904" cy="35.902" fill="#E2D8F4" r="15.607"/><path d="M111.904 53.509c-9.708 0-17.607-7.898-17.607-17.607 0-9.708 7.898-17.607 17.607-17.607s17.607 7.898 17.607 17.607c0 9.708-7.899 17.607-17.607 17.607zm0-31.214c-7.503 0-13.607 6.104-13.607 13.607s6.104 13.607 13.607 13.607 13.607-6.104 13.607-13.607-6.104-13.607-13.607-13.607z" fill="#531CB3"/><circle cx="165.928" cy="35.902" fill="#E2D8F4" r="15.607"/><path d="M165.928 53.509c-9.708 0-17.607-7.898-17.607-17.607 0-9.708 7.898-17.607 17.607-17.607s17.607 7.898 17.607 17.607c0 9.708-7.898 17.607-17.607 17.607zm0-31.214c-7.503 0-13.607 6.104-13.607 13.607s6.104 13.607 13.607 13.607 13.607-6.104 13.607-13.607-6.104-13.607-13.607-13.607z" fill="#531CB3"/></svg></g><g transform="translate(257.0 207.0) rotate(0.0 87.0 80.5) scale(0.7243963363863447 0.724112961622013)"><svg width="240.2" height="222.341" viewBox="0 0 240.2 222.341"><path d="m234.858 83.708-10.073-26.044-21.229 7.378-95.973-33.276c-12.524-4.343-26.376.717-33.153 12.109l-49.517 83.247-21.646 7.522 11.517 29.363c.196.548.408 1.091.638 1.626l.02.05.003-.001c2.971 6.874 8.688 12.592 16.479 15.293l108.362 37.572c14.543 5.042 30.626-.833 38.495-14.062l55.486-93.28c5.27-8.858 5.019-19.232.591-27.497z" fill="#531CB3"/><path d="M150.822 222.322c-3.738 0-7.515-.61-11.191-1.885L31.268 182.866c-7.986-2.77-14.238-8.551-17.615-16.287a2.102 2.102 0 0 1-.069-.153 30.833 30.833 0 0 1-.683-1.743L1.406 135.376a2 2 0 0 1 1.205-2.62l20.957-7.282 49.145-82.62c7.228-12.151 22.169-17.607 35.527-12.977l95.317 33.049 20.573-7.15a2.002 2.002 0 0 1 2.522 1.168l10.03 25.931c4.951 9.331 4.694 20.295-.694 29.354l-55.486 93.28c-6.328 10.635-17.792 16.812-29.68 16.813zM17.25 164.823l.03.065c2.916 6.746 8.349 11.789 15.298 14.198l108.362 37.571c13.582 4.711 28.773-.84 36.121-13.194l55.486-93.28c4.687-7.879 4.891-17.423.548-25.531a1.796 1.796 0 0 1-.102-.223l-9.376-24.241-19.404 6.744a2.007 2.007 0 0 1-1.312 0l-95.972-33.276c-11.573-4.015-24.517.716-30.778 11.242l-49.518 83.247a1.996 1.996 0 0 1-1.062.866l-19.681 6.84 10.757 27.426c.2.557.393 1.055.603 1.546z" fill="#531CB3"/><path d="M132.621 191.527 20.792 152.754C4.081 146.96-3.104 127.289 5.938 112.088L63.3 15.654C70.076 4.261 83.928-.798 96.452 3.544l111.829 38.774c16.711 5.794 23.896 25.465 14.854 40.666l-57.362 96.434c-6.776 11.392-20.627 16.452-33.152 12.109z" fill="#E2D8F4"/><g fill="#531CB3"><path d="M141.695 195.056c-3.249 0-6.534-.531-9.729-1.639L20.137 154.644a29.814 29.814 0 0 1-18.308-18.009 29.81 29.81 0 0 1 2.39-25.569l57.362-96.434C68.808 2.481 83.749-2.977 97.107 1.654l111.829 38.774c8.535 2.959 15.208 9.523 18.308 18.009s2.228 17.805-2.39 25.568l-57.362 96.435c-5.498 9.245-15.463 14.615-25.797 14.616zM87.37 4.015c-8.955 0-17.587 4.652-22.351 12.662L7.657 113.11a25.827 25.827 0 0 0-2.07 22.152 25.826 25.826 0 0 0 15.861 15.602l111.829 38.773c11.572 4.017 24.517-.715 30.779-11.242l57.361-96.435c4.001-6.726 4.756-14.8 2.071-22.151s-8.466-13.038-15.861-15.602L95.797 5.434a25.71 25.71 0 0 0-8.427-1.419z"/><path d="M125.4 112.338c10.267-1.352 20.125-7.574 26.122-17.656 9.956-16.738 5.505-37.755-9.943-46.944-15.447-9.189-36.041-3.068-45.997 13.67-7.796 13.106-6.756 28.834 1.477 39.455-26.946-3.611-54.128 8.88-68.67 32.863l-7.598 19.029 95.493 33.385a13.505 13.505 0 0 0 16.006-5.747l3.668-6.049c12.796-21.103 7.246-47.385-10.558-62.006z"/><path d="M120.692 188.886c-1.694 0-3.405-.278-5.067-.859l-95.493-33.385a1.998 1.998 0 0 1-1.197-2.629l7.598-19.029c.041-.103.09-.201.147-.296 13.99-23.072 39.679-36.193 66.34-34.253-6.525-11.239-6.324-25.998.844-38.05 10.504-17.659 32.368-24.104 48.738-14.365 7.956 4.732 13.437 12.526 15.432 21.945 1.982 9.359.28 19.211-4.793 27.739-5.313 8.933-13.902 15.386-23.502 17.831 16.495 16.021 20.032 41.885 7.93 61.845l-3.667 6.049c-2.863 4.719-7.999 7.457-13.31 7.457zm-97.268-37.33 93.521 32.695c5.1 1.781 10.835-.277 13.636-4.896l3.667-6.049c11.795-19.453 7.445-44.999-10.118-59.422a2 2 0 0 1 1.008-3.529c10.009-1.318 19.23-7.56 24.664-16.696 4.557-7.662 6.091-16.492 4.317-24.865-1.761-8.314-6.578-15.182-13.564-19.337-14.474-8.608-33.879-2.789-43.256 12.973-7.142 12.008-6.604 26.96 1.339 37.207.497.642.557 1.52.153 2.224a2.002 2.002 0 0 1-1.999.984c-26.545-3.563-52.67 8.91-66.608 31.776z"/><path d="m17.191 137.694 3.601 15.06 81.36-39.118 53.925-45.257-3.512-13.919z"/><path d="M20.792 154.754a1.997 1.997 0 0 1-1.945-1.535l-3.601-15.061a2 2 0 0 1 .898-2.169l135.374-83.233a1.999 1.999 0 0 1 2.987 1.215l3.512 13.919a2 2 0 0 1-.653 2.021l-53.925 45.257a2.057 2.057 0 0 1-.419.271l-81.36 39.118a2.02 2.02 0 0 1-.868.197zm-1.319-16.116 2.687 11.239 78.898-37.935 52.772-44.29-2.539-10.062z"/></g><path d="M122.487 100.817c10.267-1.352 20.125-7.574 26.122-17.656 9.956-16.738 5.505-37.755-9.943-46.944-15.447-9.189-36.041-3.068-45.997 13.67-7.796 13.106-6.756 28.834 1.477 39.455-26.946-3.611-54.128 8.88-68.67 32.863l-7.5 12.368c-1.805 2.977-.405 6.859 2.884 8l94.936 32.916a10.355 10.355 0 0 0 12.246-4.414l5.003-8.252c12.796-21.103 7.246-47.384-10.558-62.006z" fill="#FFC83D"/><path d="M119.146 178.052c-1.339 0-2.691-.219-4.005-.674l-94.936-32.916c-2.141-.742-3.81-2.392-4.578-4.523s-.535-4.466.64-6.403l7.5-12.368c13.99-23.071 39.678-36.2 66.34-34.253-6.525-11.239-6.324-25.998.844-38.05 5.073-8.528 12.918-14.727 22.089-17.452 9.229-2.74 18.694-1.646 26.65 3.087 7.956 4.732 13.437 12.526 15.432 21.945 1.982 9.359.28 19.211-4.793 27.739-5.313 8.933-13.902 15.386-23.502 17.831 16.495 16.021 20.032 41.885 7.93 61.845l-5.003 8.252c-2.28 3.758-6.375 5.94-10.608 5.94zM84.897 90.724a67.511 67.511 0 0 0-57.71 32.518l-7.5 12.368c-.546.899-.654 1.983-.297 2.973s1.132 1.756 2.126 2.101l94.936 32.916c3.697 1.277 7.852-.217 9.88-3.562l5.003-8.252c11.795-19.453 7.445-44.999-10.118-59.422a2 2 0 0 1 1.008-3.529c10.009-1.318 19.23-7.56 24.664-16.696 4.557-7.662 6.091-16.492 4.317-24.865-1.761-8.314-6.578-15.182-13.564-19.337-6.985-4.155-15.319-5.11-23.465-2.689-8.204 2.438-15.233 8-19.79 15.662-7.142 12.008-6.604 26.96 1.339 37.207.497.642.557 1.52.153 2.224a2.015 2.015 0 0 1-1.999.984 67.402 67.402 0 0 0-8.983-.601z" fill="#531CB3"/></svg></g></svg>