<svg xmlns="http://www.w3.org/2000/svg" viewBox="0 0 500 500" width="500" height="500"><g transform="translate(2.0 1.0) rotate(0.0 175.0 164.5) scale(0.603448275862069 0.6025641025641025)"><svg width="580" height="546" viewBox="0 0 580 546"><g fill="#FFC83D"><path d="M148.442 523.04C100.206 515 58.9 488.634 36.99 448.406a127.874 127.874 0 0 1-4.36-113.382c19.746-43.656 62.193-75 97.068-110.216a423.717 423.717 0 0 0 72.931-98.61c8.5-15.956 13.163-36.129 26.108-49.375 14-14.325 29.724-25.95 49.1-34.035 39.129-16.323 84.267-18.051 126.838-11.728 34.327 5.1 68.108 15.424 96.649 33.283s51.578 43.658 61.1 73.691 5.417 57.827-15.561 82.739c-30.477 36.192-92.77 43.638-104.948 91.849-5.426 21.484 1.271 57.395 15.761 75.177 10.531 12.925 25.982 23.735 29.583 39.418 10.609 46.213-71.089 66.808-107.159 75.568-44.864 10.9-90.626 23.438-136.915 27.2-31.477 2.553-63.813-1.785-94.743-6.945zm-2.451-392.519a87.35 87.35 0 0 0 5.248-10.12c6.866-15.687-5.924-27.755-20.9-30.822-16.751-3.428-39.939-2.892-50.939 11.977-6.4 8.646-8.617 19.8-8.42 30.552.172 9.517 2.1 18.874 4.262 28.107 5.107 21.755 33.487 5.8 44.259-1.62a91.985 91.985 0 0 0 26.49-28.074z"/></g></svg></g><g transform="translate(61.0 130.0) rotate(-20.88268396183196 248.5 145.0) scale(1.4574780058651027 1.4572864321608041)"><svg width="341" height="199" viewBox="0 0 341 199"><clipPath id="a"><path d="M0 0h340.163v198.368H0z"/></clipPath><g clip-path="url(#a)"><path d="M108.24 106.622s-28.25-5.745-52.82 6.309c-19.289 9.463-23.035 28.815-23.035 28.815 8.625-5.906 14.638-7.652 21.262-7.244 8.122.5 10.54 9.303-2.266 12.014-11.57 2.449-23.173 2.633-33.593 19.734 12.836-7.951 34.24-.64 47.921-2.603 22.207-3.185 37.945-12.713 49.506-33.132 11.422-20.174 4.807-23.514-6.975-23.893z" fill="#531CB3"/><path d="M84.801 105.441s-36.318 6.807-46.816 32.665c-2.204 1.875-5.599 3.638-5.599 3.638S36 109.026 84.801 105.441zm-24.806 33.668s4.016 7.66-3.065 10.036-27.839 2.979-38.78 16.424c6.334-9.488 14.078-15.36 27.346-18.037 11.156-2.251 15.031-1.918 14.5-8.423z" fill="#fff"/><path d="M17.788 167.247a.997.997 0 0 1-.853-1.52c9.431-15.479 19.989-17.473 30.199-19.399 1.346-.254 2.693-.508 4.04-.793 6.269-1.327 8.324-4.083 8.18-6.04-.156-2.12-2.582-3.801-5.769-3.997-6.798-.419-12.592 1.563-20.635 7.071a1.002 1.002 0 0 1-1.547-1.015c.038-.198 4.066-19.951 23.575-29.522 23.913-11.732 51.604-6.746 53.373-6.409 5.119.171 10.627.882 12.816 4.78 2.235 3.981.621 10.528-5.083 20.603-11.261 19.891-26.754 30.263-50.234 33.631-5.201.746-11.35.194-17.858-.391-10.766-.966-21.898-1.966-29.678 2.853a.995.995 0 0 1-.526.148zm34.115-33.802c.597 0 1.198.02 1.806.057 4.265.263 7.406 2.666 7.641 5.846.213 2.894-2.239 6.552-9.761 8.145-1.361.288-2.723.545-4.083.802-9.468 1.786-18.45 3.482-26.845 15.392 7.918-3.192 17.858-2.299 27.511-1.433 6.389.574 12.424 1.115 17.396.402 22.808-3.271 37.851-13.337 48.777-32.636 5.252-9.275 6.913-15.372 5.079-18.638-1.363-2.429-4.718-3.554-11.217-3.764a.939.939 0 0 1-.167-.019c-.278-.058-28.215-5.53-52.181 6.227-14.534 7.131-20.068 20.177-21.809 25.62 6.599-4.182 12.015-6.001 17.853-6.001z" fill="#531CB3"/><path d="M112.639 119.901c-15.85 22.781-32.822 19.093-47.133 11.235 14.563-2.461 18.198-21.959 42.22-15.444z" fill="#E2D8F4"/><path d="M106.886 118.196s-10.835-3.062-18.416 5.093c-2.822 3.082-6.775 7.732-6.775 7.732s5.69-.652 9.415-.814c7.081-.307 11.783-3.254 16.806-8.398 5.023-5.142-1.03-3.613-1.03-3.613z" fill="#531CB3"/><path d="m140.758 63.154-27.009-8.795L63.427 76.5l42.039 14.982z" fill="#fff"/><path d="m66.51 75.451 47.766-14.968 19.41 6.957 7.072-4.286-27.009-8.795z" fill="#E2D8F4"/><path d="M242.89 15.006 213.816 1l-33.9 14.915 45.4 23.412z" fill="#fff"/><path d="m182.095 15.201 31.461-8.749 17.677 8.619 6.182-3.241L213.816 1z" fill="#E2D8F4"/><path d="m275.965 90.18-9.318 30.897-33.9 14.915 13.414-49.289z" fill="#fff"/><path d="M232.747 136.992a1.002 1.002 0 0 1-.965-1.263l13.414-49.29a1.01 1.01 0 0 1 1.081-.73l29.804 3.477a.999.999 0 0 1 .841 1.282l-9.317 30.898a.998.998 0 0 1-.555.626l-33.9 14.915a.995.995 0 0 1-.403.085zm14.154-49.197-12.639 46.438 31.562-13.886 8.839-29.314z" fill="#531CB3"/><path d="m170.883 131.625-11.764 25.854-50.322 22.14 17.357-41.115z" fill="#fff"/><path d="M108.796 180.62a1.002 1.002 0 0 1-.921-1.389l17.358-41.115a1 1 0 0 1 .769-.6l44.729-6.879a1 1 0 0 1 1.062 1.403l-11.765 25.854a.997.997 0 0 1-.508.501l-50.322 22.141a.99.99 0 0 1-.402.084zm18.063-41.211-16.163 38.283 47.671-20.974 10.84-23.822zm-21.393-46.924c-.113 0-.227-.02-.336-.058l-42.04-14.98a1 1 0 0 1-.065-1.858l50.322-22.14a1 1 0 0 1 .712-.037l27.008 8.795a1 1 0 0 1 .317 1.731l-35.291 28.327a1 1 0 0 1-.627.22zM66.132 76.406l39.144 13.95 33.413-26.82-24.886-8.104zm159.184-36.08a.997.997 0 0 1-.457-.11l-45.4-23.413a1 1 0 0 1 .056-1.804L213.414.084c.268-.118.573-.11.836.014l29.074 14.006a1.003 1.003 0 0 1 .377 1.487l-17.573 24.321c-.194.267-.5.414-.812.414zm-43.079-24.34 42.773 22.057 16.37-22.655L213.797 2.1z" fill="#531CB3"/><path d="M273.966 95.687c28.625-12.594 52.675-44.637 65.096-78.365l.101-.045-.073-.029.028-.074-.101.045C305.76 3.587 265.888-.33 237.263 12.263c-24.955 10.981-85.625 45.014-140.399 76.173 4.034 22.049 13.143 41.61 26.087 59.293 59.979-19.329 126.061-41.062 151.015-52.042z" fill="#fff"/><path d="M338.023 16.277s-40.878-18.56-88.735-8.272c-13.391 2.497-46.832 21.262-46.832 21.262l-91.194 50.96 1.515 8.185S219.73 27.509 252.368 19.959c28.485-6.59 45.599-11.261 85.655-3.682z" fill="#E2D8F4"/><path d="M134.596 135.977s115.8-37.662 143.778-55.434c37.685-23.937 60.642-63.324 60.642-63.324s-20.954 51.769-52.347 71.105c0 0-24.395 12.686-45.235 19.603-20.84 6.916-102.181 33.729-102.181 33.729z" fill="#531CB3"/><path d="M326.001 44.316a.996.996 0 0 1-.689-.276c-15.11-14.396-14.532-34.2-14.5-35.036.021-.553.449-.952 1.037-.961a1 1 0 0 1 .961 1.037c-.007.195-.559 19.755 13.881 33.513a.999.999 0 0 1-.69 1.723zM140.41 142.841a.994.994 0 0 1-.665-.253c-22.104-19.673-29.398-61.77-29.47-62.193a.999.999 0 1 1 1.972-.332c.07.416 7.251 41.83 28.827 61.031a1 1 0 0 1-.664 1.747zm-34.612-46.307a3.993 3.993 0 0 1-3.986-3.91 3.965 3.965 0 0 1 1.113-2.84 3.963 3.963 0 0 1 2.797-1.222c1.048.012 2.072.376 2.84 1.114a3.96 3.96 0 0 1 1.221 2.794 3.962 3.962 0 0 1-1.113 2.842 3.965 3.965 0 0 1-2.795 1.221l-.077.001zm.002-5.973-.04.001a1.976 1.976 0 0 0-1.394.609 1.976 1.976 0 0 0-.555 1.414 1.99 1.99 0 0 0 1.986 1.949l.038-.002a1.982 1.982 0 0 0 1.947-2.023 1.976 1.976 0 0 0-.608-1.394 1.97 1.97 0 0 0-1.374-.554z" fill="#531CB3"/><path d="M230.804 100.308c19.711 0 35.689-15.979 35.689-35.69S250.515 28.93 230.804 28.93c-19.71 0-35.689 15.978-35.689 35.689s15.979 35.689 35.689 35.689z" fill="#fff"/><path d="M230.857 101.305c-14.114 0-27.595-8.187-33.634-21.913-3.947-8.97-4.165-18.938-.612-28.072 3.552-9.134 10.448-16.337 19.419-20.283 18.517-8.15 40.209.289 48.356 18.807 3.947 8.97 4.164 18.939.612 28.073-3.553 9.134-10.448 16.337-19.419 20.283a36.473 36.473 0 0 1-14.722 3.105zm-.102-71.376c-4.659 0-9.39.944-13.921 2.938-8.48 3.73-15.001 10.543-18.359 19.178-3.358 8.635-3.153 18.062.578 26.543 7.704 17.509 28.213 25.482 45.722 17.782 17.507-7.704 25.483-28.215 17.781-45.723-5.71-12.977-18.457-20.718-31.801-20.718zm14.422 67.356h.01z" fill="#531CB3"/><path d="M230.804 85.125c11.324 0 20.504-9.18 20.504-20.504 0-11.324-9.18-20.504-20.504-20.504S210.3 53.297 210.3 64.621c0 11.324 9.18 20.504 20.504 20.504z" fill="#531CB3"/><path d="M222.103 40.968a2.986 2.986 0 1 0 0-5.972 2.986 2.986 0 0 0 0 5.972z" fill="#E2D8F4"/><path d="M222.103 41.97a3.967 3.967 0 0 1-2.764-1.115 3.962 3.962 0 0 1-1.221-2.796 3.96 3.96 0 0 1 1.113-2.84 3.959 3.959 0 0 1 2.796-1.222h.078a3.99 3.99 0 0 1 3.983 3.908v.001a3.993 3.993 0 0 1-3.909 4.062l-.076.001zm.003-5.974-.04.001a1.976 1.976 0 0 0-1.394.608c-.367.382-.564.885-.554 1.415s.226 1.025.608 1.393c.381.368.846.541 1.415.555a1.988 1.988 0 0 0 1.339-3.417 1.973 1.973 0 0 0-1.374-.555z" fill="#531CB3"/><path d="M242.842 92.359a2.986 2.986 0 1 0 0-5.972 2.986 2.986 0 0 0 0 5.972z" fill="#E2D8F4"/><path d="M242.842 93.359a3.993 3.993 0 0 1-3.985-3.91 3.965 3.965 0 0 1 1.113-2.841 3.963 3.963 0 0 1 2.797-1.221c1.058.003 2.073.375 2.84 1.113s1.2 1.73 1.221 2.795a3.961 3.961 0 0 1-1.112 2.84 3.963 3.963 0 0 1-2.796 1.223h-.078zm.003-5.973h-.04a1.976 1.976 0 0 0-1.394.609 1.976 1.976 0 0 0-.555 1.415c.021 1.094.961 1.992 2.024 1.947a1.982 1.982 0 0 0 1.947-2.023v-.001a1.976 1.976 0 0 0-.608-1.393 1.97 1.97 0 0 0-1.374-.554z" fill="#531CB3"/><path d="M221.075 93.39a2.986 2.986 0 1 0 0-5.972 2.986 2.986 0 0 0 0 5.972z" fill="#E2D8F4"/><path d="M221.075 94.39a3.993 3.993 0 0 1-3.986-3.91 3.966 3.966 0 0 1 1.113-2.841 3.962 3.962 0 0 1 2.796-1.221c1.045-.004 2.072.374 2.84 1.112s1.201 1.731 1.222 2.796a3.962 3.962 0 0 1-1.113 2.841 3.965 3.965 0 0 1-2.795 1.222l-.077.001zm.001-5.973-.04.001a1.987 1.987 0 0 0-1.947 2.023 1.977 1.977 0 0 0 2.024 1.947 1.982 1.982 0 0 0 1.947-2.023v-.001a1.98 1.98 0 0 0-1.984-1.947z" fill="#531CB3"/><path d="M204.486 77.824a2.986 2.986 0 1 0 0-5.973 2.986 2.986 0 0 0 0 5.973z" fill="#E2D8F4"/><path d="M204.483 78.825a3.962 3.962 0 0 1-2.761-1.114 3.959 3.959 0 0 1-1.222-2.796 3.993 3.993 0 0 1 3.908-4.062l.077-.001a3.99 3.99 0 0 1 3.985 3.91 3.992 3.992 0 0 1-3.909 4.062h-.078zm.003-5.973h-.039a1.988 1.988 0 0 0-1.338 3.418 1.94 1.94 0 0 0 1.415.554 1.988 1.988 0 0 0 1.947-2.024 1.988 1.988 0 0 0-1.985-1.948z" fill="#531CB3"/><path d="M205.488 55.812a2.986 2.986 0 1 0 0-5.972 2.986 2.986 0 0 0 0 5.972z" fill="#E2D8F4"/><path d="M205.485 56.813a3.96 3.96 0 0 1-2.761-1.113 3.963 3.963 0 0 1-1.222-2.796 3.994 3.994 0 0 1 3.909-4.063l.078-.001c1.036 0 2.014.395 2.763 1.114a3.963 3.963 0 0 1 1.221 2.797 3.965 3.965 0 0 1-1.112 2.84 3.963 3.963 0 0 1-2.797 1.22l-.079.002zm.004-5.973h-.039a1.99 1.99 0 0 0-1.947 2.025c.01.529.227 1.024.608 1.393.383.367.901.54 1.415.554a1.976 1.976 0 0 0 1.394-.608c.367-.382.564-.884.554-1.414v-.001a1.976 1.976 0 0 0-.608-1.393 1.974 1.974 0 0 0-1.377-.556z" fill="#531CB3"/><path d="M256.414 56.87a2.986 2.986 0 1 0 0-5.972 2.986 2.986 0 0 0 0 5.972z" fill="#E2D8F4"/><path d="M256.41 57.871a3.962 3.962 0 0 1-2.761-1.114 3.962 3.962 0 0 1-1.221-2.796 3.961 3.961 0 0 1 1.113-2.84 3.965 3.965 0 0 1 2.795-1.222h.076a3.993 3.993 0 0 1 3.986 3.91 3.964 3.964 0 0 1-1.113 2.84 3.963 3.963 0 0 1-2.797 1.221l-.078.001zm.003-5.972-.038.001a1.982 1.982 0 0 0-1.947 2.023c.01.531.226 1.025.608 1.394.382.368.911.578 1.414.554a1.976 1.976 0 0 0 1.394-.608c.368-.382.564-.884.555-1.414a1.99 1.99 0 0 0-1.986-1.95z" fill="#531CB3"/><path d="M243.313 42.663a2.986 2.986 0 1 0 0-5.972 2.986 2.986 0 0 0 0 5.972z" fill="#E2D8F4"/><path d="M243.313 43.664a3.99 3.99 0 0 1-3.985-3.91 3.992 3.992 0 0 1 3.909-4.062c2.157-.032 4.02 1.712 4.062 3.909a3.992 3.992 0 0 1-3.909 4.062h-.077zm0-5.972h-.039a1.988 1.988 0 0 0-1.946 2.025c.021 1.094.91 1.927 2.024 1.946a1.988 1.988 0 0 0 1.946-2.024 1.987 1.987 0 0 0-1.985-1.947z" fill="#531CB3"/><path d="M257.006 77.019a2.986 2.986 0 1 0 0-5.972 2.986 2.986 0 0 0 0 5.972z" fill="#E2D8F4"/><path d="M257.001 78.02a3.962 3.962 0 0 1-2.761-1.114 3.962 3.962 0 0 1-1.221-2.796 3.99 3.99 0 0 1 3.908-4.062l.076-.001a3.993 3.993 0 0 1 3.986 3.909 3.962 3.962 0 0 1-1.113 2.84 3.96 3.96 0 0 1-2.797 1.223h-.078zm.004-5.973h-.039a1.986 1.986 0 0 0-1.338 3.418c.382.368.887.545 1.414.554a1.988 1.988 0 0 0 1.948-2.023 1.988 1.988 0 0 0-1.985-1.95zm-146.296 39.87a3.993 3.993 0 0 1-3.986-3.909 3.992 3.992 0 0 1 3.909-4.063c1.052.003 2.073.375 2.84 1.113a3.959 3.959 0 0 1 1.222 2.796 3.991 3.991 0 0 1-3.908 4.062l-.077.001zm.001-5.972-.04.001c-1.095.021-1.968.929-1.947 2.024s.968 1.935 2.024 1.946a1.986 1.986 0 0 0 1.946-2.023v-.001a1.976 1.976 0 0 0-.608-1.393 1.97 1.97 0 0 0-1.375-.554zm6.556 22.406a3.96 3.96 0 0 1-2.761-1.113 3.96 3.96 0 0 1-1.222-2.797 3.993 3.993 0 0 1 3.908-4.062c1.032.012 2.073.375 2.841 1.113s1.201 1.731 1.222 2.797a3.966 3.966 0 0 1-1.113 2.84 3.962 3.962 0 0 1-2.796 1.221l-.079.001zm.003-5.973-.039.001a1.988 1.988 0 0 0-1.338 3.417c.382.368.879.571 1.415.554a1.987 1.987 0 0 0-.038-3.972zm8.397 19.118a3.99 3.99 0 0 1-3.985-3.91 3.992 3.992 0 0 1 3.909-4.062c1.034-.009 2.072.375 2.84 1.113s1.201 1.731 1.222 2.796a3.993 3.993 0 0 1-3.908 4.062l-.078.001zm.002-5.973-.04.001a1.988 1.988 0 0 0-1.947 2.024c.021 1.094.916 1.937 2.024 1.946a1.988 1.988 0 0 0 1.338-3.417 1.97 1.97 0 0 0-1.375-.554z" fill="#531CB3"/><path d="M214.105 77.02s12.703 9.14 25.175.925c10.24-6.746 10.195-18.312 8.216-24.812 3.695 11.746 4.487 17.025-3.431 26.132s-26 5.147-29.96-2.244z" fill="#E2D8F4"/><path d="M122.951 148.729a1 1 0 0 1-.807-.409c-13.763-18.801-22.354-38.33-26.265-59.704a.998.998 0 0 1 .49-1.05c52.035-29.601 115.03-65.016 140.489-76.217 26.843-11.81 65.994-9.955 102.244 4.826.26 0 .515.094.709.28.189.183.295.429.305.682a1.073 1.073 0 0 1-.216.798c-13.592 36.725-38.685 66.855-65.533 78.668-25.453 11.198-94.126 33.714-151.11 52.078-.1.032-.203.048-.306.048zM97.977 88.953c3.872 20.577 12.174 39.436 25.356 57.602 56.802-18.309 124.962-40.666 150.23-51.782 26.232-11.543 50.794-40.984 64.25-76.963C302.199 3.423 263.9 1.639 237.664 13.179c-25.274 11.12-87.813 46.268-139.687 75.774zm175.989 6.735h.01z" fill="#531CB3"/><path d="M246.238 50.618s-11.019-11.802-26.943-3.35c-9.669 5.48-11.069 18.774-7.259 25.608-1.363-9.088 2.584-17.9 9.921-22.352 6.24-3.785 17.422-3.76 24.281.094z" fill="#fff"/><g fill="#531CB3"><path d="M230.836 86.124c-8.273 0-16.176-4.8-19.715-12.844-2.313-5.257-2.44-11.101-.358-16.454s6.124-9.576 11.382-11.89c10.852-4.773 23.567.172 28.342 11.024 4.775 10.853-.169 23.567-11.022 28.343a21.38 21.38 0 0 1-8.629 1.82zm-.06-41.006c-2.619 0-5.278.53-7.826 1.65-4.769 2.099-8.435 5.928-10.323 10.783s-1.772 10.156.325 14.925c4.33 9.843 15.861 14.326 25.708 9.998 9.843-4.332 14.328-15.864 9.997-25.708-3.21-7.296-10.378-11.648-17.881-11.648zm8.286 38.27h.01zm-72.949 57.346s-6.729-.482-10.064 6.098-9.845 6.909-12.084 6.952-7.093 1.765-10.252 6.917c-3.159 5.151-12.358 3.292-15.407 14.142 9.289-4.047 40.812-17.364 40.812-17.364zm103.994-34.782s-5.32-1.323-7.218 5.84c-1.899 7.163-2.908 7.59-6.165 7.653s-12.315 5.531-13.015 11.449c9.504-3.441 22.939-9.817 22.939-9.817zM25.023 132.219s-6.108 4.072-12.419 5.09C4.342 138.641 1 147.691 1 147.691s6.922-3.257 13.029-4.072c6.108-.814 10.18-6.718 10.994-11.4z"/><path d="M1 148.692a1.001 1.001 0 0 1-.939-1.347c.146-.392 3.645-9.614 12.384-11.023 6.014-.971 11.964-4.896 12.022-4.935a1 1 0 0 1 1.54 1.003c-.919 5.281-5.383 11.358-11.847 12.221-5.878.784-12.668 3.954-12.735 3.986a.99.99 0 0 1-.425.095zm22.367-14.322c-2.394 1.322-6.426 3.251-10.604 3.926-5.02.81-8.128 4.789-9.662 7.406 2.608-1.048 6.836-2.546 10.796-3.074 4.781-.637 8.055-4.665 9.47-8.258zm21.2 35.716s-10.77 7.179-21.896 8.974c-14.568 2.35-20.46 18.307-20.46 18.307s12.204-5.743 22.973-7.179c10.768-1.437 17.947-11.846 19.383-20.102z"/><path d="M2.211 198.367a1 1 0 0 1-.939-1.347c.25-.674 6.267-16.532 21.24-18.947 10.787-1.74 21.395-8.748 21.5-8.818a1 1 0 0 1 1.54 1.004c-1.574 9.043-9.2 19.449-20.237 20.92-10.485 1.398-22.558 7.036-22.679 7.094-.135.062-.28.094-.425.094zm40.838-26.164c-3.694 2.182-11.792 6.484-20.219 7.844-10.5 1.693-16.38 10.942-18.619 15.341 4.124-1.752 12.806-5.12 20.841-6.192 8.855-1.181 15.728-9.184 17.997-16.993z"/></g></g></svg></g></svg>