<svg xmlns="http://www.w3.org/2000/svg" viewBox="0 0 1000 930" width="1000" height="930"><path fill="#FFF" d="M0 0h1000v930H0z"/><g transform="translate(4.0 10.0) rotate(0.0 496.5 385.0) scale(1.0834508071872178 1.081682479834348)"><svg width="916.516" height="711.854" viewBox="0 0 916.516 711.854"><path d="M914.516 51.159V660.7c0 27.144-22.012 49.156-49.156 49.156H51.16c-27.154 0-49.157-22.012-49.157-49.156V51.159c0-27.154 22.002-49.157 49.157-49.157h814.199c27.144 0 49.157 22.003 49.157 49.157z" fill="#fff"/><g fill="#E2D8F4"><path d="M914.516 289.342V660.7c0 27.144-22.012 49.156-49.156 49.156H301.131c11.257-5.112 23.89-12.319 38.116-22.533 34.331-24.667 63.569-59.863 104.723-69.468 28.58-6.675 58.319.285 87.626 1.868 55.773 3.018 124.946-17.411 148.915-47.033 33.731-41.695 20.223-151.402 80.597-205.189 21.806-19.427 50.385-28.963 77.077-40.83 20.43-9.084 47.043-24.361 76.331-37.329zm0-238.183v17.008H2.004V51.159c0-27.154 22.002-49.157 49.157-49.157H865.36c1.268 0 2.537.049 3.785.148.403.029.806.059 1.209.108.492.049.983.098 1.465.167a18.9 18.9 0 0 1 1.022.147l.747.118c.256.039.501.088.757.138.305.049.61.108.914.177.226.039.452.088.678.147a43.58 43.58 0 0 1 2.871.718c.393.108.777.226 1.16.344.61.187 1.209.394 1.799.6.344.118.688.246 1.022.373.433.167.855.334 1.278.511.246.098.492.197.727.305.334.147.659.285.993.443a46.288 46.288 0 0 1 5.673 3.067c.728.457 1.438.941 2.14 1.436.24.169.48.337.716.51.607.445 1.206.901 1.792 1.371.284.228.561.463.84.697.172.144.348.284.518.43l-.052-.025c10.466 9.006 17.102 22.333 17.102 37.227zM15.63 694.647C7.195 685.819 2.004 673.874 2.004 660.7V68.167h7.432v603.721a44.687 44.687 0 0 0 6.194 22.759z"/></g><path d="M897.468 13.957a44.719 44.719 0 0 0-20.498-4.945H54.415c-24.844 0-44.978 20.134-44.978 44.978v14.177H2.004V51.159c0-27.154 22.002-49.157 49.157-49.157H865.36c1.278 0 2.537.049 3.785.148.403.029.806.059 1.209.108.492.049.983.098 1.465.167a18.9 18.9 0 0 1 1.022.147l.747.118c.256.039.501.088.757.138.305.049.61.108.914.177.226.039.452.088.678.147a43.58 43.58 0 0 1 2.871.718c.393.108.777.226 1.16.344.61.187 1.209.394 1.799.6.344.118.688.246 1.022.373.433.167.855.334 1.278.511.246.098.492.197.727.305.334.147.659.285.993.443a50.007 50.007 0 0 1 5.673 3.067 50.117 50.117 0 0 1 6.008 4.444z" fill="#fff"/><path d="M864.516 711.854H52c-28.673 0-52-23.327-52-52V52C0 23.327 23.327 0 52 0h812.516c28.673 0 52 23.327 52 52v607.854c0 28.673-23.327 52-52 52zM52 4C25.533 4 4 25.533 4 52v607.854c0 26.467 21.533 48 48 48h812.516c26.467 0 48-21.533 48-48V52c0-26.467-21.533-48-48-48z" fill="#531CB3"/><path d="M914.516 70.169H2a2 2 0 0 1-2-2V52C0 23.327 23.327 0 52 0h812.516c28.673 0 52 23.327 52 52v16.169a2 2 0 0 1-2 2zM4 66.169h908.516V52c0-26.467-21.533-48-48-48H52C25.533 4 4 25.533 4 52z" fill="#531CB3"/><circle cx="57.88" cy="35.902" fill="#fff" r="15.607"/><path d="M57.88 53.509c-9.709 0-17.607-7.898-17.607-17.607 0-9.708 7.898-17.607 17.607-17.607 9.708 0 17.607 7.898 17.607 17.607 0 9.708-7.899 17.607-17.607 17.607zm0-31.214c-7.503 0-13.607 6.104-13.607 13.607s6.104 13.607 13.607 13.607 13.607-6.104 13.607-13.607-6.104-13.607-13.607-13.607z" fill="#531CB3"/><circle cx="111.904" cy="35.902" fill="#E2D8F4" r="15.607"/><path d="M111.904 53.509c-9.708 0-17.607-7.898-17.607-17.607 0-9.708 7.898-17.607 17.607-17.607s17.607 7.898 17.607 17.607c0 9.708-7.899 17.607-17.607 17.607zm0-31.214c-7.503 0-13.607 6.104-13.607 13.607s6.104 13.607 13.607 13.607 13.607-6.104 13.607-13.607-6.104-13.607-13.607-13.607z" fill="#531CB3"/><circle cx="165.928" cy="35.902" fill="#E2D8F4" r="15.607"/><path d="M165.928 53.509c-9.708 0-17.607-7.898-17.607-17.607 0-9.708 7.898-17.607 17.607-17.607s17.607 7.898 17.607 17.607c0 9.708-7.898 17.607-17.607 17.607zm0-31.214c-7.503 0-13.607 6.104-13.607 13.607s6.104 13.607 13.607 13.607 13.607-6.104 13.607-13.607-6.104-13.607-13.607-13.607z" fill="#531CB3"/></svg></g><g transform="translate(440.0 275.0) rotate(0.0 122.0 120.5) scale(1.4359107146009757 1.4421552141989458)"><svg width="169.927" height="167.111" viewBox="0 0 169.927 167.111"><path d="m167.756 121.406-8.813-85.05a24.88 24.88 0 0 0-8.041-15.902l.002-.002-.022-.017a25.22 25.22 0 0 0-3.002-2.338L131.853 5.615l-7.466 9.205-84.561 8.762c-13.725 1.422-23.698 13.7-22.276 27.425l8.778 84.719-7.894 9.733 17.26 13.67c.49.418.992.819 1.513 1.198l.03.023.001-.002a24.888 24.888 0 0 0 17.238 4.627l85.05-8.812c17.393-1.802 30.032-17.363 28.23-34.757z" fill="#531CB3"/><path d="M51.89 167.109a26.926 26.926 0 0 1-15.746-5.083 26.052 26.052 0 0 1-1.748-1.375l-17.204-13.624a2.003 2.003 0 0 1-.311-2.828l7.373-9.091-8.693-83.896c-.743-7.169 1.351-14.198 5.895-19.793C26 25.823 32.451 22.333 39.62 21.591l83.736-8.677 6.944-8.561a2 2 0 0 1 2.782-.318l15.969 12.437a27.306 27.306 0 0 1 3.204 2.507 26.935 26.935 0 0 1 8.678 17.17l8.812 85.05c1.913 18.463-11.551 35.04-30.014 36.953l-85.05 8.812c-.931.097-1.863.145-2.791.145zm-13.519-8.408.041.029a22.957 22.957 0 0 0 15.858 4.256l85.05-8.812c16.269-1.687 28.133-16.294 26.448-32.562l-8.812-85.05a22.948 22.948 0 0 0-7.397-14.629l-.024-.022a23.193 23.193 0 0 0-2.758-2.146 2.572 2.572 0 0 1-.124-.089L132.171 8.398l-6.231 7.682a1.997 1.997 0 0 1-1.347.729l-84.561 8.762c-6.106.633-11.601 3.605-15.471 8.371s-5.654 10.753-5.021 16.859l8.778 84.719a1.997 1.997 0 0 1-.436 1.466l-6.62 8.162 15.674 12.414c.532.452.984.811 1.435 1.139z" fill="#531CB3"/><path d="m126.434 143.55-83.825 8.686c-15.897 1.647-30.12-9.905-31.767-25.802L2.156 42.609c-1.647-15.897 9.905-30.12 25.802-31.767l83.825-8.686c15.897-1.647 30.12 9.905 31.767 25.802l8.686 83.825c1.647 15.898-9.905 30.12-25.802 31.767z" fill="#E2D8F4"/><g fill="#531CB3"><path d="M39.568 154.393c-7.074.001-13.88-2.405-19.447-6.927-6.415-5.21-10.417-12.606-11.268-20.826L.167 42.815C-1.591 25.846 10.784 10.611 27.752 8.852L111.577.167c8.22-.848 16.28 1.548 22.694 6.759 6.415 5.21 10.417 12.606 11.268 20.826l8.686 83.824c1.758 16.969-10.616 32.204-27.585 33.963l-83.825 8.686c-1.086.113-2.17.168-3.247.168zM114.817 4c-.938 0-1.881.049-2.827.146l-83.825 8.685C13.389 14.362 2.615 27.628 4.146 42.403l8.686 83.825c.742 7.157 4.226 13.597 9.812 18.134 5.585 4.536 12.602 6.624 19.76 5.885l83.825-8.686c14.775-1.531 25.55-14.797 24.019-29.572l-8.686-83.824c-.742-7.157-4.226-13.598-9.812-18.134C126.903 6.094 120.976 4 114.817 4zm11.617 139.55h.01z"/><path d="M125.509 58.388c-1.772-17.105-16.898-24.038-26.59-23.034-10.635 1.102-21.457 7.222-24.228 21.319-5.603-13.229-17.449-17-28.084-15.898-9.693 1.004-23.075 10.891-21.303 27.996 1.77 17.079 22.043 43.588 56.35 55.8l.007.071.068-.043.075.028-.007-.071c31.074-18.986 45.482-49.089 43.712-66.168z"/><path d="M81.661 126.641a1.99 1.99 0 0 1-1.128-.349c-20.033-7.225-33.191-18.347-40.72-26.434-9.51-10.216-15.524-21.472-16.499-30.882-1.084-10.463 3.136-17.516 6.867-21.592 4.382-4.786 10.446-8.001 16.22-8.599 11.883-1.224 21.918 3.394 27.735 12.528 3.821-10.132 12.695-16.718 24.577-17.949 10.871-1.126 26.927 6.872 28.786 24.817 1.948 18.798-14.113 49.283-44.365 67.899a2.143 2.143 0 0 1-.931.485c-.178.051-.36.076-.542.076zm-31.672-84.04c-1.217 0-2.295.071-3.177.163-4.756.492-9.999 3.298-13.682 7.321-3.177 3.47-6.769 9.493-5.838 18.479 1.531 14.772 19.356 41.107 54.207 53.823 31.503-19.591 43.55-49.021 42.02-63.794-1.591-15.351-15.189-22.201-24.395-21.251-5.707.592-19.323 3.697-22.471 19.716a2 2 0 0 1-3.804.395c-5.384-12.711-16.198-14.852-22.86-14.852z"/></g><path d="M122.65 53.096c-1.772-17.105-16.898-24.038-26.59-23.034-10.635 1.102-21.457 7.222-24.228 21.319-5.603-13.229-17.449-17-28.084-15.898-9.693 1.004-23.075 10.891-21.303 27.996 1.77 17.079 22.043 43.588 56.35 55.8l.007.071.068-.043.075.028-.007-.071c31.074-18.986 45.481-49.088 43.712-66.168z" fill="#FFC83D"/><path d="M78.802 121.349a1.99 1.99 0 0 1-1.124-.347c-20.033-7.226-33.194-18.349-40.723-26.436-9.51-10.216-15.524-21.472-16.499-30.882-1.084-10.464 3.135-17.518 6.866-21.593 4.382-4.786 10.446-8.001 16.22-8.599 11.883-1.228 21.918 3.394 27.735 12.528 3.821-10.132 12.695-16.718 24.577-17.949 10.873-1.136 26.927 6.871 28.786 24.817 1.948 18.799-14.112 49.285-44.367 67.901a2.124 2.124 0 0 1-.93.483 1.887 1.887 0 0 1-.541.077zM47.13 37.309c-1.217 0-2.295.071-3.177.163-4.756.492-9.999 3.298-13.682 7.321-3.177 3.47-6.769 9.493-5.838 18.479 1.531 14.771 19.356 41.107 54.207 53.824 31.503-19.592 43.55-49.022 42.02-63.795-1.591-15.351-15.188-22.2-24.395-21.251-5.708.592-19.323 3.697-22.471 19.716a2 2 0 0 1-3.804.395C64.606 39.45 53.792 37.309 47.13 37.309z" fill="#531CB3"/></svg></g><g transform="translate(312.0 153.0) rotate(-23.365326114462565 236.0 425.0) scale(2.487286907490844 2.4924931969597446)"><svg width="189.765" height="341.024" viewBox="0 0 189.765 341.024"><path d="M140.937 338.779c-4.846-.957-8.929-4.647-10.14-9.768L96.938 185.757c-1.651-6.987 2.674-13.99 9.661-15.641 6.986-1.654 13.99 2.673 15.642 9.661L156.1 323.031c1.651 6.987-2.674 13.99-9.661 15.641a12.94 12.94 0 0 1-5.502.107z" fill="#E2D8F4"/><g fill="#531CB3"><path d="M143.441 341.026c-.966 0-1.932-.095-2.892-.284a15.037 15.037 0 0 1-11.698-11.27l-33.86-143.254c-1.901-8.05 3.1-16.146 11.148-18.048a14.898 14.898 0 0 1 11.332 1.834 14.91 14.91 0 0 1 6.716 9.313l33.859 143.254c1.902 8.049-3.099 16.146-11.147 18.048a15 15 0 0 1-3.458.407zm-2.116-4.208c1.543.305 3.109.274 4.653-.091 5.903-1.395 9.57-7.332 8.176-13.235l-33.859-143.254a10.938 10.938 0 0 0-4.926-6.83 10.918 10.918 0 0 0-8.309-1.345c-5.903 1.395-9.571 7.332-8.177 13.235l33.86 143.253a11.03 11.03 0 0 0 8.581 8.266z"/><path d="M102.203 208.032c2.146-7.128 14.004-15.67 23.32-14.371l-3.282-13.884-25.303 5.981 5.265 22.275z"/><path d="M102.204 210.032h-.062a2 2 0 0 1-1.886-1.539l-5.266-22.275a1.999 1.999 0 0 1 1.486-2.406l25.304-5.981a2.002 2.002 0 0 1 2.406 1.486l3.281 13.885a2 2 0 0 1-2.223 2.441c-8.201-1.143-19.205 6.58-21.128 12.967a2 2 0 0 1-1.914 1.423zm-2.86-22.788 3.604 15.249c4.323-5.676 12.516-10.683 20.019-10.95l-2.212-9.359-21.411 5.061z"/></g><path d="M143.685 15.869C100.047-11.084 42.822 2.442 15.869 46.08S2.442 146.943 46.08 173.896s100.863 13.427 127.816-30.211 13.427-100.863-30.211-127.816zm15.56 118.767c-20.284 32.841-61.618 44.747-95.823 29.05a76.647 76.647 0 0 1-8.294-4.441c-24.724-15.271-37.585-42.479-35.724-69.585.806-11.867 4.43-23.709 11.114-34.531s15.651-19.365 25.901-25.398c23.404-13.801 53.491-14.482 78.215.789a76.544 76.544 0 0 1 7.684 5.428c29.349 23.558 37.209 65.848 16.925 98.689z" fill="#E2D8F4"/><path d="M94.727 189.729c-17.002 0-34.201-4.56-49.698-14.132C.523 148.108-13.321 89.535 14.168 45.029 41.656.523 100.229-13.322 144.736 14.168c44.506 27.489 58.351 86.062 30.86 130.568-17.917 29.009-49.044 44.993-80.869 44.993zm.304-185.694c-30.487 0-60.297 15.307-77.461 43.096-26.33 42.63-13.069 98.733 29.561 125.063 42.632 26.331 98.733 13.069 125.063-29.56 26.33-42.63 13.069-98.733-29.56-125.063C127.792 8.404 111.313 4.035 95.03 4.035zm-.251 168.511a77.026 77.026 0 0 1-32.192-7.043 78.902 78.902 0 0 1-8.51-4.557c-24.601-15.194-38.651-42.562-36.668-71.423.847-12.477 4.792-24.734 11.408-35.445 6.615-10.711 15.81-19.726 26.588-26.071 24.92-14.694 55.681-14.383 80.28.811a78.929 78.929 0 0 1 7.885 5.569c30.47 24.457 37.939 68.006 17.375 101.3-14.547 23.552-39.968 36.859-66.166 36.859zm.104-151.344c-12.921 0-25.851 3.412-37.448 10.251C47.215 37.47 38.496 46.02 32.22 56.18S22.203 77.964 21.4 89.796c-1.881 27.377 11.446 53.336 34.779 67.748a74.736 74.736 0 0 0 8.077 4.325c33.676 15.454 73.781 3.296 93.287-28.283 19.504-31.579 12.422-72.883-16.476-96.078a75.06 75.06 0 0 0-7.483-5.286c-11.885-7.34-25.287-11.019-38.7-11.019z" fill="#531CB3"/><path d="M134.637 30.518a76.229 76.229 0 0 0-4.311-2.452c32.237 22.915 41.567 67.233 20.487 101.362s-64.886 45.628-99.808 27.062a76.001 76.001 0 0 0 4.123 2.757c35.548 21.956 82.164 10.938 104.12-24.61s10.938-82.163-24.61-104.119z" fill="#531CB3"/><path d="M94.736 172.564c-14.241 0-28.238-3.943-40.659-11.615a77.964 77.964 0 0 1-4.231-2.829 2 2 0 0 1 2.098-3.396c34.15 18.155 76.829 6.583 97.169-26.347 20.338-32.929 11.577-76.275-19.945-98.681a2 2 0 0 1 2.098-3.396 77.927 77.927 0 0 1 4.424 2.516c36.429 22.501 47.761 70.443 25.26 106.872-10.899 17.647-28.019 29.993-48.204 34.764a78.255 78.255 0 0 1-18.008 2.112zm-14.889-5.54c10.431 2.181 21.297 2.06 31.977-.464 19.146-4.525 35.383-16.236 45.722-32.974 16.657-26.969 13.765-60.591-4.737-84.199 14.656 24.239 15.438 55.621-.294 81.092-15.785 25.557-44.33 38.912-72.667 36.545z" fill="#531CB3"/></svg></g></svg>