<svg xmlns="http://www.w3.org/2000/svg" viewBox="0 0 600 630" width="600" height="630"><g transform="translate(1.0 105.0) rotate(0.0 208.0 210.0) scale(0.3281939942076916 0.327994570908912)"><svg width="1267.543" height="1280.509" viewBox="0 0 1267.543 1280.509"><path d="M292.867 17.093C201.494 45.831 118.168 99.585 65.625 181.021 6.887 272.06-9.75 388.835 5.146 494.822c28.826 205.106 178.735 269.515 244.98 591.59 17.431 84.747 69.968 160.811 155.824 183.471 89.696 23.674 190.019 7.559 266.159-46.019 84.917-59.754 129.018-170.244 227.914-208.287 92.378-35.535 200.589-13.797 283.102-76.851 75.153-57.429 92.283-159.251 81.469-248.019-29.228-239.939-290.32-566.141-685.016-667.207-92.04-23.568-194.45-35.424-286.711-6.407z" fill="#fece2f"/></svg></g><g transform="translate(132.0 2.0) rotate(0.0 233.0 313.0) scale(0.7420311270911425 0.7432216640804294)"><svg width="628.006" height="842.279" viewBox="0 0 628.006 842.279"><circle cx="310.924" cy="531.355" fill="#531CB3" r="308.874"/><path d="M311.586 842.308c-17.74 0-35.597-1.519-53.438-4.592-81.832-14.098-153.277-59.218-201.172-127.05C9.079 642.834-9.534 560.41 4.563 478.578s59.218-153.276 127.05-201.172c67.832-47.895 150.256-66.507 232.088-52.412 81.832 14.097 153.276 59.218 201.172 127.05s66.51 150.256 52.412 232.089c-14.097 81.832-59.218 153.276-127.05 201.172-53.043 37.452-115.021 57.003-178.649 57.003zm-1.314-617.905c-62.815 0-123.987 19.296-176.352 56.271C66.961 327.953 22.421 398.478 8.505 479.257S12.963 641.4 60.243 708.359s117.805 111.5 198.584 125.416c80.778 13.914 162.143-4.459 229.102-51.738 66.96-47.279 111.5-117.805 125.416-198.584l1.971.34-1.971-.34c13.916-80.779-4.458-162.143-51.738-229.102-47.28-66.96-117.805-111.5-198.584-125.416a310.658 310.658 0 0 0-52.751-4.532z" fill="#531CB3"/><circle cx="317.082" cy="495.612" fill="#fff" r="308.874"/><path d="M317.744 806.565c-17.74 0-35.598-1.518-53.439-4.592-81.832-14.097-153.276-59.217-201.172-127.05-47.896-67.832-66.51-150.255-52.413-232.087S69.938 289.56 137.77 241.664s150.257-66.512 232.088-52.412c81.832 14.097 153.277 59.217 201.172 127.05 47.896 67.832 66.509 150.256 52.412 232.088l-1.971-.34 1.971.34c-14.097 81.832-59.218 153.276-127.05 201.172-53.043 37.453-115.019 57.003-178.648 57.003zm-1.316-617.904c-62.815 0-123.985 19.296-176.35 56.271-66.959 47.279-111.5 117.805-125.416 198.584C.746 524.294 19.12 605.657 66.4 672.617c47.28 66.959 117.805 111.499 198.584 125.415 80.778 13.916 162.142-4.46 229.102-51.738 66.96-47.279 111.5-117.805 125.415-198.584s-4.458-162.143-51.738-229.102S449.959 207.109 369.18 193.193a310.66 310.66 0 0 0-52.752-4.532z" fill="#531CB3"/><path d="M277.207 727.076c-61.826-10.651-115.804-44.741-151.991-95.99-36.186-51.249-50.249-113.522-39.599-175.348s44.741-115.804 95.989-151.99c51.249-36.186 113.522-50.25 175.349-39.599 61.826 10.651 115.804 44.741 151.991 95.99s50.25 113.522 39.599 175.348-44.741 115.804-95.99 151.99c-51.248 36.186-113.521 50.249-175.348 39.599z" fill="#E2D8F4"/><path d="M317.584 732.545a239.674 239.674 0 0 1-40.716-3.498c-62.353-10.742-116.79-45.122-153.285-96.808-36.494-51.686-50.677-114.488-39.936-176.841 10.741-62.352 45.121-116.789 96.806-153.284 51.686-36.495 114.489-50.677 176.842-39.936 62.352 10.741 116.79 45.121 153.285 96.807s50.678 114.488 39.936 176.841c-10.741 62.352-45.121 116.789-96.807 153.284-40.416 28.538-87.642 43.435-136.125 43.435zm-40.037-7.44c61.3 10.559 123.043-3.385 173.855-39.263 50.813-35.879 84.612-89.396 95.172-150.696 10.56-61.299-3.383-123.041-39.262-173.854-35.879-50.812-89.397-84.612-150.697-95.172-61.3-10.561-123.042 3.383-173.855 39.262-50.812 35.879-84.612 89.396-95.172 150.696-10.56 61.299 3.384 123.042 39.261 173.854 35.88 50.813 89.398 84.613 150.698 95.173z" fill="#531CB3"/><path d="M289.771 654.149c-42.347-7.295-79.318-30.644-104.103-65.747-24.785-35.101-34.417-77.754-27.122-120.101s30.644-79.318 65.746-104.103 77.754-34.417 120.101-27.122 79.318 30.644 104.103 65.747c24.785 35.101 34.418 77.754 27.123 120.101s-30.644 79.318-65.746 104.102c-35.103 24.785-77.756 34.418-120.102 27.123z" fill="#fff"/><path d="M317.427 658.525c-9.294 0-18.649-.795-27.996-2.405-42.873-7.387-80.304-31.026-105.397-66.564s-34.845-78.721-27.459-121.594c7.385-42.873 31.025-80.304 66.564-105.397 35.538-25.093 78.721-34.845 121.594-27.459 42.873 7.385 80.303 31.025 105.397 66.564 25.094 35.537 34.846 78.72 27.46 121.594-7.386 42.873-31.025 80.303-66.564 105.396-27.791 19.623-60.263 29.865-93.599 29.865zm-27.317-6.347c41.82 7.207 83.943-2.309 118.609-26.786s57.725-60.988 64.929-102.809-2.308-83.942-26.786-118.607c-24.478-34.666-60.989-57.726-102.809-64.93s-83.943 2.309-118.608 26.785c-34.666 24.478-57.725 60.989-64.929 102.81-7.204 41.819 2.308 83.941 26.785 118.607s60.989 57.725 102.809 64.93z" fill="#531CB3"/><path d="M302.334 581.222c-22.867-3.939-42.832-16.548-56.216-35.504-13.384-18.954-18.585-41.987-14.646-64.854s16.548-42.832 35.504-56.216c18.954-13.383 41.987-18.585 64.854-14.645 22.867 3.939 42.832 16.548 56.216 35.504 13.384 18.955 18.586 41.987 14.646 64.854-3.939 22.867-16.547 42.831-35.502 56.215-18.957 13.383-41.989 18.585-64.856 14.646z" fill="#E2D8F4"/><g fill="#531CB3"><path d="M317.271 584.505a89.893 89.893 0 0 1-15.277-1.312c-23.393-4.029-43.817-16.928-57.51-36.321-13.692-19.389-19.013-42.951-14.983-66.347 4.03-23.393 16.929-43.817 36.321-57.51 19.392-13.691 42.953-19.015 66.347-14.982 23.394 4.03 43.818 16.929 57.51 36.321 13.692 19.391 19.013 42.953 14.983 66.347s-16.928 43.816-36.32 57.509c-15.163 10.706-32.881 16.295-51.071 16.295zm-.37-173.785c-17.372 0-34.289 5.336-48.772 15.562-18.519 13.076-30.837 32.581-34.686 54.922-3.849 22.342 1.233 44.844 14.309 63.36 13.076 18.52 32.581 30.839 54.921 34.687 22.342 3.85 44.844-1.232 63.363-14.31 18.518-13.075 30.836-32.58 34.685-54.921 3.849-22.34-1.233-44.842-14.309-63.36-13.076-18.519-32.581-30.837-54.922-34.687a85.889 85.889 0 0 0-14.589-1.253z"/><path d="m338.213 513.661-19.424 9.774-57.317-5.781 48-19.304z"/><path d="M318.789 525.435c-.067 0-.134-.003-.201-.01l-57.316-5.78a2.002 2.002 0 0 1-.546-3.846l48-19.305a2.001 2.001 0 0 1 1.687.09l28.74 15.311a2.002 2.002 0 0 1-.042 3.552l-19.424 9.774a1.979 1.979 0 0 1-.898.214zm-49.035-8.955 48.656 4.906 15.454-7.776-24.51-13.057z"/></g><path d="m338.213 513.661-19.424 9.774-43.41-38.005 59.457-29.118z" fill="#fff"/><path d="M318.789 525.435c-.475 0-.945-.169-1.318-.495l-43.41-38.005a1.999 1.999 0 0 1 .438-3.301l59.457-29.118a2.003 2.003 0 0 1 2.877 1.678l3.376 57.349a1.998 1.998 0 0 1-1.098 1.903l-19.424 9.774a1.972 1.972 0 0 1-.898.215zm-39.832-39.53 40.135 35.139 17.046-8.578-3.123-53.035z" fill="#531CB3"/><path d="M292.46 538.671a2.001 2.001 0 0 1-.899-3.788l71.937-36.177a2 2 0 0 1 2.685.889 2.002 2.002 0 0 1-.888 2.686l-71.937 36.177c-.29.144-.596.213-.898.213zm24.623-41.058a2.001 2.001 0 0 1-1.83-1.191L119.82 55.058a2.001 2.001 0 0 1 3.658-1.619L318.91 494.802a2.001 2.001 0 0 1-1.827 2.811z" fill="#531CB3"/><path d="m168.533 161.336-49.81-23.072L71.839 31.177l49.809 23.072z" fill="#E2D8F4"/><path d="M168.532 163.336c-.284 0-.571-.061-.84-.186l-49.81-23.071a1.993 1.993 0 0 1-.991-1.013L70.007 31.979a1.999 1.999 0 0 1 2.673-2.616l49.81 23.071c.443.205.796.565.991 1.013l46.885 107.087a1.999 1.999 0 0 1-1.834 2.802zm-48.281-26.568 44.333 20.534L120.12 55.745 75.788 35.211z" fill="#531CB3"/><path d="m168.533 161.336 16.833-52.249L138.481 2l-16.833 52.249z" fill="#E2D8F4"/><path d="M168.532 163.336a2.001 2.001 0 0 1-1.832-1.198L119.816 55.05a2.002 2.002 0 0 1-.072-1.415l16.833-52.249a2 2 0 0 1 3.735-.189l46.884 107.087c.196.447.221.95.072 1.415l-16.833 52.249a2 2 0 0 1-1.903 1.388zM123.784 54.14l44.464 101.558 14.982-46.503L138.766 7.637z" fill="#531CB3"/><path d="M136.352 89.833c-.287 0-.573-.062-.839-.185L85.73 66.637a2 2 0 0 1 1.679-3.631l47.875 22.129 18.26-45.244a2 2 0 0 1 3.709 1.499l-19.047 47.192a1.999 1.999 0 0 1-1.854 1.251z" fill="#531CB3"/><path d="M152.484 126.484c-.287 0-.573-.062-.839-.185l-49.783-23.011a2 2 0 0 1 1.679-3.631l47.876 22.129 18.26-45.243a2 2 0 0 1 3.709 1.499l-19.047 47.191a1.999 1.999 0 0 1-1.855 1.251z" fill="#531CB3"/></svg></g></svg>