<svg width="911" height="447" xmlns="http://www.w3.org/2000/svg" xmlns:xlink="http://www.w3.org/1999/xlink" overflow="hidden"><defs><clipPath id="clip0"><rect x="284" y="74" width="911" height="447"/></clipPath></defs><g clip-path="url(#clip0)" transform="translate(-284 -74)"><path d="M643.011 352.228C676.794 408.097 765.035 510.007 852.354 518.991 939.672 527.975 1118.92 475.896 1166.92 406.131 1214.92 336.366 1194.8 151.496 1140.34 100.4 1085.88 49.3044 921.95 85.6609 840.17 99.5577 758.39 113.455 682.701 141.108 649.657 183.781 616.612 226.454 609.228 296.36 643.011 352.228Z" fill="#F5F1FB" fill-rule="evenodd"/><path d="M380 185.5C380 157.61 402.61 135 430.5 135 458.39 135 481 157.61 481 185.5 481 213.39 458.39 236 430.5 236 402.61 236 380 213.39 380 185.5Z" stroke="#E2D8F4" stroke-width="8" stroke-miterlimit="8" fill="#FFFFFF" fill-rule="evenodd"/><path d="M537 282C537 237.265 573.265 201 618 201 662.735 201 699 237.265 699 282 699 326.735 662.735 363 618 363 573.265 363 537 326.735 537 282Z" stroke="#E2D8F4" stroke-width="8" stroke-miterlimit="8" fill="#FFFFFF" fill-rule="evenodd"/><path d="M772 313C772 277.102 801.102 248 837 248 872.898 248 902 277.102 902 313 902 348.898 872.898 378 837 378 801.102 378 772 348.898 772 313Z" stroke="#E2D8F4" stroke-width="8" stroke-miterlimit="8" fill="#FFFFFF" fill-rule="evenodd"/><path d="M980 345C980 304.683 1012.91 272 1053.5 272 1094.09 272 1127 304.683 1127 345 1127 385.317 1094.09 418 1053.5 418 1012.91 418 980 385.317 980 345Z" stroke="#E2D8F4" stroke-width="8" stroke-miterlimit="8" fill="#FFFFFF" fill-rule="evenodd"/><path d="M419 412C419 374.997 448.997 345 486 345 523.003 345 553 374.997 553 412 553 449.003 523.003 479 486 479 448.997 479 419 449.003 419 412Z" stroke="#E2D8F4" stroke-width="8" stroke-miterlimit="8" fill="#FFFFFF" fill-rule="evenodd"/><path d="M933 156C933 121.758 959.863 94 993 94 1026.14 94 1053 121.758 1053 156 1053 190.242 1026.14 218 993 218 959.863 218 933 190.242 933 156Z" stroke="#E2D8F4" stroke-width="8" stroke-miterlimit="8" fill="#FFFFFF" fill-rule="evenodd"/><path d="M772.891 313.426 699.5 282.5" stroke="#E2D8F4" stroke-width="3" stroke-miterlimit="8" fill="none" fill-rule="evenodd"/><path d="M0 0 27.0102 25.9091" stroke="#E2D8F4" stroke-width="3" stroke-miterlimit="8" fill="none" fill-rule="evenodd" transform="matrix(-1 0 0 1 561.51 338.5)"/><path d="M0 0 67.6771 67.1302" stroke="#E2D8F4" stroke-width="3" stroke-miterlimit="8" fill="none" fill-rule="evenodd" transform="matrix(1 0 0 -1 884.5 266.63)"/><path d="M902.5 313.5 979.789 345.788" stroke="#E2D8F4" stroke-width="3" stroke-miterlimit="8" fill="none" fill-rule="evenodd"/><text fill="#531CB3" font-family="Outfit Medium,Outfit Medium_MSFontService,sans-serif" font-weight="500" font-size="19" transform="translate(991.234 341)">temps partagé <tspan font-size="19" x="21.5867" y="22">associatif</tspan><tspan font-size="19" x="-441.332" y="-64">co</tspan><tspan font-size="19" x="-421.666" y="-64">-</tspan><tspan font-size="19" x="-412.999" y="-64">recrutement </tspan><tspan font-size="19" x="-410.166" y="-42">solidaire</tspan><tspan font-size="19" x="-582.397" y="-162">break</tspan><tspan font-size="19" x="-593.397" y="-140">solidaire</tspan><tspan font-size="19" x="-558.224" y="67">transition fin</tspan><tspan font-size="19" x="-551.39" y="89">de carrière</tspan><tspan font-size="19" x="-203.105" y="-33">mécénat de </tspan><tspan font-size="19" x="-209.692" y="-11">compétences</tspan><tspan font-size="19" x="-48.5764" y="-187">intermission</tspan><tspan font-size="19" x="-35.5764" y="-165">pro </tspan>bono</text><path d="M560.987 223.334 481.5 184.5" stroke="#E2D8F4" stroke-width="3" stroke-miterlimit="8" fill="none" fill-rule="evenodd"/><path d="M560.918 223.984 541.5 167.5" stroke="#E2D8F4" stroke-width="3" stroke-miterlimit="8" fill="none" fill-rule="evenodd"/><path d="M530 160.5C530 154.149 534.925 149 541 149 547.075 149 552 154.149 552 160.5 552 166.851 547.075 172 541 172 534.925 172 530 166.851 530 160.5Z" fill="#531CB3" fill-rule="evenodd"/><path d="M0 0 234.159 37.5154" stroke="#E2D8F4" stroke-width="3" stroke-miterlimit="8" fill="none" fill-rule="evenodd" transform="matrix(-1 0 0 1 537.659 280.5)"/><path d="M285 319C285 310.716 291.716 304 300 304 308.284 304 315 310.716 315 319 315 327.284 308.284 334 300 334 291.716 334 285 327.284 285 319Z" fill="#531CB3" fill-rule="evenodd"/><path d="M0 0 8.69543 46.1035" stroke="#E2D8F4" stroke-width="3" stroke-miterlimit="8" fill="none" fill-rule="evenodd" transform="matrix(1 0 0 -1 829.5 424.604)"/><path d="M0 0 82.8813 13.0798" stroke="#E2D8F4" stroke-width="3" stroke-miterlimit="8" fill="none" fill-rule="evenodd" transform="matrix(-1 0 0 1 951.381 199.5)"/><path d="M865 209.5C865 203.149 869.925 198 876 198 882.075 198 887 203.149 887 209.5 887 215.851 882.075 221 876 221 869.925 221 865 215.851 865 209.5Z" fill="#531CB3" fill-rule="evenodd"/><path d="M815 423C815 414.716 821.716 408 830 408 838.284 408 845 414.716 845 423 845 431.284 838.284 438 830 438 821.716 438 815 431.284 815 423Z" fill="#531CB3" fill-rule="evenodd"/></g></svg>